<?xml version="1.0" encoding="UTF-8"?>
<svg xmlns="http://www.w3.org/2000/svg" width="44.21910095214844" height="16.14825439453125" viewBox="154.78281250000109 729.0341145833331 44.21910095214844 16.14825439453125" preserveAspectRatio="none">
  <g>
    <defs>
      <path id="s-Path_16-8264f" d="M154.78281250000109 740.7721442222593 L156.32639327049364 740.7721442222593 L156.32639327049364 732.0025175730385 L160.24473525683192 740.7721442222593 L161.3303320646297 740.7721442222593 L165.23171008428045 732.0195138931273 L165.23171008428045 740.7721442222593 L166.775290854773 740.7721442222593 L166.775290854773 729.0341145833331 L165.12993706862238 729.0341145833331 L160.78752826849728 738.7366407712298 L156.44513025283922 729.0341145833331 L154.78281250000109 729.0341145833331 L154.78281250000109 740.7721442222593 Z M168.8164453665426 736.0904776573179 C168.8164453665426 738.9741147359209 170.7332118352265 740.9248091379799 173.20973528226327 740.9248091379799 C174.92294493516397 740.9248091379799 176.12728950977433 740.0427691459652 176.6870464881272 739.0419706026709 L176.6870464881272 740.7721442222593 L178.24760200977434 740.7721442222593 L178.24760200977434 731.4767100969947 L176.6870464881272 731.4767100969947 L176.6870464881272 733.1729342142738 C176.14425347646187 732.2060851732888 174.956872868539 731.3240451812741 173.22669924895078 731.3240451812741 C170.7332118352265 731.3240451812741 168.8164453665426 733.1898873964943 168.8164453665426 736.0904776573179 Z M176.6870464881272 736.1074739774066 C176.6870464881272 738.2955992062883 175.22827476660518 739.5678212165828 173.53202908039202 739.5678212165828 C171.83577260971177 739.5678212165828 170.3939648548773 738.278646024068 170.3939648548773 736.0904776573179 C170.3939648548773 733.902352428436 171.83577260971177 732.6640799204505 173.53202908039202 732.6640799204505 C175.22827476660518 732.6640799204505 176.6870464881272 733.9532119750975 176.6870464881272 736.1074739774066 Z M182.3998806556077 733.1898873964943 L182.3998806556077 731.4767100969947 L180.85628910064807 731.4767100969947 L180.85628910064807 745.1823873202004 L182.3998806556077 745.1823873202004 L182.3998806556077 739.0589237848915 C182.97660160064808 740.0088196436561 184.1809353907914 740.9248091379799 185.87719186147163 740.9248091379799 C188.37067927519593 740.9248091379799 190.2874349594127 738.9741147359209 190.2874349594127 736.0904776573179 C190.2874349594127 733.1898873964943 188.37067927519593 731.3240451812741 185.87719186147163 731.3240451812741 C184.1809353907914 731.3240451812741 182.95963763396054 732.2060851732888 182.3998806556077 733.1898873964943 Z M188.70992625554513 736.0904776573179 C188.70992625554513 738.278646024068 187.26811850071064 739.5678212165828 185.55489806334288 739.5678212165828 C183.87561634381723 739.5678212165828 182.3998806556077 738.2955992062883 182.3998806556077 736.1074739774066 C182.3998806556077 733.9532119750975 183.87561634381723 732.6640799204505 185.55489806334288 732.6640799204505 C187.26811850071064 732.6640799204505 188.70992625554513 733.902352428436 188.70992625554513 736.0904776573179 Z M199.0019206285488 738.244739659627 C198.93407554626575 734.9200610160825 193.53999787171793 736.124427159627 193.53999787171793 733.9193056106565 C193.53999787171793 733.1729342142738 194.21850261688343 732.6301304181414 195.35499132474374 732.6301304181414 C196.5932530482621 732.6301304181414 197.3056749423356 733.308645947774 197.3735200246186 734.2415886243183 L198.91711157957823 734.2415886243183 C198.81533856392016 732.4266059557593 197.45833985805623 731.3240451812741 195.40587244033924 731.3240451812741 C193.3364518404018 731.3240451812741 191.99641710122538 732.4944618225096 191.99641710122538 733.9193056106565 C191.99641710122538 737.379652849833 197.4922570069642 736.1752867062883 197.4922570069642 738.244739659627 C197.4922570069642 739.0080642382302 196.81376304626573 739.6186807632444 195.5924652894349 739.6186807632444 C194.28634769916644 739.6186807632444 193.48911675612243 738.9402083714799 193.40429692268484 738.0411720593769 L191.8098242521297 738.0411720593769 C191.91159726778778 739.7374393145241 193.43822485605986 740.9248091379799 195.60942925612244 740.9248091379799 C197.66188588937234 740.9248091379799 199.0019206285488 739.771345678965 199.0019206285488 738.244739659627 Z "></path>
    </defs>
    <g>
      <use xmlns:xlink="http://www.w3.org/1999/xlink" xlink:href="#s-Path_16-8264f" fill="#000000" fill-opacity="1.0" filter="none"></use>
    </g>
  </g>
</svg>
