<?xml version="1.0" encoding="UTF-8"?>
<svg xmlns="http://www.w3.org/2000/svg" width="282.396728515625" height="25.42034912109375" viewBox="537.1593872156172 460.8262111376089 282.396728515625 25.42034912109375" preserveAspectRatio="none">
  <g>
    <defs>
      <path id="s-Path_33-0a187" d="M546.9420515767296 461.16334208460864 L546.9420515767296 485.8366252587085 L543.2073826740278 485.8366252587085 L543.2073826740278 464.8980109873105 L543.06321228057 464.8980109873105 L537.1593872156172 468.75355524682516 L537.1593872156172 465.18708513649096 L543.3162222619076 461.16334208460864 L546.9420515767296 461.16334208460864 Z M562.2065557278679 486.24657476470213 C560.3031786781526 486.2380763902223 558.6768831476413 485.73624090635167 557.3268926351126 484.7403780897823 C555.9776354848486 483.74451527321287 554.945751639393 482.29491690954876 554.2311548208323 480.39080649756875 C553.5159109179203 478.4874294478534 553.1589791897724 476.19459389660074 553.1589791897724 473.5116527594595 C553.1589791897724 470.8371668578412 553.5159109179203 468.5520963188035 554.2311548208323 466.65721764356795 C554.954206874916 464.7616056060675 555.9896712537818 463.3155014979003 557.3389284040458 462.31963868133073 C558.6966407898327 461.3237758647613 560.3187518415393 460.8262111376089 562.2065557278679 460.8262111376089 C564.0937125298453 460.8262111376089 565.7122430481417 461.32800348252283 567.0615001984057 462.331674450264 C568.4107573486696 463.32753726683336 569.44337455639 464.773598236044 570.1579282359938 466.6692102735443 C570.8809802900776 468.55636707552173 571.242139635987 470.8371668578412 571.242139635987 473.5116527594595 C571.242139635987 476.20240204777247 570.884517684531 478.4994652167866 570.1699640049271 480.4028422665018 C569.4554103253231 482.29845430400223 568.4227931176029 483.74805266766634 567.0735359673388 484.7524138587155 C565.7242788170748 485.74827667528496 564.1021677653683 486.24657476470213 562.2065557278679 486.24657476470213 Z M562.2065557278679 483.0292713703009 C563.8774138007018 483.0292713703009 565.1821515475999 482.2143333383401 566.1221925541352 480.5837670511106 C567.0699985728853 478.9532007638812 567.5435349011282 476.59608816707123 567.5435349011282 473.5116527594595 C567.5435349011282 471.46406217732954 567.3265459486765 469.7331546767 566.8933014060381 468.319577341922 C566.46708851335 466.8982349949291 565.8528760471461 465.821788607151 565.0499737841185 465.09097154085237 C564.2548365333058 464.351656100074 563.3070305145558 463.9827317419496 562.2065557278679 463.9827317419496 C560.5441960295138 463.9827317419496 559.2387680593076 464.8018973916719 558.2909620405575 466.44022869111643 C557.3431560218072 468.07855999056073 556.865392075803 470.43571572632743 556.8575839246313 473.5116527594595 C556.8575839246313 475.5683888004204 557.0703452593214 477.30710445222167 557.4958247897449 478.7284467992147 C557.9298026946481 480.14202413399244 558.5440151608519 481.2142429040092 559.3391524116645 481.94505997030774 C560.134289662477 482.66811202439146 561.0898606934422 483.0292713703009 562.2065557278679 483.0292713703009 Z M577.0427763163941 486.0656068411366 C576.3847346701324 486.0656068411366 575.8178887784399 485.8323976409471 575.3443524501971 485.36662632491937 C574.8701258986465 484.8930468577199 574.6333361650467 484.3226635715739 574.6333361650467 483.6561666897892 C574.6333361650467 482.9974348202195 574.8701258986465 482.4348596852451 575.3443524501971 481.9690883692174 C575.8178887784399 481.49550890201795 576.3847346701324 481.25876230737504 577.0427763163941 481.25876230737504 C577.7015081859638 481.25876230737504 578.2676207153917 481.49550890201795 578.7418904058991 481.9690883692174 C579.2154267341418 482.4348596852451 579.4522164677416 482.9974348202195 579.4522164677416 483.6561666897892 C579.4522164677416 484.09790960690736 579.3398394854082 484.5036314951393 579.1150855207417 484.87255585326375 C578.8980965682902 485.23444856143794 578.6090224191097 485.5235227106184 578.2478630732003 485.74051166307004 C577.8866605883339 485.95676725325677 577.4845192335122 486.0656068411366 577.0427763163941 486.0656068411366 Z M591.9248967549022 486.24657476470213 C590.0215197051867 486.2380763902223 588.3944908124107 485.73624090635167 587.0452336621469 484.7403780897823 C585.6959765118828 483.74451527321287 584.6640926664272 482.29491690954876 583.9494958478665 480.39080649756875 C583.2342519449546 478.4874294478534 582.8773202168067 476.19459389660074 582.8773202168067 473.5116527594595 C582.8773202168067 470.8371668578412 583.2342519449546 468.5520963188035 583.9494958478665 466.65721764356795 C584.6718576786421 464.7616056060675 585.708012280816 463.3155014979003 587.0572694310799 462.31963868133073 C588.4150249558236 461.3237758647613 590.0370928685735 460.8262111376089 591.9248967549022 460.8262111376089 C593.8120535568796 460.8262111376089 595.4305840751758 461.32800348252283 596.7798412254398 462.331674450264 C598.1290983757038 463.32753726683336 599.1610253601161 464.773598236044 599.876269263028 466.6692102735443 C600.5986310938038 468.55636707552173 600.9605238019778 470.8371668578412 600.9605238019778 473.5116527594595 C600.9605238019778 476.20240204777247 600.6028587115652 478.4994652167866 599.8883050319613 480.4028422665018 C599.1730179900925 482.29845430400223 598.1411341446369 483.74805266766634 596.7918769943731 484.7524138587155 C595.4426198441091 485.74827667528496 593.8205087924025 486.24657476470213 591.9248967549022 486.24657476470213 Z M591.9248967549022 483.0292713703009 C593.595064604428 483.0292713703009 594.9004925746341 482.2143333383401 595.8405335811694 480.5837670511106 C596.7876062376547 478.9532007638812 597.2618759281622 476.59608816707123 597.2618759281622 473.5116527594595 C597.2618759281622 471.46406217732954 597.0448869757106 469.7331546767 596.6109090708075 468.319577341922 C596.1854295403841 466.8982349949291 595.5712602131371 465.821788607151 594.7676245878447 465.09097154085237 C593.972487337032 464.351656100074 593.02537154159 463.9827317419496 591.9248967549022 463.9827317419496 C590.2618468332399 463.9827317419496 588.9571090863418 464.8018973916719 588.0093030675916 466.44022869111643 C587.0614970488415 468.07855999056073 586.5837331028373 470.43571572632743 586.5759249516655 473.5116527594595 C586.5759249516655 475.5683888004204 586.7886862863556 477.30710445222167 587.2141658167791 478.7284467992147 C587.6481437216822 480.14202413399244 588.2623561878861 481.2142429040092 589.0574934386987 481.94505997030774 C589.8526306895113 482.66811202439146 590.8082017204764 483.0292713703009 591.9248967549022 483.0292713703009 Z M613.8240430372917 486.24657476470213 C611.9206659875764 486.2380763902223 610.2943704570652 485.73624090635167 608.9451133068012 484.7403780897823 C607.5958561565373 483.74451527321287 606.5631958098602 482.29491690954876 605.8486421302562 480.39080649756875 C605.1340884506523 478.4874294478534 604.7764664991963 476.19459389660074 604.7764664991963 473.5116527594595 C604.7764664991963 470.8371668578412 605.1340884506523 468.5520963188035 605.8486421302562 466.65721764356795 C606.5716941843399 464.7616056060675 607.6078487865136 463.3155014979003 608.9571059367777 462.31963868133073 C610.3141280992565 461.3237758647613 611.9369293742711 460.8262111376089 613.8240430372917 460.8262111376089 C615.7118900625773 460.8262111376089 617.3297303575655 461.32800348252283 618.6789875078296 462.331674450264 C620.0289348814015 463.32753726683336 621.0608618658139 464.773598236044 621.7754155454178 466.6692102735443 C622.4984675995014 468.55636707552173 622.8596269454108 470.8371668578412 622.8596269454108 473.5116527594595 C622.8596269454108 476.20240204777247 622.5026952172628 478.4994652167866 621.787451314351 480.4028422665018 C621.0728976347469 482.29845430400223 620.0409706503347 483.74805266766634 618.6910232767626 484.7524138587155 C617.341722987542 485.74827667528496 615.7196550747922 486.24657476470213 613.8240430372917 486.24657476470213 Z M613.8240430372917 483.0292713703009 C615.4949011101256 483.0292713703009 616.7996388570238 482.2143333383401 617.739679863559 480.5837670511106 C618.6874858823091 478.9532007638812 619.161022210552 476.59608816707123 619.161022210552 473.5116527594595 C619.161022210552 471.46406217732954 618.9440332581004 469.7331546767 618.5107887154619 468.319577341922 C618.0852660460818 466.8982349949291 617.4703633565699 465.821788607151 616.6674610935423 465.09097154085237 C615.8723238427299 464.351656100074 614.9245178239796 463.9827317419496 613.8240430372917 463.9827317419496 C612.1616833389377 463.9827317419496 610.8562553687315 464.8018973916719 609.9084493499813 466.44022869111643 C608.9606433312312 468.07855999056073 608.4828362462703 470.43571572632743 608.4750712340552 473.5116527594595 C608.4750712340552 475.5683888004204 608.6878325687453 477.30710445222167 609.1133120991688 478.7284467992147 C609.5472900040719 480.14202413399244 610.161459331319 481.2142429040092 610.9565965821315 481.94505997030774 C611.7517338329442 482.66811202439146 612.708038226174 483.0292713703009 613.8240430372917 483.0292713703009 Z M647.0636014090296 471.9341042500755 L647.0636014090296 475.0658630932418 L636.1239502278873 475.0658630932418 L636.1239502278873 471.9341042500755 L647.0636014090296 471.9341042500755 Z M670.1551084559842 461.16334208460864 L670.1551084559842 485.8366252587085 L666.4204395532824 485.8366252587085 L666.4204395532824 464.8980109873105 L666.2762691598246 464.8980109873105 L660.3724440948719 468.75355524682516 L660.3724440948719 465.18708513649096 L666.5292791411623 461.16334208460864 L670.1551084559842 461.16334208460864 Z M676.8300423728399 485.8366252587085 L676.8300423728399 483.1381109581806 L685.1785952557614 474.48771479488084 C686.0698892411693 473.5484071506103 686.8049339252293 472.7249707441698 687.3830822235903 472.01818207678093 C687.9697288964312 471.30293817386894 688.4072441957878 470.62440552315115 688.6963183449683 469.9819370402761 C688.9853924941489 469.3394685574011 689.1302531109147 468.6567082889218 689.1302531109147 467.93365623483817 C689.1302531109147 467.11449058511585 688.9373356963296 466.4077019177271 688.5521048125537 465.8132902326713 C688.1662268444265 465.2111135354006 687.6403629616462 464.74956983713435 686.9738660798616 464.42801205352123 C686.307369198077 464.0986461187364 685.5560179883655 463.9339415818656 684.7206320909053 463.9339415818656 C683.8371462566691 463.9339415818656 683.0660374047661 464.114909505431 682.4079957585045 464.47606885134053 C681.7492638889348 464.8379184205579 681.2432007873027 465.3475189166436 680.8898064536082 466.0062507862133 C680.5364121199137 466.66498265578286 680.3597149530665 467.4360915076858 680.3597149530665 468.319577341922 L676.8052806116655 468.319577341922 C676.8052806116655 466.81765142372046 677.1509099331449 465.50441530234264 677.8414352138393 464.37995525570193 C678.5326938567983 463.2554520701045 679.4804998755485 462.38395886584476 680.6848532700899 461.76551878187945 C681.8899400268959 461.1393136856991 683.2589548193513 460.8262111376089 684.7934075109423 460.8262111376089 C686.3433902269632 460.8262111376089 687.7089107639218 461.13508606793755 688.8892357595535 461.753526151903 C690.0780591296649 462.36415808469656 691.0053741439589 463.1995871211135 691.6726043880083 464.25977012219687 C692.3391012697929 465.31149788775735 692.6720045990313 466.5003212578688 692.6720045990313 467.8255500092231 C692.6720045990313 468.7408292545839 692.4995350499455 469.6370410810614 692.153905728466 470.5120285408178 C691.8167747814662 471.38774936283903 691.226590714172 472.3631211749524 690.3833966655401 473.43956756273064 C689.5402026169081 474.5082057993369 688.3669524101834 475.8051785340201 686.8650264919819 477.3311328511313 L681.9620252236249 482.4631157019163 L681.9620252236249 482.6440404865251 L693.0699183360915 482.6440404865251 L693.0699183360915 485.8366252587085 L676.8300423728399 485.8366252587085 Z M700.0572214387726 486.0656068411366 C699.3984895692029 486.0656068411366 698.8323770397751 485.8323976409471 698.3587975725757 485.36662632491937 C697.8845710210248 484.8930468577199 697.6477812874252 484.3226635715739 697.6477812874252 483.6561666897892 C697.6477812874252 482.9974348202195 697.8845710210248 482.4348596852451 698.3587975725757 481.9690883692174 C698.8323770397751 481.49550890201795 699.3984895692029 481.25876230737504 700.0572214387726 481.25876230737504 C700.7159533083423 481.25876230737504 701.2820658377701 481.49550890201795 701.7563355282776 481.9690883692174 C702.2298718565203 482.4348596852451 702.4666615901201 482.9974348202195 702.4666615901201 483.6561666897892 C702.4666615901201 484.09790960690736 702.3542846077868 484.5036314951393 702.1295306431202 484.87255585326375 C701.9125416906686 485.23444856143794 701.6234675414883 485.5235227106184 701.2623081955787 485.74051166307004 C700.9004154874045 485.95676725325677 700.4989643558907 486.0656068411366 700.0572214387726 486.0656068411366 Z M714.9372280683998 486.24657476470213 C713.0359648275653 486.2380763902223 711.4103595203619 485.73624090635167 710.06041214679 484.7403780897823 C708.7104216342613 483.74451527321287 707.6785377888057 482.29491690954876 706.9646743325097 480.39080649756875 C706.2486970673331 478.4874294478534 705.8910751158771 476.19459389660074 705.8910751158771 473.5116527594595 C705.8910751158771 470.8371668578412 706.2486970673331 468.5520963188035 706.9646743325097 466.65721764356795 C707.6856125777126 464.7616056060675 708.7245712120753 463.3155014979003 710.0745185856472 462.31963868133073 C711.4315838870829 461.3237758647613 713.0501144053792 460.8262111376089 714.9372280683998 460.8262111376089 C716.8243848703772 460.8262111376089 718.4429153886736 461.32800348252283 719.7928627622456 462.331674450264 C721.1428532747743 463.32753726683336 722.1747802591866 464.773598236044 722.8886005765258 466.6692102735443 C723.6166136106358 468.55636707552173 723.9770395942804 470.8371668578412 723.9770395942804 473.5116527594595 C723.9770395942804 476.20240204777247 723.6166136106358 478.4994652167866 722.9027501543397 480.4028422665018 C722.1888866980438 482.29845430400223 721.1570028525882 483.74805266766634 719.8070123400595 484.7524138587155 C718.4570649664875 485.74827667528496 716.8314165203275 486.24657476470213 714.9372280683998 486.24657476470213 Z M714.9372280683998 483.0292713703009 C716.6123137589952 483.0292713703009 717.9128238881318 482.2143333383401 718.852864894667 480.5837670511106 C719.7999375511525 478.9532007638812 720.273517018352 476.59608816707123 720.273517018352 473.5116527594595 C720.273517018352 471.46406217732954 720.06144590697 469.7331546767 719.6232403843053 468.319577341922 C719.1991844394546 466.8982349949291 718.5842817499428 465.821788607151 717.7856071046766 465.09097154085237 C716.9869324594106 464.351656100074 716.0398166639684 463.9827317419496 714.9372280683998 463.9827317419496 C713.2762919556185 463.9827317419496 711.9687501765316 464.8018973916719 711.0216343810894 466.44022869111643 C710.0745185856472 468.07855999056073 709.6009822574044 470.43571572632743 709.5868326795905 473.5116527594595 C709.5868326795905 475.5683888004204 709.8059785798796 477.30710445222167 710.2300345247303 478.7284467992147 C710.6611652584879 480.14202413399244 711.2760679479998 481.2142429040092 712.0747425932659 481.94505997030774 C712.866342449625 482.66811202439146 713.8205330339741 483.0292713703009 714.9372280683998 483.0292713703009 Z M736.8406451075077 486.24657476470213 C734.9322639388095 486.2380763902223 733.3067017705629 485.73624090635167 731.9567112580341 484.7403780897823 C730.6067207455054 483.74451527321287 729.57483690005 482.29491690954876 728.860973443754 480.39080649756875 C728.1471099874581 478.4874294478534 727.7937156537636 476.19459389660074 727.7937156537636 473.5116527594595 C727.7937156537636 470.8371668578412 728.1471099874581 468.5520963188035 728.860973443754 466.65721764356795 C729.5889864778638 464.7616056060675 730.6208703233194 463.3155014979003 731.970860835848 462.31963868133073 C733.3279261372838 461.3237758647613 734.9534883055303 460.8262111376089 736.8406451075077 460.8262111376089 C738.7277156315718 460.8262111376089 740.3462892888248 461.32800348252283 741.6962798013535 462.331674450264 C743.0462703138822 463.32753726683336 744.0781541593378 464.773598236044 744.7920176156338 466.6692102735443 C745.5129558608365 468.55636707552173 745.873424983438 470.8371668578412 745.873424983438 473.5116527594595 C745.873424983438 476.20240204777247 745.5200306497436 478.4994652167866 744.7990924045407 480.4028422665018 C744.0852289482448 482.29845430400223 743.0532588248756 483.74805266766634 741.7033545902605 484.7524138587155 C740.3533640777317 485.74827667528496 738.7347904204787 486.24657476470213 736.8406451075077 486.24657476470213 Z M736.8406451075077 483.0292713703009 C738.5086560091961 483.0292713703009 739.816197788283 482.2143333383401 740.7561956558616 480.5837670511106 C741.7033545902605 478.9532007638812 742.1768477795465 476.59608816707123 742.1768477795465 473.5116527594595 C742.1768477795465 471.46406217732954 741.9577881571709 469.7331546767 741.5266574234132 468.319577341922 C741.1026014785625 466.8982349949291 740.4876125111372 465.821788607151 739.6819493548776 465.09097154085237 C738.8832747096116 464.351656100074 737.9361157752126 463.9827317419496 736.8406451075077 463.9827317419496 C735.1726342058193 463.9827317419496 733.872080937726 464.8018973916719 732.9250082812405 466.44022869111643 C731.9779356247551 468.07855999056073 731.4972813686486 470.43571572632743 731.4902065797417 473.5116527594595 C731.4902065797417 475.5683888004204 731.7022776911238 477.30710445222167 732.1263336359744 478.7284467992147 C732.564539158639 480.14202413399244 733.179441848151 481.2142429040092 733.9710417045101 481.94505997030774 C734.7697163497761 482.66811202439146 735.7238637951685 483.0292713703009 736.8406451075077 483.0292713703009 Z M764.2922927910797 485.8366252587085 L757.4505405284724 461.16334208460864 L761.3661773547396 461.16334208460864 L766.1723748041501 480.2706645030204 L766.4055840043396 480.2706645030204 L771.4026281984113 461.16334208460864 L775.2828910801436 461.16334208460864 L780.2798489963017 480.2827002719537 L780.5130581964912 480.2827002719537 L785.3051060680876 461.16334208460864 L789.2348924721688 461.16334208460864 L782.3789906317478 485.8366252587085 L778.6330624613342 485.8366252587085 L773.438183011608 467.3555079364771 L773.2473362669467 467.3555079364771 L768.0523705393072 485.8366252587085 L764.2922927910797 485.8366252587085 Z M796.3522163904938 461.16334208460864 L796.3522163904938 485.8366252587085 L792.6274263088878 485.8366252587085 L792.6274263088878 461.16334208460864 L796.3522163904938 461.16334208460864 Z M801.773316529416 485.8366252587085 L801.773316529416 461.16334208460864 L810.8060964053464 461.16334208460864 C812.5589184960049 461.16334208460864 814.0077834974043 461.4524162337892 815.1598524763647 462.03056453215027 C816.3048466664184 462.6009478182963 817.167194411847 463.37628428796074 817.7325735790102 464.35588371783547 C818.3051138129938 465.3277181354954 818.5877602576188 466.4239653044217 818.5877602576188 467.6445820856576 C818.5877602576188 468.6729716756165 818.4040745797779 469.540194123158 818.0223810904554 470.246982790547 C817.64776239004 470.94600644572097 817.1388952562193 471.5078913573874 816.5027681999863 471.9341042500755 C815.8807907215676 472.35108540601925 815.1881516319927 472.65642294189445 814.4319257201685 472.8493834954363 L814.4319257201685 473.0904008467976 C815.2517384542418 473.13069263240186 816.050413099508 473.3957383826728 816.827863378053 473.88553809761004 C817.6194632344123 474.3675728003325 818.2697398684588 475.0538704632654 818.7856817911866 475.94581153302454 C819.2945489250076 476.8371055184324 819.5561435587385 477.92131691842553 819.5561435587385 479.19844573300384 C819.5561435587385 480.4593974388009 819.2592612583862 481.59166563661324 818.665582935595 482.5959836887058 C818.0788931237976 483.59184650527516 817.167194411847 484.3827561383263 815.93730275491 484.96940281116713 C814.7074973758861 485.5475511095282 813.138447240982 485.8366252587085 811.2301523501972 485.8366252587085 L801.773316529416 485.8366252587085 Z M805.491031822115 482.6440404865251 L810.8696832275957 482.6440404865251 C812.6508044738821 482.6440404865251 813.930047097341 482.29845430400223 814.7004225869794 481.607929023308 C815.4708843545309 480.9173606036569 815.8524915659398 480.05367555056887 815.8524915659398 479.01752094839514 C815.8524915659398 478.2386470842772 815.6617310991919 477.5240934046733 815.2658880320557 476.87312654731863 C814.8701312428329 476.2228930522285 814.3117405866633 475.70479418166326 813.5766527636465 475.3189162135362 C812.8557145184436 474.93368532976035 811.9934530509283 474.7407679151752 810.996856872094 474.7407679151752 L805.491031822115 474.7407679151752 L805.491031822115 482.6440404865251 Z M805.491031822115 471.8372572921721 L810.480914949366 471.8372572921721 C811.3149635391674 471.8372572921721 812.0711894509914 471.6768235120196 812.7356156628521 471.3552225894497 C813.4070303857063 471.03435502914454 813.9441966751549 470.5841137375469 814.3400397422913 470.00596543918584 C814.7357965315139 469.42005212860977 814.940792853989 468.7287934856507 814.940792853989 467.93365623483817 C814.940792853989 466.91376501935906 814.5803237313878 466.0585783407507 813.8664602750916 465.36800992109966 C813.1525968187959 464.6767944170974 812.0570398731775 464.33185531892593 810.5798757161506 464.33185531892593 L805.491031822115 464.33185531892593 L805.491031822115 471.8372572921721 Z "></path>
    </defs>
    <g>
      <use xmlns:xlink="http://www.w3.org/1999/xlink" xlink:href="#s-Path_33-0a187" fill="#000000" fill-opacity="1.0" filter="none"></use>
    </g>
  </g>
</svg>
