<?xml version="1.0" encoding="UTF-8"?>
<svg xmlns="http://www.w3.org/2000/svg" width="18.3914794921875" height="17.5491943359375" viewBox="872.8618657192277 807.8390625 18.3914794921875 17.5491943359375" preserveAspectRatio="none">
  <g>
    <defs>
      <path id="s-Path_81-8264f" d="M875.6430836268459 824.3139320373537 C875.6147851852769 824.4411887486779 875.6077105748847 824.5754337946576 875.6430836268459 824.7026905059815 C875.6712957926785 824.8369355519612 875.7349672862086 824.9571176528932 875.8197763351792 825.056075922648 C875.9045853841498 825.1620225270592 876.017606598953 825.2468315760295 876.1377886998845 825.3034284591677 C876.2650454112085 825.359939066569 876.3992904571884 825.388237508138 876.5406963892968 825.388237508138 C876.7243774322861 825.388237508138 876.9010701406195 825.3387152353923 877.0495506831204 825.2397569656373 L882.0534571238553 822.0592882156373 L887.0644381749825 825.2397569656373 C887.2199933278754 825.3387152353923 887.403760646601 825.388237508138 887.5945162999825 825.388237508138 C887.7782836187081 825.381162897746 887.9620509374337 825.3246522903444 888.1175198145901 825.2186194101971 C888.2660003570908 825.1125865300496 888.3791078476305 824.9641922632852 888.4426930654246 824.7945741653443 C888.506278283218 824.6248697916667 888.5133528936104 824.4411887486779 888.4568422862088 824.271484375 L886.7747242518459 818.6526907602945 L890.9446031479237 815.0764752070108 C891.0789344696399 814.9562931060791 891.1778927393949 814.8078988393147 891.220254126012 814.6452690760295 C891.2697763987577 814.4756509780882 891.2627017883655 814.2989582697551 891.2061911809639 814.1364147822064 C891.1425196874335 813.9738712946573 891.0364868072865 813.8325516382854 890.8951671509143 813.7265187581381 C890.7538474945421 813.6204858779909 890.584229396601 813.556900660197 890.4075366882679 813.5498260498048 L885.1632660456693 813.1469183603922 L882.8945592789049 808.355077679952 C882.8238131749823 808.1995225270591 882.7037173497871 808.0723520914714 882.5552368072864 807.9804684321086 C882.406842540522 807.8885847727458 882.2372244425809 807.8390625 882.0605317342475 807.8390625 C881.876764415522 807.8390625 881.7071463175809 807.8885847727458 881.5587520508167 807.9804684321086 C881.4102715083158 808.0723520914714 881.2901756831203 808.1995225270591 881.2195158549342 808.355077679952 L878.9507228124336 813.1469183603922 L873.7065384455713 813.5427514394125 C873.5298457372381 813.556900660197 873.360227639297 813.6204858779909 873.2258963175808 813.7194441477457 C873.0845766612086 813.8254770278932 872.9785437810614 813.9667966842653 872.9149585632675 814.1222655614217 C872.8583616801296 814.2778207143149 872.8442124593449 814.454513422648 872.8866601216986 814.6170569101969 C872.9219468979232 814.779600397746 873.013830557286 814.9279946645104 873.1410872686102 815.0481767654419 L877.0141776311592 818.6526907602945 L875.6430836268459 824.3139320373537 Z M882.0534571238553 810.8499131520589 L883.9334916977283 814.8148871739706 L884.4777190435126 814.8573348363241 L884.4777190435126 814.8573348363241 L888.1316690353748 815.1329858144125 L885.1208183833156 817.7127166112264 L885.1208183833156 817.7197912216188 L884.6967731384628 818.0802512486775 L884.8522420156197 818.6103293736776 L884.8522420156197 818.6103293736776 L886.0042819249824 822.4551212946576 L882.0534571238553 819.9460503260295 L882.0534571238553 810.8499131520589 Z "></path>
    </defs>
    <g>
      <use xmlns:xlink="http://www.w3.org/1999/xlink" xlink:href="#s-Path_81-8264f" fill="#FFD233" fill-opacity="1.0" filter="none"></use>
    </g>
  </g>
</svg>
