<?xml version="1.0" encoding="UTF-8"?>
<svg xmlns="http://www.w3.org/2000/svg" width="123.0133056640625" height="11.9388427734375" viewBox="772.1444659373537 1031.409808113941 123.0133056640625 11.9388427734375" preserveAspectRatio="none">
  <g>
    <defs>
      <path id="s-Path_87-02671" d="M772.1444659373537 1041.0880711340462 L772.1444659373537 1031.8407292607953 L775.7968180151452 1031.8407292607953 C776.4891203899595 1031.8407292607953 777.0895814557084 1031.9678410819809 777.5841447491262 1032.2150796107042 C778.0786218065734 1032.4624043753988 778.4601297420713 1032.8156269124242 778.714439620413 1033.2677621081332 C778.9758208483731 1033.719811067871 779.1100040191766 1034.249644873409 779.1100040191766 1034.8642486383942 C779.1100040191766 1035.471867289732 778.9758208483731 1036.0017010952702 778.714439620413 1036.446764941361 C778.4459870428352 1036.8847574378335 778.0644791073371 1037.2238372756224 777.5629307002716 1037.4569331051096 C777.0612960572353 1037.6900289345967 776.4537636418684 1037.810155642135 775.7473185678177 1037.810155642135 L773.3030462071133 1037.810155642135 L773.3030462071133 1036.2347969247573 L775.4294527788834 1036.2347969247573 C775.8038893647633 1036.2347969247573 776.1146838040795 1036.1853837134013 776.361922332803 1036.0864710547173 C776.6021757478795 1035.9804870464154 776.7858583660102 1035.8321611763756 776.9129701871955 1035.6272645093902 C777.0330968947337 1035.4223678424048 777.0966528053266 1035.168057964063 777.0966528053266 1034.8642486383942 C777.0966528053266 1034.5534541990778 777.0330968947337 1034.292072971118 776.9129701871955 1034.0871763041328 C776.7858583660102 1033.8752945234999 776.6021757478795 1033.7128259542237 776.3548509831851 1033.6068419459218 C776.1076124544616 1033.493786588002 775.7968180151452 1033.4373020270275 775.4223814292652 1033.4373020270275 L774.1013325902295 1033.4373020270275 L774.1013325902295 1041.0880711340462 L772.1444659373537 1041.0880711340462 Z M777.1390809030354 1036.8776860882153 L779.4350273937002 1041.0880711340462 L777.2803354234572 1041.0880711340462 L775.0338021441491 1036.8776860882153 L777.1390809030354 1036.8776860882153 Z M780.4876236551579 1041.0880711340462 L780.4876236551579 1031.8407292607953 L784.1398894969782 1031.8407292607953 C784.8392632214106 1031.8407292607953 785.4398105231305 1031.9749124315988 785.9342875805778 1032.243365009177 C786.4287646380246 1032.5047462371367 786.8032012239046 1032.8721114733985 787.0575111022463 1033.345460717962 C787.3259636798246 1033.8187237265545 787.4531617369807 1034.362700231329 787.4531617369807 1034.9773039963143 C787.4531617369807 1035.5848364116812 787.3188923302062 1036.1288129164557 787.0575111022463 1036.602162161019 C786.7890585246682 1037.0684400559642 786.407636825141 1037.4357190562548 785.9060021821049 1037.697100284215 C785.4044537750397 1037.958481512175 784.7969213596728 1038.0927509189496 784.0904762856221 1038.0927509189496 L781.7662443964846 1038.0927509189496 L781.7662443964846 1036.52446355119 L783.7725242607164 1036.52446355119 C784.1469608465964 1036.52446355119 784.4578415218839 1036.4608214046264 784.7050800506072 1036.3266382338227 C784.9523185793307 1036.1994401766665 785.1360011974616 1036.0157575585354 785.2561279049999 1035.7826617290484 C785.3761683765667 1035.5495658995612 785.4398105231305 1035.2811133219832 785.4398105231305 1034.9773039963143 C785.4398105231305 1034.6665095569979 785.3761683765667 1034.3980569794198 785.2561279049999 1034.17194626358 C785.1360011974616 1033.9388504340927 784.9523185793307 1033.7622391655802 784.7050800506072 1033.6350411084238 C784.4578415218839 1033.5008579376201 784.1469608465964 1033.4373020270275 783.7655391470694 1033.4373020270275 L782.4444903080334 1033.4373020270275 L782.4444903080334 1041.0880711340462 L780.4876236551579 1041.0880711340462 Z M789.3746716417654 1041.2081978415845 C789.0779336657145 1041.2081978415845 788.8236237873728 1041.1022138332826 788.6117420067403 1040.8902458166792 C788.3997739901367 1040.6783640360466 788.2937899818351 1040.4169828080867 788.2937899818351 1040.1202448320357 C788.2937899818351 1039.8235068559852 788.3997739901367 1039.5762683272615 788.6117420067403 1039.3643865466288 C788.8236237873728 1039.1524185300252 789.0779336657145 1039.0464345217235 789.3746716417654 1039.0464345217235 C789.6643382681982 1039.0464345217235 789.9186481465397 1039.1524185300252 790.1376012767907 1039.3643865466288 C790.3495692933943 1039.5762683272615 790.4626246513142 1039.8235068559852 790.4626246513142 1040.1202448320357 C790.4626246513142 1040.3180701494032 790.4131252039867 1040.5017527675338 790.3071411956851 1040.6712926864282 C790.2083147729722 1040.8337612557048 790.0740453661979 1040.9608730768903 789.9115767969217 1041.0597857355738 C789.7491082276451 1041.1586983942573 789.5724969591329 1041.2081978415845 789.3746716417654 1041.2081978415845 Z M798.5513862548055 1031.8407292607953 L798.5513862548055 1041.0880711340462 L796.6015909515484 1041.0880711340462 L796.6015909515484 1033.6986832549871 L796.5451063905737 1033.6986832549871 L794.4257711684215 1035.0268034436413 L794.4257711684215 1033.2888899210166 L796.714646309468 1031.8407292607953 L798.5513862548055 1031.8407292607953 Z M804.1323195869998 1041.2152691912029 C803.4894304235418 1041.2152691912029 802.9243261058839 1041.0951424836646 802.422691462848 1040.8620466541772 C801.9282144054009 1040.6288645887191 801.5325637706662 1040.3039274501668 801.2429833802048 1039.8942203521667 C800.9462454041538 1039.477355668578 800.7979195341138 1039.0040926599854 800.7837768348777 1038.4742588544475 L802.6770013411895 1038.4742588544475 C802.698215390044 1038.8345527410909 802.8536126097019 1039.1241331315525 803.1291365368982 1039.3431724977743 C803.411731813713 1039.5691969776433 803.7437403018835 1039.6822523355631 804.1323195869998 1039.6822523355631 C804.436042676698 1039.6822523355631 804.7044952542763 1039.6116250753525 804.9447486693523 1039.477355668578 C805.1778444988395 1039.336101148156 805.3685984665885 1039.1453471804073 805.4957102877738 1038.9051800013017 C805.6299796945484 1038.6579414725782 805.7006069547592 1038.3753461957638 805.7006069547592 1038.0503228212403 C805.7006069547592 1037.7253856826878 805.6299796945484 1037.4427904058732 805.4957102877738 1037.1955518771497 C805.3615271169701 1036.9483133484262 805.1707731492213 1036.757559380677 804.930605970116 1036.6163048602552 C804.6904387910104 1036.4820354534809 804.4149148638141 1036.41140819327 804.1040341885271 1036.404336843652 C803.8285102613308 1036.404336843652 803.567129033371 1036.4608214046264 803.3128191550293 1036.5738767625464 C803.0585092766873 1036.6869321204663 802.8606839593206 1036.835257990506 802.7194294388985 1037.0260119582551 L800.9816021522445 1036.715217518939 L801.4195946487171 1031.8407292607953 L807.0711552411224 1031.8407292607953 L807.0711552411224 1033.4373020270275 L803.0302238782149 1033.4373020270275 L802.7900566991095 1035.7543763305757 L802.8465412600838 1035.7543763305757 C803.0090960653313 1035.5283518507067 803.2563345940548 1035.3375978829574 803.5812717326073 1035.1892720129179 C803.913280220778 1035.0338747932597 804.2806454570398 1034.9631612970777 804.6833674413924 1034.9631612970777 C805.2414004094321 1034.9631612970777 805.7359637028501 1035.0903593542341 806.1739561993227 1035.351740582194 C806.6119486957953 1035.6131218101539 806.9580998832023 1035.9734156967975 807.2124097615442 1036.4326222421244 C807.4596482902678 1036.8847574378335 807.586846347424 1037.4075198937533 807.586846347424 1038.000909609884 C807.586846347424 1038.6296560741057 807.4455055910312 1039.1807039284981 807.1488538509514 1039.6681096363268 C806.8591872245188 1040.1485302305089 806.4565514761373 1040.5299519300354 805.9337890202173 1040.8054758572318 C805.4180116779448 1041.0809997844283 804.8175506121959 1041.2152691912029 804.1323195869998 1041.2152691912029 Z M812.5743037275167 1041.2929678010319 C811.7972313932553 1041.2858964514137 811.1261430672953 1041.0951424836646 810.5680238632847 1040.7207058977845 C810.0099046592741 1040.3391979622868 809.5860548620378 1039.7882363438653 809.2823317723396 1039.067648570578 C808.9855937962889 1038.347060797291 808.8372679262488 1037.4852185035822 808.8372679262488 1036.4749641038625 C808.8372679262488 1035.4647959401138 808.9855937962889 1034.6028674104343 809.289403121958 1033.8964223363837 C809.5860548620378 1033.1829921486858 810.016976008892 1032.6460869935295 810.5750952129029 1032.2716504076498 C811.1332144169137 1031.8972138217698 811.7972313932553 1031.7135312036391 812.5743037275167 1031.7135312036391 C813.3443909481307 1031.7135312036391 814.0154792740907 1031.8972138217698 814.5665271284831 1032.2716504076498 C815.131631446141 1032.6460869935295 815.5625525929954 1033.1899772623328 815.8592905690464 1033.8964223363837 C816.1630998947153 1034.6099387600525 816.3114257647551 1035.4647959401138 816.3114257647551 1036.4749641038625 C816.3114257647551 1037.4852185035822 816.1560285450969 1038.3541321469093 815.8592905690464 1039.074719920196 C815.5555674793482 1039.7953076934832 815.131631446141 1040.3462693119047 814.5735984781013 1040.7207058977845 C814.0154792740907 1041.1022138332826 813.3514622977493 1041.2929678010319 812.5743037275167 1041.2929678010319 Z M812.5743037275167 1039.6681096363268 C813.1041375330547 1039.6681096363268 813.5280735662618 1039.4067284083671 813.8459393551962 1038.869823253211 C814.1567337945123 1038.339989447673 814.3122172501414 1037.541703064557 814.3122172501414 1036.4749641038625 C814.3122172501414 1035.768519029812 814.2415037539597 1035.1892720129179 814.0931778839197 1034.7229941179723 C813.9519233634978 1034.2567162230273 813.7540980461308 1033.9034936860019 813.4927168181707 1033.670397856515 C813.2313355902108 1033.4373020270275 812.9275262645419 1033.3171753194893 812.5743037275167 1033.3171753194893 C812.0444699219788 1033.3171753194893 811.6276914743607 1033.5785565474494 811.3098256854262 1034.108390352987 C810.9918736605209 1034.631152808907 810.8364764408627 1035.4223678424048 810.8294050912443 1036.4749641038625 C810.8294050912443 1037.1814091779133 810.9000323514556 1037.774885130015 811.0413731078481 1038.2552194882255 C811.1896989778882 1038.721497383171 811.3875242952554 1039.0817912698144 811.6559768728332 1039.3148870993016 C811.9173581007933 1039.555054278407 812.2210811904913 1039.6681096363268 812.5743037275167 1039.6681096363268 Z M818.4731890846165 1041.2081978415845 C818.1764511085655 1041.2081978415845 817.9221412302238 1041.1022138332826 817.7031018640018 1040.8902458166792 C817.4912200833694 1040.6783640360466 817.3923074246857 1040.4169828080867 817.3923074246857 1040.1202448320357 C817.3923074246857 1039.8235068559852 817.4912200833694 1039.5762683272615 817.7031018640018 1039.3643865466288 C817.9221412302238 1039.1524185300252 818.1764511085655 1039.0464345217235 818.4731890846165 1039.0464345217235 C818.7627694750779 1039.0464345217235 819.0170793534196 1039.1524185300252 819.2290473700232 1039.3643865466288 C819.448000500274 1039.5762683272615 819.5539845085757 1039.8235068559852 819.5539845085757 1040.1202448320357 C819.5539845085757 1040.3180701494032 819.5045712972194 1040.5017527675338 819.4056586385359 1040.6712926864282 C819.3067459798524 1040.8337612557048 819.1725628090487 1040.9608730768903 819.0100080038014 1041.0597857355738 C818.8475394345253 1041.1586983942573 818.6709281660126 1041.2081978415845 818.4731890846165 1041.2081978415845 Z M824.3719882057449 1041.2929678010319 C823.5949158714834 1041.2858964514137 822.9237413095527 1041.0951424836646 822.3656221055421 1040.7207058977845 C821.8075891375022 1040.3391979622868 821.3837393402662 1039.7882363438653 821.079930014597 1039.067648570578 C820.7831920385463 1038.347060797291 820.6348661685065 1037.4852185035822 820.6348661685065 1036.4749641038625 C820.6348661685065 1035.4647959401138 820.7831920385463 1034.6028674104343 821.0870013642152 1033.8964223363837 C821.3837393402662 1033.1829921486858 821.8146604871204 1032.6460869935295 822.3726934551601 1032.2716504076498 C822.9308126591709 1031.8972138217698 823.5949158714834 1031.7135312036391 824.3719882057449 1031.7135312036391 C825.1419891903884 1031.7135312036391 825.8130775163479 1031.8972138217698 826.3641253707406 1032.2716504076498 C826.9293159243693 1032.6460869935295 827.3602370712238 1033.1899772623328 827.6569750472747 1033.8964223363837 C827.9606981369727 1034.6099387600525 828.1090240070127 1035.4647959401138 828.1019526573943 1036.4749641038625 C828.1019526573943 1037.4852185035822 827.9536267873546 1038.3541321469093 827.6569750472747 1039.074719920196 C827.3531657216058 1039.7953076934832 826.9293159243693 1040.3462693119047 826.3711967203587 1040.7207058977845 C825.8130775163479 1041.1022138332826 825.1490605400063 1041.2929678010319 824.3719882057449 1041.2929678010319 Z M824.3719882057449 1039.6681096363268 C824.9018220112828 1039.6681096363268 825.325671808519 1039.4067284083671 825.6364662478354 1038.869823253211 C825.9544182727407 1038.339989447673 826.1098154923989 1037.541703064557 826.1098154923989 1036.4749641038625 C826.1098154923989 1035.768519029812 826.039188232188 1035.1892720129179 825.8908623621478 1034.7229941179723 C825.7495216057555 1034.2567162230273 825.551696288388 1033.9034936860019 825.2903150604284 1033.670397856515 C825.0289338324683 1033.4373020270275 824.7252107427705 1033.3171753194893 824.3719882057449 1033.3171753194893 C823.8421544002069 1033.3171753194893 823.425289716618 1033.5785565474494 823.1074239276836 1034.108390352987 C822.7895581387493 1034.631152808907 822.6340746831202 1035.4223678424048 822.627003333502 1036.4749641038625 C822.627003333502 1037.1814091779133 822.6977168296837 1037.774885130015 822.8389713501056 1038.2552194882255 C822.9872972201454 1038.721497383171 823.1851225375126 1039.0817912698144 823.4465037654727 1039.3148870993016 C823.7149563430507 1039.555054278407 824.0187656687197 1039.6681096363268 824.3719882057449 1039.6681096363268 Z M833.1248530215489 1041.2929678010319 C832.3476944513166 1041.2858964514137 831.683677474975 1041.0951424836646 831.118486921346 1040.7207058977845 C830.5604539533063 1040.3391979622868 830.1365179200991 1039.7882363438653 829.8327948304009 1039.067648570578 C829.5360568543501 1038.347060797291 829.3877309843106 1037.4852185035822 829.3948023339285 1036.4749641038625 C829.3948023339285 1035.4647959401138 829.5431282039683 1034.6028674104343 829.8398661800195 1033.8964223363837 C830.1365179200991 1033.1829921486858 830.5675253029244 1032.6460869935295 831.1255582709641 1032.2716504076498 C831.683677474975 1031.8972138217698 832.3547658009345 1031.7135312036391 833.1248530215489 1031.7135312036391 C833.9019253558104 1031.7135312036391 834.565942332152 1031.8972138217698 835.1240615361628 1032.2716504076498 C835.6821807401734 1032.6460869935295 836.1131018870278 1033.1899772623328 836.4097536271074 1033.8964223363837 C836.7135629527766 1034.6099387600525 836.8618888228164 1035.4647959401138 836.8618888228164 1036.4749641038625 C836.8618888228164 1037.4852185035822 836.7064916031584 1038.3541321469093 836.4097536271074 1039.074719920196 C836.1131018870278 1039.7953076934832 835.6821807401734 1040.3462693119047 835.1240615361628 1040.7207058977845 C834.565942332152 1041.1022138332826 833.9019253558104 1041.2929678010319 833.1248530215489 1041.2929678010319 Z M833.1248530215489 1039.6681096363268 C833.6546868270868 1039.6681096363268 834.0785366243231 1039.4067284083671 834.3964024132574 1038.869823253211 C834.7072830885447 1038.339989447673 834.8697516578209 1037.541703064557 834.8626803082027 1036.4749641038625 C834.8626803082027 1035.768519029812 834.7920530479919 1035.1892720129179 834.6507122915991 1034.7229941179723 C834.5094577711775 1034.2567162230273 834.3045611041921 1033.9034936860019 834.0431798762322 1033.670397856515 C833.7817986482721 1033.4373020270275 833.4780755585741 1033.3171753194893 833.1248530215489 1033.3171753194893 C832.6020905656292 1033.3171753194893 832.178154532422 1033.5785565474494 831.8602887434874 1034.108390352987 C831.5424229545531 1034.631152808907 831.386939498924 1035.4223678424048 831.3798681493058 1036.4749641038625 C831.3798681493058 1037.1814091779133 831.4505816454878 1037.774885130015 831.5918361659094 1038.2552194882255 C831.7401620359494 1038.721497383171 831.9450587029348 1039.0817912698144 832.2064399308945 1039.3148870993016 C832.4678211588548 1039.555054278407 832.7716304845237 1039.6681096363268 833.1248530215489 1039.6681096363268 Z M841.8776316013821 1041.2929678010319 C841.1005592671204 1041.2858964514137 840.4365422907788 1041.0951424836646 839.8784230867682 1040.7207058977845 C839.3203038827576 1040.3391979622868 838.8893827359032 1039.7882363438653 838.5856596462049 1039.067648570578 C838.2889216701542 1038.347060797291 838.1405958001142 1037.4852185035822 838.1476671497326 1036.4749641038625 C838.1476671497326 1035.4647959401138 838.2959930197724 1034.6028674104343 838.5927309958231 1033.8964223363837 C838.8964540855211 1033.1829921486858 839.3203038827576 1032.6460869935295 839.8784230867682 1032.2716504076498 C840.4365422907788 1031.8972138217698 841.1076306167386 1031.7135312036391 841.8776316013821 1031.7135312036391 C842.6547901716144 1031.7135312036391 843.318807147956 1031.8972138217698 843.8769263519669 1032.2716504076498 C844.4350455559772 1032.6460869935295 844.8659667028319 1033.1899772623328 845.1696897925297 1033.8964223363837 C845.4664277685806 1034.6099387600525 845.6147536386204 1035.4647959401138 845.6147536386204 1036.4749641038625 C845.6147536386204 1037.4852185035822 845.4664277685806 1038.3541321469093 845.1626184429117 1039.074719920196 C844.8659667028319 1039.7953076934832 844.4350455559772 1040.3462693119047 843.8839977015848 1040.7207058977845 C843.325878497574 1041.1022138332826 842.6547901716144 1041.2929678010319 841.8776316013821 1041.2929678010319 Z M841.8776316013821 1039.6681096363268 C842.40746540692 1039.6681096363268 842.8314014401271 1039.4067284083671 843.1492672290615 1038.869823253211 C843.4671330179958 1038.339989447673 843.6226164736249 1037.541703064557 843.6155451240068 1036.4749641038625 C843.6155451240068 1035.768519029812 843.5449178637957 1035.1892720129179 843.403577107403 1034.7229941179723 C843.2623225869816 1034.2567162230273 843.0574259199961 1033.9034936860019 842.796044692036 1033.670397856515 C842.5346634640762 1033.4373020270275 842.2308541384073 1033.3171753194893 841.8776316013821 1033.3171753194893 C841.3548691454621 1033.3171753194893 840.9310193482258 1033.5785565474494 840.6131535592915 1034.108390352987 C840.3022728840042 1034.631152808907 840.139804314728 1035.4223678424048 840.139804314728 1036.4749641038625 C840.139804314728 1037.1814091779133 840.2104315749389 1037.774885130015 840.3517723313316 1038.2552194882255 C840.4930268517533 1038.721497383171 840.6979235187389 1039.0817912698144 840.9593047466985 1039.3148870993016 C841.2206859746586 1039.555054278407 841.531480413975 1039.6681096363268 841.8776316013821 1039.6681096363268 Z M848.7443432604921 1039.8235068559852 L848.6948438131649 1040.3180701494032 C848.6595733010447 1040.7207058977845 848.5818746912157 1041.1163565325191 848.4688193332959 1041.5048495816643 C848.362835324994 1041.907571566017 848.2497799670741 1042.2678654526603 848.1297394955068 1042.5857312415947 C848.0096127879688 1042.9106683801472 847.9177714789032 1043.1649782584893 847.8400728690742 1043.34866087662 L846.5967226398673 1043.34866087662 C846.6391507375765 1043.1649782584893 846.7027066481694 1042.917739729766 846.7804052579984 1042.5998739408312 C846.8581038678276 1042.281921915926 846.9358024776566 1041.9286993789005 846.999358388249 1041.5331349801372 C847.0700718844312 1041.1374843454025 847.1124137461691 1040.7419199466392 847.1336277950236 1040.3322128486395 L847.1548418438781 1039.8235068559852 L848.7443432604921 1039.8235068559852 Z M854.8268249997516 1036.52446355119 L854.8268249997516 1038.0503228212403 L850.6093686043023 1038.0503228212403 L850.6093686043023 1036.52446355119 L854.8268249997516 1036.52446355119 Z M863.4383490591631 1031.409808113941 L860.4571715433021 1042.4797472332932 L858.7970428664773 1042.4797472332932 L861.7782203823381 1031.409808113941 L863.4383490591631 1031.409808113941 Z M869.2312504079607 1037.0754251696114 L869.2312504079607 1041.0880711340462 L867.3026691535579 1041.0880711340462 L867.3026691535579 1031.8407292607953 L869.1746796110153 1031.8407292607953 L869.1746796110153 1035.3729546310485 L869.2594495704623 1035.3729546310485 C869.4149330260916 1034.9631612970777 869.6692429044333 1034.6452955081434 870.0153940918403 1034.4121996786562 C870.3615452792476 1034.179017613198 870.7995377757204 1034.0589771416307 871.3293715812581 1034.0589771416307 C871.80979217544 1034.0589771416307 872.2336419726757 1034.164874913962 872.5868645097014 1034.3768429305653 C872.9471583963448 1034.5888109471691 873.2296674371883 1034.8854626872487 873.4274927545555 1035.274041972365 C873.6323894215411 1035.6625350215102 873.7313020802244 1036.1288129164557 873.7242307306065 1036.67278942123 L873.7242307306065 1041.0880711340462 L871.8027208258216 1041.0880711340462 L871.8027208258216 1037.0118692590188 C871.80979217544 1036.5880194617828 871.6967368175196 1036.2560109736119 871.4776974512979 1036.0157575585354 C871.2587443210473 1035.7826617290484 870.9549349953782 1035.6625350215102 870.566441946233 1035.6625350215102 C870.3050607182731 1035.6625350215102 870.071878652815 1035.7191058184558 869.8670682218008 1035.8250898267574 C869.6692429044333 1035.9380589487064 869.5138456847751 1036.1005275179828 869.400790326855 1036.3124955345866 C869.2877349689354 1036.52446355119 869.2312504079607 1036.7787734295316 869.2312504079607 1037.0754251696114 Z M878.3726082729099 1041.22225430485 C877.6732345484777 1041.22225430485 877.0657021331106 1041.0739284348099 876.5570823764272 1040.7772766947303 C876.0484626197438 1040.4734673690614 875.6528119850091 1040.0566889214433 875.3772880578128 1039.519783766287 C875.1017641306166 1038.9828786111307 874.960509610195 1038.3541321469093 874.960509610195 1037.6476870728586 C874.960509610195 1036.9341706491896 875.1017641306166 1036.3054241849682 875.3772880578128 1035.768519029812 C875.6528119850091 1035.231613874656 876.0484626197438 1034.8148354270381 876.5570823764272 1034.5110261013685 C877.0657021331106 1034.214374361289 877.6732345484777 1034.0589771416307 878.3726082729099 1034.0589771416307 C879.0790533469606 1034.0589771416307 879.6795144127095 1034.214374361289 880.1882204053638 1034.5110261013685 C880.7039115116656 1034.8148354270381 881.099475910429 1035.231613874656 881.3749998376252 1035.768519029812 C881.6505237648216 1036.3054241849682 881.791778285243 1036.9341706491896 881.791778285243 1037.6476870728586 C881.791778285243 1038.3541321469093 881.6505237648216 1038.9828786111307 881.3749998376252 1039.519783766287 C881.099475910429 1040.0566889214433 880.7039115116656 1040.4734673690614 880.1882204053638 1040.7772766947303 C879.6795144127095 1041.0739284348099 879.0790533469606 1041.22225430485 878.3726082729099 1041.22225430485 Z M878.3867509721465 1039.7316655469199 C878.7046167610808 1039.7316655469199 878.9659979890405 1039.6398242378543 879.1850373552625 1039.4632129693416 C879.3970053718658 1039.2795303512107 879.5594739411424 1039.032291822487 879.6654579494441 1038.7144260335526 C879.778427071393 1038.3964740086474 879.8349978683384 1038.0362663579747 879.8349978683384 1037.6335443736223 C879.8349978683384 1037.2309086252405 879.778427071393 1036.8706147385972 879.6654579494441 1036.5526627136917 C879.5594739411424 1036.2347969247573 879.3970053718658 1035.9875583960338 879.1850373552625 1035.8038757779032 C878.9659979890405 1035.620193159772 878.7046167610808 1035.5283518507067 878.3867509721465 1035.5283518507067 C878.0618138335938 1035.5283518507067 877.7933612560157 1035.620193159772 877.5743218897937 1035.8038757779032 C877.3553687595431 1035.9875583960338 877.1929001902668 1036.2347969247573 877.0798448323467 1036.5526627136917 C876.9667894744268 1036.8706147385972 876.9173762630705 1037.2309086252405 876.9173762630705 1037.6335443736223 C876.9173762630705 1038.0362663579747 876.9667894744268 1038.3964740086474 877.0798448323467 1038.7144260335526 C877.1929001902668 1039.032291822487 877.3553687595431 1039.2795303512107 877.5743218897937 1039.4632129693416 C877.7933612560157 1039.6398242378543 878.0618138335938 1039.7316655469199 878.3867509721465 1039.7316655469199 Z M887.4857669753574 1038.1350927806877 L887.4857669753574 1034.1508184506963 L889.407276880142 1034.1508184506963 L889.407276880142 1041.0880711340462 L887.5634655851866 1041.0880711340462 L887.5634655851866 1039.8305782056032 L887.4928383249755 1039.8305782056032 C887.3374411053176 1040.2333001899558 887.0760598773577 1040.5582373285085 886.7086946410959 1040.8054758572318 C886.3484007544523 1041.0527143859556 885.91040825798 1041.1799124431116 885.38764580206 1041.1799124431116 C884.9213679071149 1041.1799124431116 884.5187321587332 1041.0739284348099 884.165509621708 1040.8620466541772 C883.8122870846823 1040.6500786375739 883.5367631574863 1040.353340661523 883.3389378401191 1039.9648476123778 C883.1411125227517 1039.5762683272615 883.0421998640684 1039.1099904323162 883.0421998640684 1038.5661001635128 L883.0421998640684 1034.1508184506963 L884.9637960048237 1034.1508184506963 L884.9637960048237 1038.226934089753 C884.9637960048237 1038.6367274237236 885.0767651267731 1038.9616645622764 885.2958044929946 1039.1947603917636 C885.5076862736273 1039.4350138068396 885.7973529000599 1039.555054278407 886.1647181363214 1039.555054278407 C886.3978139658088 1039.555054278407 886.6097819824124 1039.4985697174325 886.8146786493978 1039.3925857091303 C887.0194890804121 1039.286601700829 887.1819576496885 1039.1241331315525 887.3020843572267 1038.9193227005385 C887.4292824143829 1038.7073546839347 887.4928383249755 1038.4459734559746 887.4857669753574 1038.1350927806877 Z M890.9473650854 1041.0880711340462 L890.9473650854 1034.1508184506963 L892.8123904292099 1034.1508184506963 L892.8123904292099 1035.3588119318124 L892.8900890390391 1035.3588119318124 C893.0101295106062 1034.9349621345757 893.2220975272098 1034.6099387600525 893.5259068528787 1034.3839142801833 C893.8225585929588 1034.164874913962 894.1616384307479 1034.0519057920128 894.5502177158637 1034.0519057920128 C894.6491303745474 1034.0519057920128 894.7551143828493 1034.0589771416307 894.8610121551801 1034.0730336048966 C894.9740675131 1034.0801049545146 895.0729801717837 1034.1013190033689 895.1577501312308 1034.1225330522236 L895.1577501312308 1035.8250898267574 C895.0659088221655 1035.7968044282845 894.9458683505982 1035.7755903794302 894.7833135453511 1035.7543763305757 C894.620844976075 1035.7332485176921 894.4795904556529 1035.7261771680742 894.3453210488785 1035.7261771680742 C894.062812008035 1035.7261771680742 893.8084158937222 1035.7826617290484 893.5894627634714 1035.9098597862048 C893.3633520476317 1036.029900257772 893.1938121287371 1036.1994401766665 893.0596289579335 1036.41140819327 C892.9395022503954 1036.630361323521 892.8759463398028 1036.8776860882153 892.8759463398028 1037.167266478677 L892.8759463398028 1041.0880711340462 L890.9473650854 1041.0880711340462 Z "></path>
    </defs>
    <g>
      <use xmlns:xlink="http://www.w3.org/1999/xlink" xlink:href="#s-Path_87-02671" fill="#000000" fill-opacity="1.0" filter="none"></use>
    </g>
  </g>
</svg>
