<?xml version="1.0" encoding="UTF-8"?>
<svg xmlns="http://www.w3.org/2000/svg" width="20.7884521484375" height="17.5491943359375" viewBox="802.1849243712944 807.8390625 20.7884521484375 17.5491943359375" preserveAspectRatio="none">
  <g>
    <defs>
      <path id="s-Path_75-8264f" d="M822.9175794120471 814.1364147822064 C822.8539079185169 813.9738712946573 822.7338120933215 813.8325516382854 822.5711823300363 813.7265187581381 C822.4157134528797 813.6204858779909 822.2177969133694 813.556900660197 822.0199666495961 813.5427514394125 L816.090149004841 813.1469183603922 L813.5245674288113 808.355077679952 C813.4468329902332 808.1995225270591 813.3125016685168 808.0723520914714 813.1428835705757 807.9804684321086 C812.980340083027 807.8885847727458 812.782423543517 807.8390625 812.5775186693512 807.8390625 C812.3796021298409 807.8390625 812.1816855903306 807.8885847727458 812.019142102782 807.9804684321086 C811.8495240048409 808.0723520914714 811.7151926831247 808.1995225270591 811.6303836341539 808.355077679952 L809.0718766685167 813.1469183603922 L803.1420590237616 813.5427514394125 C802.9442287599883 813.556900660197 802.7533868308702 813.6204858779909 802.5979179537138 813.7194441477457 C802.4352881904284 813.8254770278932 802.315192365233 813.9667966842653 802.2445325370471 814.1222655614217 C802.1808610435168 814.2778207143149 802.166711822732 814.454513422648 802.2091594850859 814.6170569101969 C802.2585954820948 814.779600397746 802.3575537518501 814.9279946645104 802.4989596839586 815.0481767654419 L806.8809043403306 818.6526907602945 L805.3331176276841 824.3139320373537 C805.2835953549385 824.4835501352948 805.297744575723 824.6673174540203 805.3754790143013 824.8298609415692 C805.4461388424874 824.9924044291179 805.5804701642038 825.1338103612266 805.7500882621447 825.2327686309816 C805.926780970478 825.3316406250001 806.1246975099881 825.388237508138 806.3366769945463 825.388237508138 C806.5416681444486 825.388237508138 806.7466592943507 825.3387152353923 806.9233520026843 825.2397569656373 L812.5775186693512 822.0592882156373 L818.2386736706732 825.2397569656373 C818.415366379007 825.3387152353923 818.6274321393013 825.388237508138 818.839497899596 825.388237508138 C819.051477384154 825.381162897746 819.2564685340564 825.3246522903444 819.4260866319977 825.2186194101971 C819.6027793403308 825.1125865300496 819.7300360516548 824.9641922632852 819.8006958798409 824.7945741653443 C819.871355708027 824.6248697916667 819.8784303184192 824.4411887486779 819.8148451006253 824.271484375 L817.9135866955759 818.6526907602945 L822.6348538235665 815.0764752070108 C822.9387169674875 814.8361110051476 823.051824458027 814.4685763676964 822.9175794120471 814.1364147822064 L822.9175794120471 814.1364147822064 Z "></path>
    </defs>
    <g>
      <use xmlns:xlink="http://www.w3.org/1999/xlink" xlink:href="#s-Path_75-8264f" fill="#FFD233" fill-opacity="1.0" filter="none"></use>
    </g>
  </g>
</svg>
