<?xml version="1.0" encoding="UTF-8"?>
<svg xmlns="http://www.w3.org/2000/svg" width="69.8392333984375" height="9.7772216796875" viewBox="1176.9374933683707 1064.6127265943219 69.8392333984375 9.7772216796875" preserveAspectRatio="none">
  <g>
    <defs>
      <path id="s-Path_84-02671" d="M1176.9374933683707 1074.2345050534527 L1176.9374933683707 1064.9871631802016 L1180.2295515595185 1064.9871631802016 C1180.9501393328055 1064.9871631802016 1181.5506003985545 1065.114275001387 1182.023949643118 1065.3827275789652 C1182.490227538063 1065.6441088069253 1182.8505214247066 1065.9973313439505 1183.083617254194 1066.4565378892776 C1183.3167130836812 1066.9086730849865 1183.4368397912192 1067.4172928416697 1183.4368397912192 1067.982483395299 C1183.4368397912192 1068.5475877129568 1183.3167130836812 1069.0633650552293 1183.0765459045756 1069.5154140149673 C1182.8434500750886 1069.9675492106762 1182.490227538063 1070.3278430973198 1182.0098069438816 1070.5892243252795 C1181.536457699318 1070.8506055532393 1180.9430679831873 1070.984874960014 1180.2295515595185 1070.984874960014 L1177.9618904673266 1070.984874960014 L1177.9618904673266 1069.798009291782 L1180.1024397383333 1069.798009291782 C1180.5545749340422 1069.798009291782 1180.9218539343326 1069.7203106819527 1181.2115205607654 1069.5649134622945 C1181.4941158375798 1069.4024448930184 1181.6990125045654 1069.1904768764148 1181.833195675369 1068.9149529492183 C1181.960393732525 1068.6394290220221 1182.0310209927359 1068.328634582706 1182.0310209927359 1067.982483395299 C1182.0310209927359 1067.6292608582733 1181.960393732525 1067.3183801829862 1181.833195675369 1067.0499276054084 C1181.6990125045654 1066.7814750278303 1181.4870444879618 1066.5695932471976 1181.2044492111472 1066.4141960275394 C1180.9218539343326 1066.2587125719103 1180.5475035844238 1066.1810139620811 1180.0812256894787 1066.1810139620811 L1178.3292557035884 1066.1810139620811 L1178.3292557035884 1074.2345050534527 L1176.9374933683707 1074.2345050534527 Z M1184.9627852972405 1074.2345050534527 L1184.9627852972405 1067.2972523701028 L1186.312033298778 1067.2972523701028 L1186.312033298778 1074.2345050534527 L1184.9627852972405 1074.2345050534527 Z M1185.6409449728185 1066.2305134094086 C1185.4078491433313 1066.2305134094086 1185.210023825964 1066.1528147995793 1185.0404839070695 1065.9902599943323 C1184.8709439881752 1065.8348627746743 1184.793245378346 1065.6441088069253 1184.793245378346 1065.4251556766744 C1184.793245378346 1065.1990449608343 1184.8709439881752 1065.0153623427036 1185.0404839070695 1064.8528937734272 C1185.210023825964 1064.6974965537693 1185.4078491433313 1064.6127265943219 1185.6409449728185 1064.6127265943219 C1185.8811121519238 1064.6127265943219 1186.0789374692908 1064.6974965537693 1186.2414060385672 1064.8528937734272 C1186.4109459574615 1065.0153623427036 1186.495715916909 1065.1990449608343 1186.495715916909 1065.4251556766744 C1186.495715916909 1065.6441088069253 1186.4109459574615 1065.8348627746743 1186.2414060385672 1065.9902599943323 C1186.0789374692908 1066.1528147995793 1185.8811121519238 1066.2305134094086 1185.6409449728185 1066.2305134094086 Z M1189.4768934327697 1064.9871631802016 L1189.4768934327697 1074.2345050534527 L1188.1276454312317 1074.2345050534527 L1188.1276454312317 1064.9871631802016 L1189.4768934327697 1064.9871631802016 Z M1191.2925055652236 1074.2345050534527 L1191.2925055652236 1067.2972523701028 L1192.641839802732 1067.2972523701028 L1192.641839802732 1074.2345050534527 L1191.2925055652236 1074.2345050534527 Z M1191.9777365904195 1066.2305134094086 C1191.7446407609325 1066.2305134094086 1191.539744093947 1066.1528147995793 1191.3702041750528 1065.9902599943323 C1191.2077356057762 1065.8348627746743 1191.122965646329 1065.6441088069253 1191.122965646329 1065.4251556766744 C1191.122965646329 1065.1990449608343 1191.2077356057762 1065.0153623427036 1191.3702041750528 1064.8528937734272 C1191.539744093947 1064.6974965537693 1191.7446407609325 1064.6127265943219 1191.9777365904195 1064.6127265943219 C1192.2109186558778 1064.6127265943219 1192.4086577372739 1064.6974965537693 1192.5781976561684 1064.8528937734272 C1192.7477375750627 1065.0153623427036 1192.8325075345103 1065.1990449608343 1192.8325075345103 1065.4251556766744 C1192.8325075345103 1065.6441088069253 1192.7477375750627 1065.8348627746743 1192.5781976561684 1065.9902599943323 C1192.4086577372739 1066.1528147995793 1192.2109186558778 1066.2305134094086 1191.9777365904195 1066.2305134094086 Z M1195.8137712863418 1070.115961316687 L1195.8137712863418 1074.2345050534527 L1194.4644370488331 1074.2345050534527 L1194.4644370488331 1064.9871631802016 L1195.7925572374872 1064.9871631802016 L1195.7925572374872 1068.4275472413894 L1195.8773271969346 1068.4275472413894 C1196.0397957662108 1068.0531106555097 1196.2870342949343 1067.7563726794588 1196.626200368694 1067.537419549208 C1196.958208856865 1067.3183801829862 1197.3962013533376 1067.2054110610375 1197.933106508494 1067.2054110610375 C1198.4063695170864 1067.2054110610375 1198.8232342006752 1067.3042374837498 1199.1835280873186 1067.5020628011173 C1199.536750624344 1067.6998881184843 1199.8121883155693 1067.9895547449169 1200.0100136329365 1068.3780477940622 C1200.2078389503038 1068.7595557295604 1200.3067516089875 1069.2469614373892 1200.3067516089875 1069.8192233406364 L1200.3067516089875 1074.2345050534527 L1198.9574173714789 1074.2345050534527 L1198.9574173714789 1069.9887632595307 C1198.9574173714789 1069.4730721532292 1198.8303055502934 1069.0844928681126 1198.5689243223335 1068.8019838272694 C1198.3074568584027 1068.5193885504548 1197.9401778581118 1068.3780477940622 1197.4738999631668 1068.3780477940622 C1197.1560341742324 1068.3780477940622 1196.8663675477997 1068.448761290244 1196.6120576694577 1068.5829444610476 C1196.3647329047635 1068.717127631851 1196.1669938233672 1068.9149529492183 1196.0256530669744 1069.1763341771782 C1195.8843985465526 1069.4377154051383 1195.8137712863418 1069.7485960804254 1195.8137712863418 1070.115961316687 Z M1209.1796568963587 1064.9871631802016 L1210.5714192315763 1064.9871631802016 L1210.5714192315763 1071.5429079280536 C1210.5714192315763 1072.1363838801556 1210.451292524038 1072.6450036368387 1210.218196694551 1073.0617820844568 C1209.985014629093 1073.4856318816933 1209.66007749054 1073.8106552562167 1209.236227693304 1074.0296083864673 C1208.819363009715 1074.2486477526893 1208.324885952268 1074.3617031106094 1207.7596953986392 1074.3617031106094 C1207.2369329427192 1074.3617031106094 1206.770741283745 1074.2627904519254 1206.3538766001561 1074.0791078337945 C1205.9370981525383 1073.8883538660457 1205.6121610139853 1073.6128299388495 1205.371907598909 1073.2525360522059 C1205.1317404198037 1072.885170815944 1205.0186850618838 1072.4401069698536 1205.0186850618838 1071.924415863552 L1206.4033760474833 1071.924415863552 C1206.4033760474833 1072.1787257418935 1206.4598606084576 1072.3977651081154 1206.579987315996 1072.5885190758643 C1206.700027787563 1072.7722016939952 1206.8625825928104 1072.9205275640354 1207.0673930238247 1073.0265115723369 C1207.2793610404283 1073.1254242310206 1207.5195282195336 1073.1748374423769 1207.79505214673 1073.1748374423769 C1208.0847187731626 1073.1748374423769 1208.3390286515043 1073.1183528814022 1208.5439253184895 1072.9911548242462 C1208.7487357495042 1072.8640430030607 1208.9112043187804 1072.6803603849298 1209.017188327082 1072.4401069698536 C1209.123172335384 1072.19286844113 1209.1796568963587 1071.896130465079 1209.1796568963587 1071.5429079280536 L1209.1796568963587 1064.9871631802016 Z M1214.5133516998292 1074.389902273111 C1214.0682878537386 1074.389902273111 1213.672637219004 1074.3051323136638 1213.3194146819787 1074.1426637443874 C1212.9661921449535 1073.9801951751112 1212.68368310411 1073.7400279960057 1212.4717150875065 1073.4291473207186 C1212.2668184205208 1073.111281531784 1212.1679919978083 1072.7297735962861 1212.1679919978083 1072.277638400577 C1212.1679919978083 1071.8820740018136 1212.2456906076375 1071.5641219769084 1212.3940164776773 1071.3098120985665 C1212.5423423477173 1071.055502220225 1212.7472390147027 1070.8576769028577 1213.0015488930444 1070.709351032818 C1213.2558587713859 1070.561025162778 1213.5455253978187 1070.4479698048578 1213.863391186753 1070.3702711950289 C1214.1742718620403 1070.299643934818 1214.4992090005928 1070.2430731378722 1214.8241461391456 1070.2007312761343 C1215.2410108227346 1070.1512318288069 1215.5800906605234 1070.115961316687 1215.841471888483 1070.0876759182145 C1216.095781766825 1070.0523191701234 1216.286535734574 1069.9958346091487 1216.399591092494 1069.925207348938 C1216.5196315640612 1069.8545800887273 1216.5762023610066 1069.734453381189 1216.5762023610066 1069.571984811913 L1216.5762023610066 1069.54369941344 C1216.5762023610066 1069.1481350146764 1216.470218352705 1068.8443256890075 1216.2441076368648 1068.625372558757 C1216.0251545066142 1068.406333192535 1215.7002173680617 1068.3003491842333 1215.2621386356182 1068.3003491842333 C1214.803018326262 1068.3003491842333 1214.4497957892365 1068.3992618429168 1214.1884145612769 1068.6041585099022 C1213.9270333333168 1068.8019838272694 1213.750422064804 1069.0209369575205 1213.6515094061206 1069.2681754862438 L1212.3798737784412 1068.9785950957819 C1212.528199648481 1068.5546590625747 1212.7472390147027 1068.2155792247859 1213.0369056411353 1067.9612693464444 C1213.333557381215 1067.6928167688661 1213.665652105357 1067.5091341507352 1214.0470738048841 1067.3890936791681 C1214.4215103907638 1067.26896697163 1214.8241461391456 1067.2054110610375 1215.2410108227346 1067.2054110610375 C1215.5165347499308 1067.2054110610375 1215.8131864900106 1067.2406815731574 1216.1240671652977 1067.3042374837498 C1216.4348616046138 1067.3678796303136 1216.7245282310466 1067.4879201018807 1217.000052158243 1067.6574600207753 C1217.275576085439 1067.834071289288 1217.49452921569 1068.0743247043642 1217.6711404842024 1068.3992618429168 C1217.8477517527153 1068.710142518204 1217.9325217121625 1069.119849616204 1217.9325217121625 1069.6284693728871 L1217.9325217121625 1074.2345050534527 L1216.618544222745 1074.2345050534527 L1216.618544222745 1073.287892800297 L1216.5620596617705 1073.287892800297 C1216.470218352705 1073.4574327191913 1216.3430202955485 1073.634043987704 1216.166409027036 1073.8035839065983 C1215.9968691081413 1073.9660524758744 1215.7708446282725 1074.1073069962965 1215.4953207010763 1074.2203623542166 C1215.2197967738798 1074.3334177121362 1214.8948596353273 1074.389902273111 1214.5133516998292 1074.389902273111 Z M1214.803018326262 1073.302035499533 C1215.1773686761705 1073.302035499533 1215.4953207010763 1073.2313220033514 1215.7637732786543 1073.0829961333116 C1216.0322258562321 1072.9346702632715 1216.2300511735996 1072.7439162955225 1216.3713056940212 1072.5037491164169 C1216.512560214443 1072.2634957013408 1216.5832737106248 1072.0091858229991 1216.5832737106248 1071.733661895803 L1216.5832737106248 1070.836462854003 C1216.5337742632976 1070.8859623013304 1216.4419329542322 1070.9353755126867 1216.3006784338104 1070.9707322607776 C1216.166409027036 1071.0130741225157 1216.011011807378 1071.0484308706066 1215.841471888483 1071.0767162690797 C1215.6648606199706 1071.1049154315813 1215.4953207010763 1071.133200830054 1215.325780782182 1071.1544148789087 C1215.1633122129053 1071.175628927763 1215.0219714565128 1071.1967567406466 1214.915987448211 1071.210899439883 C1214.6475348706329 1071.2391848383559 1214.414439041146 1071.29566939933 1214.1954859108948 1071.3733680091593 C1213.9835178942913 1071.4511528549594 1213.8069066257788 1071.5641219769084 1213.6797085686223 1071.712534082919 C1213.5525967474368 1071.8608599529591 1213.4890408368442 1072.051613920708 1213.4890408368442 1072.2917810998135 C1213.4890408368442 1072.6237895879844 1213.6161526580297 1072.8780994663261 1213.863391186753 1073.0547107348386 C1214.1107159514477 1073.217265540086 1214.4215103907638 1073.302035499533 1214.803018326262 1073.302035499533 Z M1222.3265893761243 1074.3686882242562 C1221.7685564080848 1074.3686882242562 1221.2669217650484 1074.2274337038348 1220.828929268576 1073.937767077402 C1220.3909367721035 1073.6552580365587 1220.0518569343144 1073.2383933529698 1219.7975470559727 1072.7085595474316 C1219.5503085272492 1072.1716543922755 1219.4301818197112 1071.5288514647884 1219.4301818197112 1070.7799782930288 C1219.4301818197112 1070.03119135724 1219.5573798768673 1069.388302193782 1219.8046184055909 1068.8584683882436 C1220.0589282839328 1068.3215632330878 1220.4050794713396 1067.918927484706 1220.8430719678122 1067.6292608582733 C1221.281064464285 1067.346665581459 1221.782699107321 1067.2054110610375 1222.3407320753606 1067.2054110610375 C1222.7646681085678 1067.2054110610375 1223.110819295975 1067.2831096708662 1223.379271873553 1067.4243641912883 C1223.6406531015132 1067.5657049476808 1223.8454635325274 1067.7352448665754 1223.9868042889202 1067.918927484706 C1224.13513015896 1068.1095952164842 1224.2552568664983 1068.2791351353787 1224.3329554763275 1068.4204758917715 L1224.4177254357746 1068.4204758917715 L1224.4177254357746 1064.9871631802016 L1225.7670596732833 1064.9871631802016 L1225.7670596732833 1074.2345050534527 L1224.4459245982764 1074.2345050534527 L1224.4459245982764 1073.1536233935224 L1224.3329554763275 1073.1536233935224 C1224.2552568664983 1073.302035499533 1224.13513015896 1073.4715754184278 1223.9797329393018 1073.6622431502055 C1223.831320833291 1073.8529971179548 1223.6265104022768 1074.0154656872312 1223.3580578246986 1074.1568064436237 C1223.096676596739 1074.2980609640456 1222.7505254093317 1074.3686882242562 1222.3265893761243 1074.3686882242562 Z M1222.6233273521752 1073.217265540086 C1223.0119066372915 1073.217265540086 1223.3439151254624 1073.1183528814022 1223.6123677030403 1072.913456214417 C1223.8808202806185 1072.7014881978134 1224.085716947604 1072.4189791569697 1224.2269714680253 1072.051613920708 C1224.3682259884474 1071.6842486844466 1224.438939484629 1071.253327537592 1224.438939484629 1070.7658355937922 C1224.438939484629 1070.2855012355815 1224.3682259884474 1069.8616514383455 1224.2269714680253 1069.5013575517019 C1224.092702061251 1069.1410636650585 1223.8878916302365 1068.8584683882436 1223.6194390526584 1068.6606430708769 C1223.3509864750804 1068.4557464038915 1223.0189779869097 1068.3569199811786 1222.6233273521752 1068.3569199811786 C1222.2206916037935 1068.3569199811786 1221.8816117660047 1068.4628177535094 1221.6131591884266 1068.6677144204948 C1221.3376352612304 1068.8796824370984 1221.132738594245 1069.16926282756 1220.9985554234413 1069.5366280638218 C1220.8642860166667 1069.8969219504654 1220.793658756456 1070.306629048465 1220.793658756456 1070.7658355937922 C1220.793658756456 1071.2321134887377 1220.8642860166667 1071.6488919363555 1220.9985554234413 1072.0162571726173 C1221.1398099438632 1072.390693758497 1221.3447066108486 1072.6803603849298 1221.6131591884266 1072.8993135151807 C1221.8885968796517 1073.111281531784 1222.227762953412 1073.217265540086 1222.6233273521752 1073.217265540086 Z M1229.1933010352348 1074.2345050534527 L1227.1516644229116 1067.2972523701028 L1228.5504118717768 1067.2972523701028 L1229.9068174589036 1072.390693758497 L1229.9774447191144 1072.390693758497 L1231.3408354198882 1067.2972523701028 L1232.732597755106 1067.2972523701028 L1234.0889171062615 1072.3694797096423 L1234.1595443664728 1072.3694797096423 L1235.5088786039814 1067.2972523701028 L1236.900554703228 1067.2972523701028 L1234.8659894405237 1074.2345050534527 L1233.488456040513 1074.2345050534527 L1232.0826372420297 1069.2258336245054 L1231.9766532337283 1069.2258336245054 L1230.570834435245 1074.2345050534527 L1229.1933010352348 1074.2345050534527 Z M1240.2067555936123 1074.389902273111 C1239.7616917475216 1074.389902273111 1239.366127348758 1074.3051323136638 1239.0129048117328 1074.1426637443874 C1238.6596822747074 1073.9801951751112 1238.377086997893 1073.7400279960057 1238.1651189812894 1073.4291473207186 C1237.960222314304 1073.111281531784 1237.8613958915912 1072.7297735962861 1237.8613958915912 1072.277638400577 C1237.8613958915912 1071.8820740018136 1237.9320231518022 1071.5641219769084 1238.0874203714602 1071.3098120985665 C1238.2357462415002 1071.055502220225 1238.4406429084859 1070.8576769028577 1238.6949527868273 1070.709351032818 C1238.949262665169 1070.561025162778 1239.2389292916018 1070.4479698048578 1239.5567950805362 1070.3702711950289 C1239.867675755823 1070.299643934818 1240.192612894376 1070.2430731378722 1240.5175500329285 1070.2007312761343 C1240.9344147165173 1070.1512318288069 1241.2734945543066 1070.115961316687 1241.527804432648 1070.0876759182145 C1241.7891856606082 1070.0523191701234 1241.979939628357 1069.9958346091487 1242.092994986277 1069.925207348938 C1242.2130354578442 1069.8545800887273 1242.2696062547896 1069.734453381189 1242.2696062547896 1069.571984811913 L1242.2696062547896 1069.54369941344 C1242.2696062547896 1069.1481350146764 1242.163622246488 1068.8443256890075 1241.9375115306477 1068.625372558757 C1241.7185584003971 1068.406333192535 1241.3865499122264 1068.3003491842333 1240.955628765372 1068.3003491842333 C1240.496422220045 1068.3003491842333 1240.1431996830195 1068.3992618429168 1239.8818184550598 1068.6041585099022 C1239.6204372270997 1068.8019838272694 1239.4438259585872 1069.0209369575205 1239.3378419502853 1069.2681754862438 L1238.073277672224 1068.9785950957819 C1238.2216035422641 1068.5546590625747 1238.4406429084859 1068.2155792247859 1238.7303095349182 1067.9612693464444 C1239.0269612749983 1067.6928167688661 1239.3590559991399 1067.5091341507352 1239.740477698667 1067.3890936791681 C1240.1149142845468 1067.26896697163 1240.5175500329285 1067.2054110610375 1240.9344147165173 1067.2054110610375 C1241.2099386437137 1067.2054110610375 1241.5065903837935 1067.2406815731574 1241.8174710590808 1067.3042374837498 C1242.1282654983972 1067.3678796303136 1242.4179321248296 1067.4879201018807 1242.6934560520258 1067.6574600207753 C1242.968979979222 1067.834071289288 1243.187933109473 1068.0743247043642 1243.3645443779856 1068.3992618429168 C1243.541155646498 1068.710142518204 1243.6259256059454 1069.119849616204 1243.6259256059454 1069.6284693728871 L1243.6259256059454 1074.2345050534527 L1242.3048767669095 1074.2345050534527 L1242.3048767669095 1073.287892800297 L1242.2554635555534 1073.287892800297 C1242.163622246488 1073.4574327191913 1242.0364241893317 1073.634043987704 1241.859812920819 1073.8035839065983 C1241.6832016523063 1073.9660524758744 1241.4642485220554 1074.1073069962965 1241.1887245948592 1074.2203623542166 C1240.9132006676627 1074.3334177121362 1240.5882635291105 1074.389902273111 1240.2067555936123 1074.389902273111 Z M1240.496422220045 1073.302035499533 C1240.870772569954 1073.302035499533 1241.1887245948592 1073.2313220033514 1241.4571771724372 1073.0829961333116 C1241.7256297500155 1072.9346702632715 1241.9234550673825 1072.7439162955225 1242.0647095878044 1072.5037491164169 C1242.205964108226 1072.2634957013408 1242.276677604408 1072.0091858229991 1242.276677604408 1071.733661895803 L1242.276677604408 1070.836462854003 C1242.2271781570805 1070.8859623013304 1242.1353368480152 1070.9353755126867 1241.9940823275933 1070.9707322607776 C1241.859812920819 1071.0130741225157 1241.7044157011608 1071.0484308706066 1241.527804432648 1071.0767162690797 C1241.3582645137537 1071.1049154315813 1241.1887245948592 1071.133200830054 1241.0191846759649 1071.1544148789087 C1240.8567161066887 1071.175628927763 1240.7153753502957 1071.1967567406466 1240.6024062283466 1071.210899439883 C1240.3409387644156 1071.2391848383559 1240.1007715853104 1071.29566939933 1239.8888898046778 1071.3733680091593 C1239.6769217880744 1071.4511528549594 1239.5003105195617 1071.5641219769084 1239.3731124624053 1071.712534082919 C1239.2460006412198 1071.8608599529591 1239.1824447306274 1072.051613920708 1239.1824447306274 1072.2917810998135 C1239.1824447306274 1072.6237895879844 1239.3095565518126 1072.8780994663261 1239.5567950805362 1073.0547107348386 C1239.7970484956124 1073.217265540086 1240.1149142845468 1073.302035499533 1240.496422220045 1073.302035499533 Z M1246.7767292766716 1064.9871631802016 L1246.7767292766716 1074.2345050534527 L1245.427395039163 1074.2345050534527 L1245.427395039163 1064.9871631802016 L1246.7767292766716 1064.9871631802016 Z "></path>
    </defs>
    <g>
      <use xmlns:xlink="http://www.w3.org/1999/xlink" xlink:href="#s-Path_84-02671" fill="#000000" fill-opacity="1.0" filter="none"></use>
    </g>
  </g>
</svg>
