<?xml version="1.0" encoding="UTF-8"?>
<svg xmlns="http://www.w3.org/2000/svg" width="16.8416748046875" height="9.3179931640625" viewBox="900.7174694145697 1065.3191716683718 16.8416748046875 9.3179931640625" preserveAspectRatio="none">
  <g>
    <defs>
      <path id="s-Path_88-02671" d="M900.7174694145697 1072.67320279934 L905.0691952167933 1072.67320279934 L905.0691952167933 1074.5665135416232 L906.1359341774878 1074.5665135416232 L906.1359341774878 1072.67320279934 L907.4004122195781 1072.67320279934 L907.4004122195781 1071.6771773348278 L906.1359341774878 1071.6771773348278 L906.1359341774878 1065.3191716683718 L904.779528590361 1065.3191716683718 L900.7174694145697 1071.7478045950386 L900.7174694145697 1072.67320279934 Z M905.0691952167933 1071.6771773348278 L901.9325342453037 1071.6771773348278 L901.9325342453037 1071.606550074617 L904.9984817206116 1066.7462045157095 L905.0691952167933 1066.7462045157095 L905.0691952167933 1071.6771773348278 Z M909.4561915311374 1074.637140801834 C909.9012553772279 1074.637140801834 910.2686206134897 1074.2697755655724 910.2686206134897 1073.8247117194817 C910.2686206134897 1073.3796478733907 909.9012553772279 1073.0123688731003 909.4561915311374 1073.0123688731003 C909.0040563354282 1073.0123688731003 908.6437624487846 1073.3796478733907 908.6437624487846 1073.8247117194817 C908.6437624487846 1074.2697755655724 909.0040563354282 1074.637140801834 909.4561915311374 1074.637140801834 Z M912.2607577784854 1074.5665135416232 L913.4405520970995 1074.5665135416232 L917.5590958338651 1066.3646965802113 L917.5590958338651 1065.3191716683718 L911.6320113142638 1065.3191716683718 L911.6320113142638 1066.3151971328841 L916.4005155641055 1066.3151971328841 L916.4005155641055 1066.385910629066 L912.2607577784854 1074.5665135416232 Z "></path>
    </defs>
    <g>
      <use xmlns:xlink="http://www.w3.org/1999/xlink" xlink:href="#s-Path_88-02671" fill="#000000" fill-opacity="1.0" filter="none"></use>
    </g>
  </g>
</svg>
