<?xml version="1.0" encoding="UTF-8"?>
<svg xmlns="http://www.w3.org/2000/svg" width="107.34222412109375" height="10.61572265625" viewBox="583.7927083333327 1423.4364583333333 107.34222412109375 10.61572265625" preserveAspectRatio="none">
  <g>
    <defs>
      <path id="s-Path_68-a24d5" d="M583.7927083333327 1425.118576367696 L583.7927083333327 1423.6485240936279 L586.7328560193373 1423.6485240936279 L586.7328560193373 1433.9532117843626 L585.1072917302444 1433.9532117843626 L585.1072917302444 1425.118576367696 L583.7927083333327 1425.118576367696 Z M588.5224304834995 1425.118576367696 L588.5224304834995 1423.6485240936279 L591.4625781695041 1423.6485240936279 L591.4625781695041 1433.9532117843626 L589.8370138804112 1433.9532117843626 L589.8370138804112 1425.118576367696 L588.5224304834995 1425.118576367696 Z M594.3264149665827 1434.0521700541178 C594.0345010121657 1434.0521700541178 593.7892622311904 1433.9532117843626 593.5913888295486 1433.7552952448525 C593.3934722900384 1433.5573787053424 593.2945140202834 1433.310026168823 593.2945140202834 1433.0203122456867 C593.2945140202834 1432.7305120468138 593.3934722900384 1432.4831595102944 593.5913888295486 1432.2852429707843 C593.7892622311904 1432.0873264312743 594.0345010121657 1431.9883681615195 594.3264149665827 1431.9883681615195 C594.6091405550633 1431.9883681615195 594.8494184811904 1432.0873264312743 595.0473350207005 1432.2852429707843 C595.2452084223423 1432.4831595102944 595.3441666920974 1432.7305120468138 595.3441666920974 1433.0203122456867 C595.3441666920974 1433.310026168823 595.2452084223423 1433.5573787053424 595.0473350207005 1433.7552952448525 C594.8494184811904 1433.9532117843626 594.6091405550633 1434.0521700541178 594.3264149665827 1434.0521700541178 Z M596.6615971883132 1428.666579755147 C596.6615971883132 1427.0338977177937 596.9350912729893 1425.7617619832356 597.4814323743178 1424.8500000000001 C598.0376520474746 1423.9241750717163 598.9897047996515 1423.4647567749023 600.3368141492201 1423.4647567749023 C601.6846137046808 1423.4647567749023 602.6316624641412 1423.9241750717163 603.1780035654698 1424.8500000000001 C603.7342232386266 1425.7617619832356 604.0119879722589 1427.0338977177937 604.0119879722589 1428.666579755147 C604.0119879722589 1430.3133247375488 603.7342232386266 1431.6067705790203 603.1780035654698 1432.5396701176962 C602.6316624641412 1433.4655813217162 601.6846137046808 1433.9249133427936 600.3368141492201 1433.9249133427936 C598.9897047996515 1433.9249133427936 598.0376520474746 1433.4655813217162 597.4814323743178 1432.5396701176962 C596.9350912729893 1431.6067705790203 596.6615971883132 1430.3133247375488 596.6615971883132 1428.666579755147 Z M602.4288282076511 1428.666579755147 C602.4288282076511 1427.9032120386757 602.3772353172296 1427.2601126988727 602.2733593304946 1426.730034573873 C602.1793619155877 1426.1999564488726 601.9814453760777 1425.77591120402 601.6796528498326 1425.4436633427938 C601.3785936673476 1425.1044271469116 600.930477492014 1424.9348090489705 600.3368141492201 1424.9348090489705 C599.7431076685582 1424.9348090489705 599.2957248369846 1425.1044271469116 598.9939323107395 1425.4436633427938 C598.6928299903864 1425.77591120402 598.4899957338963 1426.1999564488726 598.3861197471613 1426.730034573873 C598.2921223322544 1427.2601126988727 598.244756952921 1427.9032120386757 598.244756952921 1428.666579755147 C598.244756952921 1429.4581596374512 598.2921223322544 1430.1224828084307 598.3861197471613 1430.659635543823 C598.48080736796 1431.1967882792153 598.67872390747 1431.6279081344603 598.979783089955 1431.9601559956866 C599.2907639821365 1432.2923175811768 599.7431076685582 1432.4548610687254 600.3368141492201 1432.4548610687254 C600.930477492014 1432.4548610687254 601.3785936673476 1432.2923175811768 601.6796528498326 1431.9601559956866 C601.990633742014 1431.6279081344603 602.193467998504 1431.1967882792153 602.2874654134108 1430.659635543823 C602.3821961720778 1430.1224828084307 602.4288282076511 1429.4581596374512 602.4288282076511 1428.666579755147 Z M605.5054209709161 1428.666579755147 C605.5054209709161 1427.0338977177937 605.7782248497003 1425.7617619832356 606.3252561569208 1424.8500000000001 C606.8807856241856 1423.9241750717163 607.8327952384942 1423.4647567749023 609.1805947939549 1423.4647567749023 C610.5277041435236 1423.4647567749023 611.4747960408523 1423.9241750717163 612.0218273480727 1424.8500000000001 C612.5773568153376 1425.7617619832356 612.8558117548619 1427.0338977177937 612.8558117548619 1428.666579755147 C612.8558117548619 1430.3133247375488 612.5773568153376 1431.6067705790203 612.0218273480727 1432.5396701176962 C611.4747960408523 1433.4655813217162 610.5277041435236 1433.9249133427936 609.1805947939549 1433.9249133427936 C607.8327952384942 1433.9249133427936 606.8807856241856 1433.4655813217162 606.3252561569208 1432.5396701176962 C605.7782248497003 1431.6067705790203 605.5054209709161 1430.3133247375488 605.5054209709161 1428.666579755147 Z M611.2726519902541 1428.666579755147 C611.2726519902541 1427.9032120386757 611.2203688939406 1427.2601126988727 611.1171831130976 1426.730034573873 C611.0224523544306 1426.1999564488726 610.8245789527887 1425.77591120402 610.5234766324355 1425.4436633427938 C610.2216841061904 1425.1044271469116 609.774301274617 1424.9348090489705 609.1805947939549 1424.9348090489705 C608.5869314511611 1424.9348090489705 608.1388152758275 1425.1044271469116 607.8377560933425 1425.4436633427938 C607.5359635670974 1425.77591120402 607.3331293106073 1426.1999564488726 607.2299435297642 1426.730034573873 C607.1352127710973 1427.2601126988727 607.0885807355239 1427.9032120386757 607.0885807355239 1428.666579755147 C607.0885807355239 1429.4581596374512 607.1352127710973 1430.1224828084307 607.2299435297642 1430.659635543823 C607.323940944671 1431.1967882792153 607.5218143463129 1431.6279081344603 607.823606872558 1431.9601559956866 C608.1345877647394 1432.2923175811768 608.5869314511611 1432.4548610687254 609.1805947939549 1432.4548610687254 C609.774301274617 1432.4548610687254 610.2216841061904 1432.2923175811768 610.5234766324355 1431.9601559956866 C610.8344575246169 1431.6279081344603 611.0366015752151 1431.1967882792153 611.1312891960138 1430.659635543823 C611.2252866109206 1430.1224828084307 611.2726519902541 1429.4581596374512 611.2726519902541 1428.666579755147 Z M624.0001780509942 1428.1577254613242 L624.0001780509942 1429.5146702448526 L618.190542507171 1429.5146702448526 L618.190542507171 1428.1577254613242 L624.0001780509942 1428.1577254613242 Z M629.1129644711806 1425.118576367696 L629.1129644711806 1423.6485240936279 L632.0531552950536 1423.6485240936279 L632.0531552950536 1433.9532117843626 L630.4275478680922 1433.9532117843626 L630.4275478680922 1425.118576367696 L629.1129644711806 1425.118576367696 Z M634.9452473958328 1431.7622394561765 C635.8498916308079 1430.9777341842653 636.5616233189895 1430.3416231791177 637.0797091166172 1429.8398434956869 C637.607630348205 1429.330902926127 638.0458248138422 1428.8008248011272 638.3942925135289 1428.2565974553424 C638.7434072812392 1427.7124563852947 638.9172960281367 1427.161154429118 638.9172960281367 1426.6169270833332 C638.9172960281367 1426.051475906372 638.7808940887445 1425.6062068303424 638.5073568662002 1425.2881944656372 C638.2437413533522 1424.9701821009319 637.8246138254796 1424.8076386133828 637.2493272145583 1424.8076386133828 C636.6937977472935 1424.8076386133828 636.2598307927443 1424.9843313217164 635.948849900563 1425.3447050730385 C635.647790718078 1425.6911021550497 635.487317848205 1426.1645833969117 635.4682509104405 1426.7582467397053 L633.9133464495335 1426.7582467397053 C633.9416448911026 1425.6840275446573 634.2625043551121 1424.8641492207846 634.8745444297784 1424.2986980438234 C635.4965062141413 1423.7262585322062 636.283858585357 1423.4364583333333 637.2351779937738 1423.4364583333333 C638.2628082911167 1423.4364583333333 639.0635765393569 1423.7191839218137 639.6382160822544 1424.284548823039 C640.222691059112 1424.8500000000001 640.5146050135289 1425.6062068303424 640.5146050135289 1426.5462672551473 C640.5146050135289 1427.2247396469118 640.3407162666315 1427.8820744832358 639.9916014989211 1428.5111108779909 C639.6523221651707 1429.1330726623535 639.2424261411026 1429.6913629531862 638.7617840131118 1430.1932289123536 C638.2911067326858 1430.680859375 637.6875216801956 1431.2533851623537 636.9524524052932 1431.9035591125487 L636.3163845380142 1432.46901028951 L640.7972874641413 1432.46901028951 L640.7972874641413 1433.8118921279909 L633.927495670318 1433.8118921279909 L633.927495670318 1432.638628387451 L634.9452473958328 1431.7622394561765 Z M642.8632031122837 1434.0521700541178 C642.5712891578669 1434.0521700541178 642.3260503768915 1433.9532117843626 642.1281338373814 1433.7552952448525 C641.9302604357396 1433.5573787053424 641.8313021659845 1433.310026168823 641.8313021659845 1433.0203122456867 C641.8313021659845 1432.7305120468138 641.9302604357396 1432.4831595102944 642.1281338373814 1432.2852429707843 C642.3260503768915 1432.0873264312743 642.5712891578669 1431.9883681615195 642.8632031122837 1431.9883681615195 C643.1458855628962 1431.9883681615195 643.3862066268915 1432.0873264312743 643.5840800285333 1432.2852429707843 C643.7819965680434 1432.4831595102944 643.8809548377985 1432.7305120468138 643.8809548377985 1433.0203122456867 C643.8809548377985 1433.310026168823 643.7819965680434 1433.5573787053424 643.5840800285333 1433.7552952448525 C643.3862066268915 1433.9532117843626 643.1458855628962 1434.0521700541178 642.8632031122837 1434.0521700541178 Z M645.1983853340143 1428.666579755147 C645.1983853340143 1427.0338977177937 645.4718794186904 1425.7617619832356 646.018220520019 1424.8500000000001 C646.5744401931756 1423.9241750717163 647.5264498074844 1423.4647567749023 648.873559157053 1423.4647567749023 C650.2214018503819 1423.4647567749023 651.1684506098424 1423.9241750717163 651.7147917111708 1424.8500000000001 C652.2710113843276 1425.7617619832356 652.5487761179601 1427.0338977177937 652.5487761179601 1428.666579755147 C652.5487761179601 1430.3133247375488 652.2710113843276 1431.6067705790203 651.7147917111708 1432.5396701176962 C651.1684506098424 1433.4655813217162 650.2214018503819 1433.9249133427936 648.873559157053 1433.9249133427936 C647.5264498074844 1433.9249133427936 646.5744401931756 1433.4655813217162 646.018220520019 1432.5396701176962 C645.4718794186904 1431.6067705790203 645.1983853340143 1430.3133247375488 645.1983853340143 1428.666579755147 Z M650.9656163533523 1428.666579755147 C650.9656163533523 1427.9032120386757 650.9140234629307 1427.2601126988727 650.8101043383275 1426.730034573873 C650.7161069234206 1426.1999564488726 650.5182335217788 1425.77591120402 650.2164409955336 1425.4436633427938 C649.9153386751805 1425.1044271469116 649.4672656377151 1424.9348090489705 648.873559157053 1424.9348090489705 C648.2798958142592 1424.9348090489705 647.8325129826858 1425.1044271469116 647.5307204564407 1425.4436633427938 C647.2296181360874 1425.77591120402 647.0267838795974 1426.1999564488726 646.9228647549941 1426.730034573873 C646.8288673400873 1427.2601126988727 646.781545098622 1427.9032120386757 646.781545098622 1428.666579755147 C646.781545098622 1429.4581596374512 646.8288673400873 1430.1224828084307 646.9228647549941 1430.659635543823 C647.0175955136611 1431.1967882792153 647.215468915303 1431.6279081344603 647.5165712356561 1431.9601559956866 C647.8275521278375 1432.2923175811768 648.2798958142592 1432.4548610687254 648.873559157053 1432.4548610687254 C649.4672656377151 1432.4548610687254 649.9153386751805 1432.2923175811768 650.2164409955336 1431.9601559956866 C650.527421887715 1431.6279081344603 650.7302561442051 1431.1967882792153 650.824253559112 1430.659635543823 C650.918984317779 1430.1224828084307 650.9656163533523 1429.4581596374512 650.9656163533523 1428.666579755147 Z M654.0422091166173 1428.666579755147 C654.0422091166173 1427.0338977177937 654.3157032012933 1425.7617619832356 654.8620443026219 1424.8500000000001 C655.4182639757786 1423.9241750717163 656.3695833841954 1423.4647567749023 657.717382939656 1423.4647567749023 C659.0652256329848 1423.4647567749023 660.0122743924453 1423.9241750717163 660.5586154937738 1424.8500000000001 C661.1148351669306 1425.7617619832356 661.392599900563 1427.0338977177937 661.392599900563 1428.666579755147 C661.392599900563 1430.3133247375488 661.1148351669306 1431.6067705790203 660.5586154937738 1432.5396701176962 C660.0122743924453 1433.4655813217162 659.0652256329848 1433.9249133427936 657.717382939656 1433.9249133427936 C656.3695833841954 1433.9249133427936 655.4182639757786 1433.4655813217162 654.8620443026219 1432.5396701176962 C654.3157032012933 1431.6067705790203 654.0422091166173 1430.3133247375488 654.0422091166173 1428.666579755147 Z M659.8094401359552 1428.666579755147 C659.8094401359552 1427.9032120386757 659.7578472455336 1427.2601126988727 659.6539281209305 1426.730034573873 C659.5599307060236 1426.1999564488726 659.3620573043818 1425.77591120402 659.0602647781366 1425.4436633427938 C658.7584722518915 1425.1044271469116 658.311089420318 1424.9348090489705 657.717382939656 1424.9348090489705 C657.1237195968622 1424.9348090489705 656.6763367652887 1425.1044271469116 656.3745442390436 1425.4436633427938 C656.0727517127984 1425.77591120402 655.8706076622003 1426.1999564488726 655.766688537597 1426.730034573873 C655.6726911226903 1427.2601126988727 655.625368881225 1427.9032120386757 655.625368881225 1428.666579755147 C655.625368881225 1429.4581596374512 655.6726911226903 1430.1224828084307 655.766688537597 1430.659635543823 C655.8607290903722 1431.1967882792153 656.058602492014 1431.6279081344603 656.360395018259 1431.9601559956866 C656.6713759104405 1432.2923175811768 657.1237195968622 1432.4548610687254 657.717382939656 1432.4548610687254 C658.311089420318 1432.4548610687254 658.7584722518915 1432.2923175811768 659.0602647781366 1431.9601559956866 C659.371245670318 1431.6279081344603 659.574079926808 1431.1967882792153 659.6680773417149 1430.659635543823 C659.7620747566217 1430.1224828084307 659.8094401359552 1429.4581596374512 659.8094401359552 1428.666579755147 Z M679.3502473831171 1424.1290799458823 L676.4383550008132 1433.9532117843626 L674.6148741722101 1433.9532117843626 L672.5511154174799 1426.5179688135784 L670.3600999514256 1433.9532117843626 L668.550768343607 1433.967361005147 L665.766089534759 1424.1290799458823 L667.4765060106907 1424.1290799458823 L669.5120094617203 1432.1297740936277 L671.7171310106908 1424.1290799458823 L673.5264626185093 1424.1290799458823 L675.576072152455 1432.0873264312743 L677.625724824269 1424.1290799458823 L679.3502473831171 1424.1290799458823 Z M682.0783724466954 1424.1290799458823 L682.0783724466954 1433.9532117843626 L680.4669573783868 1433.9532117843626 L680.4669573783868 1424.1290799458823 L682.0783724466954 1424.1290799458823 Z M689.2407684008275 1428.9068576812745 C689.7680425643915 1428.9987413406373 690.2161156018569 1429.2814669291176 690.5836502393081 1429.7408852259316 C690.9511848767593 1430.200217247009 691.1349521954849 1430.7233070373534 691.1349521954849 1431.309895769755 C691.1349521954849 1431.811675453186 691.0027777671809 1432.2640191396079 690.7391622543329 1432.66692682902 C690.4846919695531 1433.062673632304 690.1122396151219 1433.3806859970093 689.6224522590632 1433.6139755884808 C689.1319315592442 1433.8401042938233 688.5622960090632 1433.9532117843626 687.9120789209996 1433.9532117843626 L683.9824348131809 1433.9532117843626 L683.9824348131809 1424.1290799458823 L687.7283116022741 1424.1290799458823 C688.3969054222101 1424.1290799458823 688.9722351709996 1424.2421874364215 689.452834161122 1424.4683161417645 C689.9334331512446 1424.6945311228435 690.2960069338475 1424.9983942667643 690.5412457148228 1425.3871527353924 C690.7857942899062 1425.7617619832356 690.908780352274 1426.1858072280882 690.908780352274 1426.6593747456866 C690.908780352274 1427.2247396469118 690.7575389862055 1427.6983071645102 690.4564366658523 1428.0729164123534 C690.1546441396072 1428.4474393844605 689.749665832519 1428.7301649729409 689.2407684008275 1428.9068576812745 Z M685.5938498814895 1428.2565974553424 L687.5869488080336 1428.2565974553424 C688.1141798337295 1428.2565974553424 688.524118995666 1428.1365016301472 688.8167231559747 1427.9032120386757 C689.117825476328 1427.6558595021563 689.2690668423965 1427.309548695882 689.2690668423965 1426.8572050094606 C689.2690668423965 1426.411935933431 689.117825476328 1426.0726997375489 688.8167231559747 1425.8253472010294 C688.524118995666 1425.570920054118 688.1141798337295 1425.4436633427938 687.5869488080336 1425.4436633427938 L685.5938498814895 1425.4436633427938 L685.5938498814895 1428.2565974553424 Z M687.7707161267592 1432.638628387451 C688.3170572280878 1432.638628387451 688.7460633277888 1432.5042970657348 689.0570442199702 1432.242795308431 C689.3680251121515 1431.981293551127 689.5234939893081 1431.6137589136758 689.5234939893081 1431.140277671814 C689.5234939893081 1430.659635543823 689.3581034024551 1430.278037961324 689.0287457784011 1429.9953123728435 C688.6986979484552 1429.7125867843627 688.2605034828181 1429.5712671279905 687.7141623814895 1429.5712671279905 L685.5938498814895 1429.5712671279905 L685.5938498814895 1432.638628387451 L687.7707161267592 1432.638628387451 Z "></path>
    </defs>
    <g>
      <use xmlns:xlink="http://www.w3.org/1999/xlink" xlink:href="#s-Path_68-a24d5" fill="#323232" fill-opacity="1.0" filter="none"></use>
    </g>
  </g>
</svg>
