<?xml version="1.0" encoding="UTF-8"?>
<svg xmlns="http://www.w3.org/2000/svg" width="69.8714599609375" height="9.78173828125" viewBox="1177.4802083333348 1065.1036458333333 69.8714599609375 9.78173828125" preserveAspectRatio="none">
  <g>
    <defs>
      <path id="s-Path_84-8264f" d="M1177.4802083333348 1074.7298611323042 L1177.4802083333348 1065.478255081177 L1180.7737845738743 1065.478255081177 C1181.4947046279922 1065.478255081177 1182.095442581178 1065.6054255167644 1182.5690100987767 1065.8740018844608 C1183.035503005983 1066.1355036417644 1183.3959630330419 1066.4888890584311 1183.6291663487766 1066.948307355245 C1183.8623696645116 1067.4006510416668 1183.9825517654433 1067.9095053354902 1183.9825517654433 1068.4749565124514 C1183.9825517654433 1069.040321413676 1183.8623696645116 1069.5563365936282 1183.6220917383844 1070.0085940043134 C1183.3888884226494 1070.4609376907351 1183.035503005983 1070.821397717794 1182.554860877992 1071.082899475098 C1182.0812933603938 1071.3444012324019 1181.4876300176 1071.478732554118 1180.7737845738743 1071.478732554118 L1178.50507780711 1071.478732554118 L1178.50507780711 1070.291319592794 L1180.6466141382866 1070.291319592794 C1181.0989578247084 1070.291319592794 1181.4664061864232 1070.213585154216 1181.756206385296 1070.058116277059 C1182.0389319737767 1069.8955727895104 1182.243923123679 1069.6835070292157 1182.3781681696587 1069.4078560511273 C1182.505424880983 1069.132205073039 1182.576084709169 1068.8212673187259 1182.576084709169 1068.4749565124514 C1182.576084709169 1068.1215710957847 1182.505424880983 1067.8105470657351 1182.3781681696587 1067.541970698039 C1182.243923123679 1067.2733943303429 1182.0318573633845 1067.0614148457848 1181.7491317749038 1066.905945968628 C1181.4664061864232 1066.750390815735 1181.0918832143163 1066.6726563771567 1180.6253903071101 1066.6726563771567 L1178.8726124445611 1066.6726563771567 L1178.8726124445611 1074.7298611323042 L1177.4802083333348 1074.7298611323042 Z M1185.5092009226496 1074.7298611323042 L1185.5092009226496 1067.789409510295 L1186.859071095786 1067.789409510295 L1186.859071095786 1074.7298611323042 L1185.5092009226496 1074.7298611323042 Z M1186.1876733144138 1066.7221786499024 C1185.954469998679 1066.7221786499024 1185.7565534591688 1066.6444442113243 1185.586935361228 1066.481814448039 C1185.4173172632868 1066.3263455708825 1185.3395828247085 1066.1355036417644 1185.3395828247085 1065.9164495468142 C1185.3395828247085 1065.6902345657352 1185.4173172632868 1065.5064672470096 1185.586935361228 1065.3439237594605 C1185.7565534591688 1065.188454882304 1185.954469998679 1065.1036458333333 1186.1876733144138 1065.1036458333333 C1186.427951240541 1065.1036458333333 1186.625867780051 1065.188454882304 1186.7884112676 1065.3439237594605 C1186.958029365541 1065.5064672470096 1187.0428384145116 1065.6902345657352 1187.0428384145116 1065.9164495468142 C1187.0428384145116 1066.1355036417644 1186.958029365541 1066.3263455708825 1186.7884112676 1066.481814448039 C1186.625867780051 1066.6444442113243 1186.427951240541 1066.7221786499024 1186.1876733144138 1066.7221786499024 Z M1190.0253906250016 1065.478255081177 L1190.0253906250016 1074.7298611323042 L1188.675520451865 1074.7298611323042 L1188.675520451865 1065.478255081177 L1190.0253906250016 1065.478255081177 Z M1191.8418399810805 1074.7298611323042 L1191.8418399810805 1067.789409510295 L1193.1917964299535 1067.789409510295 L1193.1917964299535 1074.7298611323042 L1191.8418399810805 1074.7298611323042 Z M1192.5273869832372 1066.7221786499024 C1192.2941836675022 1066.7221786499024 1192.0891925176 1066.6444442113243 1191.9195744196588 1066.481814448039 C1191.75703093211 1066.3263455708825 1191.6722218831394 1066.1355036417644 1191.6722218831394 1065.9164495468142 C1191.6722218831394 1065.6902345657352 1191.75703093211 1065.5064672470096 1191.9195744196588 1065.3439237594605 C1192.0891925176 1065.188454882304 1192.2941836675022 1065.1036458333333 1192.5273869832372 1065.1036458333333 C1192.7606765747084 1065.1036458333333 1192.9585068384822 1065.188454882304 1193.128124936423 1065.3439237594605 C1193.2977430343642 1065.5064672470096 1193.3825520833348 1065.6902345657352 1193.3825520833348 1065.9164495468142 C1193.3825520833348 1066.1355036417644 1193.2977430343642 1066.3263455708825 1193.128124936423 1066.481814448039 C1192.9585068384822 1066.6444442113243 1192.7606765747084 1066.7221786499024 1192.5273869832372 1066.7221786499024 Z M1196.365190569561 1070.6094182332358 L1196.365190569561 1074.7298611323042 L1195.0152341206883 1074.7298611323042 L1195.0152341206883 1065.478255081177 L1196.3439667383843 1065.478255081177 L1196.3439667383843 1068.920225588481 L1196.428775787355 1068.920225588481 C1196.5913192749038 1068.5456163406375 1196.8386718114232 1068.2487415313724 1197.1779942830417 1068.029687436422 C1197.5101558685317 1067.8105470657351 1197.9483503341687 1067.6975258509322 1198.4855030695612 1067.6975258509322 C1198.9589843114231 1067.6975258509322 1199.37604122162 1067.7963978449504 1199.736501248679 1067.9943143844607 C1200.0898866653458 1068.1922309239708 1200.3654513676975 1068.4820311228436 1200.5633679072075 1068.870703315735 C1200.7612844467178 1069.2523871739709 1200.8602427164728 1069.7400176366173 1200.8602427164728 1070.312543423971 L1200.8602427164728 1074.7298611323042 L1199.5102862676 1074.7298611323042 L1199.5102862676 1070.4821615219118 C1199.5102862676 1069.9662326176963 1199.3831158320122 1069.5774741490686 1199.1216140747085 1069.2948348363243 C1198.860026041668 1069.0121092478437 1198.4925776799532 1068.870703315735 1198.0260847727473 1068.870703315735 C1197.7080724080417 1068.870703315735 1197.418272209169 1068.9414494196576 1197.1638450622575 1069.0756944656375 C1196.9164062500015 1069.2099395116172 1196.7185759862277 1069.4078560511273 1196.5771700541193 1069.6693578084314 C1196.4358503977471 1069.930859565735 1196.365190569561 1070.2418835957847 1196.365190569561 1070.6094182332358 Z M1209.7372395197565 1065.478255081177 L1211.1296436309829 1065.478255081177 L1211.1296436309829 1072.0370228449508 C1211.1296436309829 1072.630772463481 1211.0094615300509 1073.1396267573043 1210.776258214316 1073.5565973917646 C1210.5429686228447 1073.9806426366174 1210.2178816477472 1074.3058158874514 1209.7938364028944 1074.524869982402 C1209.3767794926976 1074.744010353089 1208.8820744196587 1074.8571178436282 1208.3166232426975 1074.8571178436282 C1207.7936197280899 1074.8571178436282 1207.32721309662 1074.7581595738732 1206.9101561864231 1074.5743922551476 C1206.4931855519626 1074.38355032603 1206.1680985768648 1074.1078993479414 1205.9277343750014 1073.7474393208824 C1205.6874564488744 1073.3799046834313 1205.5743489583347 1072.9346356074018 1205.5743489583347 1072.4187067031862 L1206.9596784591688 1072.4187067031862 C1206.9596784591688 1072.673133850098 1207.0161890665704 1072.8922742207849 1207.1363711675021 1073.0831161499027 C1207.2564669926974 1073.2668834686283 1207.4190967559828 1073.4152777353927 1207.6240016301485 1073.5213106155397 C1207.8360673904433 1073.6202688852948 1208.0763453165703 1073.6697048823041 1208.3519962946586 1073.6697048823041 C1208.6417964935315 1073.6697048823041 1208.8962236404434 1073.6131942749025 1209.1012147903455 1073.4859375635785 C1209.3061196645115 1073.358767127991 1209.4686631520603 1073.1749998092655 1209.5746960322076 1072.9346356074018 C1209.6807289123549 1072.6872830708826 1209.7372395197565 1072.3904082616173 1209.7372395197565 1072.0370228449508 L1209.7372395197565 1065.478255081177 Z M1215.0733938217177 1074.8853300094606 C1214.6281247456882 1074.8853300094606 1214.232291666668 1074.8005209604903 1213.8789062500014 1074.6379774729414 C1213.5255208333347 1074.4754339853928 1213.2428815205903 1074.2351560592656 1213.030815760296 1073.9241320292158 C1212.8258246103935 1073.6061196645105 1212.726952616375 1073.2244358062749 1212.726952616375 1072.7720921198531 C1212.726952616375 1072.3763453165693 1212.8046870549533 1072.0582466761273 1212.9530813217177 1071.8038195292158 C1213.101475588482 1071.549392382304 1213.3064667383844 1071.3514758427941 1213.5608938852959 1071.2030815760297 C1213.8153210322075 1071.0546873092653 1214.1051212310804 1070.9415798187258 1214.4231335957857 1070.8638453801477 C1214.7341576258355 1070.7931855519614 1215.0592446009332 1070.7365886688235 1215.3843315760307 1070.6942272822064 C1215.8013884862276 1070.6447050094607 1216.14062468211 1070.6094182332358 1216.4021264394137 1070.581119791667 C1216.6565535863256 1070.5457467397057 1216.8473955154432 1070.4892361323043 1216.9605030059827 1070.418576304118 C1217.0805988311781 1070.3479164759322 1217.137195714316 1070.2277343750002 1217.137195714316 1070.0651908874515 L1217.137195714316 1070.0368924458826 C1217.137195714316 1069.6411456425988 1217.0311628341688 1069.3371962229414 1216.8049478530897 1069.118142127991 C1216.5858937581393 1068.899001757304 1216.2608067830415 1068.792968877157 1215.822526041668 1068.792968877157 C1215.3631940205905 1068.792968877157 1215.0098086039238 1068.891927146912 1214.74830684662 1069.0969182968142 C1214.486805089316 1069.2948348363243 1214.3101123809827 1069.5138889312748 1214.2111541112276 1069.7612414677942 L1212.9389321009332 1069.4715275446576 C1213.0873263676976 1069.0473960240683 1213.3064667383844 1068.7081598281864 1213.5962669372573 1068.4537326812747 C1213.8930554707858 1068.1851563135785 1214.2253033320123 1068.001388994853 1214.6069009145112 1067.8812931696577 C1214.9815101623549 1067.7611110687258 1215.3843315760307 1067.6975258509322 1215.8013884862276 1067.6975258509322 C1216.077039464316 1067.6975258509322 1216.3738279978447 1067.7328126271568 1216.6848520278943 1067.7963978449504 C1216.9957897822076 1067.8600693384808 1217.2855899810804 1067.980165163676 1217.5612409591688 1068.1497832616174 C1217.8368919372572 1068.3264759699507 1218.0559460322077 1068.5668401718142 1218.2326387405408 1068.891927146912 C1218.4093314488741 1069.2029511769615 1218.4941404978447 1069.6128472010298 1218.4941404978447 1070.1217014948531 L1218.4941404978447 1074.7298611323042 L1217.1795571009332 1074.7298611323042 L1217.1795571009332 1073.7828123728439 L1217.1230464935315 1073.7828123728439 C1217.0311628341688 1073.9524304707847 1216.9039061228448 1074.129123179118 1216.7272134145114 1074.2987412770592 C1216.5575953165703 1074.461284764608 1216.3314666112278 1074.6026044209802 1216.0558156331394 1074.7157119115197 C1215.780164655051 1074.8288194020593 1215.4550776799533 1074.8853300094606 1215.0733938217177 1074.8853300094606 Z M1215.3631940205905 1073.796961593628 C1215.7377169926976 1073.796961593628 1216.0558156331394 1073.7262154897057 1216.3243920008356 1073.5778212229413 C1216.5929683685315 1073.429426956177 1216.7908849080418 1073.2385850270593 1216.932204564414 1072.9983071009322 C1217.0735242207857 1072.7579428990684 1217.1442703247083 1072.503515752157 1217.1442703247083 1072.2278647740686 L1217.1442703247083 1071.3302520116172 C1217.0947480519626 1071.379774284363 1217.0028643925998 1071.4292102813724 1216.8615447362276 1071.4645833333336 C1216.7272134145114 1071.5069447199505 1216.5717445373548 1071.542317771912 1216.4021264394137 1071.570616213481 C1216.2254337310803 1071.5988283793133 1216.0558156331394 1071.6271268208825 1215.8861975351983 1071.6483506520592 C1215.7236540476495 1071.669574483236 1215.5822481155408 1071.690712038676 1215.4762152353935 1071.7048612594608 C1215.2076388676974 1071.7331597010295 1214.9744355519624 1071.7896703084311 1214.7553814570122 1071.8674047470095 C1214.5433156967176 1071.9452254613243 1214.3666229883843 1072.0582466761273 1214.23936627706 1072.2067272186282 C1214.1121958414726 1072.3551214853926 1214.048610623679 1072.5459634145104 1214.048610623679 1072.7862413406374 C1214.048610623679 1073.1184029261274 1214.1757810592665 1073.372830073039 1214.4231335957857 1073.5495227813724 C1214.6705724080416 1073.7121525446576 1214.9815101623549 1073.796961593628 1215.3631940205905 1073.796961593628 Z M1222.8902343750012 1074.8641061782841 C1222.3319440841688 1074.8641061782841 1221.8300781250014 1074.722786521912 1221.391883659364 1074.4329863230391 C1220.9536891937269 1074.150347010295 1220.6144529978449 1073.733290100098 1220.360025850933 1073.203211975098 C1220.1126733144138 1072.6660592397056 1219.9924912134818 1072.0229598999026 1219.9924912134818 1071.2737414042156 C1219.9924912134818 1070.5246091842655 1220.119747924806 1069.881423568726 1220.3671004613252 1069.351345443726 C1220.621527608237 1068.8141927083334 1220.9678384145113 1068.4113712946576 1221.4060328801486 1068.1215710957847 C1221.8442273457858 1067.838845507304 1222.3460933049532 1067.6975258509322 1222.904383595786 1067.6975258509322 C1223.328515116375 1067.6975258509322 1223.6748259226495 1067.7752602895102 1223.9434022903456 1067.9165799458824 C1224.2049040476493 1068.0579858779909 1224.4098089218153 1068.227603975932 1224.551214853924 1068.4113712946576 C1224.6996091206881 1068.602126948039 1224.8197912216199 1068.77174504598 1224.8975256601982 1068.9131509780887 L1224.9823347091688 1068.9131509780887 L1224.9823347091688 1065.478255081177 L1226.3322911580417 1065.478255081177 L1226.3322911580417 1074.7298611323042 L1225.0105468750012 1074.7298611323042 L1225.0105468750012 1073.6484810511274 L1224.8975256601982 1073.6484810511274 C1224.8197912216199 1073.796961593628 1224.6996091206881 1073.9665796915695 1224.5441402435315 1074.1573353449505 C1224.3956597010308 1074.3481772740686 1224.190754826865 1074.5107207616174 1223.922178459169 1074.6521266937261 C1223.6606767018648 1074.7934463500978 1223.3143658955905 1074.8641061782841 1222.8902343750012 1074.8641061782841 Z M1223.1871091842665 1073.7121525446576 C1223.5758676528944 1073.7121525446576 1223.9080292383844 1073.6131942749025 1224.1766056060803 1073.4082031250005 C1224.4451819737765 1073.1961373647057 1224.650173123679 1072.9134980519616 1224.791492780051 1072.5459634145104 C1224.9328124364229 1072.1784287770593 1225.0035585403455 1071.7473089218142 1225.0035585403455 1071.2595921834313 C1225.0035585403455 1070.779036331177 1224.9328124364229 1070.3549910863244 1224.791492780051 1069.9945310592655 C1224.6571614583345 1069.6340710322063 1224.4522565841687 1069.351345443726 1224.1836802164728 1069.1534289042158 C1223.9151038487767 1068.9484377543133 1223.5829422632867 1068.8495657602948 1223.1871091842665 1068.8495657602948 C1222.7842877705905 1068.8495657602948 1222.4450515747083 1068.9555123647056 1222.1764752070123 1069.160503514608 C1221.900824228924 1069.3725692749026 1221.6958330790214 1069.6622831980392 1221.5615880330415 1070.0298178354903 C1221.4272567113253 1070.390277862549 1221.3565968831394 1070.8001738866174 1221.3565968831394 1071.2595921834313 C1221.3565968831394 1071.7260850906375 1221.4272567113253 1072.1430557250978 1221.5615880330415 1072.510590362549 C1221.7029076894137 1072.8851996103924 1221.9078988393162 1073.1749998092655 1222.1764752070123 1073.3940539042158 C1222.4520399093642 1073.6061196645105 1222.7913623809827 1073.7121525446576 1223.1871091842665 1073.7121525446576 Z M1229.760112444561 1074.7298611323042 L1227.717534383139 1067.789409510295 L1229.1169268290214 1067.789409510295 L1230.4739578882866 1072.8851996103924 L1230.5446177164724 1072.8851996103924 L1231.9086371103933 1067.789409510295 L1233.30104122162 1067.789409510295 L1234.6579860051484 1072.863975779216 L1234.7286458333347 1072.863975779216 L1236.0786022822074 1067.789409510295 L1237.4709201176975 1067.789409510295 L1235.4354166666678 1074.7298611323042 L1234.0572480519625 1074.7298611323042 L1232.650780995688 1069.718880081177 L1232.5447481155409 1069.718880081177 L1231.1382810592663 1074.7298611323042 L1229.760112444561 1074.7298611323042 Z M1240.7786455790213 1074.8853300094606 C1240.333376502992 1074.8853300094606 1239.9376296997082 1074.8005209604903 1239.5842442830417 1074.6379774729414 C1239.2308588663748 1074.4754339853928 1238.9481332778942 1074.2351560592656 1238.7360675175996 1073.9241320292158 C1238.5310763676973 1073.6061196645105 1238.4322043736788 1073.2244358062749 1238.4322043736788 1072.7720921198531 C1238.4322043736788 1072.3763453165693 1238.5028642018647 1072.0582466761273 1238.6583330790215 1071.8038195292158 C1238.8067273457857 1071.549392382304 1239.011718495688 1071.3514758427941 1239.2661456425997 1071.2030815760297 C1239.5205727895113 1071.0546873092653 1239.8103729883842 1070.9415798187258 1240.1283853530895 1070.8638453801477 C1240.4394093831393 1070.7931855519614 1240.764496358237 1070.7365886688235 1241.0895833333345 1070.6942272822064 C1241.5066402435314 1070.6447050094607 1241.8458764394136 1070.6094182332358 1242.1003035863253 1070.581119791667 C1242.3618053436292 1070.5457467397057 1242.5526472727468 1070.4892361323043 1242.6657547632865 1070.418576304118 C1242.7858505884817 1070.3479164759322 1242.8424474716198 1070.2277343750002 1242.8424474716198 1070.0651908874515 L1242.8424474716198 1070.0368924458826 C1242.8424474716198 1069.6411456425988 1242.7364145914723 1069.3371962229414 1242.5101996103933 1069.118142127991 C1242.291145515443 1068.899001757304 1241.9589839299533 1068.792968877157 1241.5278640747083 1068.792968877157 C1241.0684457778943 1068.792968877157 1240.7150603612276 1068.891927146912 1240.4535586039237 1069.0969182968142 C1240.1920568466198 1069.2948348363243 1240.0153641382865 1069.5138889312748 1239.9093312581392 1069.7612414677942 L1238.6441838582368 1069.4715275446576 C1238.7925781250012 1069.0473960240683 1239.011718495688 1068.7081598281864 1239.301518694561 1068.4537326812747 C1239.5983072280897 1068.1851563135785 1239.930555089316 1068.001388994853 1240.312152671815 1067.8812931696577 C1240.6867619196585 1067.7611110687258 1241.0895833333345 1067.6975258509322 1241.5066402435314 1067.6975258509322 C1241.7822912216197 1067.6975258509322 1242.0790797551485 1067.7328126271568 1242.390103785198 1067.7963978449504 C1242.7010415395112 1067.8600693384808 1242.9908417383842 1067.980165163676 1243.2664927164726 1068.1497832616174 C1243.542143694561 1068.3264759699507 1243.7611977895112 1068.5668401718142 1243.9378904978446 1068.891927146912 C1244.114583206178 1069.2029511769615 1244.1993922551485 1069.6128472010298 1244.1993922551485 1070.1217014948531 L1244.1993922551485 1074.7298611323042 L1242.8777342478445 1074.7298611323042 L1242.8777342478445 1073.7828123728439 L1242.8282982508351 1073.7828123728439 C1242.7364145914723 1073.9524304707847 1242.6091578801484 1074.129123179118 1242.4324651718152 1074.2987412770592 C1242.255772463482 1074.461284764608 1242.0367183685314 1074.6026044209802 1241.761067390443 1074.7157119115197 C1241.4854164123547 1074.8288194020593 1241.1603294372571 1074.8853300094606 1240.7786455790213 1074.8853300094606 Z M1241.0684457778943 1073.796961593628 C1241.4429687500012 1073.796961593628 1241.761067390443 1073.7262154897057 1242.0296437581392 1073.5778212229413 C1242.2982201258353 1073.429426956177 1242.4961366653454 1073.2385850270593 1242.6374563217175 1072.9983071009322 C1242.7787759780895 1072.7579428990684 1242.849522082012 1072.503515752157 1242.849522082012 1072.2278647740686 L1242.849522082012 1071.3302520116172 C1242.7999998092664 1071.379774284363 1242.7081161499036 1071.4292102813724 1242.5667964935315 1071.4645833333336 C1242.4324651718152 1071.5069447199505 1242.2769962946584 1071.542317771912 1242.1003035863253 1071.570616213481 C1241.9306854883841 1071.5988283793133 1241.761067390443 1071.6271268208825 1241.5914492925021 1071.6483506520592 C1241.428905804953 1071.669574483236 1241.2874998728446 1071.690712038676 1241.1744786580416 1071.7048612594608 C1240.9128906250012 1071.7331597010295 1240.6726126988742 1071.7896703084311 1240.460633214316 1071.8674047470095 C1240.2485674540214 1071.9452254613243 1240.071874745688 1072.0582466761273 1239.9446180343639 1072.2067272186282 C1239.8174475987764 1072.3551214853926 1239.7538623809826 1072.5459634145104 1239.7538623809826 1072.7862413406374 C1239.7538623809826 1073.1184029261274 1239.8810328165703 1073.372830073039 1240.1283853530895 1073.5495227813724 C1240.3687495549532 1073.7121525446576 1240.6867619196585 1073.796961593628 1241.0684457778943 1073.796961593628 Z M1247.3516488393159 1065.478255081177 L1247.3516488393159 1074.7298611323042 L1246.0016923904432 1074.7298611323042 L1246.0016923904432 1065.478255081177 L1247.3516488393159 1065.478255081177 Z "></path>
    </defs>
    <g>
      <use xmlns:xlink="http://www.w3.org/1999/xlink" xlink:href="#s-Path_84-8264f" fill="#000000" fill-opacity="1.0" filter="none"></use>
    </g>
  </g>
</svg>
