<?xml version="1.0" encoding="UTF-8"?>
<svg xmlns="http://www.w3.org/2000/svg" width="18.382568359375" height="17.5411376953125" viewBox="779.2088873745586 1060.3740561500167 18.382568359375 17.5411376953125" preserveAspectRatio="none">
  <g>
    <defs>
      <path id="s-Path_90-02671" d="M797.5411111539127 1066.66850590588 C797.4846265929382 1066.5060373366036 797.3786425846363 1066.3647828161818 797.2373880642147 1066.2587988078799 C797.0960473078219 1066.1528147995782 796.9265073889273 1066.0892588889853 796.7428247707962 1066.0751161897492 L791.5080426260092 1065.6794655550145 L789.2403815338175 1060.8898334922892 C789.1697542736065 1060.7343500366599 789.0496275660687 1060.6072382154748 788.9013016960287 1060.5153969064095 C788.7529758259884 1060.4235555973441 788.5763645574762 1060.3740561500167 788.3997532889634 1060.3740561500167 C788.2231420204505 1060.3740561500167 788.0536021015562 1060.4235555973441 787.9051899955455 1060.5153969064095 C787.7568641255054 1060.6072382154748 787.6367374179672 1060.7343500366599 787.5661101577564 1060.8898334922892 L785.2984490655645 1065.6794655550145 L780.056595571159 1066.0751161897492 C779.8799843026466 1066.0892588889853 779.710444383752 1066.1528147995782 779.5691898633304 1066.2517274582617 C779.4278491069376 1066.3577114665636 779.3218650986357 1066.498965986985 779.2653805376613 1066.6543632066432 C779.2018246270686 1066.8098466622725 779.1947532774504 1066.9864579307853 779.2300237895704 1067.1489265000614 C779.2724518872797 1067.3113950693378 779.364293196345 1067.4597209393778 779.484419903883 1067.579847646916 L783.3627964615437 1071.1827002773798 L781.9922481751805 1076.8413322194033 C781.9499063134422 1077.0108721382978 781.9640490126785 1077.1945547564285 782.0276049232712 1077.3570233257049 C782.098232183482 1077.5194918949812 782.211287541402 1077.660832651374 782.3666847610602 1077.7597453100577 C782.5150106311 1077.8585717327703 782.691621899613 1077.9151425297157 782.8823758673618 1077.9151425297157 C783.0660584854927 1077.9151425297157 783.2426697540054 1077.8656430823885 783.3980669736634 1077.7667304237048 L788.3997532889634 1074.587727590477 L793.4084247179105 1077.7667304237048 C793.5638219375687 1077.8656430823885 793.7475045556994 1077.9151425297157 793.9382585234484 1077.9151425297157 C794.1219411415791 1077.9080711800975 794.3056237597102 1077.851586619123 794.45394962975 1077.745602610821 C794.6093468494082 1077.6396186025195 794.7224022073283 1077.4912927324795 794.7859581179209 1077.3217528135851 C794.8496002644845 1077.1521266587195 794.8496002644845 1076.9685302765595 794.8001008171573 1076.7989041216942 L793.118758091478 1071.1827002773798 L797.2868012755707 1067.6081330453885 C797.5623252027669 1067.3678796303125 797.6612378614507 1067.0005143940507 797.5411111539127 1066.66850590588 L797.5411111539127 1066.66850590588 Z "></path>
    </defs>
    <g>
      <use xmlns:xlink="http://www.w3.org/1999/xlink" xlink:href="#s-Path_90-02671" fill="#FFD233" fill-opacity="1.0" filter="none"></use>
    </g>
  </g>
</svg>
