<?xml version="1.0" encoding="UTF-8"?>
<svg xmlns="http://www.w3.org/2000/svg" width="25.8983154296875" height="31.118896484375" viewBox="732.5835417905168 721.9868656797587 25.8983154296875 31.118896484375" preserveAspectRatio="none">
  <g>
    <defs>
      <path id="s-Path_71-02671" d="M757.8248104885902 729.7011906973703 C757.7753972772337 729.5670075265666 757.6764846185501 729.3479681603451 757.5422152117758 729.0583877698834 C757.4080320409723 728.7616497938327 757.3091193822886 728.5708958260836 757.2597061709323 728.4790545170183 C756.1152686004091 726.274949335419 754.4479823379952 724.6360347074487 752.2509485060143 723.5763670963729 C750.0539146740332 722.5166994852966 747.757968183369 721.9868656797587 745.3701803836389 721.9868656797587 C742.2759475098583 721.9868656797587 739.4784526121286 722.8345652742312 736.9776094544786 724.5229793495287 C734.4838376464468 726.2184647744443 733.0144629373713 728.5921098749379 732.5835417905168 731.6580573502458 L732.5835417905168 732.943835677162 L732.6683117499642 733.2829155149509 L732.6683117499642 733.7562647595141 C732.7742957582657 734.4767662968302 733.0568910350803 735.3033380784191 733.5230826940547 736.2288225186917 C733.9822892393818 737.1542207229929 734.3990676869998 737.8960225451347 734.7805756224977 738.4611268627928 C735.1620835579959 739.0263174164213 735.7696159733628 739.881088360512 736.617315567835 741.0325972806531 C737.4580300486602 742.1770348511766 738.0090779030529 742.9329793725544 738.284515594278 743.293273259198 C739.8599605476268 745.5043635544444 742.2759475098583 748.7752076967379 745.532648952915 753.105719450107 C745.9635700997694 752.5194010835946 747.461316443289 750.4000658614427 750.0115728122953 746.7477137836513 C750.1174705846261 746.6135306128479 750.3223672516115 746.3380066856514 750.6191052276624 745.9353709372699 C750.9228283173602 745.5255776032989 751.1206536347274 745.2147831639825 751.2337089926473 744.9886724481428 C751.3396930009494 744.8544892773393 751.5163042694619 744.6566639599721 751.7635427981854 744.4094254312486 C752.0037099772908 744.162186902525 752.1803212458033 743.971432934776 752.2933766037233 743.8371635280014 C752.6678131896033 743.250845161489 753.5013700848392 742.1346929894382 754.7730057125186 740.4886207758791 C756.0516264538455 738.8426347982906 756.9841822437361 737.4580300486621 757.5846433094848 736.3276489414043 C758.1780330256154 735.1973540701174 758.4818423512845 734.0953445973032 758.4818423512845 733.0144629373726 L758.4818423512845 731.5238741794426 C758.4818423512845 731.0293108860242 758.2628029850628 730.4217784706573 757.8248104885902 729.7011906973703 Z M745.4478789934681 736.398362437586 C743.3356151209343 736.398362437586 741.8662404118586 735.5364339079063 741.0538113295061 733.8268920197252 C740.9973267685318 733.6007813038852 740.9690413700589 733.2617014660964 740.9690413700589 732.8095662703874 L740.9690413700589 731.9335812774423 C740.9690413700589 730.8032864061552 741.4353192650042 729.9343727628284 742.3536461196873 729.3268403474613 C743.2791305599599 728.7193079320944 744.3670835695086 728.4154986064254 745.6103475627442 728.4154986064254 C746.966753149871 728.4154986064254 748.0970480211579 728.7970065419233 748.9942470629576 729.5670075265666 C749.891446104757 730.3299371615919 750.3365099508476 731.2766356507191 750.3365099508476 732.4069305220057 C750.3365099508476 733.5301540436744 749.8631607062844 734.4767662968302 748.9094771035102 735.2468535174448 C747.962864850354 736.0097831524699 746.8042845805946 736.398362437586 745.4478789934681 736.398362437586 Z "></path>
    </defs>
    <g>
      <use xmlns:xlink="http://www.w3.org/1999/xlink" xlink:href="#s-Path_71-02671" fill="#76CDC2" fill-opacity="1.0" filter="none"></use>
    </g>
  </g>
</svg>
