<?xml version="1.0" encoding="UTF-8"?>
<svg xmlns="http://www.w3.org/2000/svg" width="18.3909912109375" height="17.5491943359375" viewBox="779.5681998633667 1060.8630208333338 18.3909912109375 17.5491943359375" preserveAspectRatio="none">
  <g>
    <defs>
      <path id="s-Path_90-8264f" d="M797.9088770706545 1067.1603731155399 C797.8523664632529 1066.9978296279912 797.7463335831056 1066.856509971619 797.6050139267335 1066.7504770914718 C797.463607994625 1066.6444442113243 797.2939898966839 1066.5808589935307 797.1102225779583 1066.5667097727462 L791.8730265457522 1066.170876693726 L789.6043197789878 1061.3790360132857 C789.5336599508017 1061.2234808603928 789.4134778498702 1061.096310424805 789.2650835831058 1061.0044267654423 C789.1166893163414 1060.9125431060795 788.9399966080078 1060.8630208333338 788.7633038996747 1060.8630208333338 C788.5866111913414 1060.8630208333338 788.4169930934005 1060.9125431060795 788.2685125508996 1061.0044267654423 C788.1201182841352 1061.096310424805 787.9999361832034 1061.2234808603928 787.9292763550171 1061.3790360132857 L785.660569588253 1066.170876693726 L780.4162989456544 1066.5667097727462 C780.2396062373213 1066.5808589935307 780.0699881393799 1066.6444442113243 779.9286684830082 1066.7434024810796 C779.7872625508995 1066.8494353612268 779.681229670752 1066.990755017599 779.6247190633504 1067.1462238947554 C779.561133845557 1067.3017790476486 779.5540592351646 1067.478471755982 779.5893460113892 1067.6410152435308 C779.6317936737429 1067.8035587310796 779.7236773331057 1067.951952997844 779.8438594340374 1068.0721350987756 L783.7240244069784 1071.6766490936284 L782.3528441269287 1077.3378903706873 C782.3104827403116 1077.5075084686282 782.3246319610963 1077.6912757873538 782.3882171788902 1077.853819274903 C782.458877007076 1078.0163627624515 782.5719844976157 1078.15776869456 782.7274533747724 1078.2567269643152 C782.8758476415368 1078.3555989583338 783.0525403498699 1078.4121958414719 783.243382278988 1078.4121958414719 C783.4271495977135 1078.4121958414719 783.6038423060467 1078.362673568726 783.7593111832035 1078.263715298971 L788.7633038996747 1075.083246548971 L793.7742849508019 1078.263715298971 C793.9297538279583 1078.362673568726 794.1135211466839 1078.4121958414719 794.3043630758019 1078.4121958414719 C794.4881303945275 1078.4051212310796 794.6718977132531 1078.348610623678 794.8202919800173 1078.2425777435305 C794.9757608571739 1078.1365448633835 795.0888683477132 1077.988150596619 795.1524535655072 1077.818532498678 C795.2161250590374 1077.6488281250004 795.2161250590374 1077.4651470820115 795.1666027862917 1077.2954427083337 L793.484484751929 1071.6766490936284 L797.6544499237428 1068.1004335403447 C797.9301009018312 1067.8600693384813 798.0290591715863 1067.4925347010299 797.9088770706545 1067.1603731155399 L797.9088770706545 1067.1603731155399 Z "></path>
    </defs>
    <g>
      <use xmlns:xlink="http://www.w3.org/1999/xlink" xlink:href="#s-Path_90-8264f" fill="#FFD233" fill-opacity="1.0" filter="none"></use>
    </g>
  </g>
</svg>
