<?xml version="1.0" encoding="UTF-8"?>
<svg xmlns="http://www.w3.org/2000/svg" width="19.99267578125" height="17.5491943359375" viewBox="848.8318062987515 1060.8630208333338 19.99267578125 17.5491943359375" preserveAspectRatio="none">
  <g>
    <defs>
      <path id="s-Path_93-8264f" d="M868.7727931501314 1067.1603731155399 C868.7092079323376 1066.9978296279912 868.5961004417981 1066.856509971619 868.4406315646414 1066.7504770914718 C868.285162687485 1066.6444442113243 868.1013953687594 1066.5808589935307 867.9034788292494 1066.5667097727462 L862.2069507759658 1066.170876693726 L859.7402411939546 1061.3790360132857 C859.6625067553763 1061.2234808603928 859.5353363197888 1061.096310424805 859.3727928322402 1061.0044267654423 C859.2101630689548 1060.9125431060795 859.0194074155733 1060.8630208333338 858.8285654864557 1060.8630208333338 C858.6377235573378 1060.8630208333338 858.44688162822 1060.9125431060795 858.2843381406709 1061.0044267654423 C858.1217946531223 1061.096310424805 857.9945379417983 1061.2234808603928 857.9168035032197 1061.3790360132857 L855.4501801969453 1066.170876693726 L849.7535658679254 1066.5667097727462 C849.5628102145439 1066.5808589935307 849.3790428958183 1066.6444442113243 849.2305623533174 1066.7434024810796 C849.075093476161 1066.8494353612268 848.9619859856215 1066.990755017599 848.8913261574354 1067.1462238947554 C848.8277409396416 1067.3017790476486 848.8135917188573 1067.478471755982 848.8560393812107 1067.6410152435308 C848.9054753782201 1067.8035587310796 848.9973590375829 1067.951952997844 849.1386786939546 1068.0721350987756 L853.3440169177301 1071.6766490936284 L851.8598154228772 1077.3378903706873 C851.8102931501315 1077.5075084686282 851.824442370916 1077.6912757873538 851.9021768094943 1077.853819274903 C851.9728366376802 1078.0163627624515 852.1000933490044 1078.15776869456 852.2626368365533 1078.2567269643152 C852.4251803241021 1078.3555989583338 852.6230968636122 1078.4121958414719 852.8210134031223 1078.4121958414719 C853.025918277288 1078.4121958414719 853.2167602064059 1078.362673568726 853.386378304347 1078.263715298971 L858.8285654864557 1075.083246548971 L864.2706663928276 1078.263715298971 C864.4402844907687 1078.362673568726 864.645275640671 1078.4121958414719 864.8502667905733 1078.4121958414719 C865.0480970543468 1078.4051212310796 865.2460135938569 1078.348610623678 865.415631691798 1078.2425777435305 C865.5781751793469 1078.1365448633835 865.7054318906709 1077.988150596619 865.7690171084649 1077.818532498678 C865.8396769366508 1077.6488281250004 865.846751547043 1077.4651470820115 865.7902409396414 1077.2954427083337 L863.9597286385143 1071.6766490936284 L868.4900675616508 1068.1004335403447 C868.7869423709161 1067.8600693384813 868.9000498614554 1067.4925347010299 868.7727931501314 1067.1603731155399 L868.7727931501314 1067.1603731155399 Z "></path>
    </defs>
    <g>
      <use xmlns:xlink="http://www.w3.org/1999/xlink" xlink:href="#s-Path_93-8264f" fill="#FFD233" fill-opacity="1.0" filter="none"></use>
    </g>
  </g>
</svg>
