<?xml version="1.0" encoding="UTF-8"?>
<svg xmlns="http://www.w3.org/2000/svg" width="69.8714599609375" height="9.78173828125" viewBox="1177.4802083333348 812.0796875000003 69.8714599609375 9.78173828125" preserveAspectRatio="none">
  <g>
    <defs>
      <path id="s-Path_61-8264f" d="M1177.4802083333348 821.7059027989708 L1177.4802083333348 812.4542967478435 L1180.7737845738743 812.4542967478435 C1181.4947046279922 812.4542967478435 1182.095442581178 812.5814671834314 1182.5690100987767 812.8500435511273 C1183.035503005983 813.1115453084312 1183.3959630330419 813.4649307250979 1183.6291663487766 813.9243490219119 C1183.8623696645116 814.3766927083334 1183.9825517654433 814.8855470021567 1183.9825517654433 815.4509981791182 C1183.9825517654433 816.0163630803427 1183.8623696645116 816.5323782602948 1183.6220917383844 816.98463567098 C1183.3888884226494 817.4369793574017 1183.035503005983 817.7974393844604 1182.554860877992 818.0589411417643 C1182.0812933603938 818.3204428990684 1181.4876300176 818.4547742207844 1180.7737845738743 818.4547742207844 L1178.50507780711 818.4547742207844 L1178.50507780711 817.2673612594606 L1180.6466141382866 817.2673612594606 C1181.0989578247084 817.2673612594606 1181.4664061864232 817.1896268208823 1181.756206385296 817.0341579437256 C1182.0389319737767 816.871614456177 1182.243923123679 816.6595486958822 1182.3781681696587 816.3838977177938 C1182.505424880983 816.1082467397055 1182.576084709169 815.7973089853924 1182.576084709169 815.4509981791182 C1182.576084709169 815.0976127624513 1182.505424880983 814.7865887324017 1182.3781681696587 814.5180123647056 C1182.243923123679 814.2494359970094 1182.0318573633845 814.0374565124514 1181.7491317749038 813.8819876352948 C1181.4664061864232 813.7264324824016 1181.0918832143163 813.6486980438235 1180.6253903071101 813.6486980438235 L1178.8726124445611 813.6486980438235 L1178.8726124445611 821.7059027989708 L1177.4802083333348 821.7059027989708 Z M1185.5092009226496 821.7059027989708 L1185.5092009226496 814.7654511769615 L1186.859071095786 814.7654511769615 L1186.859071095786 821.7059027989708 L1185.5092009226496 821.7059027989708 Z M1186.1876733144138 813.6982203165692 C1185.954469998679 813.6982203165692 1185.7565534591688 813.6204858779909 1185.586935361228 813.4578561147055 C1185.4173172632868 813.302387237549 1185.3395828247085 813.1115453084312 1185.3395828247085 812.892491213481 C1185.3395828247085 812.6662762324017 1185.4173172632868 812.4825089136762 1185.586935361228 812.3199654261273 C1185.7565534591688 812.1644965489709 1185.954469998679 812.0796875000003 1186.1876733144138 812.0796875000003 C1186.427951240541 812.0796875000003 1186.625867780051 812.1644965489709 1186.7884112676 812.3199654261273 C1186.958029365541 812.4825089136762 1187.0428384145116 812.6662762324017 1187.0428384145116 812.892491213481 C1187.0428384145116 813.1115453084312 1186.958029365541 813.302387237549 1186.7884112676 813.4578561147055 C1186.625867780051 813.6204858779909 1186.427951240541 813.6982203165692 1186.1876733144138 813.6982203165692 Z M1190.0253906250016 812.4542967478435 L1190.0253906250016 821.7059027989708 L1188.675520451865 821.7059027989708 L1188.675520451865 812.4542967478435 L1190.0253906250016 812.4542967478435 Z M1191.8418399810805 821.7059027989708 L1191.8418399810805 814.7654511769615 L1193.1917964299535 814.7654511769615 L1193.1917964299535 821.7059027989708 L1191.8418399810805 821.7059027989708 Z M1192.5273869832372 813.6982203165692 C1192.2941836675022 813.6982203165692 1192.0891925176 813.6204858779909 1191.9195744196588 813.4578561147055 C1191.75703093211 813.302387237549 1191.6722218831394 813.1115453084312 1191.6722218831394 812.892491213481 C1191.6722218831394 812.6662762324017 1191.75703093211 812.4825089136762 1191.9195744196588 812.3199654261273 C1192.0891925176 812.1644965489709 1192.2941836675022 812.0796875000003 1192.5273869832372 812.0796875000003 C1192.7606765747084 812.0796875000003 1192.9585068384822 812.1644965489709 1193.128124936423 812.3199654261273 C1193.2977430343642 812.4825089136762 1193.3825520833348 812.6662762324017 1193.3825520833348 812.892491213481 C1193.3825520833348 813.1115453084312 1193.2977430343642 813.302387237549 1193.128124936423 813.4578561147055 C1192.9585068384822 813.6204858779909 1192.7606765747084 813.6982203165692 1192.5273869832372 813.6982203165692 Z M1196.365190569561 817.5854598999024 L1196.365190569561 821.7059027989708 L1195.0152341206883 821.7059027989708 L1195.0152341206883 812.4542967478435 L1196.3439667383843 812.4542967478435 L1196.3439667383843 815.8962672551474 L1196.428775787355 815.8962672551474 C1196.5913192749038 815.521658007304 1196.8386718114232 815.224783198039 1197.1779942830417 815.0057291030885 C1197.5101558685317 814.7865887324017 1197.9483503341687 814.6735675175987 1198.4855030695612 814.6735675175987 C1198.9589843114231 814.6735675175987 1199.37604122162 814.7724395116172 1199.736501248679 814.9703560511273 C1200.0898866653458 815.1682725906373 1200.3654513676975 815.4580727895102 1200.5633679072075 815.8467449824016 C1200.7612844467178 816.2284288406374 1200.8602427164728 816.7160593032838 1200.8602427164728 817.2885850906373 L1200.8602427164728 821.7059027989708 L1199.5102862676 821.7059027989708 L1199.5102862676 817.4582031885784 C1199.5102862676 816.9422742843628 1199.3831158320122 816.553515815735 1199.1216140747085 816.2708765029909 C1198.860026041668 815.9881509145102 1198.4925776799532 815.8467449824016 1198.0260847727473 815.8467449824016 C1197.7080724080417 815.8467449824016 1197.418272209169 815.9174910863242 1197.1638450622575 816.0517361323041 C1196.9164062500015 816.1859811782838 1196.7185759862277 816.3838977177938 1196.5771700541193 816.6453994750977 C1196.4358503977471 816.9069012324017 1196.365190569561 817.2179252624512 1196.365190569561 817.5854598999024 Z M1209.7372395197565 812.4542967478435 L1211.1296436309829 812.4542967478435 L1211.1296436309829 819.0130645116169 C1211.1296436309829 819.6068141301475 1211.0094615300509 820.1156684239704 1210.776258214316 820.532639058431 C1210.5429686228447 820.9566843032837 1210.2178816477472 821.281857554118 1209.7938364028944 821.5009116490683 C1209.3767794926976 821.720052019755 1208.8820744196587 821.8331595102948 1208.3166232426975 821.8331595102948 C1207.7936197280899 821.8331595102948 1207.32721309662 821.7342012405395 1206.9101561864231 821.5504339218139 C1206.4931855519626 821.3595919926961 1206.1680985768648 821.0839410146077 1205.9277343750014 820.7234809875488 C1205.6874564488744 820.3559463500976 1205.5743489583347 819.9106772740681 1205.5743489583347 819.3947483698526 L1206.9596784591688 819.3947483698526 C1206.9596784591688 819.6491755167644 1207.0161890665704 819.8683158874512 1207.1363711675021 820.059157816569 C1207.2564669926974 820.2429251352946 1207.4190967559828 820.3913194020588 1207.6240016301485 820.4973522822061 C1207.8360673904433 820.5963105519613 1208.0763453165703 820.6457465489705 1208.3519962946586 820.6457465489705 C1208.6417964935315 820.6457465489705 1208.8962236404434 820.5892359415689 1209.1012147903455 820.4619792302449 C1209.3061196645115 820.3348087946574 1209.4686631520603 820.1510414759318 1209.5746960322076 819.9106772740681 C1209.6807289123549 819.6633247375489 1209.7372395197565 819.3664499282838 1209.7372395197565 819.0130645116169 L1209.7372395197565 812.4542967478435 Z M1215.0733938217177 821.861371676127 C1214.6281247456882 821.861371676127 1214.232291666668 821.7765626271566 1213.8789062500014 821.614019139608 C1213.5255208333347 821.4514756520589 1213.2428815205903 821.2111977259319 1213.030815760296 820.9001736958821 C1212.8258246103935 820.5821613311768 1212.726952616375 820.2004774729412 1212.726952616375 819.7481337865192 C1212.726952616375 819.3523869832356 1212.8046870549533 819.0342883427938 1212.9530813217177 818.7798611958824 C1213.101475588482 818.5254340489705 1213.3064667383844 818.3275175094604 1213.5608938852959 818.179123242696 C1213.8153210322075 818.0307289759317 1214.1051212310804 817.9176214853924 1214.4231335957857 817.839887046814 C1214.7341576258355 817.769227218628 1215.0592446009332 817.7126303354901 1215.3843315760307 817.670268948873 C1215.8013884862276 817.6207466761273 1216.14062468211 817.5854598999024 1216.4021264394137 817.5571614583334 C1216.6565535863256 817.521788406372 1216.8473955154432 817.4652777989706 1216.9605030059827 817.3946179707846 C1217.0805988311781 817.3239581425987 1217.137195714316 817.2037760416667 1217.137195714316 817.0412325541179 L1217.137195714316 817.0129341125489 C1217.137195714316 816.6171873092651 1217.0311628341688 816.313237889608 1216.8049478530897 816.0941837946577 C1216.5858937581393 815.8750434239707 1216.2608067830415 815.7690105438235 1215.822526041668 815.7690105438235 C1215.3631940205905 815.7690105438235 1215.0098086039238 815.8679688135785 1214.74830684662 816.0729599634808 C1214.486805089316 816.2708765029909 1214.3101123809827 816.4899305979411 1214.2111541112276 816.7372831344605 L1212.9389321009332 816.4475692113242 C1213.0873263676976 816.0234376907351 1213.3064667383844 815.6842014948529 1213.5962669372573 815.4297743479412 C1213.8930554707858 815.1611979802451 1214.2253033320123 814.9774306615195 1214.6069009145112 814.8573348363243 C1214.9815101623549 814.7371527353923 1215.3843315760307 814.6735675175987 1215.8013884862276 814.6735675175987 C1216.077039464316 814.6735675175987 1216.3738279978447 814.7088542938234 1216.6848520278943 814.7724395116172 C1216.9957897822076 814.8361110051474 1217.2855899810804 814.9562068303428 1217.5612409591688 815.1258249282839 C1217.8368919372572 815.3025176366173 1218.0559460322077 815.542881838481 1218.2326387405408 815.8679688135785 C1218.4093314488741 816.1789928436281 1218.4941404978447 816.5888888676964 1218.4941404978447 817.0977431615195 L1218.4941404978447 821.7059027989708 L1217.1795571009332 821.7059027989708 L1217.1795571009332 820.75885403951 L1217.1230464935315 820.75885403951 C1217.0311628341688 820.9284721374513 1216.9039061228448 821.1051648457844 1216.7272134145114 821.2747829437255 C1216.5575953165703 821.4373264312742 1216.3314666112278 821.5786460876466 1216.0558156331394 821.6917535781861 C1215.780164655051 821.8048610687254 1215.4550776799533 821.861371676127 1215.0733938217177 821.861371676127 Z M1215.3631940205905 820.7730032602944 C1215.7377169926976 820.7730032602944 1216.0558156331394 820.7022571563718 1216.3243920008356 820.5538628896077 C1216.5929683685315 820.4054686228433 1216.7908849080418 820.2146266937257 1216.932204564414 819.9743487675987 C1217.0735242207857 819.733984565735 1217.1442703247083 819.4795574188233 1217.1442703247083 819.203906440735 L1217.1442703247083 818.3062936782837 C1217.0947480519626 818.3558159510296 1217.0028643925998 818.4052519480388 1216.8615447362276 818.440625 C1216.7272134145114 818.4829863866171 1216.5717445373548 818.5183594385783 1216.4021264394137 818.5466578801472 C1216.2254337310803 818.5748700459799 1216.0558156331394 818.6031684875488 1215.8861975351983 818.6243923187255 C1215.7236540476495 818.6456161499025 1215.5822481155408 818.6667537053427 1215.4762152353935 818.6809029261271 C1215.2076388676974 818.7092013676961 1214.9744355519624 818.7657119750977 1214.7553814570122 818.8434464136758 C1214.5433156967176 818.9212671279909 1214.3666229883843 819.0342883427938 1214.23936627706 819.1827688852948 C1214.1121958414726 819.3311631520592 1214.048610623679 819.5220050811768 1214.048610623679 819.7622830073037 C1214.048610623679 820.0944445927937 1214.1757810592665 820.3488717397054 1214.4231335957857 820.5255644480387 C1214.6705724080416 820.6881942113241 1214.9815101623549 820.7730032602944 1215.3631940205905 820.7730032602944 Z M1222.8902343750012 821.8401478449503 C1222.3319440841688 821.8401478449503 1221.8300781250014 821.6988281885783 1221.391883659364 821.4090279897055 C1220.9536891937269 821.1263886769611 1220.6144529978449 820.7093317667643 1220.360025850933 820.1792536417645 C1220.1126733144138 819.6421009063722 1219.9924912134818 818.9990015665692 1219.9924912134818 818.2497830708821 C1219.9924912134818 817.5006508509318 1220.119747924806 816.8574652353923 1220.3671004613252 816.3273871103925 C1220.621527608237 815.790234375 1220.9678384145113 815.3874129613241 1221.4060328801486 815.0976127624513 C1221.8442273457858 814.8148871739706 1222.3460933049532 814.6735675175987 1222.904383595786 814.6735675175987 C1223.328515116375 814.6735675175987 1223.6748259226495 814.751301956177 1223.9434022903456 814.892621612549 C1224.2049040476493 815.0340275446574 1224.4098089218153 815.2036456425985 1224.551214853924 815.3874129613241 C1224.6996091206881 815.5781686147056 1224.8197912216199 815.7477867126468 1224.8975256601982 815.8891926447552 L1224.9823347091688 815.8891926447552 L1224.9823347091688 812.4542967478435 L1226.3322911580417 812.4542967478435 L1226.3322911580417 821.7059027989708 L1225.0105468750012 821.7059027989708 L1225.0105468750012 820.6245227177938 L1224.8975256601982 820.6245227177938 C1224.8197912216199 820.7730032602944 1224.6996091206881 820.9426213582356 1224.5441402435315 821.1333770116171 C1224.3956597010308 821.3242189407349 1224.190754826865 821.4867624282838 1223.922178459169 821.6281683603922 C1223.6606767018648 821.7694880167642 1223.3143658955905 821.8401478449503 1222.8902343750012 821.8401478449503 Z M1223.1871091842665 820.6881942113241 C1223.5758676528944 820.6881942113241 1223.9080292383844 820.5892359415689 1224.1766056060803 820.3842447916668 C1224.4451819737765 820.172179031372 1224.650173123679 819.8895397186279 1224.791492780051 819.5220050811768 C1224.9328124364229 819.1544704437256 1225.0035585403455 818.7233505884808 1225.0035585403455 818.2356338500977 C1225.0035585403455 817.7550779978435 1224.9328124364229 817.331032752991 1224.791492780051 816.9705727259318 C1224.6571614583345 816.6101126988729 1224.4522565841687 816.3273871103925 1224.1836802164728 816.1294705708824 C1223.9151038487767 815.9244794209799 1223.5829422632867 815.8256074269614 1223.1871091842665 815.8256074269614 C1222.7842877705905 815.8256074269614 1222.4450515747083 815.9315540313723 1222.1764752070123 816.1365451812746 C1221.900824228924 816.3486109415692 1221.6958330790214 816.6383248647055 1221.5615880330415 817.0058595021567 C1221.4272567113253 817.3663195292156 1221.3565968831394 817.7762155532837 1221.3565968831394 818.2356338500977 C1221.3565968831394 818.7021267573039 1221.4272567113253 819.1190973917642 1221.5615880330415 819.4866320292153 C1221.7029076894137 819.861241277059 1221.9078988393162 820.1510414759318 1222.1764752070123 820.3700955708821 C1222.4520399093642 820.5821613311768 1222.7913623809827 820.6881942113241 1223.1871091842665 820.6881942113241 Z M1229.760112444561 821.7059027989708 L1227.717534383139 814.7654511769615 L1229.1169268290214 814.7654511769615 L1230.4739578882866 819.861241277059 L1230.5446177164724 819.861241277059 L1231.9086371103933 814.7654511769615 L1233.30104122162 814.7654511769615 L1234.6579860051484 819.840017445882 L1234.7286458333347 819.840017445882 L1236.0786022822074 814.7654511769615 L1237.4709201176975 814.7654511769615 L1235.4354166666678 821.7059027989708 L1234.0572480519625 821.7059027989708 L1232.650780995688 816.6949217478434 L1232.5447481155409 816.6949217478434 L1231.1382810592663 821.7059027989708 L1229.760112444561 821.7059027989708 Z M1240.7786455790213 821.861371676127 C1240.333376502992 821.861371676127 1239.9376296997082 821.7765626271566 1239.5842442830417 821.614019139608 C1239.2308588663748 821.4514756520589 1238.9481332778942 821.2111977259319 1238.7360675175996 820.9001736958821 C1238.5310763676973 820.5821613311768 1238.4322043736788 820.2004774729412 1238.4322043736788 819.7481337865192 C1238.4322043736788 819.3523869832356 1238.5028642018647 819.0342883427938 1238.6583330790215 818.7798611958824 C1238.8067273457857 818.5254340489705 1239.011718495688 818.3275175094604 1239.2661456425997 818.179123242696 C1239.5205727895113 818.0307289759317 1239.8103729883842 817.9176214853924 1240.1283853530895 817.839887046814 C1240.4394093831393 817.769227218628 1240.764496358237 817.7126303354901 1241.0895833333345 817.670268948873 C1241.5066402435314 817.6207466761273 1241.8458764394136 817.5854598999024 1242.1003035863253 817.5571614583334 C1242.3618053436292 817.521788406372 1242.5526472727468 817.4652777989706 1242.6657547632865 817.3946179707846 C1242.7858505884817 817.3239581425987 1242.8424474716198 817.2037760416667 1242.8424474716198 817.0412325541179 L1242.8424474716198 817.0129341125489 C1242.8424474716198 816.6171873092651 1242.7364145914723 816.313237889608 1242.5101996103933 816.0941837946577 C1242.291145515443 815.8750434239707 1241.9589839299533 815.7690105438235 1241.5278640747083 815.7690105438235 C1241.0684457778943 815.7690105438235 1240.7150603612276 815.8679688135785 1240.4535586039237 816.0729599634808 C1240.1920568466198 816.2708765029909 1240.0153641382865 816.4899305979411 1239.9093312581392 816.7372831344605 L1238.6441838582368 816.4475692113242 C1238.7925781250012 816.0234376907351 1239.011718495688 815.6842014948529 1239.301518694561 815.4297743479412 C1239.5983072280897 815.1611979802451 1239.930555089316 814.9774306615195 1240.312152671815 814.8573348363243 C1240.6867619196585 814.7371527353923 1241.0895833333345 814.6735675175987 1241.5066402435314 814.6735675175987 C1241.7822912216197 814.6735675175987 1242.0790797551485 814.7088542938234 1242.390103785198 814.7724395116172 C1242.7010415395112 814.8361110051474 1242.9908417383842 814.9562068303428 1243.2664927164726 815.1258249282839 C1243.542143694561 815.3025176366173 1243.7611977895112 815.542881838481 1243.9378904978446 815.8679688135785 C1244.114583206178 816.1789928436281 1244.1993922551485 816.5888888676964 1244.1993922551485 817.0977431615195 L1244.1993922551485 821.7059027989708 L1242.8777342478445 821.7059027989708 L1242.8777342478445 820.75885403951 L1242.8282982508351 820.75885403951 C1242.7364145914723 820.9284721374513 1242.6091578801484 821.1051648457844 1242.4324651718152 821.2747829437255 C1242.255772463482 821.4373264312742 1242.0367183685314 821.5786460876466 1241.761067390443 821.6917535781861 C1241.4854164123547 821.8048610687254 1241.1603294372571 821.861371676127 1240.7786455790213 821.861371676127 Z M1241.0684457778943 820.7730032602944 C1241.4429687500012 820.7730032602944 1241.761067390443 820.7022571563718 1242.0296437581392 820.5538628896077 C1242.2982201258353 820.4054686228433 1242.4961366653454 820.2146266937257 1242.6374563217175 819.9743487675987 C1242.7787759780895 819.733984565735 1242.849522082012 819.4795574188233 1242.849522082012 819.203906440735 L1242.849522082012 818.3062936782837 C1242.7999998092664 818.3558159510296 1242.7081161499036 818.4052519480388 1242.5667964935315 818.440625 C1242.4324651718152 818.4829863866171 1242.2769962946584 818.5183594385783 1242.1003035863253 818.5466578801472 C1241.9306854883841 818.5748700459799 1241.761067390443 818.6031684875488 1241.5914492925021 818.6243923187255 C1241.428905804953 818.6456161499025 1241.2874998728446 818.6667537053427 1241.1744786580416 818.6809029261271 C1240.9128906250012 818.7092013676961 1240.6726126988742 818.7657119750977 1240.460633214316 818.8434464136758 C1240.2485674540214 818.9212671279909 1240.071874745688 819.0342883427938 1239.9446180343639 819.1827688852948 C1239.8174475987764 819.3311631520592 1239.7538623809826 819.5220050811768 1239.7538623809826 819.7622830073037 C1239.7538623809826 820.0944445927937 1239.8810328165703 820.3488717397054 1240.1283853530895 820.5255644480387 C1240.3687495549532 820.6881942113241 1240.6867619196585 820.7730032602944 1241.0684457778943 820.7730032602944 Z M1247.3516488393159 812.4542967478435 L1247.3516488393159 821.7059027989708 L1246.0016923904432 821.7059027989708 L1246.0016923904432 812.4542967478435 L1247.3516488393159 812.4542967478435 Z "></path>
    </defs>
    <g>
      <use xmlns:xlink="http://www.w3.org/1999/xlink" xlink:href="#s-Path_61-8264f" fill="#000000" fill-opacity="1.0" filter="none"></use>
    </g>
  </g>
</svg>
