<?xml version="1.0" encoding="UTF-8"?>
<svg xmlns="http://www.w3.org/2000/svg" width="160.50271606445312" height="26.2353515625" viewBox="358.33281250000005 1867.9953125 160.50271606445312 26.2353515625" preserveAspectRatio="none">
  <g>
    <defs>
      <path id="s-Path_73-a24d5" d="M367.2126779715221 1878.2293403625488 C367.85724399884543 1878.3282123565675 368.4424523194631 1878.589800389608 368.96830293337507 1879.013759358724 C369.51110672950745 1879.437890879313 369.9351519743602 1879.9679690043129 370.24048180580144 1880.5898445129394 C370.56276481946315 1881.218967183431 370.72392789522814 1881.8903649648034 370.72392789522814 1882.6042104085288 C370.72392789522814 1883.5018231709798 370.4949089527131 1884.314540608724 370.03691420555117 1885.0425352732343 C369.5789625962576 1885.7563807169597 368.9089452266694 1886.3289065043134 368.02686209678654 1886.7528654734294 C367.16177528699245 1887.1557731628416 366.13556853930163 1887.360764312744 364.9481987158458 1887.360764312744 L358.33281250000005 1887.360764312744 L358.33281250000005 1869.6278219858802 L364.6937284310659 1869.6278219858802 C365.89809457461047 1869.6278219858802 366.9243013223013 1869.8328131357828 367.7724349498749 1870.2357208251954 C368.6205685774486 1870.624479293823 369.2566795825959 1871.1616320292158 369.68072482744856 1871.8401044209797 C370.1047700723012 1872.5185768127442 370.31683583259587 1873.2819445292155 370.31683583259587 1874.130035018921 C370.31683583259587 1875.1831166585287 370.02845918337505 1876.0524309794107 369.4517490228018 1876.752127202352 C368.89194890658064 1877.4305995941165 368.14562064806626 1877.9182300567625 367.2126779715221 1878.2293403625488 Z M360.6481944402059 1877.282205327352 L364.54110665321355 1877.282205327352 C365.62667110761015 1877.282205327352 366.4663497130076 1877.0276919047035 367.0600130558014 1876.5188376108806 C367.6537195364634 1876.0099833170573 367.95055120786037 1875.3102870941163 367.95055120786037 1874.4126743316654 C367.95055120786037 1873.5079869588214 367.6537195364634 1872.8082907358805 367.0600130558014 1872.2994364420572 C366.4663497130076 1871.7905821482343 365.60971792538965 1871.536241277059 364.4902039686839 1871.536241277059 L360.6481944402059 1871.536241277059 L360.6481944402059 1877.282205327352 Z M364.74463111559555 1885.452517573039 C365.89809457461047 1885.452517573039 366.79708774884546 1885.183854929606 367.4416537761689 1884.6396275838217 C368.0862629413605 1884.0954002380374 368.4085459550222 1883.3392796834312 368.4085459550222 1882.3709208170574 C368.4085459550222 1881.3885852813721 368.0692666212718 1880.6181429545084 367.3907942295075 1880.0597663879396 C366.7122786998749 1879.480338541667 365.80478736559553 1879.1904520670575 364.6683202266694 1879.1904520670575 L360.6481944402059 1879.1904520670575 L360.6481944402059 1885.452517573039 L364.74463111559555 1885.452517573039 Z M380.0179384708405 1887.5869792938236 C378.7118532339732 1887.5869792938236 377.5244834105174 1887.2900182088217 376.45582900047305 1886.6964411417646 C375.40417091051745 1886.102691523234 374.57299046516425 1885.2687502543133 373.9623308022817 1884.1802955627443 C373.36866745948794 1883.0776916503908 373.07179265022285 1881.8054696400961 373.07179265022285 1880.3638020833334 C373.07179265022285 1878.9361111958822 373.37712248166406 1877.685113016764 373.9877821445466 1876.5966583251954 C374.61539498964953 1875.494054412842 375.4635286172231 1874.6530385335288 376.5321398893992 1874.0805127461751 C377.6007942994436 1873.4869356791176 378.79666228294377 1873.1899745941162 380.1197438398997 1873.1899745941162 C381.44278225898745 1873.1899745941162 382.63865024248764 1873.4869356791176 383.707304652532 1874.0805127461751 C384.7759159247081 1874.6530385335288 385.6155945301057 1875.4869798024495 386.22621105511985 1876.5754344940185 C386.8538239002228 1877.656814575195 387.1676518917084 1878.9219619750977 387.1676518917084 1880.3638020833334 C387.1676518917084 1881.8054696400961 386.84536887804666 1883.0776916503908 386.20080285072333 1884.1802955627443 C385.5731900056204 1885.2687502543133 384.7165582180023 1886.102691523234 383.63095062573757 1886.6964411417646 C382.54538617134097 1887.2900182088217 381.3410200277965 1887.5869792938236 380.0179384708405 1887.5869792938236 Z M380.0179384708405 1885.5513895670572 C380.8491189161937 1885.5513895670572 381.6293966770172 1885.3605476379396 382.3587717533112 1884.9719617207845 C383.0881468296052 1884.5761286417644 383.67335515022285 1883.9965282440187 384.1143967151643 1883.2119366963705 C384.5723914623261 1882.4345923105873 384.8013672669729 1881.4803826649984 384.8013672669729 1880.3638020833334 C384.8013672669729 1879.2470489501954 384.5808464845022 1878.292839304606 384.13984805742905 1877.5154949188234 C383.6988064924876 1876.7309033711751 383.12209633191435 1876.1583775838214 382.40967443784086 1875.7839408874513 C381.6972525437674 1875.3951824188232 380.92542980511985 1875.1972658793131 380.0942924976349 1875.1972658793131 C379.2461588700613 1875.1972658793131 378.46588110923767 1875.3951824188232 377.7534592151642 1875.7839408874513 C377.0579905033112 1876.1583775838214 376.4982335249583 1876.7309033711751 376.07418828010566 1877.5154949188234 C375.65009989738473 1878.292839304606 375.43807727495835 1879.2470489501954 375.43807727495835 1880.3638020833334 C375.43807727495835 1881.5016064961753 375.6416448752086 1882.4558161417642 376.0487369378408 1883.2402351379394 C376.47278218269355 1884.0177520751956 377.03253916104643 1884.6044270833333 377.7280078728994 1884.9930130004884 C378.4234765847524 1885.3676222483316 379.18680116335554 1885.5513895670572 380.0179384708405 1885.5513895670572 Z M396.2927777131399 1887.5869792938236 C394.9866493384044 1887.5869792938236 393.7992795149486 1887.2900182088217 392.7306251049042 1886.6964411417646 C391.6789670149485 1886.102691523234 390.8477865695954 1885.2687502543133 390.23717004458115 1884.1802955627443 C389.6434635639191 1883.0776916503908 389.34663189252217 1881.8054696400961 389.34663189252217 1880.3638020833334 C389.34663189252217 1878.9361111958822 389.6519617239635 1877.685113016764 390.26257824897766 1876.5966583251954 C390.8901910940806 1875.494054412842 391.7383247216543 1874.6530385335288 392.80697913169865 1874.0805127461751 C393.87559040387475 1873.4869356791176 395.07145838737495 1873.1899745941162 396.39453994433086 1873.1899745941162 C397.7176215012869 1873.1899745941162 398.9134894847871 1873.4869356791176 399.9821007569632 1874.0805127461751 C401.05075516700754 1874.6530385335288 401.89039063453674 1875.4869798024495 402.5010502974193 1876.5754344940185 C403.1286631425222 1877.656814575195 403.44244799613955 1878.9219619750977 403.44244799613955 1880.3638020833334 C403.44244799613955 1881.8054696400961 403.12016498247783 1883.0776916503908 402.4755989551545 1884.1802955627443 C401.84798611005147 1885.2687502543133 400.99139746030176 1886.102691523234 399.9057898680369 1886.6964411417646 C398.82018227577214 1887.2900182088217 397.6158592700958 1887.5869792938236 396.2927777131399 1887.5869792938236 Z M396.2927777131399 1885.5513895670572 C397.12391502062485 1885.5513895670572 397.9041927814484 1885.3605476379396 398.63361099561064 1884.9719617207845 C399.3629860719045 1884.5761286417644 399.94819439252217 1883.9965282440187 400.38919281959534 1883.2119366963705 C400.84718756675727 1882.4345923105873 401.0762065092723 1881.4803826649984 401.0762065092723 1880.3638020833334 C401.0762065092723 1879.2470489501954 400.85568572680154 1878.292839304606 400.4146441618602 1877.5154949188234 C399.97364573478706 1876.7309033711751 399.3968924363454 1876.1583775838214 398.6844705422719 1875.7839408874513 C397.97204864819844 1875.3951824188232 397.2002690474193 1875.1972658793131 396.3690886020661 1875.1972658793131 C395.5209549744924 1875.1972658793131 394.74067721366885 1875.3951824188232 394.02825531959536 1875.7839408874513 C393.33282974561064 1876.1583775838214 392.7730296293895 1876.7309033711751 392.34898438453683 1877.5154949188234 C391.92493913968406 1878.292839304606 391.7128733793895 1879.2470489501954 391.7128733793895 1880.3638020833334 C391.7128733793895 1881.5016064961753 391.9164409796397 1882.4558161417642 392.32353304227195 1883.2402351379394 C392.7476214249929 1884.0177520751956 393.30737840334575 1884.6044270833333 394.00284711519885 1884.9930130004884 C394.69827268918357 1885.3676222483316 395.4615972677867 1885.5513895670572 396.2927777131399 1885.5513895670572 Z M414.2730294386546 1887.360764312744 L408.8026300907136 1881.2048179626465 L408.8026300907136 1887.360764312744 L406.48724815050764 1887.360764312744 L406.48724815050764 1868.5324652353922 L408.8026300907136 1868.5324652353922 L408.8026300907136 1879.6004343668617 L414.1712240695954 1873.4161895751956 L417.402595504125 1873.4161895751956 L410.83809040387473 1880.3638020833334 L417.42804684638986 1887.360764312744 L414.2730294386546 1887.360764312744 Z M420.77744348843896 1871.1545574188233 C420.33640192349753 1871.1545574188233 419.96321622530627 1870.9990885416667 419.65788639386494 1870.6950528462728 C419.35255656242373 1870.3911897023515 419.1999347845714 1870.0165804545084 419.1999347845714 1869.5784722646074 C419.1999347845714 1869.1331169128418 419.35255656242373 1868.7585076649982 419.65788639386494 1868.4546445210774 C419.96321622530627 1868.1507813771566 420.33640192349753 1867.9953125 420.77744348843896 1867.9953125 C421.2014887332916 1867.9953125 421.5577212492625 1868.1507813771566 421.84605476061506 1868.4546445210774 C422.1513845920563 1868.7585076649982 422.3040495077769 1869.1331169128418 422.3040495077769 1869.5784722646074 C422.3040495077769 1870.0165804545084 422.1513845920563 1870.3911897023515 421.84605476061506 1870.6950528462728 C421.5577212492625 1870.9990885416667 421.2014887332916 1871.1545574188233 420.77744348843896 1871.1545574188233 Z M421.8969574451447 1873.4161895751956 L421.8969574451447 1887.360764312744 L419.58157550493877 1887.360764312744 L419.58157550493877 1873.4161895751956 L421.8969574451447 1873.4161895751956 Z M432.63703564008085 1873.1616761525472 C434.33330289522814 1873.1616761525472 435.70724399884546 1873.677605056763 436.7589452266693 1874.7167100270588 C437.810603316625 1875.7344186147054 438.3364539305369 1877.211459223429 438.3364539305369 1879.1411023457847 L438.3364539305369 1887.360764312744 L436.0465233325958 1887.360764312744 L436.0465233325958 1879.4732639312745 C436.0465233325958 1878.0809460957846 435.69878897666933 1877.0207898457845 435.00332026481635 1876.2927951812742 C434.30785155296326 1875.5435766855878 433.3579556941986 1875.1760420481367 432.15358955065415 1875.1760420481367 C430.93231336275744 1875.1760420481367 429.9569661617279 1875.5577259063718 429.227591085434 1876.3209210713705 C428.51516919136054 1877.0842887878418 428.15893667538967 1878.1939673105878 428.15893667538967 1879.6499566396076 L428.15893667538967 1887.360764312744 L425.8435547351837 1887.360764312744 L425.8435547351837 1873.4161895751956 L428.15893667538967 1873.4161895751956 L428.15893667538967 1875.4022570292152 C428.6169314225515 1874.6884115854898 429.23604610761015 1874.137109629313 430.0163238684337 1873.748351160685 C430.81355481147773 1873.3595926920573 431.6871397813162 1873.1616761525472 432.63703564008085 1873.1616761525472 Z M447.8686718146007 1873.1899745941162 C449.0729948202769 1873.1899745941162 450.1246529102326 1873.4515626271566 451.02368922233586 1873.9745661417644 C451.9396787166596 1874.5046442667642 452.61815110842394 1875.1618928273517 453.05919267336526 1875.9606335957844 L453.05919267336526 1873.4161895751956 L455.400025955836 1873.4161895751956 L455.400025955836 1887.6646274566654 C455.400025955836 1888.9368494669595 455.12860248883567 1890.067751820882 454.5857986927033 1891.0500873565677 C454.0429948965709 1892.0536467234294 453.26271713574727 1892.8311636606857 452.24496541023257 1893.3895402272544 C451.2442100048065 1893.9479167938232 450.0737933635712 1894.2305561065675 448.7337586243948 1894.2305561065675 C446.9017796357473 1894.2305561065675 445.37517361640937 1893.799522527059 444.1538542906444 1892.930035654704 C442.9325781027476 1892.067795944214 442.21165804862983 1890.8875438690186 441.99113726615906 1889.3961814880374 L444.2811110019684 1889.3961814880374 C444.53553814888005 1890.2444445292156 445.0613456249238 1890.92291692098 445.85861970583596 1891.431771214803 C446.65585064888 1891.9547747294107 447.6142015298208 1892.2232648213705 448.7337586243948 1892.2232648213705 C450.00593749682116 1892.2232648213705 451.04064240455625 1891.820529683431 451.8378733476003 1891.0217889149988 C452.6521006107331 1890.230295308431 453.05919267336526 1889.106467564901 453.05919267336526 1887.6646274566654 L453.05919267336526 1884.738672129313 C452.60119792620344 1885.5513895670572 451.92268239657085 1886.2298619588216 451.02368922233586 1886.7740893046064 C450.1246529102326 1887.3183166503907 449.0729948202769 1887.5869792938236 447.8686718146007 1887.5869792938236 C446.63039930661523 1887.5869792938236 445.5023871898651 1887.2829435984293 444.4846354643504 1886.6752173105876 C443.4838369210562 1886.0602438608805 442.6951041380564 1885.205078760783 442.1183508396149 1884.1024748484294 C441.5416406790416 1883.000043487549 441.2532640298208 1881.7490453084308 441.2532640298208 1880.335503641764 C441.2532640298208 1878.9148873647052 441.5416406790416 1877.6638891855875 442.1183508396149 1876.5966583251954 C442.6951041380564 1875.5152782440189 443.4838369210562 1874.6742623647053 444.4846354643504 1874.0805127461751 C445.5023871898651 1873.4869356791176 446.63039930661523 1873.1899745941162 447.8686718146007 1873.1899745941162 Z M453.05919267336526 1880.3638020833334 C453.05919267336526 1879.3107204437254 452.847170050939 1878.39895846049 452.42308166821806 1877.6143669128421 C451.9990364233653 1876.837022527059 451.42228312492375 1876.2432729085288 450.69290804862976 1875.8332906087242 C449.9804861545563 1875.4093316396077 449.1917533715566 1875.1972658793131 448.3266665617625 1875.1972658793131 C447.46157975196843 1875.1972658793131 446.6728038311005 1875.4022570292152 445.960381937027 1875.8120667775472 C445.24796004295354 1876.2149744669593 444.6797049045563 1876.80872408549 444.2556596597036 1877.5931430816652 C443.8315712769827 1878.370660018921 443.6195486545563 1879.2894966125489 443.6195486545563 1880.335503641764 C443.6195486545563 1881.4098091125486 443.8315712769827 1882.3426223754884 444.2556596597036 1883.1342885335287 C444.6797049045563 1883.9187075297039 445.24796004295354 1884.5195317586265 445.960381937027 1884.9436632792156 C446.6728038311005 1885.3534730275476 447.46157975196843 1885.5513895670572 448.3266665617625 1885.5513895670572 C449.1917533715566 1885.5513895670572 449.9804861545563 1885.3534730275476 450.69290804862976 1884.9436632792156 C451.42228312492375 1884.5195317586265 451.9990364233653 1883.9187075297039 452.42308166821806 1883.1342885335287 C452.847170050939 1882.3426223754884 453.05919267336526 1881.416883722941 453.05919267336526 1880.3638020833334 Z M480.03947040239973 1887.360764312744 L477.7240884621939 1887.360764312744 L468.41165801684065 1873.239496866862 L468.41165801684065 1887.360764312744 L466.0962760766348 1887.360764312744 L466.0962760766348 1869.5996960957843 L468.41165801684065 1869.5996960957843 L477.7240884621939 1883.69973971049 L477.7240884621939 1869.5996960957843 L480.03947040239973 1869.5996960957843 L480.03947040239973 1887.360764312744 Z M490.0671267032624 1887.5869792938236 C488.76099832852685 1887.5869792938236 487.57362850507104 1887.2900182088217 486.5049740950267 1886.6964411417646 C485.4533160050711 1886.102691523234 484.6221355597179 1885.2687502543133 484.0115190347036 1884.1802955627443 C483.4178125540416 1883.0776916503908 483.12098088264463 1881.8054696400961 483.12098088264463 1880.3638020833334 C483.12098088264463 1878.9361111958822 483.42631071408596 1877.685113016764 484.0369703769684 1876.5966583251954 C484.6645832220713 1875.494054412842 485.51267371177676 1874.6530385335288 486.5813281218211 1874.0805127461751 C487.6499825318655 1873.4869356791176 488.8458073774974 1873.1899745941162 490.1688889344533 1873.1899745941162 C491.49197049140935 1873.1899745941162 492.68783847490954 1873.4869356791176 493.75644974708564 1874.0805127461751 C494.82510415713 1874.6530385335288 495.6647396246592 1875.4869798024495 496.27539928754175 1876.5754344940185 C496.9030121326447 1877.656814575195 497.216796986262 1878.9219619750977 497.216796986262 1880.3638020833334 C497.216796986262 1881.8054696400961 496.8945139726003 1883.0776916503908 496.249947945277 1884.1802955627443 C495.6223351001739 1885.2687502543133 494.7657464504242 1886.102691523234 493.68013885815935 1886.6964411417646 C492.5945312658946 1887.2900182088217 491.3902082602183 1887.5869792938236 490.0671267032624 1887.5869792938236 Z M490.0671267032624 1885.5513895670572 C490.8982640107473 1885.5513895670572 491.67854177157085 1885.3605476379396 492.4079599857331 1884.9719617207845 C493.137335062027 1884.5761286417644 493.72254338264463 1883.9965282440187 494.1635418097178 1883.2119366963705 C494.62153655687973 1882.4345923105873 494.8505554993948 1881.4803826649984 494.8505554993948 1880.3638020833334 C494.8505554993948 1879.2470489501954 494.630034716924 1878.292839304606 494.1889931519827 1877.5154949188234 C493.7479947249095 1876.7309033711751 493.1712414264679 1876.1583775838214 492.4588195323944 1875.7839408874513 C491.7463976383209 1875.3951824188232 490.97461803754175 1875.1972658793131 490.14343759218855 1875.1972658793131 C489.29530396461485 1875.1972658793131 488.51506934165957 1875.3951824188232 487.8026043097178 1875.7839408874513 C487.1071787357331 1876.1583775838214 486.5474217573802 1876.7309033711751 486.1233333746593 1877.5154949188234 C485.6992881298065 1878.292839304606 485.48726550738024 1879.2470489501954 485.48726550738024 1880.3638020833334 C485.48726550738024 1881.5016064961753 485.69078996976225 1882.4558161417642 486.0978820323944 1883.2402351379394 C486.52197041511533 1884.0177520751956 487.0817273934682 1884.6044270833333 487.7771961053213 1884.9930130004884 C488.4726648171743 1885.3676222483316 489.2359462579092 1885.5513895670572 490.0671267032624 1885.5513895670572 Z M518.8355122089387 1873.4161895751956 L514.4846268177033 1887.360764312744 L512.0929339885712 1887.360764312744 L508.73434898058576 1876.2927951812742 L505.37576397260034 1887.360764312744 L502.9840711434682 1887.360764312744 L498.6077344099681 1873.4161895751956 L500.9740190347036 1873.4161895751956 L504.1799391269684 1885.1203559875491 L507.6402863661449 1873.4161895751956 L510.00652785301213 1873.4161895751956 L513.3905642032623 1885.148654429118 L516.5455816109976 1873.4161895751956 L518.8355122089387 1873.4161895751956 Z "></path>
    </defs>
    <g>
      <use xmlns:xlink="http://www.w3.org/1999/xlink" xlink:href="#s-Path_73-a24d5" fill="#000000" fill-opacity="1.0" filter="none"></use>
    </g>
  </g>
</svg>
