<?xml version="1.0" encoding="UTF-8"?>
<svg xmlns="http://www.w3.org/2000/svg" width="321.051025390625" height="31.961669921875" viewBox="520.9032478656713 555.5358925677315 321.051025390625 31.961669921875" preserveAspectRatio="none">
  <g>
    <defs>
      <path id="s-Path_31-0a187" d="M535.4206715638164 562.0531967366234 C535.2842661825733 560.6799111874496 534.6778187285846 559.5879347752415 533.6014154797632 558.7765341377344 C532.524969091985 557.9651335002271 531.1721745472676 557.5594547509518 529.541608260038 557.5594547509518 C528.3930766755309 557.5594547509518 527.3809504722668 557.7566429222552 526.5052296502455 558.1495956792893 C525.6380072027041 558.5432817985879 524.9552469342248 559.0896366858244 524.4576822070723 559.7886603409985 C523.9671491298702 560.4791856216926 523.7225943840555 561.2665578602903 523.7225943840555 562.1500436945265 C523.7225943840555 562.8002771896165 523.8632705220166 563.3706604757627 524.1438462967175 563.8604601907 C524.425155433683 564.3502599056372 524.802578166287 564.7722020416073 525.2768478567946 565.1255963753018 C525.7581491972524 565.4705354734733 526.2882406977941 565.7680648581769 526.8671223584198 566.0168903607098 C527.4530356689957 566.2656727242859 528.04321973629 566.4748535255658 528.6376314213456 566.6430954568901 L531.2400321262351 567.3901759098833 C532.0273612258759 567.6071648623349 532.8140432411656 567.8842032425822 533.6014154797632 568.2213341895822 C534.388744579404 568.5591984988467 535.1075690157261 568.9846780292701 535.7578025108162 569.4985061431171 C536.4165343803858 570.0045692447491 536.9423982631661 570.627236946476 537.3360843824648 571.3658621639462 C537.7375355139787 572.096679230245 537.9382610797356 572.9766276700278 537.9382610797356 574.0042838977217 C537.9382610797356 575.3217476368611 537.5968593760175 576.506343389211 536.9148324698031 577.5587182391228 C536.2320722013235 578.6104460046832 535.2517394091841 579.4458750411003 533.974567455649 580.0643151250656 C532.6981288643789 580.6749470578592 531.1679037905494 580.9802845937343 529.384711874339 580.9802845937343 C527.7060887892902 580.9802845937343 526.2486822744545 580.7032462134871 525.0118021065238 580.1483929517708 C523.774921938593 579.5865080401046 522.8030875209332 578.8111715704401 522.0962988535442 577.8237639893936 C521.3895101861552 576.835666185039 520.9915964490949 575.6914053572503 520.9032478656713 574.3902050048057 L523.2165312824234 574.3902050048057 C523.297114853632 575.3620394224655 523.6180255528939 576.1847424666412 524.1806006878683 576.8597377229055 C524.7424855995347 577.534689840213 525.4733458047899 578.0485179540602 526.3730518867641 578.4019122877547 C527.2721108843871 578.7468513859262 528.2764289364793 578.9200111583199 529.384711874339 578.9200111583199 C530.613783891098 578.9200111583199 531.7058034422627 578.7150579748015 532.662064696536 578.3051084688082 C533.6254438786729 577.8880841739075 534.380289343881 577.3092456522386 534.9266442311175 576.5706204347681 C535.4807641305687 575.8235831207318 535.7578025108162 574.9563175342334 535.7578025108162 573.9682628688357 C535.7578025108162 573.1328338324187 535.5408135583644 572.4345004005527 535.1075690157261 571.8719252655785 C534.6735911108229 571.3015419794323 534.067186795791 570.8237348944714 533.2882697927162 570.4385471496522 C532.5171609408133 570.0526260425685 531.6216824766007 569.7112674778072 530.6017912611214 569.4143851774551 L527.6502238402991 568.5471627299133 C525.7143200171945 567.9683242082444 524.212394098993 567.1696495629782 523.1444460856945 566.1497583474992 C522.075807849088 565.1291337697554 521.5421789540927 563.8286667795753 521.5421789540927 562.2461572901651 C521.5421789540927 560.9209285388108 521.8955732877872 559.7561335676093 522.6023619551762 558.7525057388247 C523.3169156347802 557.7403795355605 524.280985040225 556.9530072969628 525.4931034469815 556.3911223852966 C526.7144535904822 555.8207390991505 528.0835115218941 555.5358925677315 529.6016576878337 555.5358925677315 C531.1354201561168 555.5358925677315 532.4931325419037 555.816511481389 533.673500676492 556.3790866163632 C534.8545158954319 556.9410146669865 535.7903292842054 557.7163511366509 536.4808545648999 558.7044489410052 C537.1798782200739 559.6840483708801 537.5530301959596 560.8000531819979 537.6011301327356 562.0531967366234 L535.4206715638164 562.0531967366234 Z M550.2031410122322 562.0531967366234 L550.2031410122322 563.9205527574526 L541.3718200643235 563.9205527574526 L541.3718200643235 562.0531967366234 L550.2031410122322 562.0531967366234 Z M544.131117154912 557.6195041787475 L546.2875473249217 557.6195041787475 L546.2875473249217 575.7274263861364 C546.2875473249217 576.4985352380393 546.4197250884032 577.1049826920283 546.684770838674 577.5467256091464 C546.9498165889448 577.9799701517848 547.2954459104244 578.2895353054214 547.7209254408477 578.4740406234404 C548.1470951945794 578.6507377902876 548.6008738806306 578.7390863737113 549.0821752210884 578.7390863737113 C549.3634843580537 578.7390863737113 549.6045017094151 578.7228229870166 549.8052272751719 578.6909864369351 C550.0059528409288 578.6507377902876 550.182650007776 578.6104460046832 550.3353187757136 578.570844442387 L550.7933250795264 580.5102856599451 C550.5841011392899 580.590135868889 550.3275537634986 580.6629544278826 550.0222162276235 580.7272746123967 C549.7168786917482 580.7993598091257 549.3394559591443 580.8354239769685 548.8899480298112 580.8354239769685 C548.1025757912136 580.8354239769685 547.3435027082438 580.6629544278826 546.6126856419452 580.3173251064031 C545.8896335878615 579.9716957849236 545.2959121261138 579.4578676710765 544.829450586778 578.7751074025973 C544.3636792707504 578.0923471341181 544.131117154912 577.2449254677247 544.131117154912 576.2334894877685 L544.131117154912 557.6195041787475 Z M560.2416625258276 580.9802845937343 C559.124967491402 580.9802845937343 558.1050331369662 580.7632956412828 557.1812986560823 580.3293608753364 C556.2575210362419 579.8876179582184 555.5231665754895 579.2529144875583 554.9768116882534 578.4259406866641 C554.4304568010169 577.5905547892042 554.1576460385311 576.57842858594 554.1576460385311 575.3902954391366 C554.1576460385311 574.4743259704677 554.3300724486602 573.7032171185648 554.6757017701397 573.0769688834278 C555.0206408683111 572.4500735639394 555.5111308065565 571.9362454500924 556.1451440539086 571.5347511796219 C556.7798043856119 571.133300048108 557.5311555953234 570.8159698822564 558.3983780428649 570.5827175431102 C559.2656004904064 570.3501985662286 560.2211715213715 570.16927378162 561.265824498025 570.0406334125919 C562.3019791001988 569.911993043564 563.1769665599555 569.7996160612307 563.892253601824 569.7035024655921 C564.6145722936429 569.6073457309968 565.1651547986407 569.4546769630592 565.542577531245 569.2454961617793 C565.9200002638491 569.0369624448508 566.1087331996296 568.699831497851 566.1087331996296 568.2333699585153 L566.1087331996296 567.8000822769202 C566.1087331996296 566.5391737100797 565.7313104670253 565.5468482879638 564.9764650018171 564.8245295961449 C564.229384548824 564.0937125298462 563.1529381610458 563.7282824272186 561.7471258384828 563.7282824272186 C560.4141320749135 563.7282824272186 559.3256930571589 564.0208939708525 558.4824558695701 564.6075406436934 C557.6470699721101 565.1934539542693 557.0611135225774 565.8847125972284 556.7239825755775 566.6798498480409 L554.6877375390728 565.944762025024 C555.1054520572812 564.9326789607167 555.6836003556423 564.1255059409709 556.4221824341557 563.5233292437002 C557.1614978749342 562.9126541719498 557.9884285368715 562.4751388725931 558.9044411444969 562.2100931223223 C559.8197203898578 561.9365921365285 560.7477256274599 561.8001867552856 561.687076410687 561.8001867552856 C562.393865078076 561.8001867552856 563.1289097621361 561.8927629564706 563.892253601824 562.0772251355329 C564.6626290914623 562.2624206768598 565.3779161333308 562.5832882371651 566.0366480029006 563.0412945409777 C566.6946465102056 563.4908024703108 567.2289656285087 564.1212783232095 567.6389151345022 564.9326789607167 C568.0481744171879 565.7355812237441 568.2531276007062 566.7561626625314 568.2531276007062 567.9930428304622 L568.2531276007062 580.5583424577645 L566.1087331996296 580.5583424577645 L566.1087331996296 577.6308034358516 L565.9758652128401 577.6308034358516 C565.7192746980922 578.1771583230881 565.3376243477267 578.7072498236298 564.8315612460946 579.2210779374768 C564.3254981444624 579.7349491902805 563.6907946738024 580.1568913262506 562.9281841963791 580.4862572610353 C562.1648403566912 580.8156231958204 561.2693618924786 580.9802845937343 560.2416625258276 580.9802845937343 Z M560.5307366750081 579.0161247539585 C561.6715032473003 579.0161247539585 562.6589108283468 578.7631147726207 563.4942967258071 578.2570516709887 C564.3297257622239 577.7509885693567 564.972194245099 577.0809542931186 565.4217453133887 576.2455252567015 C565.8797084782447 575.4023312080698 566.1087331996296 574.4743259704677 566.1087331996296 573.4621997672037 L566.1087331996296 570.7877138655854 C565.948299419477 570.9403826335229 565.678982912488 571.076788014766 565.3015601798838 571.197620232622 C564.9319024594946 571.3178053661271 564.5021953113096 571.4266449540067 564.0123955963722 571.5227585496453 C563.53036089365 571.611107133069 563.0483261909275 571.6874199475595 562.5670248504697 571.7517401320735 C562.0849901477474 571.8160603165874 561.6510122428442 571.8719252655785 561.265824498025 571.9199820633977 C560.2211715213715 572.0486224324258 559.3299206749203 572.2493479981824 558.5913385964069 572.5228489839762 C557.8520231556284 572.7957028854189 557.2858674872439 573.1731256180232 556.8921813679452 573.6551171817889 C556.498538387603 574.1286966489882 556.3020404396077 574.7393717207386 556.3020404396077 575.4864090347752 C556.3020404396077 576.6109122203726 556.7034915711214 577.4824054246322 557.506393834149 578.1008455085976 C558.3100294594414 578.7107872180834 559.3178849059872 579.0161247539585 560.5307366750081 579.0161247539585 Z M581.2467107906208 562.0531967366234 L581.2467107906208 563.9205527574526 L572.415389842712 563.9205527574526 L572.415389842712 562.0531967366234 L581.2467107906208 562.0531967366234 Z M575.1746869333006 557.6195041787475 L577.3311171033101 557.6195041787475 L577.3311171033101 575.7274263861364 C577.3311171033101 576.4985352380393 577.4632948667916 577.1049826920283 577.7283406170624 577.5467256091464 C577.9933863673333 577.9799701517848 578.3390156888128 578.2895353054214 578.7644952192364 578.4740406234404 C579.1899747496598 578.6507377902876 579.644443659019 578.7390863737113 580.1257449994768 578.7390863737113 C580.4070541364424 578.7390863737113 580.6480714878036 578.7228229870166 580.8487970535605 578.6909864369351 C581.0495226193173 578.6507377902876 581.2262197861645 578.6104460046832 581.3788885541022 578.570844442387 L581.8368948579149 580.5102856599451 C581.6276709176783 580.590135868889 581.3711235418873 580.6629544278826 581.065786006012 580.7272746123967 C580.7604484701369 580.7993598091257 580.3830257375326 580.8354239769685 579.9335178081996 580.8354239769685 C579.1461455696019 580.8354239769685 578.3870724866322 580.6629544278826 577.6562554203335 580.3173251064031 C576.9332033662498 579.9716957849236 576.3387916811942 579.4578676710765 575.8730203651666 578.7751074025973 C575.4072490491387 578.0923471341181 575.1746869333006 577.2449254677247 575.1746869333006 576.2334894877685 L575.1746869333006 557.6195041787475 Z M597.8753550321017 573.4862281661132 L597.8753550321017 562.0531967366234 L600.0197494331783 562.0531967366234 L600.0197494331783 580.5583424577645 L597.8753550321017 580.5583424577645 L597.8753550321017 577.4859428190858 L597.7064228774693 577.4859428190858 C597.2724449725662 578.433748837836 596.5861473096334 579.2253486941952 595.6461494420549 579.8593188025905 C594.7067986588278 580.4862572610353 593.5582670743207 580.7993598091257 592.2005546885337 580.7993598091257 C591.0201865539453 580.7993598091257 589.972039321795 580.5420790710698 589.0560267141693 580.0282509572228 C588.1407474688087 579.505924468896 587.4219230324866 578.7433139914726 586.8996396831163 577.7389528004236 C586.3780034180976 576.7353249716391 586.1164950622804 575.5026724214697 586.1164950622804 574.0403480655646 L586.1164950622804 562.0531967366234 L588.260889463357 562.0531967366234 L588.260889463357 573.9081703020831 C588.260889463357 575.3535410479858 588.6871023560452 576.5183360191874 589.5380614168919 577.4018218534236 C590.3897538400034 578.2775426754448 591.4817302522116 578.7150579748015 592.8147240157809 578.7150579748015 C593.6501530521978 578.7150579748015 594.45378867749 578.5142892700878 595.2248975293929 578.1128381385741 C595.9952730190313 577.7113870070602 596.6299764896912 577.1247834731764 597.1282745791084 576.3536746212735 C597.6258393062607 575.5747576181989 597.8753550321017 574.6191865872335 597.8753550321017 573.4862281661132 Z M618.1297854494478 566.1130039563484 L616.16631583298 566.6678140791078 C615.973355279438 566.1130039563484 615.7005445169522 565.6111684724777 615.3471501832577 565.1616605431446 C614.9937558495632 564.7121526138116 614.5315219279889 564.3544875233989 613.961138641843 564.089441773128 C613.3992537301766 563.8243960228572 612.7002300750027 563.6915280360678 611.8655344008504 563.6915280360678 C610.6123908462251 563.6915280360678 609.5840012562661 563.9891005597281 608.7810989932386 564.5835122447837 C607.978196730211 565.1779239298394 607.5760122364326 565.944762025024 607.5760122364326 566.8841128082513 C607.5760122364326 567.6792500590639 607.8495563611832 568.3259461597003 608.3951778861549 568.8242442491176 C608.9500311478708 569.3140439640548 609.8009902087178 569.7035024655921 610.9495217932249 569.9925766147727 L613.7448830516562 570.6795645010136 C615.2948657676769 571.0569872336175 616.4553899821606 571.6549363131268 617.2264988340635 572.4741019628491 C618.0053726981813 573.2939578358794 618.3948311997186 574.3216572025302 618.3948311997186 575.558537370461 C618.3948311997186 576.6024569848496 618.1057570505383 577.5304622224517 617.5276087521772 578.341862859959 C616.9494604538163 579.1525301352015 616.1422874340703 579.791461223623 615.1061328318965 580.2572325396508 C614.0777863808945 580.7152388434633 612.8854256163296 580.9435302025835 611.5276700915858 580.9435302025835 C609.7204066375092 580.9435302025835 608.2312067115488 580.5385416766162 607.0579565048241 579.727141039109 C605.8853965214074 578.9079753893867 605.1347786739606 577.726960170447 604.8054127391758 576.1847424666412 L606.8656861745902 575.679369588317 C607.130731924861 576.7791541516968 607.6488307954262 577.6110457936603 608.4199396473291 578.1729307053267 C609.1988135114473 578.7348156169929 610.2229323446878 579.0161247539585 611.491605923743 579.0161247539585 C612.9136816330007 579.0161247539585 614.0494872252667 578.6987945881068 614.9011796483782 578.0647813407547 C615.7528720714897 577.4216226345719 616.1783516019132 576.6187203715443 616.1783516019132 575.6546509660994 C616.1783516019132 574.908260736414 615.929569238337 574.2813654169257 615.4312711489199 573.7753023152937 C614.9329730595028 573.2614742014467 614.1781275942946 572.8840514688426 613.1660013910305 572.6430341174814 L610.1423487734792 571.9199820633977 C608.535854024116 571.5347511796219 607.3477208773126 570.9241192468281 606.5766120254096 570.0893804337194 C605.8055031735067 569.2539513973023 605.4196252053796 568.2177967951285 605.4196252053796 566.9809166271979 C605.4196252053796 565.9610254117189 605.696663585627 565.065546947506 606.2507834850782 564.2944380956031 C606.8049033845297 563.5148308692205 607.5682472242175 562.9048891597349 608.5400816418775 562.4631462426169 C609.5119160595373 562.0214033254987 610.6201558584402 561.8001867552856 611.8655344008504 561.8001867552856 C613.5596875103291 561.8001867552856 614.9131722783545 562.1860647234128 615.9252984816188 562.9571735753157 C616.9451896970978 563.7198271916956 617.6802775201147 564.7722020416073 618.1297854494478 566.1130039563484 Z M633.0776496580424 580.5583424577645 L633.0776496580424 555.8850592836644 L641.0410579351015 555.8850592836644 C642.7924564401875 555.8850592836644 644.2540905727847 556.2221902306643 645.4266505562015 556.8971854869286 C646.6070186907898 557.5636823687132 647.4947321427876 558.4711966018591 648.0891438278433 559.6197281863662 C648.6913205251138 560.7682597708732 648.9924304432276 562.061695111103 648.9924304432276 563.4993008447906 C648.9924304432276 564.9369065784782 648.6955481428755 566.2338361742046 648.1011795967764 567.3901759098833 C647.5067679117208 568.5387074943903 646.6232820774845 569.4504493452979 645.4507220940677 570.1254446015622 C644.2781189716943 570.7919414833467 642.8200222335506 571.1248448125851 641.0778123262525 571.1248448125851 L634.8128279153905 571.1248448125851 L634.8128279153905 569.1012826293647 L641.0170295361921 569.1012826293647 C642.3104217374649 569.1012826293647 643.3826405074816 568.8602652780036 644.2335995683286 568.3782737142378 C645.08529199144 567.8884308603438 645.7199954621002 567.221933978559 646.1377099803086 566.3787399299272 C646.563189510732 565.5348556579872 646.775950845422 564.5750138703039 646.775950845422 563.4993008447906 C646.775950845422 562.4228544570124 646.563189510732 561.4630126693291 646.1377099803086 560.6198186206971 C645.7199954621002 559.7766245720653 645.0810643736785 559.1136650847342 644.221606938352 558.6316303820116 C643.3706047385484 558.1495956792893 642.2899307330089 557.9093116901927 640.9809653683493 557.9093116901927 L635.3308836469988 557.9093116901927 L635.3308836469988 580.5583424577645 L633.0776496580424 580.5583424577645 Z M661.1187911856007 580.9435302025835 C659.3914210794245 580.9435302025835 657.8979503967458 580.5420790710698 656.6370418299055 579.7391768080422 C655.3761332630653 578.9277761705349 654.4000712276438 577.8075006026988 653.7095459469496 576.3777030201829 C653.0267856784703 574.9400972864955 652.6853839747522 573.2855026003565 652.6853839747522 571.4139189617656 C652.6853839747522 569.5508336976546 653.0267856784703 567.8962390115155 653.7095459469496 566.4508251266561 C654.4000712276438 564.996956006274 655.3521048641555 563.8604601907 656.5642664098685 563.0412945409777 C657.7855734144125 562.2136305167759 659.1949231314292 561.8001867552856 660.7929626452693 561.8001867552856 C661.7973238363184 561.8001867552856 662.76488749726 561.9853391576559 663.6964301293154 562.3543066547371 C664.6287061236359 562.7161562239545 665.4634017977879 563.2738135178594 666.2027172385664 564.0293923453323 C666.9497976915595 564.7757394360609 667.5399817588539 565.7200080603575 667.9739165248002 566.8600844093415 C668.4072042063954 567.9930428304622 668.624193158847 569.3338447452029 668.624193158847 570.883827461224 L668.624193158847 571.9440104623073 L654.1668188884977 571.9440104623073 L654.1668188884977 570.0526260425685 L666.4317419599512 570.0526260425685 C666.4317419599512 568.8645360347217 666.1907246085898 567.7958546591585 665.7086899058675 566.8480486404084 C665.2351104386679 565.8924776094433 664.5721509513368 565.1376321442349 663.720501667182 564.5835122447837 C662.8772644795934 564.0293923453323 661.9019358064368 563.7523108261283 660.7929626452693 563.7523108261283 C659.6204026618525 563.7523108261283 658.5884756774401 564.0654133742183 657.697224830989 564.6916616093555 C656.8052406222732 565.3178667055357 656.1069503293637 566.145487590781 655.6008872277317 567.1731869574318 C655.1025891383147 568.2015765473906 654.8495791569769 569.3260365940314 654.841814144762 570.5466965142242 L654.841814144762 571.6796549353445 C654.841814144762 573.1490972191134 655.0948241260996 574.4340341848635 655.6008872277317 575.5345089715512 C656.1147153415787 576.6264853837594 656.841995013424 577.4739070501527 657.7813457966512 578.0768171096881 C658.7213868031863 578.6789938069587 659.8331639965426 578.9801037250725 661.1187911856007 578.9801037250725 C661.9937786453572 578.9801037250725 662.7613501028064 578.8436552048728 663.4193917490683 578.570844442387 C664.0865788541608 578.2973434565931 664.6442361480658 577.9319133539653 665.0944774396635 577.4739070501527 C665.5517503812115 577.0081357341248 665.8973797026911 576.4985352380393 666.1306320418374 575.9444153385879 L668.1661868550342 576.606684602611 C667.8855679413765 577.3855584667291 667.4233340198024 578.1043829030511 666.7808655369273 578.7631147726207 C666.1461620662674 579.4218466421905 665.3510248154548 579.9519381427323 664.3954537844895 580.353389274246 C663.4476477657394 580.7470753935448 662.3556713535312 580.9435302025835 661.1187911856007 580.9435302025835 Z M673.349763898092 580.5583424577645 L673.349763898092 562.0531967366234 L675.4341088713727 562.0531967366234 L675.4341088713727 564.8966147928737 L675.6270262859579 564.8966147928737 C675.995993783039 563.9410437619086 676.6108964725511 563.1897356911538 677.4703539078776 562.6433808039175 C678.3375763554191 562.0892609044662 679.3772683520464 561.812179385262 680.5901201210675 561.812179385262 C681.8672920746023 561.812179385262 682.9154393067527 562.1132893033757 683.734604956475 562.7161562239545 C684.5622689806768 563.3105679090102 685.1807090646422 564.1297335587323 685.589925208371 565.1736531731212 L685.7468647330268 565.1736531731212 C686.1645361122786 564.145306722119 686.8430687629963 563.3303686901583 687.7831097695316 562.7281919928877 C688.730182426017 562.1175169211373 689.878714010524 561.812179385262 691.2287045230529 561.812179385262 C692.9468860314412 561.812179385262 694.304641556185 562.3543066547371 695.3005043727543 563.43851805473 C696.2963671893239 564.5149644425082 696.7946652787409 566.0889755574386 696.7946652787409 568.1612847617864 L696.7946652787409 580.5583424577645 L694.6495375153996 580.5583424577645 L694.6495375153996 568.1612847617864 C694.6495375153996 566.699650629189 694.2763855395136 565.6034034602627 693.5293050865205 564.8725863939641 C692.7822246335273 564.1417693276657 691.7983544469341 563.7763392250378 690.5777376656981 563.7763392250378 C689.1641603309201 563.7763392250378 688.0757213131656 564.2096269066332 687.3130676967857 565.0775395774826 C686.5497669960544 565.944762025024 686.168073506732 567.0452368117118 686.168073506732 568.3782737142378 L686.168073506732 580.5583424577645 L683.9756223078361 580.5583424577645 L683.9756223078361 567.9690144315524 C683.9756223078361 566.7158708769269 683.6264987308598 565.703744673663 682.9274750756858 564.9326789607167 C682.2291416438198 564.1615701088137 681.2453145961836 563.7763392250378 679.9759076548637 563.7763392250378 C679.1249485940167 563.7763392250378 678.3573771365672 563.9848729419665 677.6746168680879 564.4025874601749 C677.0003549740884 564.8202588394267 676.4659927168283 565.4026778945058 676.0723065975295 566.1497583474992 C675.6871188527103 566.8883404260129 675.4941582991684 567.7400328491244 675.4941582991684 568.7033688923044 L675.4941582991684 580.5583424577645 L673.349763898092 580.5583424577645 Z M702.9175499660694 580.5583424577645 L702.9175499660694 555.8850592836644 L705.0739801360791 555.8850592836644 L705.0739801360791 565.5829124558066 L705.2669406896208 565.5829124558066 C705.5079580409822 565.0287925563551 705.852854000197 564.4590994935172 706.3030952917946 563.8724959596332 C706.7596780100347 563.2858492867924 707.3604311217327 562.7960495718552 708.0955189447495 562.4023634525563 C708.8447132066235 562.0009123210426 709.7847110742022 561.8001867552856 710.9155988253985 561.8001867552856 C712.4351685769105 561.8001867552856 713.7710095116255 562.2016378867993 714.916003701679 563.0052303731349 C716.0680726806397 563.8003676239475 716.9586333037829 564.9164155740222 717.6017920099657 566.3540213077096 C718.2449938551056 567.7838620291822 718.5700890331722 569.4504493452979 718.5700890331722 571.3538263950131 C718.5700890331722 573.2657018192081 718.2449938551056 574.9400972864955 717.6017920099657 576.3777030201829 C716.9657080926899 577.8153087538706 716.0751474695467 578.9362745450146 714.9301532794929 579.7391768080422 C713.7851590894394 580.5420790710698 712.4634677325384 580.9435302025835 710.9509296309766 580.9435302025835 C709.8271166686872 580.9435302025835 708.8871188011086 580.7428046368267 708.1308497503276 580.3413535053128 C707.3887302773605 579.9399023737991 706.787934026706 579.4458750411003 706.3271236907043 578.8599185915673 C705.8691173868915 578.2655069065117 705.515723053197 577.6866683848427 705.2669406896208 577.1247834731764 L705.00189493935 577.1247834731764 L705.00189493935 580.5583424577645 L702.9175499660694 580.5583424577645 Z M705.037915968236 571.3178053661271 C705.037915968236 572.8119231331568 705.2584423151411 574.1371518845112 705.7001852322592 575.29349162019 C706.150426523857 576.4420232046971 706.795008815613 577.3460000433894 707.6290142664569 578.0039985506944 C708.4700945062082 578.6549654080491 709.4949467017136 578.9801037250725 710.6894212751592 578.9801037250725 C711.9192266541828 578.9801037250725 712.9582284275021 578.6429296391159 713.8063403172035 577.9679775218082 C714.6615701347687 577.2852172533289 715.3047288409517 576.3656672512499 715.7500091525233 575.2093706545278 C716.188214675188 574.0523406955411 716.4073174365202 572.7554110998148 716.4073174365202 571.3178053661271 C716.4073174365202 569.8964198801774 716.188214675188 568.6150203088808 715.7500091525233 567.4749870988535 C715.3118036298587 566.3342205265615 714.6686449236756 565.4309339111771 713.8204898950174 564.7637468060843 C712.9723348663592 564.089441773128 711.9263014430898 563.7523108261283 710.6894212751592 563.7523108261283 C709.4807971238996 563.7523108261283 708.4559449283943 564.0774491431517 707.614864688643 564.7276826382415 C706.780859237799 565.3701511211166 706.1419281493773 566.2621353298325 705.7001852322592 567.4021685398599 C705.2584423151411 568.535170099937 705.037915968236 569.8399078468352 705.037915968236 571.3178053661271 Z M728.4439060098968 580.9802845937343 C727.3272109754711 580.9802845937343 726.3094767078294 580.7632956412828 725.3835421401515 580.3293608753364 C724.4647686392939 579.8876179582184 723.7296808162771 579.2529144875583 723.1783649490145 578.4259406866641 C722.6341238706588 577.5905547892042 722.3655838648912 576.57842858594 722.3655838648912 575.3902954391366 C722.3655838648912 574.4743259704677 722.5352062428314 573.7032171185648 722.8815257876189 573.0769688834278 C723.2278453324064 572.4500735639394 723.7155312384632 571.9362454500924 724.3516582946958 571.5347511796219 C724.9877853509287 571.133300048108 725.7369364738458 570.8159698822564 726.6062727302682 570.5827175431102 C727.4686204756971 570.3501985662286 728.4227679210894 570.16927378162 729.4688013443589 570.0406334125919 C730.5077599787215 569.911993043564 731.3841710240507 569.7996160612307 732.0980344803467 569.7035024655921 C732.8189727255497 569.6073457309968 733.3702885928122 569.4546769630592 733.7448210153141 569.2454961617793 C734.1265145046364 569.0369624448508 734.3102864603907 568.699831497851 734.3102864603907 568.2333699585153 L734.3102864603907 567.8000822769202 C734.3102864603907 566.5391737100797 733.9356677599752 565.5468482879638 733.1794418481511 564.8245295961449 C732.4372792362273 564.0937125298462 731.3559581463362 563.7282824272186 729.9493693225519 563.7282824272186 C728.620603176744 563.7282824272186 727.5322072979462 564.0208939708525 726.6840091303314 564.6075406436934 C725.8500468184441 565.1934539542693 725.2633570066465 565.8847125972284 724.931187039673 566.6798498480409 L722.8956753654328 565.944762025024 C723.3126565213767 564.9326789607167 723.8851536164034 564.1255059409709 724.6273162283272 563.5233292437002 C725.3693925623375 562.9126541719498 726.1963663632315 562.4751388725931 727.1081513530956 562.2100931223223 C728.0269248539531 561.9365921365285 728.9528594216312 561.8001867552856 729.8928572892095 561.8001867552856 C730.5996459565985 561.8001867552856 731.3347337796154 561.8927629564706 732.0980344803467 562.0772251355329 C732.8684099699848 562.2624206768598 733.5822734262807 562.5832882371651 734.2396248492345 563.0412945409777 C734.8968899942747 563.4908024703108 735.4340562837234 564.1212783232095 735.8440489286737 564.9326789607167 C736.2539552957103 565.7355812237441 736.4589516181854 566.7561626625314 736.4589516181854 567.9930428304622 L736.4589516181854 580.5583424577645 L734.3102864603907 580.5583424577645 L734.3102864603907 577.6308034358516 L734.1831128158922 577.6308034358516 C733.9215181821613 578.1771583230881 733.5399109707525 578.7072498236298 733.0380323479251 579.2210779374768 C732.5291652141042 579.7349491902805 731.8930381578716 580.1568913262506 731.1297374571402 580.4862572610353 C730.3664367564091 580.8156231958204 729.4758761332658 580.9802845937343 728.4439060098968 580.9802845937343 Z M728.7337135213421 579.0161247539585 C729.8787077113956 579.0161247539585 730.861154312416 578.7631147726207 731.7022776911238 578.2570516709887 C732.5362400030112 577.7509885693567 733.1794418481511 577.0809542931186 733.6247221597225 576.2455252567015 C734.0841520491082 575.4023312080698 734.3102864603907 574.4743259704677 734.3102864603907 573.4621997672037 L734.3102864603907 570.7877138655854 C734.1548136602643 570.9403826335229 733.8862305155401 571.076788014766 733.5045370262177 571.197620232622 C733.1369931147093 571.3178053661271 732.7058623809514 571.4266449540067 732.2182196138516 571.5227585496453 C731.7375653577452 571.611107133069 731.2499225906453 571.6874199475595 730.7692683345388 571.7517401320735 C730.288700356346 571.8160603165874 729.8574833446746 571.8719252655785 729.4688013443589 571.9199820633977 C728.4227679210894 572.0486224324258 727.5322072979462 572.2493479981824 726.7971194749293 572.5228489839762 C726.0550431409191 572.7957028854189 725.4895776958425 573.1731256180232 725.0937346287062 573.6551171817889 C724.7050526283903 574.1286966489882 724.5071310948222 574.7393717207386 724.5071310948222 575.4864090347752 C724.5071310948222 576.6109122203726 724.909962672952 577.4824054246322 725.708637318218 578.1008455085976 C726.5143867523911 578.7107872180834 727.5251325090393 579.0161247539585 728.7337135213421 579.0161247539585 Z M742.9967467915335 587.4975887626262 C742.565616057776 587.4975887626262 742.1697729906394 587.4572969770217 741.8022290791309 587.3774467680779 C741.4346851676225 587.2968631968693 741.137889145184 587.2085146134456 740.9187432448949 587.112401017807 L741.4983582677855 585.2210165980681 C742.2333598128887 585.4457705627348 742.8836364469354 585.5256639106354 743.4491018920119 585.4620339494293 C744.0215558480821 585.4054787771303 744.5304229819029 585.1482411780312 744.9686285045674 584.6909250975264 C745.4139088161392 584.2407269448853 745.8026770943685 583.5501585252342 746.1489966391559 582.6186158931789 L746.8274861509171 580.7392672423731 L740.0211078328448 562.0531967366234 L742.3464701574867 562.0531967366234 L747.8382319075652 577.726960170447 L748.0078542855055 577.726960170447 L753.4996160355839 562.0531967366234 L755.8249783602259 562.0531967366234 L747.9937047076914 583.4858814796771 C747.6615347407179 584.3771323261283 747.2587031625882 585.1206753846682 746.7780489064817 585.7143537074589 C746.2973946503754 586.3172637669944 745.7390902721191 586.7625440785661 745.1029632158865 587.0523084510544 C744.4739109485605 587.34914761245 743.7741970700786 587.4975887626262 742.9967467915335 587.4975887626262 Z M764.6244627580534 580.9802845937343 C763.5077677236275 580.9802845937343 762.4899471780725 580.7632956412828 761.5640988883079 580.3293608753364 C760.6381643206298 579.8876179582184 759.9030764976129 579.2529144875583 759.3589216971709 578.4259406866641 C758.8146806188151 577.5905547892042 758.5390226851838 576.57842858594 758.5390226851838 575.3902954391366 C758.5390226851838 574.4743259704677 758.715719852031 573.7032171185648 759.0620393968185 573.0769688834278 C759.4012841526991 572.4500735639394 759.896001708706 571.9362454500924 760.5321287649389 571.5347511796219 C761.1611810322646 571.133300048108 761.9174932220023 570.8159698822564 762.7797546895176 570.5827175431102 C763.64909094594 570.3501985662286 764.6032383913324 570.16927378162 765.6492718146018 570.0406334125919 C766.6883167268779 569.911993043564 767.5576529833002 569.7996160612307 768.2785912285032 569.7035024655921 C768.9994431957924 569.6073457309968 769.5507590630551 569.4546769630592 769.9253777634705 569.2454961617793 C770.2999964638858 569.0369624448508 770.4908432085471 568.699831497851 770.4908432085471 568.2333699585153 L770.4908432085471 567.8000822769202 C770.4908432085471 566.5391737100797 770.1162245081316 565.5468482879638 769.3599123183939 564.8245295961449 C768.6107611954767 564.0937125298462 767.5364286165793 563.7282824272186 766.1299260707083 563.7282824272186 C764.7940851359937 563.7282824272186 763.7126777681892 564.0208939708525 762.8645658784878 564.6075406436934 C762.0305172886868 565.1934539542693 761.4439137548029 565.8847125972284 761.1046689989224 566.6798498480409 L759.0691141857255 565.944762025024 C759.4860953416693 564.9326789607167 760.0657103645599 564.1255059409709 760.8077866985701 563.5233292437002 C761.5428745215869 562.9126541719498 762.3697620445674 562.4751388725931 763.2886218233384 562.2100931223223 C764.2004068132026 561.9365921365285 765.1333298918742 561.8001867552856 766.0734140373662 561.8001867552856 C766.7802027047551 561.8001867552856 767.5152042498584 561.8927629564706 768.2785912285032 562.0772251355329 C769.0489667181412 562.2624206768598 769.7628301744371 562.5832882371651 770.4200953194774 563.0412945409777 C771.0774467424311 563.4908024703108 771.6146130318798 564.1212783232095 772.0245193989165 564.9326789607167 C772.4345120438667 565.7355812237441 772.6394220884284 566.7561626625314 772.6394220884284 567.9930428304622 L772.6394220884284 580.5583424577645 L770.4908432085471 580.5583424577645 L770.4908432085471 577.6308034358516 L770.3565084972282 577.6308034358516 C770.1020749303177 578.1771583230881 769.7203814409953 578.7072498236298 769.2185890960815 579.2210779374768 C768.7097219622607 579.7349491902805 768.073594906028 580.1568913262506 767.3102942052968 580.4862572610353 C766.5469072266519 580.8156231958204 765.656346603509 580.9802845937343 764.6244627580534 580.9802845937343 Z M764.9142702694985 579.0161247539585 C766.0521896706452 579.0161247539585 767.0417110605724 578.7631147726207 767.8756733724598 578.2570516709887 C768.7097219622607 577.7509885693567 769.3528375294869 577.0809542931186 769.8051926299656 576.2455252567015 C770.2646225193511 575.4023312080698 770.4908432085471 574.4743259704677 770.4908432085471 573.4621997672037 L770.4908432085471 570.7877138655854 C770.3282093416003 570.9403826335229 770.0596261968759 571.076788014766 769.6850937743741 571.197620232622 C769.3175498628657 571.3178053661271 768.8864191291079 571.4266449540067 768.3986900840946 571.5227585496453 C767.9110473169947 571.611107133069 767.4303930608882 571.6874199475595 766.9498250826954 571.7517401320735 C766.4691708265889 571.8160603165874 766.0380400928314 571.8719252655785 765.6492718146018 571.9199820633977 C764.6032383913324 572.0486224324258 763.7126777681892 572.2493479981824 762.9776762230857 572.5228489839762 C762.235513611162 572.7957028854189 761.6700481660854 573.1731256180232 761.2742913768627 573.6551171817889 C760.8855230986334 574.1286966489882 760.6876878429786 574.7393717207386 760.6876878429786 575.4864090347752 C760.6876878429786 576.6109122203726 761.0905194211085 577.4824054246322 761.8891940663744 578.1008455085976 C762.6949435005477 578.7107872180834 763.6985281903753 579.0161247539585 764.9142702694985 579.0161247539585 Z M778.3432549498891 580.5583424577645 L778.3432549498891 562.0531967366234 L780.4282470075209 562.0531967366234 L780.4282470075209 564.8966147928737 L780.5837198076473 564.8966147928737 C780.9512637191557 563.9650721608184 781.5944655642955 563.2137640900636 782.5062505541597 562.6433808039175 C783.4320988439241 562.0652325055565 784.4781322671936 561.776158356376 785.6443508239682 561.776158356376 C785.8210479908155 561.776158356376 786.0118947354766 561.7803859741375 786.2309543578522 561.7881509863525 C786.4501002581412 561.796649360832 786.6267974249885 561.804414373047 786.7751954362078 561.812179385262 L786.7751954362078 563.9926379541814 C786.6762346694238 563.9770647907947 786.5066122914835 563.953036391885 786.266328302387 563.9205527574526 C786.0260443132906 563.8887162073711 785.7645359574731 563.8724959596332 785.4818032349349 563.8724959596332 C784.5205810006354 563.8724959596332 783.6653080441138 564.0774491431517 782.9090821322893 564.4866652868803 C782.1598447314585 564.8888497806588 781.5732411975747 565.4465070745636 781.1350356749099 566.1617509774755 C780.7039049411524 566.8763477960363 780.4847590408633 567.6912426890405 780.4847590408633 568.6072552966659 L780.4847590408633 580.5583424577645 L778.3432549498891 580.5583424577645 Z M795.602978989663 580.9802845937343 C794.4862839552372 580.9802845937343 793.4684634096822 580.7632956412828 792.5426151199175 580.3293608753364 C791.6166805522395 579.8876179582184 790.8816790071362 579.2529144875583 790.3374379287806 578.4259406866641 C789.7931968504249 577.5905547892042 789.5175389167937 576.57842858594 789.5175389167937 575.3902954391366 C789.5175389167937 574.4743259704677 789.6942360836409 573.7032171185648 790.0334808395215 573.0769688834278 C790.3798003843087 572.4500735639394 790.8746042182293 571.9362454500924 791.5036564855552 571.5347511796219 C792.1397835417879 571.133300048108 792.8889346647051 570.8159698822564 793.7582709211273 570.5827175431102 C794.6276071775496 570.3501985662286 795.5818409008555 570.16927378162 796.6278743241251 570.0406334125919 C797.6597581695805 569.911993043564 798.5361692149099 569.7996160612307 799.2500326712059 569.7035024655921 C799.9780457053157 569.6073457309968 800.5222867836715 569.4546769630592 800.9038939950804 569.2454961617793 C801.2785126954957 569.0369624448508 801.469359440157 568.699831497851 801.469359440157 568.2333699585153 L801.469359440157 567.8000822769202 C801.469359440157 566.5391737100797 801.0947407397416 565.5468482879638 800.3385148279172 564.8245295961449 C799.5892774270865 564.0937125298462 798.5149448481891 563.7282824272186 797.1084423023179 563.7282824272186 C795.7726013676033 563.7282824272186 794.6842054888053 564.0208939708525 793.8430821100976 564.6075406436934 C793.0091197982101 565.1934539542693 792.4224299864127 565.8847125972284 792.0831852305321 566.6798498480409 L790.0476304173354 565.944762025024 C790.4646115732791 564.9326789607167 791.0442265961696 564.1255059409709 791.7863892080934 563.5233292437002 C792.5213907531966 562.9126541719498 793.3483645540907 562.4751388725931 794.2671380549482 562.2100931223223 C795.1789230448122 561.9365921365285 796.1048576124903 561.8001867552856 797.0448554800689 561.8001867552856 C797.7516441474579 561.8001867552856 798.4867319704747 561.8927629564706 799.2500326712059 562.0772251355329 C800.0204081608442 562.2624206768598 800.7413464060471 562.5832882371651 801.3986978290006 563.0412945409777 C802.0559629740408 563.4908024703108 802.5931292634896 564.1212783232095 802.9960471195327 564.9326789607167 C803.4059534865696 565.7355812237441 803.6109498090448 566.7561626625314 803.6109498090448 567.9930428304622 L803.6109498090448 580.5583424577645 L801.469359440157 580.5583424577645 L801.469359440157 577.6308034358516 L801.3350247288379 577.6308034358516 C801.0805911619277 578.1771583230881 800.6989839505186 578.7072498236298 800.1900305387844 579.2210779374768 C799.6882381938706 579.7349491902805 799.0521111376377 580.1568913262506 798.2888104369065 580.4862572610353 C797.5255097361751 580.8156231958204 796.6278743241251 580.9802845937343 795.602978989663 580.9802845937343 Z M795.8927865011082 579.0161247539585 C797.0307059022549 579.0161247539585 798.0202272921822 578.7631147726207 798.8542758819831 578.2570516709887 C799.6882381938706 577.7509885693567 800.3314400390102 577.0809542931186 800.7837951394888 576.2455252567015 C801.243138750961 575.4023312080698 801.469359440157 574.4743259704677 801.469359440157 573.4621997672037 L801.469359440157 570.7877138655854 C801.3068118511237 570.9403826335229 801.0382287063992 571.076788014766 800.6636100059839 571.197620232622 C800.2960660944755 571.3178053661271 799.8649353607177 571.4266449540067 799.3702178047108 571.5227585496453 C798.8895635486044 571.611107133069 798.4089955704114 571.6874199475595 797.928341314305 571.7517401320735 C797.4476870581987 571.8160603165874 797.0094815355341 571.8719252655785 796.6278743241251 571.9199820633977 C795.5818409008555 572.0486224324258 794.6912802777123 572.2493479981824 793.9491176657885 572.5228489839762 C793.2140298427717 572.7957028854189 792.6486506756087 573.1731256180232 792.2528076084724 573.6551171817889 C791.8570508192497 574.1286966489882 791.6591292856813 574.7393717207386 791.6591292856813 575.4864090347752 C791.6591292856813 576.6109122203726 792.0619608638112 577.4824054246322 792.8677102979841 578.1008455085976 C793.6734597321573 578.7107872180834 794.6771306998984 579.0161247539585 795.8927865011082 579.0161247539585 Z M811.4633615503867 568.992443041485 L811.4633615503867 580.5583424577645 L809.3217711814987 580.5583424577645 L809.3217711814987 562.0531967366234 L811.3997747281373 562.0531967366234 L811.3997747281373 564.9567073596263 L811.5976099837919 564.9567073596263 C812.0287407175497 564.0089013408762 812.7002417183173 563.2497851189496 813.6190152191748 562.6801351950683 C814.5449497868528 562.1012535344425 815.6828691879994 561.812179385262 817.0399344894352 561.812179385262 C818.2838894462727 561.812179385262 819.3793601139776 562.0736877410794 820.3194442594695 562.5953240060983 C821.266516915955 563.1091521199452 822.001604738972 563.868225202915 822.5246214506067 564.8725863939641 C823.0547129511483 565.8762142227486 823.3162213069656 567.1095569962259 823.3162213069656 568.571191128823 L823.3162213069656 580.5583424577645 L821.1746309380778 580.5583424577645 L821.1746309380778 568.7033688923044 C821.1746309380778 567.1859129496729 820.7505749932272 565.9850538106283 819.8953020367053 565.1015679763921 C819.0542649359109 564.2180821421558 817.9234203236713 563.7763392250378 816.4956934110794 563.7763392250378 C815.5273963878733 563.7763392250378 814.6651349203578 563.9848729419665 813.9088227306202 564.4025874601749 C813.1525968187957 564.8202588394267 812.5517574291844 565.4224786756541 812.1135519065199 566.209807775295 C811.6824211727621 566.9887247783696 811.4633615503867 567.9167300159717 811.4633615503867 568.992443041485 Z M840.2154762241382 580.088343523975 C839.7419830348524 580.088343523975 839.3319903899019 579.9201015926508 838.9856708451148 579.582280422343 C838.6535008781411 579.2451494753433 838.4838785002007 578.8351999693499 838.4838785002007 578.3538554899353 C838.4838785002007 577.8796289383845 838.6535008781411 577.4739070501527 838.9856708451148 577.1367761031527 C839.3319903899019 576.7911467816732 839.7419830348524 576.6187203715443 840.2154762241382 576.6187203715443 C840.6961304802448 576.6187203715443 841.1060368472813 576.7911467816732 841.4452816031619 577.1367761031527 C841.7846126369561 577.4739070501527 841.9542350148963 577.8796289383845 841.9542350148963 578.3538554899353 C841.9542350148963 578.6747661891972 841.8694238259261 578.9680679561393 841.7138647478864 579.2331137064101 C841.5583919477601 579.490394444466 841.3464071142917 579.6988850224377 841.0848987584741 579.8593188025905 C840.8303789136503 580.011987570528 840.5406576801183 580.088343523975 840.2154762241382 580.088343523975 Z M840.2154762241382 566.7398992758367 C839.7419830348524 566.7398992758367 839.3319903899019 566.5710102601612 838.9856708451148 566.2338361742046 C838.6535008781411 565.8967052272047 838.4838785002007 565.486798860168 838.4838785002007 565.0047641574457 C838.4838785002007 564.5311846902462 838.6535008781411 564.1255059409709 838.9856708451148 563.7883749939712 C839.3319903899019 563.4427456724916 839.7419830348524 563.2702761234058 840.2154762241382 563.2702761234058 C840.6961304802448 563.2702761234058 841.1060368472813 563.4427456724916 841.4452816031619 563.7883749939712 C841.7846126369561 564.1255059409709 841.9542350148963 564.5311846902462 841.9542350148963 565.0047641574457 C841.9542350148963 565.3263219410587 841.8694238259261 565.6196668469574 841.7138647478864 565.8847125972284 C841.5583919477601 566.1412599730195 841.3464071142917 566.3504839132562 841.0848987584741 566.5109176934087 C840.8303789136503 566.6635864613462 840.5406576801183 566.7398992758367 840.2154762241382 566.7398992758367 Z "></path>
    </defs>
    <g>
      <use xmlns:xlink="http://www.w3.org/1999/xlink" xlink:href="#s-Path_31-0a187" fill="#000000" fill-opacity="1.0" filter="none"></use>
    </g>
  </g>
</svg>
