<?xml version="1.0" encoding="UTF-8"?>
<svg xmlns="http://www.w3.org/2000/svg" width="16.8416748046875" height="9.3179931640625" viewBox="900.7174694145697 812.411835158241 16.8416748046875 9.3179931640625" preserveAspectRatio="none">
  <g>
    <defs>
      <path id="s-Path_69-02671" d="M900.7174694145697 819.7658662892093 L905.0691952167933 819.7658662892093 L905.0691952167933 821.6591770314924 L906.1359341774878 821.6591770314924 L906.1359341774878 819.7658662892093 L907.4004122195781 819.7658662892093 L907.4004122195781 818.7698408246968 L906.1359341774878 818.7698408246968 L906.1359341774878 812.411835158241 L904.779528590361 812.411835158241 L900.7174694145697 818.840468084908 L900.7174694145697 819.7658662892093 Z M905.0691952167933 818.7698408246968 L901.9325342453037 818.7698408246968 L901.9325342453037 818.6992135644862 L904.9984817206116 813.8388680055787 L905.0691952167933 813.8388680055787 L905.0691952167933 818.7698408246968 Z M909.4561915311374 821.7298042917032 C909.9012553772279 821.7298042917032 910.2686206134897 821.3624390554414 910.2686206134897 820.9173752093507 C910.2686206134897 820.4723113632601 909.9012553772279 820.1050323629693 909.4561915311374 820.1050323629693 C909.0040563354282 820.1050323629693 908.6437624487846 820.4723113632601 908.6437624487846 820.9173752093507 C908.6437624487846 821.3624390554414 909.0040563354282 821.7298042917032 909.4561915311374 821.7298042917032 Z M912.2607577784854 821.6591770314924 L913.4405520970995 821.6591770314924 L917.5590958338651 813.4573600700805 L917.5590958338651 812.411835158241 L911.6320113142638 812.411835158241 L911.6320113142638 813.4078606227533 L916.4005155641055 813.4078606227533 L916.4005155641055 813.4785741189351 L912.2607577784854 821.6591770314924 Z "></path>
    </defs>
    <g>
      <use xmlns:xlink="http://www.w3.org/1999/xlink" xlink:href="#s-Path_69-02671" fill="#000000" fill-opacity="1.0" filter="none"></use>
    </g>
  </g>
</svg>
