<?xml version="1.0" encoding="UTF-8"?>
<svg xmlns="http://www.w3.org/2000/svg" width="108.2391357421875" height="10.58740234375" viewBox="381.65625 1424.1432291666667 108.2391357421875 10.58740234375" preserveAspectRatio="none">
  <g>
    <defs>
      <path id="s-Path_63-a24d5" d="M381.65625 1425.7970487594605 L381.65625 1424.3269964853923 L384.5963976860046 1424.3269964853923 L384.5963976860046 1434.6316841761275 L382.97083339691164 1434.6316841761275 L382.97083339691164 1425.7970487594605 L381.65625 1425.7970487594605 Z M386.5979947725932 1429.345052146912 C386.5979947725932 1427.7123701095582 386.8715319951375 1426.440234375 387.41782995859785 1425.5284723917646 C387.97409276962276 1424.6026474634807 388.9253690401713 1424.1432291666667 390.27321173350015 1424.1432291666667 C391.62101128896074 1424.1432291666667 392.5681031862895 1424.6026474634807 393.1144011497497 1425.5284723917646 C393.67066396077473 1426.440234375 393.9484286944071 1427.7123701095582 393.9484286944071 1429.345052146912 C393.9484286944071 1430.9917971293132 393.67066396077473 1432.2852429707848 393.1144011497497 1433.2181425094607 C392.5681031862895 1434.1440537134806 391.62101128896074 1434.603385734558 390.27321173350015 1434.603385734558 C388.9253690401713 1434.603385734558 387.97409276962276 1434.1440537134806 387.41782995859785 1433.2181425094607 C386.8715319951375 1432.2852429707848 386.5979947725932 1430.9917971293132 386.5979947725932 1429.345052146912 Z M392.36522579193115 1429.345052146912 C392.36522579193115 1428.5816844304402 392.31363290150955 1427.9385850906372 392.2097569147745 1427.4085069656373 C392.11575949986775 1426.8784288406375 391.9178429603576 1426.4543835957845 391.6160504341125 1426.1221357345582 C391.3142579078674 1425.782899538676 390.8668750762939 1425.613281440735 390.27321173350015 1425.613281440735 C389.6795052528381 1425.613281440735 389.23212242126465 1425.782899538676 388.93032989501955 1426.1221357345582 C388.62853736877435 1426.4543835957845 388.4263933181762 1426.8784288406375 388.3225173314412 1427.4085069656373 C388.2285199165344 1427.9385850906372 388.1811545372009 1428.5816844304402 388.1811545372009 1429.345052146912 C388.1811545372009 1430.1366320292157 388.2285199165344 1430.8009552001956 388.3225173314412 1431.338107935588 C388.41651474634807 1431.8752606709797 388.61438814798987 1432.3063805262248 388.91618067423497 1432.6386283874515 C389.2271615664164 1432.9707899729412 389.6795052528381 1433.13333346049 390.27321173350015 1433.13333346049 C390.8668750762939 1433.13333346049 391.3142579078674 1432.9707899729412 391.6160504341125 1432.6386283874515 C391.9270313262939 1432.3063805262248 392.12986558278396 1431.8752606709797 392.223906135559 1431.338107935588 C392.31790355046587 1430.8009552001956 392.36522579193115 1430.1366320292157 392.36522579193115 1429.345052146912 Z M396.30405826568597 1434.7306424458823 C396.0114541053772 1434.7306424458823 395.76694866816194 1434.6316841761275 395.5690321286519 1434.4337676366174 C395.3711587270101 1434.235851097107 395.27220045725505 1433.988498560588 395.27220045725505 1433.6987846374511 C395.27220045725505 1433.4089844385783 395.3711587270101 1433.1616319020588 395.5690321286519 1432.9637153625488 C395.76694866816194 1432.7657988230387 396.0114541053772 1432.666840553284 396.30405826568597 1432.666840553284 C396.5867838541666 1432.666840553284 396.8271049181619 1432.7657988230387 397.02497831980384 1432.9637153625488 C397.2228948593139 1433.1616319020588 397.32180999120067 1433.4089844385783 397.32180999120067 1433.6987846374511 C397.32180999120067 1433.988498560588 397.2228948593139 1434.235851097107 397.02497831980384 1434.4337676366174 C396.8271049181619 1434.6316841761275 396.5867838541666 1434.7306424458823 396.30405826568597 1434.7306424458823 Z M398.6392404874165 1429.345052146912 C398.6392404874165 1427.7123701095582 398.9120443662007 1426.440234375 399.4591188112894 1425.5284723917646 C400.01460514068594 1424.6026474634807 400.96665789286294 1424.1432291666667 402.31445744832354 1424.1432291666667 C403.6615667978922 1424.1432291666667 404.60861555735266 1424.6026474634807 405.15569000244136 1425.5284723917646 C405.7111763318379 1426.440234375 405.9896744092305 1427.7123701095582 405.9896744092305 1429.345052146912 C405.9896744092305 1430.9917971293132 405.7111763318379 1432.2852429707848 405.15569000244136 1433.2181425094607 C404.60861555735266 1434.1440537134806 403.6615667978922 1434.603385734558 402.31445744832354 1434.603385734558 C400.96665789286294 1434.603385734558 400.01460514068594 1434.1440537134806 399.4591188112894 1433.2181425094607 C398.9120443662007 1432.2852429707848 398.6392404874165 1430.9917971293132 398.6392404874165 1429.345052146912 Z M404.4065146446227 1429.345052146912 C404.4065146446227 1428.5816844304402 404.354188410441 1427.9385850906372 404.2510026295979 1427.4085069656373 C404.1563150087992 1426.8784288406375 403.958398469289 1426.4543835957845 403.65733928680413 1426.1221357345582 C403.35554676055904 1425.782899538676 402.9081207911173 1425.613281440735 402.31445744832354 1425.613281440735 C401.7207509676615 1425.613281440735 401.2726779301961 1425.782899538676 400.97157560984283 1426.1221357345582 C400.66978308359774 1426.4543835957845 400.4669488271077 1426.8784288406375 400.3637630462646 1427.4085069656373 C400.26907542546587 1427.9385850906372 400.2224002520243 1428.5816844304402 400.2224002520243 1429.345052146912 C400.2224002520243 1430.1366320292157 400.26907542546587 1430.8009552001956 400.3637630462646 1431.338107935588 C400.45776046117135 1431.8752606709797 400.6556770006815 1432.3063805262248 400.9574695269266 1432.6386283874515 C401.26845041910804 1432.9707899729412 401.7207509676615 1433.13333346049 402.31445744832354 1433.13333346049 C402.9081207911173 1433.13333346049 403.35554676055904 1432.9707899729412 403.65733928680413 1432.6386283874515 C403.9682770411173 1432.3063805262248 404.1704210917154 1431.8752606709797 404.2651518503824 1431.338107935588 C404.35914926528926 1430.8009552001956 404.4065146446227 1430.1366320292157 404.4065146446227 1429.345052146912 Z M407.4823740641275 1429.345052146912 C407.4823740641275 1427.7123701095582 407.75586814880364 1426.440234375 408.30220925013214 1425.5284723917646 C408.8584289232889 1424.6026474634807 409.8104816754658 1424.1432291666667 411.15759102503444 1424.1432291666667 C412.50539058049515 1424.1432291666667 413.4524393399555 1424.6026474634807 413.9987804412841 1425.5284723917646 C414.55500011444076 1426.440234375 414.8327648480732 1427.7123701095582 414.8327648480732 1429.345052146912 C414.8327648480732 1430.9917971293132 414.55500011444076 1432.2852429707848 413.9987804412841 1433.2181425094607 C413.4524393399555 1434.1440537134806 412.50539058049515 1434.603385734558 411.15759102503444 1434.603385734558 C409.8104816754658 1434.603385734558 408.8584289232889 1434.1440537134806 408.30220925013214 1433.2181425094607 C407.75586814880364 1432.2852429707848 407.4823740641275 1430.9917971293132 407.4823740641275 1429.345052146912 Z M413.24960508346544 1429.345052146912 C413.24960508346544 1428.5816844304402 413.19801219304395 1427.9385850906372 413.0941362063089 1427.4085069656373 C413.00013879140204 1426.8784288406375 412.802222251892 1426.4543835957845 412.5004297256469 1426.1221357345582 C412.1993705431619 1425.782899538676 411.7512543678283 1425.613281440735 411.15759102503444 1425.613281440735 C410.5638845443725 1425.613281440735 410.11650171279894 1425.782899538676 409.81470918655384 1426.1221357345582 C409.5136068662007 1426.4543835957845 409.3107726097106 1426.8784288406375 409.2068966229756 1427.4085069656373 C409.1128992080687 1427.9385850906372 409.0655338287353 1428.5816844304402 409.0655338287353 1429.345052146912 C409.0655338287353 1430.1366320292157 409.1128992080687 1430.8009552001956 409.2068966229756 1431.338107935588 C409.3015842437743 1431.8752606709797 409.49950078328436 1432.3063805262248 409.80055996576937 1432.6386283874515 C410.1115408579508 1432.9707899729412 410.5638845443725 1433.13333346049 411.15759102503444 1433.13333346049 C411.7512543678283 1433.13333346049 412.1993705431619 1432.9707899729412 412.5004297256469 1432.6386283874515 C412.8114106178283 1432.3063805262248 413.01424487431836 1431.8752606709797 413.10824228922513 1431.338107935588 C413.2029730478921 1430.8009552001956 413.24960508346544 1430.1366320292157 413.24960508346544 1429.345052146912 Z M425.9771311442056 1428.8361978530886 L425.9771311442056 1430.193142636617 L420.1674956003824 1430.193142636617 L420.1674956003824 1428.8361978530886 L425.9771311442056 1428.8361978530886 Z M431.0906077702839 1425.7970487594605 L431.0906077702839 1424.3269964853923 L434.03079859415675 1424.3269964853923 L434.03079859415675 1434.6316841761275 L432.4052343050637 1434.6316841761275 L432.4052343050637 1425.7970487594605 L431.0906077702839 1425.7970487594605 Z M435.8203299204507 1425.7970487594605 L435.8203299204507 1424.3269964853923 L438.76052074432357 1424.3269964853923 L438.76052074432357 1434.6316841761275 L437.13491331736225 1434.6316841761275 L437.13491331736225 1425.7970487594605 L435.8203299204507 1425.7970487594605 Z M441.624357541402 1434.7306424458823 C441.33244358698505 1434.7306424458823 441.0872048060097 1434.6316841761275 440.88928826649965 1434.4337676366174 C440.69141486485785 1434.235851097107 440.5924565951027 1433.988498560588 440.5924565951027 1433.6987846374511 C440.5924565951027 1433.4089844385783 440.69141486485785 1433.1616319020588 440.88928826649965 1432.9637153625488 C441.0872048060097 1432.7657988230387 441.33244358698505 1432.666840553284 441.624357541402 1432.666840553284 C441.90703999201435 1432.666840553284 442.1473610560097 1432.7657988230387 442.3452344576516 1432.9637153625488 C442.54315099716166 1433.1616319020588 442.6421092669167 1433.4089844385783 442.6421092669167 1433.6987846374511 C442.6421092669167 1433.988498560588 442.54315099716166 1434.235851097107 442.3452344576516 1434.4337676366174 C442.1473610560097 1434.6316841761275 441.90703999201435 1434.7306424458823 441.624357541402 1434.7306424458823 Z M443.95949662526425 1429.345052146912 C443.95949662526425 1427.7123701095582 444.23303384780866 1426.440234375 444.77937494913715 1425.5284723917646 C445.3355946222939 1424.6026474634807 446.28760423660253 1424.1432291666667 447.6347135861713 1424.1432291666667 C448.9825131416319 1424.1432291666667 449.9296050389605 1424.6026474634807 450.4759461402891 1425.5284723917646 C451.0321658134458 1426.440234375 451.30993054707824 1427.7123701095582 451.30993054707824 1429.345052146912 C451.30993054707824 1430.9917971293132 451.0321658134458 1432.2852429707848 450.4759461402891 1433.2181425094607 C449.9296050389605 1434.1440537134806 448.9825131416319 1434.603385734558 447.6347135861713 1434.603385734558 C446.28760423660253 1434.603385734558 445.3355946222939 1434.1440537134806 444.77937494913715 1433.2181425094607 C444.23303384780866 1432.2852429707848 443.95949662526425 1430.9917971293132 443.95949662526425 1429.345052146912 Z M449.72677078247045 1429.345052146912 C449.72677078247045 1428.5816844304402 449.67517789204896 1427.9385850906372 449.57125876744567 1427.4085069656373 C449.4772613525388 1426.8784288406375 449.279387950897 1426.4543835957845 448.9775954246519 1426.1221357345582 C448.67649310429874 1425.782899538676 448.22842006683334 1425.613281440735 447.6347135861713 1425.613281440735 C447.0410502433775 1425.613281440735 446.59366741180395 1425.782899538676 446.29187488555885 1426.1221357345582 C445.9907725652057 1426.4543835957845 445.78793830871564 1426.8784288406375 445.68401918411234 1427.4085069656373 C445.5900217692056 1427.9385850906372 445.5426995277403 1428.5816844304402 445.5426995277403 1429.345052146912 C445.5426995277403 1430.1366320292157 445.5900217692056 1430.8009552001956 445.68401918411234 1431.338107935588 C445.7787499427793 1431.8752606709797 445.9766233444212 1432.3063805262248 446.2777256647744 1432.6386283874515 C446.5887065569558 1432.9707899729412 447.0410502433775 1433.13333346049 447.6347135861713 1433.13333346049 C448.22842006683334 1433.13333346049 448.67649310429874 1432.9707899729412 448.9775954246519 1432.6386283874515 C449.2885763168333 1432.3063805262248 449.4914105733234 1431.8752606709797 449.58540798823014 1431.338107935588 C449.68009560902897 1430.8009552001956 449.72677078247045 1430.1366320292157 449.72677078247045 1429.345052146912 Z M452.8033204078672 1429.345052146912 C452.8033204078672 1427.7123701095582 453.07616742451967 1426.440234375 453.6231987317401 1425.5284723917646 C454.1787281990049 1424.6026474634807 455.13073781331354 1424.1432291666667 456.47853736877414 1424.1432291666667 C457.8256467183429 1424.1432291666667 458.7727386156715 1424.6026474634807 459.31976992289196 1425.5284723917646 C459.8752993901568 1426.440234375 460.1537543296812 1427.7123701095582 460.1537543296812 1429.345052146912 C460.1537543296812 1430.9917971293132 459.8752993901568 1432.2852429707848 459.31976992289196 1433.2181425094607 C458.7727386156715 1434.1440537134806 457.8256467183429 1434.603385734558 456.47853736877414 1434.603385734558 C455.13073781331354 1434.603385734558 454.1787281990049 1434.1440537134806 453.6231987317401 1433.2181425094607 C453.07616742451967 1432.2852429707848 452.8033204078672 1430.9917971293132 452.8033204078672 1429.345052146912 Z M458.5705945650734 1429.345052146912 C458.5705945650734 1428.5816844304402 458.5182683308917 1427.9385850906372 458.4150825500486 1427.4085069656373 C458.3203949292498 1426.8784288406375 458.12247838973974 1426.4543835957845 457.82141920725485 1426.1221357345582 C457.51962668100964 1425.782899538676 457.0722438494362 1425.613281440735 456.47853736877414 1425.613281440735 C455.88487402598037 1425.613281440735 455.4367578506467 1425.782899538676 455.1356986681618 1426.1221357345582 C454.8339061419167 1426.4543835957845 454.6310287475584 1426.8784288406375 454.5278429667153 1427.4085069656373 C454.4331553459165 1427.9385850906372 454.38652331034314 1428.5816844304402 454.38652331034314 1429.345052146912 C454.38652331034314 1430.1366320292157 454.4331553459165 1430.8009552001956 454.5278429667153 1431.338107935588 C454.62184038162206 1431.8752606709797 454.8197569211321 1432.3063805262248 455.12154944737733 1432.6386283874515 C455.43253033955864 1432.9707899729412 455.88487402598037 1433.13333346049 456.47853736877414 1433.13333346049 C457.0722438494362 1433.13333346049 457.51962668100964 1432.9707899729412 457.82141920725485 1432.6386283874515 C458.13240009943615 1432.3063805262248 458.3345441500344 1431.8752606709797 458.4292317708331 1431.338107935588 C458.52322918573986 1430.8009552001956 458.5705945650734 1430.1366320292157 458.5705945650734 1429.345052146912 Z M478.11140181223516 1424.8075523376467 L475.19950942993137 1434.6316841761275 L473.37602860132824 1434.6316841761275 L471.31226984659804 1427.1964412053428 L469.12125438054375 1434.6316841761275 L467.3119227727251 1434.645833396912 L464.52724396387714 1424.8075523376467 L466.23761730194065 1424.8075523376467 L468.27312075297004 1432.8082464853926 L470.47824230194067 1424.8075523376467 L472.2875739097592 1424.8075523376467 L474.3372265815732 1432.7657988230387 L476.3868792533872 1424.8075523376467 L478.11140181223516 1424.8075523376467 Z M480.8395268758135 1424.8075523376467 L480.8395268758135 1434.6316841761275 L479.22806866963674 1434.6316841761275 L479.22806866963674 1424.8075523376467 L480.8395268758135 1424.8075523376467 Z M488.0012326240536 1429.585330073039 C488.5291969935096 1429.6772137324017 488.97657982508304 1429.959939320882 489.3441144625342 1430.419357617696 C489.7116059621171 1430.878689638774 489.8953732808427 1431.4017794291178 489.8953732808427 1431.9883681615195 C489.8953732808427 1432.4901478449503 489.7639321962989 1432.9424915313723 489.49958333969084 1433.3453992207844 C489.2451561927792 1433.7411460240685 488.87339404423994 1434.0591583887738 488.382873344421 1434.2924479802452 C487.89308598836226 1434.5185766855877 487.322717094421 1434.6316841761275 486.6725000063575 1434.6316841761275 L482.7428558985389 1434.6316841761275 L482.7428558985389 1424.8075523376467 L486.4887326876319 1424.8075523376467 C487.1580598513282 1424.8075523376467 487.7326562563575 1424.920659828186 488.21325524648 1425.146788533529 C488.6938542366024 1425.373003514608 489.05716136296553 1425.6768666585288 489.3016668001808 1426.0656251271569 C489.5469487190243 1426.440234375 489.66920143763195 1426.864279619853 489.66920143763195 1427.3378471374515 C489.66920143763195 1427.9032120386762 489.5186502774553 1428.3767795562746 489.2168577512102 1428.7513888041178 C488.9157985687252 1429.125911776225 488.51008691787683 1429.4086373647053 488.0012326240536 1429.585330073039 Z M484.35427096684737 1428.935069847107 L486.3473698933916 1428.935069847107 C486.87533426284756 1428.935069847107 487.285273424784 1428.8149740219117 487.57718737920095 1428.5816844304402 C487.87897990544604 1428.3343318939212 488.0294879277544 1427.9880210876465 488.0294879277544 1427.535677401225 C488.0294879277544 1427.0904083251955 487.87897990544604 1426.7511721293133 487.57718737920095 1426.503819592794 C487.285273424784 1426.2493924458824 486.87533426284756 1426.1221357345582 486.3473698933916 1426.1221357345582 L484.35427096684737 1426.1221357345582 L484.35427096684737 1428.935069847107 Z M486.5311372121172 1433.3171007792155 C487.0781685193376 1433.3171007792155 487.5064844131466 1433.1827694574993 487.817465305328 1432.9212677001954 C488.12844619750945 1432.6597659428915 488.28395821253423 1432.2922313054403 488.28395821253423 1431.8187500635784 C488.28395821253423 1431.338107935588 488.1192578315731 1430.9565103530883 487.7892100016272 1430.673784764608 C487.45985237757327 1430.391059176127 487.02165791193613 1430.2497395197554 486.47458346684743 1430.2497395197554 L484.35427096684737 1430.2497395197554 L484.35427096684737 1433.3171007792155 L486.5311372121172 1433.3171007792155 Z "></path>
    </defs>
    <g>
      <use xmlns:xlink="http://www.w3.org/1999/xlink" xlink:href="#s-Path_63-a24d5" fill="#323232" fill-opacity="1.0" filter="none"></use>
    </g>
  </g>
</svg>
