<?xml version="1.0" encoding="UTF-8"?>
<svg xmlns="http://www.w3.org/2000/svg" width="26.05218505859375" height="14.085693359375" viewBox="380.0456563094483 827.9061509194669 26.05218505859375 14.085693359375" preserveAspectRatio="none">
  <g>
    <defs>
      <path id="s-Path_27-0a187" d="M386.96845554504205 841.9918165672555 C385.6891320421488 841.9918165672555 384.52216756623534 841.6951818375471 383.46747588627534 841.1017399160785 C382.41282732182844 840.4942423373589 381.5750497879676 839.6536622951505 380.95552298111033 838.5869845025659 C380.3487152505994 837.5061648217043 380.0456563094483 836.2911696642652 380.0456563094483 834.9489837433612 C380.0456563094483 833.5997268783187 380.3487152505994 832.3988736091567 380.95552298111033 831.3251248724334 C381.5750497879676 830.2443051915718 382.41282732182844 829.4107960935019 383.46747588627534 828.8174404030592 C384.52216756623534 828.2098565933136 385.6891320421488 827.9061509194669 386.96845554504205 827.9061509194669 C388.26045500876864 827.9061509194669 389.4344904288205 828.2098565933136 390.4891389932675 828.8174404030592 C391.5438306732274 829.4107960935019 392.37453726294984 830.2373204784594 392.98134499346065 831.3109829841567 C393.5881527239716 832.3776607767413 393.8912116651227 833.5927421652066 393.8912116651227 834.9489837433612 C393.8912116651227 836.305311552542 393.5881527239716 837.520306709981 392.98134499346065 838.5869845025659 C392.37453726294984 839.6536622951505 391.5438306732274 840.4942423373589 390.4891389932675 841.1017399160785 C389.4344904288205 841.6951818375471 388.26045500876864 841.9918165672555 386.96845554504205 841.9918165672555 Z M386.96845554504205 840.4236191270011 C387.9312680667159 840.4236191270011 388.7944837532697 840.2046785517889 389.5595254166336 839.752569282062 C390.33728615634413 839.3075309564736 390.94409388685494 838.664678657062 391.37921564444457 837.8381542721045 C391.82778944210224 837.0046451740345 392.0517314168268 836.0439453124995 392.0517314168268 834.9489837433612 C392.0517314168268 833.839966516972 391.82778944210224 832.879266655437 391.37921564444457 832.0598132146179 C390.94409388685494 831.2262178855219 390.3443571004825 830.590522761275 389.57931543711857 830.1384134915479 C388.8142737737545 829.6933751659594 387.9439871430624 829.4672774155829 386.96845554504205 829.4672774155829 C385.9928808315086 829.4672774155829 385.12259420081637 829.6933751659594 384.3575525374524 830.1384134915479 C383.5925108740885 830.590522761275 382.98643610729926 831.2262178855219 382.53786230964147 832.0598132146179 C382.10274055205196 832.879266655437 381.8851365577441 833.839966516972 381.8851365577441 834.9489837433612 C381.8851365577441 836.0439453124995 382.10274055205196 837.0046451740345 382.53786230964147 837.8381542721045 C382.98643610729926 838.664678657062 383.5925108740885 839.3075309564736 384.3575525374524 839.752569282062 C385.13531327716294 840.2046785517889 386.00559990785507 840.4236191270011 386.96845554504205 840.4236191270011 Z M403.7441411668466 841.8505701465397 L398.0674664891061 835.5635522662192 L398.0674664891061 841.8505701465397 L396.2675662817801 841.8505701465397 L396.2675662817801 828.0615392284594 L398.0674664891061 828.0615392284594 L398.0674664891061 834.45453503983 L403.76393118733154 828.0615392284594 L406.03853319321695 828.0615392284594 L399.78824973000553 834.9701965757763 L406.09786013915857 841.8505701465397 L403.7441411668466 841.8505701465397 Z "></path>
    </defs>
    <g>
      <use xmlns:xlink="http://www.w3.org/1999/xlink" xlink:href="#s-Path_27-0a187" fill="#000000" fill-opacity="1.0" filter="none"></use>
    </g>
  </g>
</svg>
