<?xml version="1.0" encoding="UTF-8"?>
<svg xmlns="http://www.w3.org/2000/svg" width="26.06634521484375" height="14.09051513671875" viewBox="660.8474040086876 674.2763886890784 26.06634521484375 14.09051513671875" preserveAspectRatio="none">
  <g>
    <defs>
      <path id="s-Path_29-0a187" d="M667.773967460265 688.3669092712274 C666.4939483355845 688.3669092712274 665.3263493321941 688.070070109832 664.2710841721799 687.4763486480842 C663.2158621511227 686.8692541097441 662.377629082517 686.0317112644464 661.7577654129789 684.9630298888833 C661.1506277356822 683.8809322977709 660.8474040086876 682.6673903054418 660.8474040086876 681.3216705496312 C660.8474040086876 679.975907654864 661.1506277356822 678.768750228134 661.7577654129789 677.7000688525708 C662.377629082517 676.6179712614585 663.2158621511227 675.7804284161607 664.2710841721799 675.186706954413 C665.3263493321941 674.5796124160729 666.4939483355845 674.2763886890784 667.773967460265 674.2763886890784 C669.0666694382301 674.2763886890784 670.2413432305275 674.5796124160729 671.2965652515848 675.186706954413 C672.3518304115988 675.7804284161607 673.1829886912975 676.6116298348162 673.7901263685943 677.6802680714226 C674.3972640458912 678.7489494469859 674.7004877728858 679.9624914393149 674.7004877728858 681.3216705496312 C674.7004877728858 682.6808065209909 674.3972640458912 683.8943485133201 673.7901263685943 684.9630298888833 C673.1829886912975 686.0317112644464 672.3518304115988 686.8692541097441 671.2965652515848 687.4763486480842 C670.2413432305275 688.070070109832 669.0666694382301 688.3669092712274 667.773967460265 688.3669092712274 Z M667.773967460265 686.8035103396574 C668.7373035034451 686.8035103396574 669.6009885565331 686.5794465982989 670.366446205102 686.1306288922738 C671.144629845912 685.6818111862486 671.7517675232087 685.0421898745191 672.1871258747279 684.2109884558637 C672.6359435807531 683.379830176165 672.8600073221116 682.4164509940281 672.8600073221116 681.3216705496312 C672.8600073221116 680.2133876117719 672.6359435807531 679.2500515685917 672.1871258747279 678.4323095044422 C671.7517675232087 677.6011080857868 671.151704634819 676.9614867740572 670.3862469862503 676.5126690680321 C669.6207893376813 676.063851362007 668.7500294956865 675.8397876206485 667.773967460265 675.8397876206485 C666.7978622858869 675.8397876206485 665.9271024438918 676.063851362007 665.1616447953231 676.5126690680321 C664.3961871467544 676.9614867740572 663.7897828317223 677.6011080857868 663.3409651256972 678.4323095044422 C662.905606774178 679.2500515685917 662.6878844594618 680.2133876117719 662.6878844594618 681.3216705496312 C662.6878844594618 682.4164509940281 662.905606774178 683.379830176165 663.3409651256972 684.2109884558637 C663.7897828317223 685.0421898745191 664.3961871467544 685.6818111862486 665.1616447953231 686.1306288922738 C665.939828436133 686.5794465982989 666.8105882781281 686.8035103396574 667.773967460265 686.8035103396574 Z M684.5587747251807 688.2283900811038 L678.8790134015863 681.9351496535704 L678.8790134015863 688.2283900811038 L677.0781345131086 688.2283900811038 L677.0781345131086 674.4347086603502 L678.8790134015863 674.4347086603502 L678.8790134015863 680.8269098546676 L684.5785755063288 674.4347086603502 L686.854414308622 674.4347086603502 L680.6007323044281 681.3414281918227 L686.9137735131097 688.2283900811038 L684.5587747251807 688.2283900811038 Z "></path>
    </defs>
    <g>
      <use xmlns:xlink="http://www.w3.org/1999/xlink" xlink:href="#s-Path_29-0a187" fill="#000000" fill-opacity="1.0" filter="none"></use>
    </g>
  </g>
</svg>
