<?xml version="1.0" encoding="UTF-8"?>
<svg xmlns="http://www.w3.org/2000/svg" width="25.9102783203125" height="31.1331787109375" viewBox="732.9213541666674 722.3197916666663 25.9102783203125 31.1331787109375" preserveAspectRatio="none">
  <g>
    <defs>
      <path id="s-Path_71-8264f" d="M758.1742622375501 730.0376739501951 C758.124826240541 729.9034289042152 758.0258679707857 729.6842885335284 757.8915366490695 729.3945746103918 C757.7572916030898 729.097699801127 757.6583333333346 728.9068578720089 757.6088973363254 728.8149742126461 C756.4639320373548 726.6098526636756 754.7958769480398 724.9701822916663 752.5978300094615 723.9100260416662 C750.3997830708832 722.8498697916664 748.1027778625499 722.3197916666663 745.7138889948538 722.3197916666663 C742.6182292938241 722.3197916666663 739.81944440206 723.1678821563717 737.3174480438241 724.8570748011268 C734.8225262959808 726.553342056274 733.3524740219124 728.9280817031856 732.9213541666674 731.9954429626459 L732.9213541666674 733.281814193725 L733.0061632156379 733.6210503896075 L733.0061632156379 734.0946179072059 C733.1121960957852 734.8154516855873 733.3949216842658 735.6424046198522 733.8613283157357 736.5683158238726 C734.3207466125497 737.4941407521562 734.73771724701 738.2362846374508 735.1194011052456 738.8016495386755 C735.5010849634815 739.367100715637 736.1088975270599 740.2222658157343 736.9569880167652 741.3743057250974 C737.7980901718148 742.5192710240678 738.3493921279916 743.2755641301467 738.6249568303436 743.6360241572058 C740.2011282602954 745.8481340408323 742.6182292938241 749.1204864501949 745.8764324824025 753.4529951095576 C746.3075523376475 752.866406377156 747.8059893290211 750.7460938771562 750.3574216842661 747.0920576095577 C750.4633682886771 746.9578125635778 750.6683594385794 746.6821615854894 750.9652342478445 746.2793401718136 C751.2690973917653 745.8693578720088 751.4670139312756 745.5584201176955 751.5801214218151 745.3322051366167 C751.6861543019623 745.1979600906368 751.8628470102959 745.0000435511267 752.1101995468151 744.7526910146073 C752.3504774729423 744.5053384780879 752.5271701812757 744.3144965489703 752.6402776718152 744.1801652272536 C753.0148869196586 743.5935764948522 753.8488281885794 742.476909637451 755.1210501988741 740.8300783793127 C756.4002605438244 739.1833333969114 757.333246358237 737.7980901718136 757.9339843114229 736.6671878178911 C758.5276476542168 735.5434463500972 758.8315970738741 734.4338541030882 758.8315970738741 733.3524740219113 L758.8315970738741 731.8611979166662 C758.8315970738741 731.3664065678911 758.6124567031874 730.7585940043127 758.1742622375501 730.0376739501951 Z M745.7916234334319 736.7379339218135 C743.6783855438242 736.7379339218135 742.2083332697558 735.8756079355871 741.3955295562754 734.1652777353918 C741.3390189488738 733.939062754313 741.3107205073048 733.5998265584305 741.3107205073048 733.147482872009 L741.3107205073048 732.2710939407343 C741.3107205073048 731.1402778625486 741.777213414511 730.2709635416663 742.6959637324027 729.663150978088 C743.6218749364228 729.0553384145098 744.7103296279917 728.7513889948523 745.9541669209808 728.7513889948523 C747.311197980246 728.7513889948523 748.4420140584319 729.1330728530882 749.3396268208834 729.9034289042152 C750.2372395833344 730.6667103449499 750.6825086593639 731.613845380147 750.6825086593639 732.744661458333 C750.6825086593639 733.8684029261267 750.2089411417654 734.8154516855873 749.2548177719126 735.5858940124508 C748.3077690124522 736.3491754531858 747.1486544926971 736.7379339218135 745.7916234334319 736.7379339218135 Z "></path>
    </defs>
    <g>
      <use xmlns:xlink="http://www.w3.org/1999/xlink" xlink:href="#s-Path_71-8264f" fill="#76CDC2" fill-opacity="1.0" filter="none"></use>
    </g>
  </g>
</svg>
