<?xml version="1.0" encoding="UTF-8"?>
<svg xmlns="http://www.w3.org/2000/svg" width="107.259521484375" height="19.07403564453125" viewBox="736.1157671607702 688.7839471993786 107.259521484375 19.07403564453125" preserveAspectRatio="none">
  <g>
    <defs>
      <path id="s-Path_63-02671" d="M742.4031455670149 707.7872938205496 C741.2092085491647 707.7872938205496 740.1495409380886 707.5824402715498 739.2170713841692 707.1726900555645 C738.2915869438966 706.7629398395793 737.5498713577258 706.1907210543177 737.0058948529518 705.4645279429187 C736.4619183481773 704.7305304761483 736.1651803721263 703.8785622011137 736.1157671607702 702.9093130055824 L738.3904996025803 702.9093130055824 C738.4399990499078 703.5048155030015 738.644809480922 704.0198167215356 739.0051033675654 704.4535836554312 C739.372468603827 704.8809691274766 739.8387464987725 705.2115978401121 740.4250648652849 705.4468495688732 C741.0114694677682 705.6814114098665 741.654272395255 705.7986492123778 742.3677888189243 705.7986492123778 C743.1590038524218 705.7986492123778 743.8654489264727 705.660197361012 744.4800526914578 705.383250540295 C745.0946564564431 705.1063468375635 745.5750770506247 704.7213463452417 745.9282995876504 704.2275160575768 C746.274450775057 703.7337288878973 746.4510620435697 703.1615101026357 746.4510620435697 702.5115927075453 C746.4510620435697 701.8312771326932 746.2815221246753 701.2321958424798 745.9424422868865 700.7143919548901 C745.6033624490976 700.190896493217 745.1158705052976 699.7811462772315 744.4659099922214 699.485874312687 C743.8089643654982 699.1912922359099 743.0177493320004 699.0436131356523 742.0781221924917 699.0436131356523 L740.5946047841794 699.0436131356523 L740.5946047841794 697.0563914210011 L742.0781221924917 697.0563914210011 C742.812852665015 697.0563914210011 743.455741828473 696.9242779135004 744.0138610324836 696.6593610107313 C744.5718940005233 696.3944441079625 745.0098864969959 696.0214735335887 745.3207671722832 695.5396731638718 C745.6386329612176 695.057872794155 745.8011015304937 694.4919923527582 745.8011015304937 693.8413850699001 C745.8011015304937 693.2154412747345 745.6598470100721 692.6707748821925 745.3843230828757 692.2066528865209 C745.1087991556797 691.7432207786171 744.7132347569161 691.3822370042062 744.2116001138797 691.1229685575345 C743.7100517068145 690.864433116616 743.1166619906837 690.7351222781713 742.4384160791351 690.7351222781713 C741.8026845012664 690.7351222781713 741.2021371995463 690.8524031986681 740.6299615322703 691.0869219216759 C740.0718423282599 691.3158353065719 739.6126357829328 691.6499996940165 739.2594132459071 692.0893719660244 C738.9061907088817 692.5231388999202 738.7155229771038 693.0466343615931 738.6801662290129 693.6612381265782 L736.5184029091517 693.6612381265782 C736.5537596572431 692.6912990432795 736.8434262836754 691.8428233250684 737.3944741380681 691.1144743143957 C737.9383644068714 690.3797869598577 738.6589521801584 689.8075681745961 739.5420085227215 689.398550964364 C740.432136214903 688.9888007483785 741.4070338665317 688.7839471993786 742.4737728272257 688.7839471993786 C743.618210397749 688.7839471993786 744.600179398996 689.0156632533306 745.4196798309665 689.4797852490021 C746.2390940269663 689.9368358950553 746.867840491188 690.5422555291341 747.3058329876603 691.2946212577174 C747.7438254841329 692.0477199920538 747.9699361999728 692.860105956421 747.9699361999728 693.73328828031 C747.9699361999728 694.7745876295728 747.6944122727768 695.662602540466 747.1433644183842 696.397289895004 C746.6064592632281 697.1319772495417 745.8647436770573 697.6406401242104 744.9321878871667 697.9239252887926 L744.9321878871667 698.0680255962559 C746.0978395065447 698.2608923452931 747.0091812475805 698.7575253020143 747.6661268743039 699.5586143541861 C748.3231587369983 700.3533650624931 748.655167225169 701.3374468450284 748.655167225169 702.5115927075453 C748.655167225169 703.5168454209495 748.379643297973 704.4203828066143 747.8285954435803 705.2207819710186 C747.2916902884242 706.0155326793256 746.5499747022534 706.6428562500266 745.6103475627447 707.1020627953537 C744.6708066592068 707.5541979910624 743.6040676985128 707.7872938205496 742.4031455670149 707.7872938205496 Z M752.6747983032512 707.5329839422077 L752.6747983032512 689.0368341841995 L758.9198348477578 689.0368341841995 C760.3679955079792 689.0368341841995 761.5548611762115 689.2841158309088 762.4802593805127 689.7772131128204 C763.4057438207851 690.2653518264024 764.0909748459812 690.9364832703477 764.536038692072 691.7912542144381 C764.9881738877809 692.6467581642819 765.2072132540029 693.6188531468547 765.2072132540029 694.7088758197062 C765.2072132540029 695.7982086047903 764.9881738877809 696.7646551312655 764.536038692072 697.6074392753935 C764.0909748459812 698.4502234195215 763.4128151704035 699.1128606203279 762.4873307301307 699.594660990045 C761.5690038754478 700.070079897911 760.3892095568335 700.3081774137136 758.9551053598777 700.3081774137136 L753.8970207195741 700.3081774137136 L753.8970207195741 698.2849090632039 L758.8844780996669 698.2849090632039 C759.873518450532 698.2849090632039 760.6647334840297 698.1408087557406 761.2722658993971 697.8511421293078 C761.879798314764 697.5622085086284 762.3177908112364 697.1531912983962 762.5862433888146 696.6233574928583 C762.868838665629 696.0871422254697 763.0031080724034 695.4492547483271 763.0031080724034 694.7088758197062 C763.0031080724034 693.9678070033176 762.868838665629 693.3207353952687 762.5862433888146 692.7668848718199 C762.3107194616184 692.2130343483716 761.8656556155277 691.7856057583408 761.2581232001603 691.4846853376987 C760.6505907847936 691.1773834552062 759.8523044016774 691.024055898851 758.849207587547 691.024055898851 L754.9142602329412 691.024055898851 L754.9142602329412 707.5329839422077 L752.6747983032512 707.5329839422077 Z M761.3782499076988 699.2244930847271 L765.9277147913187 707.5329839422077 L763.3280452109561 707.5329839422077 L758.849207587547 699.2244930847271 L761.3782499076988 699.2244930847271 Z M776.0934697552241 707.5329839422077 L776.0934697552241 689.0368341841995 L787.1847091594016 689.0368341841995 L787.1847091594016 691.024055898851 L778.332931684914 691.024055898851 L778.332931684914 697.2732748879489 L786.3510660281945 697.2732748879489 L786.3510660281945 699.2604966026001 L778.332931684914 699.2604966026001 L778.332931684914 707.5329839422077 L776.0934697552241 707.5329839422077 Z M798.6007994661611 701.8616321944689 L798.6007994661611 693.6612381265782 L800.7342773875491 693.6612381265782 L800.7342773875491 707.5329839422077 L798.6007994661611 707.5329839422077 L798.6007994661611 705.1847784531456 L798.459544945739 705.1847784531456 C798.1346078071863 705.8890676279223 797.625901814532 706.4874590303684 796.9406707893359 706.9819360878153 C796.2554397641397 707.4693849136297 795.386526120813 707.7166665603386 794.3410012089732 707.7166665603386 C793.4720013296758 707.7166665603386 792.7020003450323 707.5259125925897 792.0309120190727 707.144447775077 C791.3526661075236 706.7559116079462 790.8228323019857 706.1836928226849 790.4414106024585 705.4108029330146 C790.0528313173425 704.6337305987531 789.8620773495934 703.6552972723152 789.8620773495934 702.4755460716867 L789.8620773495934 693.6612381265782 L791.9884839213635 693.6612381265782 L791.9884839213635 702.3307127584701 C791.9884839213635 703.3423469337251 792.2781505477958 704.1491275599801 792.843341101425 704.7510115192499 C793.4155167687011 705.353585366287 794.1431758916062 705.6545489049147 795.0262322341694 705.6545489049147 C795.5560660397075 705.6545489049147 796.0929711948636 705.5188997226048 796.6440190492563 705.2483343637382 C797.194980667678 704.9770791171043 797.6612585626231 704.5616804450215 798.035695148503 704.0014484597223 C798.4101317343827 703.4419494801764 798.6007994661611 702.7284330565078 798.6007994661611 701.8616321944689 Z M810.6740078715857 693.6612381265782 L810.6740078715857 695.4668900043871 L803.4823590739227 695.4668900043871 L803.4823590739227 693.6612381265782 L810.6740078715857 693.6612381265782 Z M805.5804802472201 690.3374019801342 L807.7068868189901 690.3374019801342 L807.7068868189901 703.559230400673 C807.7068868189901 704.1611143599428 807.7987281280557 704.6125596678839 807.9682680469502 704.9142130942791 C808.1519506650809 705.2087951710562 808.3780613809208 705.4073103761909 808.653585308117 705.5097155916983 C808.9431656985789 705.6065154690934 809.2399036746294 705.6545489049147 809.5506981139456 705.6545489049147 C809.7838801794039 705.6545489049147 809.9817054967712 705.6425189869665 810.1300313668112 705.6185022690561 C810.278357236851 705.5881472072804 810.3984839443892 705.5641304893697 810.4903252534548 705.5464521153242 L810.921246400309 707.4623566819971 C810.7799056439162 707.5117698933534 810.5750952129017 707.5682975723132 810.3207853345602 707.6248252512733 C810.0594041066001 707.6813529302333 809.7343807320765 707.7166665603386 809.3317449836948 707.7166665603386 C808.731283917946 707.7166665603386 808.1448793154627 707.5824402715498 807.5656322985685 707.3281303932079 C806.9933703953211 707.066749165248 806.5130360371109 706.6711416484993 806.1385994512307 706.1413078429612 C805.764162865351 705.612163925191 805.5804802472201 704.9438782682871 805.5804802472201 704.1370976420324 L805.5804802472201 690.3374019801342 Z M823.4535751150897 696.7674578003216 L821.539136559923 697.3093215238073 C821.419009852385 696.9907227291199 821.2423985838723 696.6805750595859 821.0093027543851 696.3796115209584 C820.776120688927 696.0723096384659 820.4653262496108 695.8194226536448 820.0696756148764 695.6209074485098 C819.6670398664946 695.422392243375 819.1584201098112 695.3227896969238 818.5438163448262 695.3227896969238 C817.6960305143825 695.3227896969238 816.982514090714 695.5184591150171 816.4174097730559 695.9098410691895 C815.859290569045 696.294841561511 815.5766952922309 696.7858260621347 815.5766952922309 697.3820615653069 C815.5766952922309 697.9118953708448 815.7745206095979 698.3301398299689 816.1560285450962 698.6374417124616 C816.5445215942411 698.9440105892011 817.1449826599901 699.2004763668165 817.9644830919606 699.404640028049 L820.0202624035198 699.9104571156763 C821.2636126327268 700.2113775363182 822.1890108370283 700.6720069751664 822.7965432523952 701.292259196249 C823.4041619037332 701.9068629612343 823.7078849934312 702.6980779947319 823.7078849934312 703.6673271902632 C823.7078849934312 704.4620778985702 823.4818605135622 705.1727485351978 823.0226539682351 705.7986492123778 C822.5705187725262 706.4238600017902 821.9347009586866 706.9183801772228 821.122271876334 707.2786740638662 C820.3099290299526 707.6389679505096 819.3632305408257 707.8226074506551 818.2894202305133 707.8226074506551 C816.8765300824123 707.8226074506551 815.703893349387 707.5117698933534 814.7784089091149 706.9042374779865 C813.845939355195 706.2896337130012 813.2595347527117 705.3896320021454 813.0122962239882 704.2091477957638 L815.0397901370748 703.7040637138896 C815.2305441048236 704.4500479806222 815.590837991467 705.0102799659212 816.1277431466233 705.383250540295 C816.6717196513976 705.7569972384072 817.3781647254482 705.9434825255942 818.2541497183934 705.9434825255942 C819.2431900692584 705.9434825255942 820.0344051027564 705.7329805204968 820.620723469269 705.3112003865633 C821.2070418357814 704.8838149145179 821.5037798118321 704.3723493707932 821.5037798118321 703.776113867621 C821.5037798118321 703.2943134979041 821.3342398929376 702.8909447437693 820.9951600551487 702.5659644872312 C820.6631515669781 702.234645886828 820.1403028750872 701.9880972458723 819.4480005002729 701.824895670843 L817.1309261967247 701.2830750653422 C815.859290569045 700.9821115267148 814.9268210151256 700.5158767497549 814.3333450630239 699.8835946107245 C813.7399553468936 699.2449741278285 813.4502887204608 698.4473776324801 813.4502887204608 697.4901583548967 C813.4502887204608 696.7074375645379 813.6693280866823 696.0150920717383 814.1073205831551 695.4132081124685 C814.5523844292456 694.8106342654314 815.1599168446128 694.3380180266211 815.9228464796381 693.9953593960374 C816.6929337002521 693.6520539956716 817.5689186931972 693.4803581775036 818.5438163448262 693.4803581775036 C819.9142783952184 693.4803581775036 820.9951600551487 693.7813217161311 821.7722323894104 694.3832056754004 C822.563447422908 694.9858226404233 823.1215666269188 695.7805733487303 823.4535751150897 696.7674578003216 Z M830.9984464497777 707.857964198746 C830.1153901072144 707.857964198746 829.3240888377456 707.6954525114843 828.6035873004296 707.3634440233134 C827.8900708767605 707.0243641855245 827.3178089735134 706.5369153597103 826.9010305258955 705.9074358897356 C826.4771807286595 705.2688154068396 826.2652127120559 704.4988144221963 826.2652127120559 703.5952770365316 C826.2652127120559 702.8005263282248 826.4206099317141 702.156214271246 826.7385619566192 701.6624271015664 C827.0493563959353 701.162948357804 827.4662210795245 700.7716095216176 827.9889835354443 700.4883243570355 C828.511745991364 700.2057290802209 829.0909930082585 699.9952270751235 829.7268108220983 699.8567321057724 C830.3626286359379 699.7119419105413 831.005431563425 699.5975067770862 831.648320726883 699.5134267054066 C832.489035207708 699.404640028049 833.1742662329038 699.3234057434106 833.6970286888238 699.2696807335067 C834.2268624943617 699.2089274919699 834.6154417794783 699.110057951272 834.8556089585834 698.9715629819207 C835.1028474873071 698.8331111305547 835.2229741948452 698.5922109456963 835.2229741948452 698.2488624273453 L835.2229741948452 698.1768122736137 C835.2229741948452 697.2853048058969 834.9827207797689 696.5929593130973 834.49531507194 696.099172143418 C834.00782312814 695.6053849737382 833.280250241206 695.3588363327824 832.2982812399589 695.3588363327824 C831.2809554906212 695.3588363327824 830.4826691075052 695.5813251378422 829.9034220906108 696.0271219896861 C829.3240888377456 696.4728757235443 828.9214530893639 696.9483377493964 828.6883572598767 697.4541117190383 L826.6608633467902 696.7314542824483 C827.0211572334338 695.8886701383203 827.5085629412624 695.2323712813791 828.1090240070116 694.7625577116248 C828.7165564223787 694.2871388037584 829.380659634691 693.9558202033552 830.0941760583598 693.7693349161684 C830.814763831647 693.576468167131 831.5282802553156 693.4803581775036 832.2276539797479 693.4803581775036 C832.6727178258388 693.4803581775036 833.1813375825222 693.534773075175 833.7605845994165 693.6428698647653 C834.3469892019002 693.7452750802722 834.9050221699397 693.9593558781642 835.4489986747142 694.2842930167169 C836.0000465291066 694.609273273255 836.4521817248155 695.1002577738784 836.8124756114591 695.7565566308199 C837.1727694981025 696.4128123697753 837.3564521162332 697.2916431497622 837.3564521162332 698.393005852794 L837.3564521162332 707.5329839422077 L835.2229741948452 707.5329839422077 L835.2229741948452 705.6545489049147 L835.1169901865435 705.6545489049147 C834.9686643165032 705.9555124435419 834.7284109014272 706.2754910137648 834.3964024132563 706.6216853191575 C834.0573225754674 706.9607651569461 833.6051873797585 707.2574600150115 833.0470681757479 707.4976703121026 C832.489035207708 707.737837491208 831.8037179465407 707.857964198746 830.9984464497777 707.857964198746 Z M831.3233835883304 705.9434825255942 C832.1640118331843 705.9434825255942 832.8775282568533 705.7781681692761 833.4568615097185 705.4468495688732 C834.0361085266129 705.11553096847 834.4811723727037 704.6881454964248 834.770838999136 704.1646500347517 C835.0745620888342 703.6404646853111 835.2229741948452 703.0894599489043 835.2229741948452 702.5115927075453 L835.2229741948452 700.5610643985347 C835.1311328857796 700.6691611881247 834.9333075684126 700.7687637345759 834.6294982427435 700.8591821501207 C834.3257751530455 700.9432622218003 833.9796239656384 701.0181581625734 833.583973330904 701.0845598602075 C833.1884089321406 701.1445800959912 832.8069009966425 701.1989949936626 832.4324644107626 701.2470284294836 C832.065099174501 701.2894134092073 831.7684474344208 701.3254600450659 831.542336718581 701.3558151068416 C830.9843037505414 701.4278652605733 830.4686126442398 701.5451461810699 829.9881920500582 701.7076578683316 C829.5077714558763 701.8644779815104 829.1263497563491 702.1018424915599 828.8296117802984 702.421131174015 C828.5399451538658 702.7340815126051 828.3986906334444 703.1615101026357 828.3986906334444 703.7040637138896 C828.3986906334444 704.4443995245247 828.6742145606404 705.0038985040708 829.2181910654149 705.383250540295 C829.7691526838362 705.7569972384072 830.4755977578868 705.9434825255942 831.3233835883304 705.9434825255942 Z M843.3752917089294 689.0368341841995 L843.3752917089294 707.5329839422077 L841.2488851371593 707.5329839422077 L841.2488851371593 689.0368341841995 L843.3752917089294 689.0368341841995 Z "></path>
    </defs>
    <g>
      <use xmlns:xlink="http://www.w3.org/1999/xlink" xlink:href="#s-Path_63-02671" fill="#000000" fill-opacity="1.0" filter="none"></use>
    </g>
  </g>
</svg>
