<?xml version="1.0" encoding="UTF-8"?>
<svg xmlns="http://www.w3.org/2000/svg" width="20.779052734375" height="17.5411376953125" viewBox="801.815065515128 807.4667196398865 20.779052734375 17.5411376953125" preserveAspectRatio="none">
  <g>
    <defs>
      <path id="s-Path_75-02671" d="M822.5382866798916 813.7611693957496 C822.4746445333278 813.598700826473 822.3546040617607 813.4574463060516 822.1920492565134 813.3514622977497 C822.0366520368552 813.245478289448 821.8388267194882 813.1819223788551 821.6410876380919 813.167779679619 L815.7140031184906 812.7721290448843 L813.1496040502477 807.982496982159 C813.0719054404187 807.8270135265299 812.9376360336441 807.6999017053444 812.7680961147498 807.608060396279 C812.6056275454735 807.5162190872137 812.4078022281062 807.4667196398865 812.202991797092 807.4667196398865 C812.0051664797245 807.4667196398865 811.8073411623573 807.5162190872137 811.6448725930811 807.608060396279 C811.4753326741866 807.6999017053444 811.341063267412 807.8270135265299 811.2562933079648 807.982496982159 L808.6989655893406 812.7721290448843 L802.771881069739 813.167779679619 C802.5741419883427 813.1819223788551 802.3833880205939 813.245478289448 802.2279908009357 813.3443909481315 C802.0654359956884 813.4503749564334 801.9453955241211 813.5916294768548 801.8747682639103 813.747026696513 C801.8111261173467 813.9025101521423 801.7969834181104 814.0791214206548 801.8394115158194 814.241589989931 C801.8888247271757 814.4040585592076 801.9877373858592 814.5523844292474 802.1290781422517 814.6725111367856 L806.5090031069776 818.2753637672496 L804.9619297880724 823.9339957092726 C804.9124303407455 824.1035356281674 804.9265730399818 824.2872182462983 805.004271649811 824.4496868155746 C805.0748989100216 824.6121553848508 805.2091683167962 824.7534961412433 805.378708235691 824.8524087999268 C805.5553195042035 824.9512352226399 805.7531448215707 825.0078060195852 805.9650266022034 825.0078060195852 C806.1699232691888 825.0078060195852 806.3748199361739 824.958306572258 806.5514312046867 824.8593939135745 L812.202991797092 821.6803910803463 L817.8615375031441 824.8593939135745 C818.038148771657 824.958306572258 818.2501167882606 825.0078060195852 818.4620848048639 825.0078060195852 C818.6739665854966 825.0007346699671 818.878863252482 824.9442501089922 819.0484031713765 824.8382661006907 C819.225014439889 824.732282092389 819.3522124970455 824.583956222349 819.4228397572563 824.4144163034547 C819.4934670174673 824.244790148589 819.5005383670855 824.0611937664293 819.4369824564926 823.8915676115638 L817.5366003645915 818.2753637672496 L822.255691403077 814.7007965352581 C822.5594144927752 814.460543120182 822.672469850695 814.0931778839202 822.5382866798916 813.7611693957496 L822.5382866798916 813.7611693957496 Z "></path>
    </defs>
    <g>
      <use xmlns:xlink="http://www.w3.org/1999/xlink" xlink:href="#s-Path_75-02671" fill="#FFD233" fill-opacity="1.0" filter="none"></use>
    </g>
  </g>
</svg>
