<?xml version="1.0" encoding="UTF-8"?>
<svg xmlns="http://www.w3.org/2000/svg" width="18.3909912109375" height="17.5491943359375" viewBox="779.5681998633667 807.8390625 18.3909912109375 17.5491943359375" preserveAspectRatio="none">
  <g>
    <defs>
      <path id="s-Path_73-8264f" d="M797.9088770706545 814.1364147822064 C797.8523664632529 813.9738712946573 797.7463335831056 813.8325516382854 797.6050139267335 813.7265187581381 C797.463607994625 813.6204858779909 797.2939898966839 813.556900660197 797.1102225779583 813.5427514394125 L791.8730265457522 813.1469183603922 L789.6043197789878 808.355077679952 C789.5336599508017 808.1995225270591 789.4134778498702 808.0723520914714 789.2650835831058 807.9804684321086 C789.1166893163414 807.8885847727458 788.9399966080078 807.8390625 788.7633038996747 807.8390625 C788.5866111913414 807.8390625 788.4169930934005 807.8885847727458 788.2685125508996 807.9804684321086 C788.1201182841352 808.0723520914714 787.9999361832034 808.1995225270591 787.9292763550171 808.355077679952 L785.660569588253 813.1469183603922 L780.4162989456544 813.5427514394125 C780.2396062373213 813.556900660197 780.0699881393799 813.6204858779909 779.9286684830082 813.7194441477457 C779.7872625508995 813.8254770278932 779.681229670752 813.9667966842653 779.6247190633504 814.1222655614217 C779.561133845557 814.2778207143149 779.5540592351646 814.454513422648 779.5893460113892 814.6170569101969 C779.6317936737429 814.779600397746 779.7236773331057 814.9279946645104 779.8438594340374 815.0481767654419 L783.7240244069784 818.6526907602945 L782.3528441269287 824.3139320373537 C782.3104827403116 824.4835501352948 782.3246319610963 824.6673174540203 782.3882171788902 824.8298609415692 C782.458877007076 824.9924044291179 782.5719844976157 825.1338103612266 782.7274533747724 825.2327686309816 C782.8758476415368 825.3316406250001 783.0525403498699 825.388237508138 783.243382278988 825.388237508138 C783.4271495977135 825.388237508138 783.6038423060467 825.3387152353923 783.7593111832035 825.2397569656373 L788.7633038996747 822.0592882156373 L793.7742849508019 825.2397569656373 C793.9297538279583 825.3387152353923 794.1135211466839 825.388237508138 794.3043630758019 825.388237508138 C794.4881303945275 825.381162897746 794.6718977132531 825.3246522903444 794.8202919800173 825.2186194101971 C794.9757608571739 825.1125865300496 795.0888683477132 824.9641922632852 795.1524535655072 824.7945741653443 C795.2161250590374 824.6248697916667 795.2161250590374 824.4411887486779 795.1666027862917 824.271484375 L793.484484751929 818.6526907602945 L797.6544499237428 815.0764752070108 C797.9301009018312 814.8361110051476 798.0290591715863 814.4685763676964 797.9088770706545 814.1364147822064 L797.9088770706545 814.1364147822064 Z "></path>
    </defs>
    <g>
      <use xmlns:xlink="http://www.w3.org/1999/xlink" xlink:href="#s-Path_73-8264f" fill="#FFD233" fill-opacity="1.0" filter="none"></use>
    </g>
  </g>
</svg>
