<?xml version="1.0" encoding="UTF-8"?>
<svg xmlns="http://www.w3.org/2000/svg" width="14.792724609375" height="12.396728515625" viewBox="437.4911458333329 1058.0359375000003 14.792724609375 12.396728515625" preserveAspectRatio="none">
  <g>
    <defs>
      <path id="s-Path_38-a24d5" d="M437.4911458333329 1059.8311630249027 L437.4911458333329 1058.0642359415695 L441.01934893925943 1058.0642359415695 L441.01934893925943 1070.4327255249025 L439.06869767506873 1070.4327255249025 L439.06869767506873 1059.8311630249027 L437.4911458333329 1059.8311630249027 Z M451.43576370874996 1059.7322047551477 L445.7532986005143 1059.7322047551477 L445.7532986005143 1063.1035154342653 C445.9907725652055 1062.78550306956 446.34135402043614 1062.5240013122561 446.80499982833817 1062.3048609415694 C447.2799477577205 1062.0927951812748 447.7831509908036 1061.9868485768638 448.3146526654557 1061.9868485768638 C449.26454852422034 1061.9868485768638 450.0335241635636 1062.1917534510299 450.62153644561727 1062.5946611404422 C451.2208939870194 1063.0045571645103 451.64493923187206 1063.5204860687259 451.8937584559118 1064.1424478530887 C452.15383666356365 1064.7644096374515 452.28389733632366 1065.4146698633833 452.28389733632366 1066.107291475932 C452.28389733632366 1066.9413190205894 452.1198871612544 1067.6904512405397 451.7919530868526 1068.347786076864 C451.47532113393106 1068.990885416667 450.99472214380853 1069.4998259862266 450.3501561164851 1069.8743489583335 C449.7168922106421 1070.248958206177 448.93661444981853 1070.4327255249025 448.0093228340145 1070.4327255249025 C446.7767013867692 1070.4327255249025 445.78724810282347 1070.1287761052452 445.0408767064408 1069.5138889312746 C444.29454844792645 1068.9060763676964 443.8478558222448 1068.100347264608 443.7008419672644 1067.0897132873538 L445.5836805025732 1067.0897132873538 C445.7080901145931 1067.6197914123538 445.98512150446527 1068.0438366572064 446.4148609479264 1068.361849021912 C446.84455725351927 1068.6657984415692 447.38170998891155 1068.8212673187259 448.0262760162349 1068.8212673187259 C448.8292011578874 1068.8212673187259 449.42851556142125 1068.5809893925987 449.8243055025732 1068.0932726542158 C450.2313975652055 1067.6056421915694 450.43496516545565 1066.9624565760298 450.43496516545565 1066.1567274729414 C450.43496516545565 1065.3440100351972 450.2313975652055 1064.7220482508344 449.8243055025732 1064.2909283955894 C449.41721343994095 1063.8526476542158 448.8178558985388 1063.6335935592654 448.0262760162349 1063.6335935592654 C447.4721700986222 1063.6335935592654 447.0028732299801 1063.7749132156375 446.6183854103084 1064.0576388041181 C446.2452428499853 1064.3262151718143 445.97381938298497 1064.7008244196577 445.80420128504386 1065.1743919372561 L443.9722654342647 1065.1743919372561 L443.9722654342647 1058.0359375000003 L451.43576370874996 1058.0359375000003 L451.43576370874996 1059.7322047551477 Z "></path>
    </defs>
    <g>
      <use xmlns:xlink="http://www.w3.org/1999/xlink" xlink:href="#s-Path_38-a24d5" fill="#323232" fill-opacity="1.0" filter="none"></use>
    </g>
  </g>
</svg>
