<?xml version="1.0" encoding="UTF-8"?>
<svg xmlns="http://www.w3.org/2000/svg" width="25.8983154296875" height="31.118896484375" viewBox="732.5835417905168 974.8942021898897 25.8983154296875 31.118896484375" preserveAspectRatio="none">
  <g>
    <defs>
      <path id="s-Path_89-02671" d="M757.8248104885902 982.6085272075013 C757.7753972772337 982.4743440366976 757.6764846185501 982.2553046704757 757.5422152117758 981.9657242800145 C757.4080320409723 981.6689863039635 757.3091193822886 981.4782323362142 757.2597061709323 981.3863910271489 C756.1152686004091 979.1822858455498 754.4479823379952 977.5433712175795 752.2509485060143 976.4837036065037 C750.0539146740332 975.4240359954276 747.757968183369 974.8942021898897 745.3701803836389 974.8942021898897 C742.2759475098583 974.8942021898897 739.4784526121286 975.7419017843622 736.9776094544786 977.4303158596595 C734.4838376464468 979.1258012845753 733.0144629373713 981.499446385069 732.5835417905168 984.5653938603771 L732.5835417905168 985.8511721872928 L732.6683117499642 986.1902520250815 L732.6683117499642 986.6636012696449 C732.7742957582657 987.384102806961 733.0568910350803 988.2106745885501 733.5230826940547 989.1361590288225 C733.9822892393818 990.061557233124 734.3990676869998 990.8033590552654 734.7805756224977 991.3684633729235 C735.1620835579959 991.9336539265521 735.7696159733628 992.7884248706428 736.617315567835 993.9399337907842 C737.4580300486602 995.0843713613074 738.0090779030529 995.8403158826854 738.284515594278 996.200609769329 C739.8599605476268 998.4117000645751 742.2759475098583 1001.6825442068687 745.532648952915 1006.0130559602378 C745.9635700997694 1005.4267375937252 747.461316443289 1003.3074023715735 750.0115728122953 999.6550502937819 C750.1174705846261 999.5208671229784 750.3223672516115 999.245343195782 750.6191052276624 998.8427074474005 C750.9228283173602 998.4329141134299 751.1206536347274 998.1221196741135 751.2337089926473 997.8960089582736 C751.3396930009494 997.7618257874701 751.5163042694619 997.5640004701029 751.7635427981854 997.3167619413794 C752.0037099772908 997.0695234126558 752.1803212458033 996.8787694449065 752.2933766037233 996.7445000381322 C752.6678131896033 996.1581816716198 753.5013700848392 995.0420294995693 754.7730057125186 993.3959572860097 C756.0516264538455 991.7499713084214 756.9841822437361 990.3653665587931 757.5846433094848 989.2349854515351 C758.1780330256154 988.104690580248 758.4818423512845 987.0026811074342 758.4818423512845 985.9217994475036 L758.4818423512845 984.4312106895734 C758.4818423512845 983.9366473961552 758.2628029850628 983.3291149807883 757.8248104885902 982.6085272075013 Z M745.4478789934681 989.3056989477168 C743.3356151209343 989.3056989477168 741.8662404118586 988.4437704180373 741.0538113295061 986.734228529856 C740.9973267685318 986.508117814016 740.9690413700589 986.1690379762272 740.9690413700589 985.7169027805182 L740.9690413700589 984.8409177875731 C740.9690413700589 983.7106229162862 741.4353192650042 982.8417092729592 742.3536461196873 982.2341768575923 C743.2791305599599 981.6266444422249 744.3670835695086 981.3228351165562 745.6103475627442 981.3228351165562 C746.966753149871 981.3228351165562 748.0970480211579 981.7043430520541 748.9942470629576 982.4743440366976 C749.891446104757 983.237273671723 750.3365099508476 984.1839721608496 750.3365099508476 985.3142670321365 C750.3365099508476 986.4374905538052 749.8631607062844 987.384102806961 748.9094771035102 988.1541900275754 C747.962864850354 988.9171196626007 746.8042845805946 989.3056989477168 745.4478789934681 989.3056989477168 Z "></path>
    </defs>
    <g>
      <use xmlns:xlink="http://www.w3.org/1999/xlink" xlink:href="#s-Path_89-02671" fill="#76CDC2" fill-opacity="1.0" filter="none"></use>
    </g>
  </g>
</svg>
