<?xml version="1.0" encoding="UTF-8"?>
<svg xmlns="http://www.w3.org/2000/svg" width="16.849365234375" height="9.322265625" viewBox="901.1328125000006 812.786458333333 16.849365234375 9.322265625" preserveAspectRatio="none">
  <g>
    <defs>
      <path id="s-Path_69-8264f" d="M901.1328125000006 820.1438805898026 L905.48654499054 820.1438805898026 L905.48654499054 822.0380643844601 L906.5537758509323 822.0380643844601 L906.5537758509323 820.1438805898026 L907.8188369750982 820.1438805898026 L907.8188369750982 819.1473958333329 L906.5537758509323 819.1473958333329 L906.5537758509323 812.786458333333 L905.1967447916671 812.786458333333 L901.1328125000006 819.2180556615192 L901.1328125000006 820.1438805898026 Z M905.48654499054 819.1473958333329 L902.3484376271571 819.1473958333329 L902.3484376271571 819.076736005147 L905.4157988866176 814.2141492207843 L905.48654499054 814.2141492207843 L905.48654499054 819.1473958333329 Z M909.8755642573043 822.1087242126462 C910.3208333333338 822.1087242126462 910.688367970785 821.741189575195 910.688367970785 821.2959204991655 C910.688367970785 820.8506514231362 910.3208333333338 820.4832030614214 909.8755642573043 820.4832030614214 C909.4232205708826 820.4832030614214 909.0627605438239 820.8506514231362 909.0627605438239 821.2959204991655 C909.0627605438239 821.741189575195 909.4232205708826 822.1087242126462 909.8755642573043 822.1087242126462 Z M912.6814237594607 822.0380643844601 L913.8617621103925 822.0380643844601 L917.9822050094609 813.8324653625484 L917.9822050094609 812.786458333333 L912.0523873647059 812.786458333333 L912.0523873647059 813.7829430898028 L916.8230904897058 813.7829430898028 L916.8230904897058 813.8536891937254 L912.6814237594607 822.0380643844601 Z "></path>
    </defs>
    <g>
      <use xmlns:xlink="http://www.w3.org/1999/xlink" xlink:href="#s-Path_69-8264f" fill="#000000" fill-opacity="1.0" filter="none"></use>
    </g>
  </g>
</svg>
