<?xml version="1.0" encoding="UTF-8"?>
<svg xmlns="http://www.w3.org/2000/svg" width="18.3829345703125" height="17.5411376953125" viewBox="872.4595530051045 1060.3740561500167 18.3829345703125 17.5411376953125" preserveAspectRatio="none">
  <g>
    <defs>
      <path id="s-Path_94-02671" d="M875.2394890678142 1076.8413322194033 C875.2041323197234 1076.9685302765595 875.2041323197234 1077.1027134473632 875.2394890678142 1077.2299115045196 C875.267688230316 1077.364094675323 875.3313303768798 1077.4842213828613 875.416100336327 1077.5831340415448 C875.5008702957741 1077.6890318138755 875.6138394177235 1077.773801773323 875.7339661252613 1077.8303725702685 C875.8611641824177 1077.886857131243 875.9953473532212 1077.9151425297157 876.1366881096139 1077.9151425297157 C876.3132993781267 1077.9151425297157 876.4968957602864 1077.8656430823885 876.6453078662973 1077.7667304237048 L881.6469079456265 1074.587727590477 L886.655579374574 1077.7667304237048 C886.8110628302031 1077.8656430823885 886.9947454483338 1077.9151425297157 887.1854131801122 1077.9151425297157 C887.369095798243 1077.9080711800975 887.5527784163739 1077.851586619123 887.7081756360317 1077.745602610821 C887.8565877420426 1077.6396186025195 887.9696430999629 1077.4912927324795 888.0331990105553 1077.3217528135851 C888.096754921148 1077.1521266587195 888.096754921148 1076.9685302765595 888.0473417097919 1076.7989041216942 L886.3659989841124 1071.1827002773798 L890.5339559322344 1067.6081330453885 C890.668225339009 1067.4880063378503 890.7671379976928 1067.3396804678105 890.8094798594307 1067.1771256625632 C890.8589793067581 1067.0075857436689 890.8519079571399 1066.8309744751562 890.7954233961652 1066.66850590588 C890.7317812496017 1066.5060373366036 890.6257972412998 1066.3647828161818 890.4845427208782 1066.2587988078799 C890.3432882004565 1066.1528147995782 890.173748281562 1066.0892588889853 889.9971370130493 1066.0821875393672 L884.7552835186436 1065.6794655550145 L882.4876224264519 1060.8898334922892 C882.41690893027 1060.7343500366599 882.2968684587026 1060.6072382154748 882.1484563526919 1060.5153969064095 C882.0001304826521 1060.4235555973441 881.8305905637576 1060.3740561500167 881.6469079456265 1060.3740561500167 C881.4702966771138 1060.3740561500167 881.3007567582194 1060.4235555973441 881.1524308881794 1060.5153969064095 C881.0040187821687 1060.6072382154748 880.8839783106012 1060.7343500366599 880.8133510503908 1060.8898334922892 L878.5456037222275 1065.6794655550145 L873.3038364637932 1066.0751161897492 C873.1272251952803 1066.0892588889853 872.957685276386 1066.1528147995782 872.8234158696114 1066.2517274582617 C872.6821613491898 1066.3577114665636 872.5761773408879 1066.498965986985 872.5126214302954 1066.6543632066432 C872.4560506333498 1066.8098466622725 872.4419079341133 1066.9864579307853 872.4843360318225 1067.1489265000614 C872.5196065439425 1067.3113950693378 872.6114478530078 1067.4597209393778 872.7386459101645 1067.579847646916 L876.6099511182067 1071.1827002773798 L875.2394890678142 1076.8413322194033 Z M881.6469079456265 1063.38351906435 L883.526075988673 1067.3466655814577 L884.0700524934475 1067.3890936791668 L884.0700524934475 1067.3890936791668 L887.7223183352683 1067.664617606363 L884.7128554209346 1070.2431593738422 L884.7128554209346 1070.2502307234602 L884.2890056236984 1070.6105246101038 L884.4444028433566 1071.140358415642 L884.4444028433566 1071.140358415642 L885.595911763498 1074.9833782252113 L881.6469079456265 1072.475463717943 L881.6469079456265 1063.38351906435 Z "></path>
    </defs>
    <g>
      <use xmlns:xlink="http://www.w3.org/1999/xlink" xlink:href="#s-Path_94-02671" fill="#FFD233" fill-opacity="1.0" filter="none"></use>
    </g>
  </g>
</svg>
