<?xml version="1.0" encoding="UTF-8"?>
<svg xmlns="http://www.w3.org/2000/svg" width="18.3848876953125" height="17.5411376953125" viewBox="826.5406577962847 1060.3740561500167 18.3848876953125 17.5411376953125" preserveAspectRatio="none">
  <g>
    <defs>
      <path id="s-Path_92-02671" d="M844.8764317930611 1066.66850590588 C844.8199472320866 1066.5060373366036 844.713963223785 1066.3647828161818 844.5726224673922 1066.2587988078799 C844.4313679469706 1066.1528147995782 844.2547566784579 1066.0892588889853 844.0781454099451 1066.0751161897492 L838.8362919155397 1065.6794655550145 L836.5686308233478 1060.8898334922892 C836.498003563137 1060.7343500366599 836.377876855599 1060.6072382154748 836.229550985559 1060.5153969064095 C836.081138879548 1060.4235555973441 835.9115989606535 1060.3740561500167 835.734987692141 1060.3740561500167 C835.5583764236283 1060.3740561500167 835.3817651551155 1060.4235555973441 835.233439285076 1060.5153969064095 C835.0851134150357 1060.6072382154748 834.9649867074977 1060.7343500366599 834.8943594472867 1060.8898334922892 L832.626698355095 1065.6794655550145 L827.3848448606893 1066.0751161897492 C827.2153049417948 1066.0892588889853 827.0457650229005 1066.1528147995782 826.9044242665077 1066.2517274582617 C826.7631697460859 1066.3577114665636 826.6571857377844 1066.498965986985 826.5936298271915 1066.6543632066432 C826.5371452662171 1066.8098466622725 826.5230025669807 1066.9864579307853 826.5653444287188 1067.1489265000614 C826.6077725264277 1067.3113950693378 826.692542485875 1067.4597209393778 826.8196543070605 1067.579847646916 L830.6910457510735 1071.1827002773798 L829.3204974647103 1076.8413322194033 C829.2781556029724 1077.0108721382978 829.2922120662377 1077.1945547564285 829.3629255624196 1077.3570233257049 C829.4264814730122 1077.5194918949812 829.5465219445798 1077.660832651374 829.6949340505905 1077.7597453100577 C829.8432599206303 1077.8585717327703 830.026942538761 1077.9151425297157 830.2106251568921 1077.9151425297157 C830.3943077750228 1077.9151425297157 830.5779903931536 1077.8656430823885 830.7263162631937 1077.7667304237048 L835.734987692141 1074.587727590477 L840.7366740074408 1077.7667304237048 C840.892071227099 1077.8656430823885 841.0757538452297 1077.9151425297157 841.266507812979 1077.9151425297157 C841.457261780728 1077.9080711800975 841.6338730492407 1077.851586619123 841.7892702688989 1077.745602610821 C841.9375961389387 1077.6396186025195 842.0577228464767 1077.4912927324795 842.1142074074514 1077.3217528135851 C842.1777633180441 1077.1521266587195 842.1848346676622 1076.9685302765595 842.135421456306 1076.7989041216942 L840.4540787306264 1071.1827002773798 L844.6221219147196 1067.6081330453885 C844.8905744922977 1067.3678796303125 844.9965585005993 1067.0005143940507 844.8764317930611 1066.66850590588 L844.8764317930611 1066.66850590588 Z "></path>
    </defs>
    <g>
      <use xmlns:xlink="http://www.w3.org/1999/xlink" xlink:href="#s-Path_92-02671" fill="#FFD233" fill-opacity="1.0" filter="none"></use>
    </g>
  </g>
</svg>
