<?xml version="1.0" encoding="UTF-8"?>
<svg xmlns="http://www.w3.org/2000/svg" width="120.5548095703125" height="11.9388427734375" viewBox="772.1444659373537 778.5024716038104 120.5548095703125 11.9388427734375" preserveAspectRatio="none">
  <g>
    <defs>
      <path id="s-Path_67-02671" d="M772.1444659373537 788.1807346239157 L772.1444659373537 778.9333927506648 L775.7968180151452 778.9333927506648 C776.4891203899595 778.9333927506648 777.0895814557084 779.0605045718503 777.5841447491262 779.3077431005738 C778.0786218065734 779.555067865268 778.4601297420713 779.9082904022937 778.714439620413 780.3604255980026 C778.9758208483731 780.8124745577404 779.1100040191766 781.3423083632783 779.1100040191766 781.9569121282636 C779.1100040191766 782.5645307796017 778.9758208483731 783.0943645851398 778.714439620413 783.5394284312306 C778.4459870428352 783.977420927703 778.0644791073369 784.316500765492 777.5629307002716 784.5495965949792 C777.0612960572353 784.7826924244662 776.4537636418684 784.9028191320044 775.747318567818 784.9028191320044 L773.3030462071133 784.9028191320044 L773.3030462071133 783.327460414627 L775.4294527788834 783.327460414627 C775.8038893647633 783.327460414627 776.1146838040795 783.2780472032705 776.361922332803 783.179134544587 C776.6021757478793 783.0731505362849 776.7858583660102 782.9248246662453 776.9129701871955 782.7199279992599 C777.0330968947337 782.5150313322742 777.0966528053266 782.2607214539328 777.0966528053266 781.9569121282636 C777.0966528053266 781.6461176889475 777.0330968947337 781.3847364609874 776.9129701871955 781.1798397940022 C776.7858583660102 780.9679580133695 776.6021757478793 780.8054894440932 776.3548509831851 780.6995054357913 C776.1076124544616 780.5864500778716 775.7968180151452 780.5299655168969 775.4223814292652 780.5299655168969 L774.1013325902293 780.5299655168969 L774.1013325902293 788.1807346239157 L772.1444659373537 788.1807346239157 Z M777.1390809030356 783.9703495780848 L779.4350273937002 788.1807346239157 L777.2803354234572 788.1807346239157 L775.0338021441489 783.9703495780848 L777.1390809030356 783.9703495780848 Z M780.4876236551577 788.1807346239157 L780.4876236551577 778.9333927506648 L784.1398894969782 778.9333927506648 C784.8392632214106 778.9333927506648 785.4398105231305 779.0675759214685 785.9342875805778 779.3360284990465 C786.4287646380249 779.5974097270064 786.8032012239046 779.9647749632679 787.0575111022463 780.4381242078316 C787.3259636798246 780.9113872164241 787.4531617369807 781.4553637211984 787.4531617369807 782.0699674861837 C787.4531617369807 782.6774999015508 787.3188923302064 783.2214764063251 787.0575111022463 783.6948256508886 C786.7890585246682 784.1611035458338 786.407636825141 784.5283825461242 785.9060021821049 784.7897637740846 C785.4044537750399 785.0511450020444 784.7969213596728 785.185414408819 784.0904762856221 785.185414408819 L781.7662443964846 785.185414408819 L781.7662443964846 783.6171270410593 L783.7725242607164 783.6171270410593 C784.1469608465966 783.6171270410593 784.4578415218837 783.5534848944958 784.7050800506074 783.4193017236923 C784.9523185793307 783.2921036665357 785.1360011974616 783.108421048405 785.2561279049999 782.8753252189179 C785.3761683765667 782.6422293894309 785.4398105231305 782.3737768118526 785.4398105231305 782.0699674861837 C785.4398105231305 781.7591730468673 785.3761683765667 781.4907204692893 785.2561279049999 781.2646097534493 C785.1360011974616 781.0315139239622 784.9523185793307 780.8549026554497 784.7050800506074 780.727704598293 C784.4578415218837 780.5935214274896 784.1469608465966 780.5299655168969 783.7655391470694 780.5299655168969 L782.4444903080334 780.5299655168969 L782.4444903080334 788.1807346239157 L780.4876236551577 788.1807346239157 Z M789.3746716417654 788.3008613314541 C789.0779336657147 788.3008613314541 788.8236237873728 788.1948773231525 788.6117420067403 787.9829093065489 C788.3997739901367 787.771027525916 788.2937899818351 787.5096462979564 788.2937899818351 787.2129083219054 C788.2937899818351 786.9161703458549 788.3997739901367 786.6689318171309 788.6117420067403 786.4570500364985 C788.8236237873728 786.2450820198949 789.0779336657147 786.139098011593 789.3746716417654 786.139098011593 C789.6643382681982 786.139098011593 789.9186481465397 786.2450820198949 790.1376012767907 786.4570500364985 C790.3495692933943 786.6689318171309 790.4626246513142 786.9161703458549 790.4626246513142 787.2129083219054 C790.4626246513142 787.4107336392726 790.4131252039867 787.5944162574035 790.3071411956851 787.7639561762978 C790.2083147729725 787.9264247455744 790.0740453661979 788.0535365667597 789.9115767969217 788.1524492254434 C789.7491082276454 788.2513618841269 789.5724969591329 788.3008613314541 789.3746716417654 788.3008613314541 Z M798.5513862548055 778.9333927506648 L798.5513862548055 788.1807346239157 L796.6015909515484 788.1807346239157 L796.6015909515484 780.7913467448568 L796.5451063905737 780.7913467448568 L794.4257711684215 782.1194669335107 L794.4257711684215 780.3815534108862 L796.7146463094682 778.9333927506648 L798.5513862548055 778.9333927506648 Z M804.7752087504578 778.9333927506648 L804.7752087504578 788.1807346239157 L802.8183420975822 788.1807346239157 L802.8183420975822 780.7913467448568 L802.7688426502548 780.7913467448568 L800.6495074281031 782.1194669335107 L800.6495074281031 780.3815534108862 L802.9383825691493 778.9333927506648 L804.7752087504578 778.9333927506648 Z M810.3490707330338 788.3079326810723 C809.7132529191942 788.3079326810723 809.1409910159471 788.1878059735341 808.6465139585 787.9547101440469 C808.1448793154636 787.7215280785886 807.7563862663185 787.3965909400363 807.4596482902675 786.9868838420364 C807.1700678998061 786.5700191584474 807.014584444177 786.0967561498549 807.0075130945588 785.5669223443169 L808.9008238368417 785.5669223443169 C808.9220378856962 785.9272162309605 809.0703637557363 786.216796621422 809.3529590325506 786.4358359876439 C809.635554309365 786.6618604675127 809.967562797536 786.7749158254328 810.3490707330338 786.7749158254328 C810.65986517235 786.7749158254328 810.9283177499283 786.704288565222 811.1614135794152 786.5700191584474 C811.4016669944917 786.4287646380258 811.5853496126226 786.2380106702769 811.7195327834261 785.9978434911714 C811.8537159542295 785.7506049624478 811.9244294504117 785.4680096856334 811.9244294504117 785.1429863111098 C811.9244294504117 784.8180491725573 811.8537159542295 784.5354538957426 811.7124614338079 784.2882153670191 C811.5782782630042 784.0409768382956 811.3945956448736 783.8502228705468 811.1472708801789 783.7089683501249 C810.9071037010735 783.5746989433505 810.6315797738773 783.5040716831395 810.3207853345612 783.4970003335216 C810.0523327569831 783.4970003335216 809.7909515290232 783.5534848944958 809.5366416506813 783.6665402524159 C809.2823317723398 783.779595610336 809.0845064549724 783.9279214803755 808.9431656985796 784.1186754481246 L807.205338411926 783.8078810088082 L807.6433309083984 778.9333927506648 L813.2948915008039 778.9333927506648 L813.2948915008039 780.5299655168969 L809.2540463738671 780.5299655168969 L809.0138791947618 782.8470398204452 L809.0703637557363 782.8470398204452 C809.2328323250124 782.6210153405762 809.4800708537359 782.4302613728271 809.8050942282596 782.2819355027873 C810.1300313668121 782.1265382831291 810.4973966030739 782.0558247869471 810.9071037010735 782.0558247869471 C811.4652229050846 782.0558247869471 811.9596999625314 782.1830228441038 812.3976924590042 782.4444040720634 C812.8356849554766 782.7057853000233 813.1748510292364 783.0660791866667 813.4291609075783 783.5252857319938 C813.68347078592 783.977420927703 813.8105826071051 784.5001833836227 813.8035112574871 785.0935730997537 C813.8105826071051 785.7223195639751 813.6622567370653 786.2733674183676 813.3725901106325 786.7607731261965 C813.083009720171 787.2411937203783 812.6802877358184 787.6226154199053 812.1575252798987 787.8981393471013 C811.6418341735971 788.1736632742977 811.0343017582302 788.3079326810723 810.3490707330338 788.3079326810723 Z M816.0146877887044 788.3008613314541 C815.7180360486248 788.3008613314541 815.4566548206647 788.1948773231525 815.2446868040611 787.9829093065489 C815.0327187874575 787.771027525916 814.9268210151267 787.5096462979564 814.9268210151267 787.2129083219054 C814.9268210151267 786.9161703458549 815.0327187874575 786.6689318171309 815.2446868040611 786.4570500364985 C815.4566548206647 786.2450820198949 815.7180360486248 786.139098011593 816.0146877887044 786.139098011593 C816.3043544151371 786.139098011593 816.5586642934788 786.2450820198949 816.7706323100824 786.4570500364985 C816.9895854403333 786.6689318171309 817.0955694486349 786.9161703458549 817.0955694486349 787.2129083219054 C817.0955694486349 787.4107336392726 817.0461562372786 787.5944162574035 816.9472435785954 787.7639561762978 C816.8412595702932 787.9264247455744 816.714061513137 788.0535365667597 816.5515929438604 788.1524492254434 C816.3891243745843 788.2513618841269 816.2125131060718 788.3008613314541 816.0146877887044 788.3008613314541 Z M821.9135731458041 788.3856312909015 C821.1364145755715 788.3785599412831 820.465326249612 788.1878059735341 819.9072070456011 787.8133693876541 C819.3491740775614 787.4318614521562 818.9181666947361 786.8808998337347 818.6215149546563 786.1603120604477 C818.3247769786053 785.4397242871605 818.1764511085655 784.5778819934517 818.1764511085655 783.5676275937321 C818.1764511085655 782.5574594299835 818.3247769786053 781.6955309003035 818.6215149546563 780.9890858262534 C818.925238044354 780.2756556385552 819.3562454271796 779.7387504833989 819.9142783952193 779.3643138975192 C820.4723975992301 778.9898773116395 821.1364145755715 778.8061946935084 821.9135731458041 778.8061946935084 C822.6835741304476 778.8061946935084 823.3546624564069 778.9898773116395 823.9057103107996 779.3643138975192 C824.4709008644286 779.7387504833989 824.901822011283 780.2826407522025 825.1984737513628 780.9890858262534 C825.5022830770317 781.7026022499219 825.650608947072 782.5574594299835 825.6435375974536 783.5676275937321 C825.6435375974536 784.5778819934517 825.4952117274138 785.4467956367787 825.1984737513628 786.1673834100657 C824.8947506616648 786.8879711833529 824.4709008644286 787.4389328017742 823.912781660418 787.8133693876541 C823.3546624564069 788.1948773231525 822.6906454800655 788.3856312909015 821.9135731458041 788.3856312909015 Z M821.9135731458041 786.7607731261965 C822.443406951342 786.7607731261965 822.8672567485783 786.4993918982366 823.1780511878947 785.9624867430805 C823.4960032127999 785.4326529375423 823.6514004324581 784.6343665544266 823.6514004324581 783.5676275937321 C823.6514004324581 782.8611825196815 823.5807731722473 782.2819355027873 823.4323610662361 781.815657607842 C823.2911065458145 781.349379712897 823.0932812284473 780.9961571758713 822.8319000004874 780.7630613463843 C822.5705187725275 780.5299655168969 822.2667956828295 780.4098388093587 821.9135731458041 780.4098388093587 C821.3837393402662 780.4098388093587 820.9668746566772 780.6712200373188 820.6490088677429 781.2010538428565 C820.3310568428374 781.7238162987767 820.1756596231794 782.5150313322742 820.1685882735612 783.5676275937321 C820.1685882735612 784.274072667783 820.239301769743 784.8675486198845 820.3805562901648 785.347882978095 C820.5288821602046 785.8141608730405 820.7267074775718 786.1744547596838 820.9880887055317 786.4075505891713 C821.2565412831098 786.6477177682766 821.5603506087787 786.7607731261965 821.9135731458041 786.7607731261965 Z M830.6663517256372 788.3856312909015 C829.8892793913756 788.3785599412831 829.2252624150342 788.1878059735341 828.6600718614052 787.8133693876541 C828.1019526573946 787.4318614521562 827.6781028601583 786.8808998337347 827.3743797704601 786.1603120604477 C827.0776417944094 785.4397242871605 826.9293159243696 784.5778819934517 826.9293159243696 783.5676275937321 C826.9293159243696 782.5574594299835 827.0847131440275 781.6955309003035 827.3814511200785 780.9890858262534 C827.6781028601583 780.2756556385552 828.1090240070127 779.7387504833989 828.6671432110234 779.3643138975192 C829.2252624150342 778.9898773116395 829.8963507409937 778.8061946935084 830.6663517256372 778.8061946935084 C831.4435102958696 778.8061946935084 832.107527272211 778.9898773116395 832.665646476222 779.3643138975192 C833.2236794442617 779.7387504833989 833.6546868270871 780.2826407522025 833.9513385671667 780.9890858262534 C834.2551478928358 781.7026022499219 834.4034737628756 782.5574594299835 834.4034737628756 783.5676275937321 C834.4034737628756 784.5778819934517 834.2480765432176 785.4467956367787 833.9513385671667 786.1673834100657 C833.6546868270871 786.8879711833529 833.2236794442617 787.4389328017742 832.665646476222 787.8133693876541 C832.107527272211 788.1948773231525 831.4435102958696 788.3856312909015 830.6663517256372 788.3856312909015 Z M830.6663517256372 786.7607731261965 C831.1961855311752 786.7607731261965 831.6201215643823 786.4993918982366 831.9379873533167 785.9624867430805 C832.2488680286037 785.4326529375423 832.4113365978803 784.6343665544266 832.4042652482617 783.5676275937321 C832.4042652482617 782.8611825196815 832.3336379880511 782.2819355027873 832.1852258820402 781.815657607842 C832.0439713616186 781.349379712897 831.8461460442513 780.9961571758713 831.5847648162912 780.7630613463843 C831.3233835883314 780.5299655168969 831.0195742626624 780.4098388093587 830.6663517256372 780.4098388093587 C830.1435892697173 780.4098388093587 829.7197394724813 780.6712200373188 829.4018736835467 781.2010538428565 C829.0839216586414 781.7238162987767 828.9285244389832 782.5150313322742 828.9214530893651 783.5676275937321 C828.9214530893651 784.274072667783 828.9920803495759 784.8675486198845 829.1334211059684 785.347882978095 C829.2817469760087 785.8141608730405 829.4866436429941 786.1744547596838 829.7480248709539 786.4075505891713 C830.0094060989138 786.6477177682766 830.3131291886118 786.7607731261965 830.6663517256372 786.7607731261965 Z M839.4192165414411 788.3856312909015 C838.6421442071796 788.3785599412831 837.978127230838 788.1878059735341 837.4200080268274 787.8133693876541 C836.8618888228168 787.4318614521562 836.4309676759624 786.8808998337347 836.1272445862642 786.1603120604477 C835.8305066102132 785.4397242871605 835.6821807401734 784.5778819934517 835.6892520897918 783.5676275937321 C835.6892520897918 782.5574594299835 835.8375779598316 781.6955309003035 836.1343159358821 780.9890858262534 C836.4380390255803 780.2756556385552 836.8618888228168 779.7387504833989 837.4200080268274 779.3643138975192 C837.978127230838 778.9898773116395 838.6492155567978 778.8061946935084 839.4192165414411 778.8061946935084 C840.1963751116737 778.8061946935084 840.8603920880153 778.9898773116395 841.4185112920259 779.3643138975192 C841.9765442600658 779.7387504833989 842.40746540692 780.2826407522025 842.7112747325889 780.9890858262534 C843.0080127086401 781.7026022499219 843.1563385786797 782.5574594299835 843.1563385786797 783.5676275937321 C843.1563385786797 784.5778819934517 843.0080127086401 785.4467956367787 842.7042033829707 786.1673834100657 C842.40746540692 786.8879711833529 841.9765442600658 787.4389328017742 841.425582641644 787.8133693876541 C840.8674634376332 788.1948773231525 840.1963751116737 788.3856312909015 839.4192165414411 788.3856312909015 Z M839.4192165414411 786.7607731261965 C839.949050346979 786.7607731261965 840.3729863801861 786.4993918982366 840.6908521691205 785.9624867430805 C841.0087179580551 785.4326529375423 841.1642014136842 784.6343665544266 841.1571300640658 783.5676275937321 C841.1571300640658 782.8611825196815 841.0864165678843 782.2819355027873 840.9451620474622 781.815657607842 C840.8039075270408 781.349379712897 840.5990108600552 780.9961571758713 840.3376296320953 780.7630613463843 C840.0762484041354 780.5299655168969 839.7724390784665 780.4098388093587 839.4192165414411 780.4098388093587 C838.8964540855213 780.4098388093587 838.4726042882851 780.6712200373188 838.1547384993507 781.2010538428565 C837.8438578240637 781.7238162987767 837.6813892547871 782.5150313322742 837.6813892547871 783.5676275937321 C837.6813892547871 784.274072667783 837.7520165149981 784.8675486198845 837.8933572713909 785.347882978095 C838.0346117918125 785.8141608730405 838.2395084587979 786.1744547596838 838.5008896867578 786.4075505891713 C838.7622709147179 786.6477177682766 839.0659940044156 786.7607731261965 839.4192165414411 786.7607731261965 Z M846.2859282005513 786.9161703458549 L846.2364287532241 787.4107336392726 C846.2011582411039 787.8133693876541 846.123373395304 788.2090200223888 846.0104042733551 788.597513071534 C845.904420265053 789.0002350558864 845.7913649071334 789.36052894253 845.6713244355662 789.6783947314646 C845.551197728028 790.0033318700173 845.4522850693443 790.2576417483588 845.3816578091337 790.4413243664897 L844.1383075799265 790.4413243664897 C844.1806494416649 790.2576417483588 844.2442915882286 790.0104032196352 844.3219901980576 789.6925374307009 C844.3996888078866 789.3745854057959 844.4773874177156 789.0213628687702 844.5409433283082 788.6257984700067 C844.6116568244902 788.2301478352724 844.6539986862283 787.8345834365091 844.6752127350828 787.4248763385092 L844.6964267839373 786.9161703458549 L846.2859282005513 786.9161703458549 Z M852.3684099398106 783.6171270410593 L852.3684099398106 785.1429863111098 L848.1508673083906 785.1429863111098 L848.1508673083906 783.6171270410593 L852.3684099398106 783.6171270410593 Z M860.9799339992221 778.5024716038104 L857.9987564833614 789.5724107231626 L856.3386278065364 789.5724107231626 L859.3198053223973 778.5024716038104 L860.9799339992221 778.5024716038104 Z M866.77283534802 784.1680886594809 L866.77283534802 788.1807346239157 L864.8441678576462 788.1807346239157 L864.8441678576462 778.9333927506648 L866.7162645510743 778.9333927506648 L866.7162645510743 782.4656181209182 L866.8010345105217 782.4656181209182 C866.9564317301799 782.0558247869471 867.2037564948744 781.7379589980128 867.5569790318996 781.5048631685258 C867.9031302193068 781.2716811030677 868.3411227157794 781.1516406315002 868.8709565213173 781.1516406315002 C869.351290879528 781.1516406315002 869.7752269127352 781.2575384038312 870.1284494497604 781.4695064204345 C870.4886571004331 781.6814744370383 870.7712523772473 781.9781261771184 870.9690776946147 782.3667054622344 C871.1739743616001 782.7551985113798 871.2728870202836 783.2214764063251 871.2658156706655 783.7654529110994 L871.2658156706655 788.1807346239157 L869.3442195299099 788.1807346239157 L869.3442195299099 784.1045327488885 C869.3442195299099 783.6806829516522 869.2383217575791 783.3486744634813 869.0192823913571 783.108421048405 C868.8003292611065 782.8753252189179 868.4965199354376 782.7551985113798 868.1079406503211 782.7551985113798 C867.8465594223615 782.7551985113798 867.613463592874 782.8117693083252 867.4085669258886 782.9177533166271 C867.2108278444925 783.030722438576 867.0553443888637 783.1931910078524 866.9423752669145 783.4051590244562 C866.8293199089946 783.6171270410593 866.77283534802 783.8714369194013 866.77283534802 784.1680886594809 Z M875.9141932129694 788.3149177947196 C875.2148194885367 788.3149177947196 874.6072870731696 788.1665919246796 874.0986673164862 787.8699401845997 C873.5899613238319 787.5661308589308 873.1943969250683 787.149352411313 872.9188729978721 786.6124472561567 C872.6433490706759 786.0755421010003 872.502094550254 785.4467956367787 872.502094550254 784.740350562728 C872.502094550254 784.0268341390592 872.6433490706759 783.3980876748378 872.9188729978721 782.8611825196815 C873.1943969250683 782.3242773645252 873.5899613238319 781.9074989169073 874.0986673164862 781.6036895912382 C874.6072870731696 781.3070378511584 875.2148194885367 781.1516406315002 875.9141932129694 781.1516406315002 C876.6206382870196 781.1516406315002 877.2210993527688 781.3070378511584 877.7297191094522 781.6036895912382 C878.2454964517246 781.9074989169073 878.6339895008703 782.3242773645252 878.9165847776844 782.8611825196815 C879.1921087048806 783.3980876748378 879.3262918756843 784.0268341390592 879.3262918756843 784.740350562728 C879.3262918756843 785.4467956367787 879.1921087048806 786.0755421010003 878.9165847776844 786.6124472561567 C878.6339895008703 787.149352411313 878.2454964517246 787.5661308589308 877.7297191094522 787.8699401845997 C877.2210993527688 788.1665919246796 876.6206382870196 788.3149177947196 875.9141932129694 788.3149177947196 Z M875.9283359122055 786.8243290367893 C876.2462017011399 786.8243290367893 876.5075829291 786.732487727724 876.7266222953217 786.5558764592113 C876.9385040759544 786.3721938410802 877.1010588812014 786.1249553123564 877.2069566535324 785.8070895234221 C877.3200120114523 785.489137498517 877.376496572427 785.1289298478443 877.376496572427 784.7262078634919 C877.376496572427 784.3235721151102 877.3200120114523 783.9632782284666 877.2069566535324 783.6453262035614 C877.1010588812014 783.327460414627 876.9385040759544 783.0802218859035 876.7266222953217 782.8965392677724 C876.5075829291 782.7128566496417 876.2462017011399 782.6210153405762 875.9283359122055 782.6210153405762 C875.603398773653 782.6210153405762 875.334946196075 782.7128566496417 875.1088354802348 782.8965392677724 C874.8969536996024 783.0802218859035 874.7343988943551 783.327460414627 874.6214297724061 783.6453262035614 C874.5083744144863 783.9632782284666 874.4589612031298 784.3235721151102 874.4589612031298 784.7262078634919 C874.4589612031298 785.1289298478443 874.5083744144863 785.489137498517 874.6214297724061 785.8070895234221 C874.7343988943551 786.1249553123564 874.8969536996024 786.3721938410802 875.1088354802348 786.5558764592113 C875.334946196075 786.732487727724 875.603398773653 786.8243290367893 875.9283359122055 786.8243290367893 Z M885.0273519154166 785.2277562705572 L885.0273519154166 781.2434819405657 L886.9488618202015 781.2434819405657 L886.9488618202015 788.1807346239157 L885.1050505252458 788.1807346239157 L885.1050505252458 786.923241695473 L885.034423265035 786.923241695473 C884.8790260453768 787.3259636798252 884.617558581446 787.650900818378 884.2502795811552 787.8981393471013 C883.8899856945118 788.1453778758253 883.451993198039 788.2725759329812 882.9292307421192 788.2725759329812 C882.4629528471739 788.2725759329812 882.0602308628213 788.1665919246796 881.7070083257961 787.9547101440469 C881.3537857887707 787.7427421274435 881.0783480975454 787.4460041513923 880.8805227801781 787.0575111022476 C880.6826974628111 786.6689318171309 880.5837848041274 786.2026539221856 880.5837848041274 785.6587636533823 L880.5837848041274 781.2434819405657 L882.5052947089121 781.2434819405657 L882.5052947089121 785.3195975796227 C882.5052947089121 785.7293909135931 882.6183500668321 786.0543280521458 882.8303180834357 786.287423881633 C883.0492712136863 786.5276772967093 883.3389378401191 786.6477177682766 883.7063030763809 786.6477177682766 C883.9393989058678 786.6477177682766 884.1513669224714 786.5912332073019 884.3561773534859 786.4852491990002 C884.5540026708532 786.3792651906983 884.7164712401295 786.216796621422 884.8436692972857 786.0119861904079 C884.9707811184712 785.8000181738041 885.034423265035 785.5386369458442 885.0273519154166 785.2277562705572 Z M888.488950025459 788.1807346239157 L888.488950025459 781.2434819405657 L890.3539753692694 781.2434819405657 L890.3539753692694 782.4514754216818 L890.42460262948 782.4514754216818 C890.5517144506657 782.0276256244454 890.7636824672693 781.7026022499219 891.0674055569671 781.4765777700527 C891.364143533018 781.2575384038312 891.7032233708069 781.144569281882 892.0918026559232 781.144569281882 C892.1907153146067 781.144569281882 892.2966993229086 781.1516406315002 892.4025970952393 781.1656970947658 C892.5156524531592 781.172768444384 892.6145651118429 781.1939824932385 892.6993350712901 781.215196542093 L892.6993350712901 782.9177533166271 C892.6074937622245 782.8894679181542 892.4873670546865 782.8682538692999 892.3248984854101 782.8470398204452 C892.162429916134 782.8259120075616 892.0211753957121 782.8188406579434 891.8869059889375 782.8188406579434 C891.6043107121234 782.8188406579434 891.3500008337817 782.8753252189179 891.1310477035308 783.0025232760745 C890.9049369876907 783.1225637476414 890.7353970687964 783.2921036665357 890.6012138979927 783.5040716831395 C890.4810871904544 783.7230248133906 890.4175312798618 783.9703495780848 890.4175312798618 784.2599299685467 L890.4175312798618 788.1807346239157 L888.488950025459 788.1807346239157 Z "></path>
    </defs>
    <g>
      <use xmlns:xlink="http://www.w3.org/1999/xlink" xlink:href="#s-Path_67-02671" fill="#000000" fill-opacity="1.0" filter="none"></use>
    </g>
  </g>
</svg>
