<?xml version="1.0" encoding="UTF-8"?>
<svg xmlns="http://www.w3.org/2000/svg" width="20.779052734375" height="17.5411376953125" viewBox="801.815065515128 1060.3740561500167 20.779052734375 17.5411376953125" preserveAspectRatio="none">
  <g>
    <defs>
      <path id="s-Path_91-02671" d="M822.5382866798916 1066.66850590588 C822.4746445333278 1066.5060373366036 822.3546040617607 1066.3647828161818 822.1991206061316 1066.2587988078799 C822.0366520368552 1066.1528147995782 821.8388267194882 1066.0892588889853 821.6410876380919 1066.0751161897492 L815.7140031184906 1065.6794655550145 L813.1496040502477 1060.8898334922892 C813.0719054404187 1060.7343500366599 812.9376360336441 1060.6072382154748 812.7680961147498 1060.5153969064095 C812.6056275454735 1060.4235555973441 812.4078022281062 1060.3740561500167 812.2099769107392 1060.3740561500167 C812.0051664797245 1060.3740561500167 811.8073411623573 1060.4235555973441 811.6448725930811 1060.5153969064095 C811.4753326741866 1060.6072382154748 811.341063267412 1060.7343500366599 811.263364657583 1060.8898334922892 L808.6989655893406 1065.6794655550145 L802.771881069739 1066.0751161897492 C802.5741419883427 1066.0892588889853 802.3833880205939 1066.1528147995782 802.2279908009357 1066.2517274582617 C802.0654359956884 1066.3577114665636 801.9453955241211 1066.498965986985 801.8747682639103 1066.6543632066432 C801.8111261173467 1066.8098466622725 801.7969834181104 1066.9864579307853 801.8394115158194 1067.1489265000614 C801.8888247271757 1067.3113950693378 801.9877373858592 1067.4597209393778 802.1290781422517 1067.579847646916 L806.5090031069776 1071.1827002773798 L804.9619297880724 1076.8413322194033 C804.9124303407455 1077.0108721382978 804.9265730399818 1077.1945547564285 805.004271649811 1077.3570233257049 C805.0748989100216 1077.5194918949812 805.2091683167962 1077.660832651374 805.378708235691 1077.7597453100577 C805.5553195042035 1077.8585717327703 805.7531448215707 1077.9151425297157 805.9650266022034 1077.9151425297157 C806.1699232691888 1077.9151425297157 806.3748199361739 1077.8656430823885 806.5514312046867 1077.7667304237048 L812.202991797092 1074.587727590477 L817.8615375031441 1077.7667304237048 C818.038148771657 1077.8656430823885 818.2501167882606 1077.9151425297157 818.4620848048639 1077.9151425297157 C818.6739665854966 1077.9080711800975 818.878863252482 1077.851586619123 819.0554745209945 1077.745602610821 C819.225014439889 1077.6396186025195 819.3522124970455 1077.4912927324795 819.4228397572563 1077.3217528135851 C819.4934670174673 1077.1521266587195 819.5005383670855 1076.9685302765595 819.4369824564926 1076.7989041216942 L817.5366003645915 1071.1827002773798 L822.255691403077 1067.6081330453885 C822.5594144927752 1067.3678796303125 822.672469850695 1067.0005143940507 822.5382866798916 1066.66850590588 L822.5382866798916 1066.66850590588 Z "></path>
    </defs>
    <g>
      <use xmlns:xlink="http://www.w3.org/1999/xlink" xlink:href="#s-Path_91-02671" fill="#FFD233" fill-opacity="1.0" filter="none"></use>
    </g>
  </g>
</svg>
