<?xml version="1.0" encoding="UTF-8"?>
<svg xmlns="http://www.w3.org/2000/svg" width="116.772705078125" height="11.9443359375" viewBox="772.500520833334 1031.8854166666667 116.772705078125 11.9443359375" preserveAspectRatio="none">
  <g>
    <defs>
      <path id="s-Path_87-8264f" d="M772.500520833334 1041.5681425730386 L774.4582898457853 1041.5681425730386 L774.4582898457853 1038.2887155532835 L775.8859807332364 1038.2887155532835 L777.6387585957854 1041.5681425730386 L779.7944441477467 1041.5681425730386 L777.8296005249032 1037.9707031885782 C778.8826821645108 1037.5183595021565 779.4692708969125 1036.6065975189208 779.4692708969125 1035.3414501190186 C779.4692708969125 1033.4967885971068 778.2536457697557 1032.3165365219115 776.1545571009325 1032.3165365219115 L772.500520833334 1032.3165365219115 L772.500520833334 1041.5681425730386 Z M774.4582898457853 1036.7126303990683 L774.4582898457853 1033.913845507304 L775.7799478530891 1033.913845507304 C776.903689320883 1033.913845507304 777.4549912770598 1034.4156251907348 777.4549912770598 1035.3414501190186 C777.4549912770598 1036.2532121022543 776.903689320883 1036.7126303990683 775.7870224634813 1036.7126303990683 L774.4582898457853 1036.7126303990683 Z M780.8475257873544 1041.5681425730386 L782.8052947998054 1041.5681425730386 L782.8052947998054 1038.5714411417644 L784.4520397822072 1038.5714411417644 C786.5794268925991 1038.5714411417644 787.8162758509326 1037.2992191314697 787.8162758509326 1035.454557609558 C787.8162758509326 1033.6098960876466 786.6006507237761 1032.3165365219115 784.5014757792163 1032.3165365219115 L780.8475257873544 1032.3165365219115 L780.8475257873544 1041.5681425730386 Z M782.8052947998054 1037.002430597941 L782.8052947998054 1033.913845507304 L784.1269528071092 1033.913845507304 C785.2577688852954 1033.913845507304 785.8019962310797 1034.5287326812745 785.8019962310797 1035.454557609558 C785.8019962310797 1036.3663195927936 785.2577688852954 1037.002430597941 784.1339411417651 1037.002430597941 L782.8052947998054 1037.002430597941 Z M789.7386718114225 1041.6883246739706 C790.3181859334317 1041.6883246739706 790.8200518925993 1041.2006079355874 790.8271265029913 1040.5998699824013 C790.8200518925993 1040.0062066396076 790.3181859334317 1039.525564511617 789.7386718114225 1039.525564511617 C789.1450084686288 1039.525564511617 788.6502171198537 1040.0062066396076 788.6572917302457 1040.5998699824013 C788.6502171198537 1041.2006079355874 789.1450084686288 1041.6883246739706 789.7386718114225 1041.6883246739706 Z M794.7567274729419 1039.9425351460775 L799.1952690124521 1039.9425351460775 L799.1952690124521 1041.5681425730386 L801.0682289759326 1041.5681425730386 L801.0682289759326 1039.9425351460775 L802.2131942749032 1039.9425351460775 L802.2131942749032 1038.373524602254 L801.0682289759326 1038.373524602254 L801.0682289759326 1032.3165365219115 L798.6227432250984 1032.3165365219115 L794.7567274729419 1038.4018230438232 L794.7567274729419 1039.9425351460775 Z M799.2306420644132 1038.373524602254 L796.7286457061776 1038.373524602254 L796.7286457061776 1038.3028647740682 L799.1598959604909 1034.450998242696 L799.2306420644132 1034.450998242696 L799.2306420644132 1038.373524602254 Z M806.8990883509326 1041.6953992843628 C808.9558156331387 1041.6953992843628 810.3622826894133 1040.352517445882 810.3552080790208 1038.4795574824016 C810.3622826894133 1036.7126303990683 809.1183591206876 1035.4404083887734 807.4573786417651 1035.4404083887734 C806.6375865936285 1035.4404083887734 805.9378903706876 1035.7797308603922 805.6127171198535 1036.2319882710774 L805.5632811228444 1036.2319882710774 L805.8035590489714 1033.913845507304 L809.8462675094612 1033.913845507304 L809.8462675094612 1032.3165365219115 L804.1851125081388 1032.3165365219115 L803.746831766765 1037.1932725270588 L805.4855466842658 1037.504210281372 C805.7753468831387 1037.1225264231364 806.3265625635789 1036.8822484970092 806.8707899093637 1036.8822484970092 C807.8037757237761 1036.8893231074014 808.4680988947558 1037.5607208887736 808.4680988947558 1038.5289934794107 C808.4680988947558 1039.497266070048 807.8178386688238 1040.1616755167643 806.8990883509326 1040.1616755167643 C806.1216576894132 1040.1616755167643 805.4926212946581 1039.6739587783813 805.4501736323047 1038.953125 L803.5490015029915 1038.953125 C803.5842882792161 1040.5504339853921 804.9836807250982 1041.6953992843628 806.8990883509326 1041.6953992843628 Z M812.574478848776 1041.6883246739706 C813.1539929707852 1041.6883246739706 813.6557726542163 1041.2006079355874 813.6628472646086 1040.5998699824013 C813.6557726542163 1040.0062066396076 813.1539929707852 1039.525564511617 812.574478848776 1039.525564511617 C811.9807292302456 1039.525564511617 811.486024157207 1040.0062066396076 811.4930987675992 1040.5998699824013 C811.486024157207 1041.2006079355874 811.9807292302456 1041.6883246739706 812.574478848776 1041.6883246739706 Z M818.4618488311775 1041.7731337229409 C820.7942270914722 1041.7731337229409 822.1936195373543 1039.9991320292154 822.2006941477467 1036.9529083251953 C822.2077687581387 1033.9209201176961 820.7800778706877 1032.1892798105875 818.4618488311775 1032.1892798105875 C816.1436197916674 1032.1892798105875 814.7300781250009 1033.9209201176961 814.7300781250009 1036.9529083251953 C814.7230035146084 1039.9920574188232 816.136545181275 1041.7660591125486 818.4618488311775 1041.7731337229409 Z M818.4618488311775 1040.1475262959796 C817.4016925811776 1040.1475262959796 816.7161455790211 1039.0802954355875 816.7232201894132 1036.9529083251953 C816.7232201894132 1034.853819656372 817.4087671915698 1033.7936634063722 818.4618488311775 1033.7936634063722 C819.5149304707853 1033.7936634063722 820.207552083334 1034.853819656372 820.207552083334 1036.9529083251953 C820.207552083334 1039.0802954355875 819.5220050811773 1040.1475262959796 818.4618488311775 1040.1475262959796 Z M827.2258244196584 1041.7731337229409 C829.5510417938241 1041.7731337229409 830.9575088500984 1039.9991320292154 830.9575088500984 1036.9529083251953 C830.9645834604909 1033.9209201176961 829.5439671834318 1032.1892798105875 827.2258244196584 1032.1892798105875 C824.9005207697559 1032.1892798105875 823.4940537134813 1033.9209201176961 823.4869791030891 1036.9529083251953 C823.4799044926968 1039.9920574188232 824.8934461593636 1041.7660591125486 827.2258244196584 1041.7731337229409 Z M827.2258244196584 1040.1475262959796 C826.158593559266 1040.1475262959796 825.4730465571093 1039.0802954355875 825.4800348917653 1036.9529083251953 C825.4871095021573 1034.853819656372 826.165668169658 1033.7936634063722 827.2258244196584 1033.7936634063722 C828.278906059266 1033.7936634063722 828.9644530614224 1034.853819656372 828.9644530614224 1036.9529083251953 C828.9644530614224 1039.0802954355875 828.278906059266 1040.1475262959796 827.2258244196584 1040.1475262959796 Z M835.9827253977465 1041.7731337229409 C838.3079427719125 1041.7731337229409 839.7144098281866 1039.9991320292154 839.7214844385791 1036.9529083251953 C839.7214844385791 1033.9209201176961 838.30086816152 1032.1892798105875 835.9827253977465 1032.1892798105875 C833.6574217478441 1032.1892798105875 832.25095469157 1033.9209201176961 832.2438800811775 1036.9529083251953 C832.2368054707853 1039.9920574188232 833.6503471374521 1041.7660591125486 835.9827253977465 1041.7731337229409 Z M835.9827253977465 1040.1475262959796 C834.9225691477465 1040.1475262959796 834.2369358698535 1039.0802954355875 834.2369358698535 1036.9529083251953 C834.2440104802457 1034.853819656372 834.9225691477465 1033.7936634063722 835.9827253977465 1033.7936634063722 C837.0358070373544 1033.7936634063722 837.7213540395109 1034.853819656372 837.7213540395109 1036.9529083251953 C837.7284286499031 1039.0802954355875 837.0428816477464 1040.1475262959796 835.9827253977465 1040.1475262959796 Z M842.8383679707853 1040.3029951731362 L841.2481335957854 1040.3029951731362 L841.2269097646084 1040.811935742696 C841.170399157207 1042.0346354802448 840.8170137405401 1043.2996966044107 840.6897570292161 1043.8297747294107 L841.933680597942 1043.8297747294107 C842.1528209686288 1043.2785590489705 842.6687498728444 1041.9992624282836 842.7889319737759 1040.7977865219113 L842.8383679707853 1040.3029951731362 Z M848.923654492697 1037.002430597941 L844.7042533238736 1037.002430597941 L844.7042533238736 1038.5289934794107 L848.923654492697 1038.5289934794107 L848.923654492697 1037.002430597941 Z M857.532161204021 1031.8854166666667 L855.8782553354907 1031.8854166666667 L852.8957031250008 1042.9604604085287 L854.5565973281867 1042.9604604085287 L857.532161204021 1031.8854166666667 Z M863.3347221374519 1037.5536462783812 C863.3347221374519 1036.663194402059 863.8860240936286 1036.1401046117146 864.6705293655401 1036.1401046117146 C865.4479600270596 1036.1401046117146 865.914452934266 1036.641970570882 865.9073783238736 1037.4900610605875 L865.9073783238736 1041.5681425730386 L867.8297742843637 1041.5681425730386 L867.8297742843637 1037.1508248647053 C867.8368488947557 1035.5252174377442 866.8756509145109 1034.5358072916665 865.4338108062751 1034.5358072916665 C864.3807291666675 1034.5358072916665 863.6739583333341 1035.0375869750976 863.3559459686288 1035.8503906885783 L863.2782115300505 1035.8503906885783 L863.2782115300505 1032.3165365219115 L861.40525156657 1032.3165365219115 L861.40525156657 1041.5681425730386 L863.3347221374519 1041.5681425730386 L863.3347221374519 1037.5536462783812 Z M872.4802953084317 1041.7023876190183 C874.5865448633837 1041.7023876190183 875.8940536499032 1040.2606337865193 875.8940536499032 1038.1261720657349 C875.8940536499032 1035.977561124166 874.5865448633837 1034.5358072916665 872.4802953084317 1034.5358072916665 C870.3741320292162 1034.5358072916665 869.0666232426969 1035.977561124166 869.0666232426969 1038.1261720657349 C869.0666232426969 1040.2606337865193 870.3741320292162 1041.7023876190183 872.4802953084317 1041.7023876190183 Z M872.4873699188241 1040.2111115137734 C871.5190973281866 1040.2111115137734 871.024392255148 1039.3205733617144 871.024392255148 1038.1120228449504 C871.024392255148 1036.9034723281861 871.5190973281866 1036.0058595657347 872.4873699188241 1036.0058595657347 C873.4415795644132 1036.0058595657347 873.9433592478441 1036.9034723281861 873.9433592478441 1038.1120228449504 C873.9433592478441 1039.3205733617144 873.4415795644132 1040.2111115137734 872.4873699188241 1040.2111115137734 Z M881.5976563135793 1038.6138025283813 C881.6047309239715 1039.5467883427937 880.9615453084319 1040.0344188054403 880.2759983062753 1040.0344188054403 C879.5480036417651 1040.0344188054403 879.0745223999032 1039.5184899012247 879.0745223999032 1038.705686187744 L879.0745223999032 1034.6276909510293 L877.1450518290209 1034.6276909510293 L877.1450518290209 1039.0450086593628 C877.1521264394131 1040.6705298105874 878.0991751988737 1041.6600262324014 879.498567644756 1041.6600262324014 C880.5375000635792 1041.6600262324014 881.2937931696582 1041.122873497009 881.6047309239715 1040.3100697835287 L881.6753907521573 1040.3100697835287 L881.6753907521573 1041.5681425730386 L883.5201385498054 1041.5681425730386 L883.5201385498054 1034.6276909510293 L881.5976563135793 1034.6276909510293 L881.5976563135793 1038.6138025283813 Z M885.0608506520597 1041.5681425730386 L886.9832466125496 1041.5681425730386 L886.9832466125496 1037.645529937744 C886.9832466125496 1036.7903648376464 887.6122830073047 1036.203776105245 888.4604597727467 1036.203776105245 C888.7219615300504 1036.203776105245 889.0894098917653 1036.2461374918619 889.2731772104909 1036.302734375 L889.2731772104909 1034.5993925094604 C889.1035591125495 1034.556944847107 888.8632811864226 1034.5287326812745 888.6653646469125 1034.5287326812745 C887.887933985393 1034.5287326812745 887.2518229802457 1034.9810763676962 886.9973958333343 1035.8362414677938 L886.926736005148 1035.8362414677938 L886.926736005148 1034.6276909510293 L885.0608506520597 1034.6276909510293 L885.0608506520597 1041.5681425730386 Z "></path>
    </defs>
    <g>
      <use xmlns:xlink="http://www.w3.org/1999/xlink" xlink:href="#s-Path_87-8264f" fill="#000000" fill-opacity="1.0" filter="none"></use>
    </g>
  </g>
</svg>
