<?xml version="1.0" encoding="UTF-8"?>
<svg xmlns="http://www.w3.org/2000/svg" width="19.983154296875" height="17.5411376953125" viewBox="848.4405622154857 807.4667196398865 19.983154296875 17.5411376953125" preserveAspectRatio="none">
  <g>
    <defs>
      <path id="s-Path_79-02671" d="M868.370807868522 813.7611693957496 C868.3072519579293 813.598700826473 868.1941966000097 813.4574463060516 868.0387993803513 813.3514622977497 C867.8834021606933 813.245478289448 867.6997195425624 813.1819223788551 867.5018942251952 813.167779679619 L861.8079917710515 812.7721290448843 L859.3424191255217 807.982496982159 C859.2647205156925 807.8270135265299 859.1376086945072 807.6999017053444 858.9751401252308 807.608060396279 C858.8125853199833 807.5162190872137 858.6219175882056 807.4667196398865 858.4311636204566 807.4667196398865 C858.2404096527075 807.4667196398865 858.0496556849585 807.5162190872137 857.8871871156821 807.608060396279 C857.7317898960237 807.6999017053444 857.5975204892493 807.8270135265299 857.5198218794203 807.982496982159 L855.0543354698614 812.7721290448843 L849.3603467797466 813.167779679619 C849.1696790479687 813.1819223788551 848.985996429838 813.245478289448 848.8375843238273 813.3443909481315 C848.6821871041689 813.4503749564334 848.569131746249 813.5916294768548 848.4985044860377 813.747026696513 C848.4349485754456 813.9025101521423 848.4208058762088 814.0791214206548 848.4703053235362 814.241589989931 C848.5126471852745 814.4040585592076 848.6044884943399 814.5523844292474 848.7457430147615 814.6725111367856 L852.9491429469458 818.2753637672496 L851.4656255386335 823.9339957092726 C851.4161260913061 824.1035356281674 851.4302687905424 824.2872182462983 851.5079674003714 824.4496868155746 C851.5785946605827 824.6121553848508 851.7057927177389 824.7534961412433 851.868261287015 824.8524087999268 C852.0307298562916 824.9512352226399 852.2285551736586 825.0078060195852 852.4263804910256 825.0078060195852 C852.6311909220403 825.0078060195852 852.8290162394073 824.958306572258 852.9914848086837 824.8593939135745 L858.4311636204566 821.6803910803463 L863.8707561962583 824.8593939135745 C864.0402961151528 824.958306572258 864.245192782138 825.0078060195852 864.4500894491237 825.0078060195852 C864.6478285305197 825.0007346699671 864.8527251975052 824.9442501089922 865.0151937667815 824.8382661006907 C865.1776623360579 824.732282092389 865.3048603932141 824.583956222349 865.368416303807 824.4144163034547 C865.4390435640173 824.244790148589 865.4461149136359 824.0611937664293 865.3896303526612 823.8915676115638 L863.5599617569419 818.2753637672496 L868.0952839413258 814.7007965352581 C868.3920219173767 814.460543120182 868.4980059256784 814.0931778839202 868.370807868522 813.7611693957496 L868.370807868522 813.7611693957496 Z "></path>
    </defs>
    <g>
      <use xmlns:xlink="http://www.w3.org/1999/xlink" xlink:href="#s-Path_79-02671" fill="#FFD233" fill-opacity="1.0" filter="none"></use>
    </g>
  </g>
</svg>
