<?xml version="1.0" encoding="UTF-8"?>
<svg xmlns="http://www.w3.org/2000/svg" width="18.382568359375" height="17.5411376953125" viewBox="779.2088873745586 807.4667196398865 18.382568359375 17.5411376953125" preserveAspectRatio="none">
  <g>
    <defs>
      <path id="s-Path_73-02671" d="M797.5411111539127 813.7611693957496 C797.4846265929382 813.598700826473 797.3786425846363 813.4574463060516 797.2373880642147 813.3514622977497 C797.0960473078219 813.245478289448 796.9265073889273 813.1819223788551 796.7428247707962 813.167779679619 L791.5080426260092 812.7721290448843 L789.2403815338175 807.982496982159 C789.1697542736065 807.8270135265299 789.0496275660687 807.6999017053444 788.9013016960287 807.608060396279 C788.7529758259884 807.5162190872137 788.5763645574762 807.4667196398865 788.3997532889634 807.4667196398865 C788.2231420204505 807.4667196398865 788.0536021015562 807.5162190872137 787.9051899955455 807.608060396279 C787.7568641255054 807.6999017053444 787.6367374179672 807.8270135265299 787.5661101577564 807.982496982159 L785.2984490655645 812.7721290448843 L780.056595571159 813.167779679619 C779.8799843026466 813.1819223788551 779.710444383752 813.245478289448 779.5691898633304 813.3443909481315 C779.4278491069376 813.4503749564334 779.3218650986357 813.5916294768548 779.2653805376613 813.747026696513 C779.2018246270686 813.9025101521423 779.1947532774504 814.0791214206548 779.2300237895704 814.241589989931 C779.2724518872797 814.4040585592076 779.364293196345 814.5523844292474 779.484419903883 814.6725111367856 L783.3627964615437 818.2753637672496 L781.9922481751805 823.9339957092726 C781.9499063134422 824.1035356281674 781.9640490126785 824.2872182462983 782.0276049232712 824.4496868155746 C782.098232183482 824.6121553848508 782.211287541402 824.7534961412433 782.3666847610602 824.8524087999268 C782.5150106311 824.9512352226399 782.691621899613 825.0078060195852 782.8823758673618 825.0078060195852 C783.0660584854927 825.0078060195852 783.2426697540054 824.958306572258 783.3980669736634 824.8593939135745 L788.3997532889634 821.6803910803463 L793.4084247179105 824.8593939135745 C793.5638219375687 824.958306572258 793.7475045556994 825.0078060195852 793.9382585234484 825.0078060195852 C794.1219411415791 825.0007346699671 794.3056237597102 824.9442501089922 794.45394962975 824.8382661006907 C794.6093468494082 824.732282092389 794.7224022073283 824.583956222349 794.7859581179209 824.4144163034547 C794.8496002644845 824.244790148589 794.8496002644845 824.0611937664293 794.8001008171573 823.8915676115638 L793.118758091478 818.2753637672496 L797.2868012755707 814.7007965352581 C797.5623252027669 814.460543120182 797.6612378614507 814.0931778839202 797.5411111539127 813.7611693957496 L797.5411111539127 813.7611693957496 Z "></path>
    </defs>
    <g>
      <use xmlns:xlink="http://www.w3.org/1999/xlink" xlink:href="#s-Path_73-02671" fill="#FFD233" fill-opacity="1.0" filter="none"></use>
    </g>
  </g>
</svg>
