<?xml version="1.0" encoding="UTF-8"?>
<svg xmlns="http://www.w3.org/2000/svg" width="226.3165283203125" height="25.19134521484375" viewBox="566.1377225785664 363.99616370531976 226.3165283203125 25.19134521484375" preserveAspectRatio="none">
  <g>
    <defs>
      <path id="s-Path_30-0a187" d="M573.3667763948732 388.76556047505846 L566.1377225785664 388.76556047505846 L566.1377225785664 364.09227730095836 L573.8000209375117 364.09227730095836 C576.1536392788248 364.09227730095836 578.1651656931119 364.58207701589583 579.8360237659458 365.56167644577056 C581.5146468509946 366.54200923791007 582.7995838167446 367.94708819820835 583.6915248865038 369.77838005119474 C584.582775732955 371.60967190418114 585.0287894067912 373.8063938597952 585.0287894067912 376.36850277908025 C585.0287894067912 378.95464009727493 584.5707831029786 381.17534731284184 583.654770495353 383.030667564738 C582.7472562622072 384.878222804419 581.4220275108528 386.29602775695844 579.67908424129 387.2834353380049 C577.9446393462069 388.27153314235954 575.8405367307347 388.76556047505846 573.3667763948732 388.76556047505846 Z M568.3909565675227 386.7413080685301 L573.2339084080838 386.7413080685301 C575.3542744102508 386.7413080685301 577.1297013142462 386.32359355032156 578.5588518124108 385.4888978761694 C579.9886493949267 384.65346883975246 581.0608681649434 383.4604178518796 581.7754218445473 381.91043513585873 C582.490708886416 380.3604092808812 582.8476406145639 378.51289718015687 582.8476406145639 376.36850277908025 C582.8398756023489 374.24032862574165 582.4864812686544 372.40903677275514 581.7874576134805 370.875317443429 C581.0969323327862 369.34090789079494 580.0692329661354 368.16407715066 578.7037124291767 367.34491150093766 C577.3460000433897 366.52574585121545 575.6673769583409 366.11652970748673 573.6678431740303 366.11652970748673 L568.3909565675227 366.11652970748673 L568.3909565675227 386.7413080685301 Z M595.2114813138447 389.1875026110283 C594.095476502727 389.1875026110283 593.0755852872479 388.9705136585767 592.1518076674073 388.53657889263036 C591.2280300475668 388.0948359755123 590.4929422245499 387.46013250485214 589.9466304762702 386.6331587039582 C589.400965812342 385.7977728064981 589.127464826548 384.7856466032339 589.127464826548 383.59751345643053 C589.127464826548 382.68154398776176 589.3006245989418 381.91043513585873 589.6455205581566 381.2841869007217 C589.991149879636 380.6572915812334 590.4809495945734 380.14346346738625 591.1156530652335 379.7419691969159 C591.7503565358935 379.3405180654021 592.5009312443835 379.0231878995504 593.3681968308819 378.78993556040405 C594.2361095017314 378.5574165835226 595.1916805326965 378.376491798914 596.2356001470853 378.24785142988605 C597.2717547492591 378.1192110608581 598.1474755712803 378.0068340785248 598.8620292508843 377.9107204828862 C599.585081304968 377.81456374829077 600.1349735866579 377.6618949803533 600.5123963192619 377.4527141790734 C600.8898190518661 377.24418046214487 601.0785519876465 376.907049515145 601.0785519876465 376.4405879758093 L601.0785519876465 376.00730029421413 C601.0785519876465 374.74639172737375 600.7011292550425 373.75406630525777 599.9462406508774 373.0317476134388 C599.1992033368408 372.3009305471402 598.1234471723707 371.9355004445125 596.7176348498077 371.9355004445125 C595.3846410862385 371.9355004445125 594.2962020684838 372.22811198814645 593.453008019852 372.8147586609873 C592.617578983435 373.40067197156327 592.0309323105944 374.0919306145223 591.6938013635945 374.88706786533487 L589.6575563270898 374.1519800423181 C590.0752708452982 373.1398969780106 590.6534191436592 372.33272395826486 591.3926914454808 371.7305472609942 C592.1313166629511 371.1198721892438 592.9589375481963 370.68235688988716 593.874259932514 370.41731113961634 C594.7902294011827 370.1438101538225 595.7175444154767 370.00740477257955 596.6575854220121 370.00740477257955 C597.3643740894009 370.00740477257955 598.099418773461 370.0999809737647 598.8620292508843 370.28444315282695 C599.6331381027873 370.4696386941538 600.347734921348 370.79050625445893 601.0064236519609 371.2485125582717 C601.6651555215306 371.6980204876047 602.1995177787906 372.3284963405033 602.6087339225193 373.1398969780106 C603.0186834285128 373.9427992410381 603.2236366120312 374.96338067982526 603.2236366120312 376.200260847756 L603.2236366120312 388.76556047505846 L601.0785519876465 388.76556047505846 L601.0785519876465 385.83802145314564 L600.9463742241651 385.83802145314564 C600.6890934861092 386.3843763403821 600.3081333590517 386.91446784092386 599.8020702574195 387.4282959547709 C599.2960071557875 387.9421672075746 598.6613036851273 388.36410934354467 597.8980029843962 388.6934752783294 C597.1353493680163 389.02284121311436 596.2398709038035 389.1875026110283 595.2114813138447 389.1875026110283 Z M595.5005554630252 387.22334277125253 C596.6413220353173 387.22334277125253 597.6294198396718 386.9703327899148 598.4648488760887 386.4642696882828 C599.299544550241 385.9582065866506 599.9420130331159 385.2881723104125 600.3922543247138 384.4527432739957 C600.8502606285265 383.6095492253638 601.0785519876465 382.68154398776176 601.0785519876465 381.66941778449757 L601.0785519876465 378.9949318828792 C600.9180750685372 379.1476006508169 600.6488017005049 379.2840060320598 600.2713789679008 379.404838249916 C599.9024546097763 379.52502338342094 599.4727043226347 379.6338629713008 598.9829046076973 379.7299765669394 C598.5008699049748 379.81832515036297 598.0188352022524 379.89463796485336 597.5368004995299 379.9589581493674 C597.0548089357643 380.0232783338813 596.6215212541691 380.07914328287234 596.2356001470853 380.12720008069164 C595.1916805326965 380.2558404497196 594.3004296862454 380.4565660154765 593.561114245467 380.7300670012703 C592.8225321669535 381.00292090271296 592.2556862752609 381.380343635317 591.8627335182267 381.86233519908274 C591.469047398928 382.3359146662822 591.2718592276245 382.94658973803257 591.2718592276245 383.69362705206913 C591.2718592276245 384.81813023766654 591.6740005824464 385.6896234419263 592.4769028454739 386.3080635258916 C593.2798482474582 386.91800523537734 594.2877036940042 387.22334277125253 595.5005554630252 387.22334277125253 Z M616.2165295786376 370.2604147539172 L616.2165295786376 372.1277707747465 L607.385898854037 372.1277707747465 L607.385898854037 370.2604147539172 L616.2165295786376 370.2604147539172 Z M610.1445057213174 365.8267221960415 L612.3009358913272 365.8267221960415 L612.3009358913272 383.9346444034304 C612.3009358913272 384.7057532553333 612.4338038781167 385.31220070932216 612.6988496283875 385.75394362644033 C612.9638953786584 386.1871881690786 613.3087913378731 386.49675332271534 613.7350042305612 386.6812586407343 C614.1604837609848 386.85795580758156 614.614262447036 386.94630439100524 615.0962971497585 386.94630439100524 C615.3775631477672 386.94630439100524 615.6178902758205 386.9300410043104 615.8193060648854 386.89820445422913 C616.0200316306423 386.85795580758156 616.1967287974894 386.8176640219773 616.3493975654271 386.7780624596809 L616.806713645932 388.71750367723916 C616.59822306796 388.7973538861829 616.3409423299041 388.87017244517665 616.0356047940289 388.9344926296907 C615.7309574814617 389.0065778264195 615.3528445255497 389.04264199426245 614.9033365962166 389.04264199426245 C614.115964357619 389.04264199426245 613.3575814979572 388.87017244517665 612.6267644316586 388.5245431236972 C611.903712377575 388.1789138022176 611.3093006925192 387.6650856883706 610.8435293764915 386.98232541989125 C610.3777580604636 386.2995651514119 610.1445057213174 385.4521434850186 610.1445057213174 384.4407075050624 L610.1445057213174 365.8267221960415 Z M628.3697658910659 389.1507482198774 C626.6423957848898 389.1507482198774 625.1489251022111 388.7492970883636 623.8880165353708 387.94639482533614 C622.6271079685305 387.13499418782885 621.6510459331091 386.0147186199929 620.9605206524149 384.5849210374771 C620.2777603839355 383.14731530378947 619.9363586802175 381.4927206176503 619.9363586802175 379.62113697905954 C619.9363586802175 377.7580517149486 620.2777603839355 376.10345702880943 620.9605206524149 374.65804314395007 C621.6510459331091 373.2041740235678 622.6030795696208 372.06767820799394 623.8152411153338 371.2485125582717 C625.0365481198778 370.4208485340698 626.4458978368942 370.00740477257955 628.0439373507345 370.00740477257955 C629.0482985417837 370.00740477257955 630.0158622027252 370.1925571749498 630.9474048347807 370.56152467203094 C631.8796808291011 370.9233742412483 632.7143765032532 371.4810315351532 633.4536919440316 372.23661036262627 C634.2007723970248 372.98295745335474 634.790956464319 373.92722607765154 635.2248912302655 375.0673024266356 C635.6581789118605 376.200260847756 635.8751678643122 377.54106276249706 635.8751678643122 379.0910454785178 L635.8751678643122 380.1512284796013 L621.4177935939629 380.1512284796013 L621.4177935939629 378.2598440598623 L633.6827166654164 378.2598440598623 C633.6827166654164 377.07175405201576 633.4416993140551 376.0030726764526 632.9596646113326 375.0552666577024 C632.4860851441332 374.09969562673723 631.823125656802 373.34485016152905 630.9714763726471 372.79073026207755 C630.1282391850585 372.23661036262627 629.1529105119021 371.95952884342216 628.0439373507345 371.95952884342216 C626.8713773673178 371.95952884342216 625.8394503829054 372.2726313915123 624.9481995364542 372.89887962664943 C624.0562153277383 373.5250847228298 623.357925034829 374.35270560807487 622.851861933197 375.3804049747258 C622.35356384378 376.4087945646846 622.1005538624422 377.53325461132533 622.0927888502272 378.75391453151803 L622.0927888502272 379.88687295263844 C622.0927888502272 381.35631523640745 622.3457988315649 382.6412522021574 622.851861933197 383.74172698884524 C623.3656900470439 384.8337034010532 624.0929697188892 385.6811250674466 625.0323205021164 386.2840351269821 C625.9723615086516 386.88621182425265 627.0841387020079 387.1873217423663 628.3697658910659 387.1873217423663 C629.2447533508223 387.1873217423663 630.0123248082717 387.05087322216673 630.6703664545335 386.7780624596809 C631.337553559626 386.50456147388707 631.895210853531 386.1391313712594 632.3454521451288 385.6811250674466 C632.8027250866768 385.2153537514188 633.1483544081564 384.7057532553333 633.3816067473026 384.1516333558818 L635.4171615604994 384.813902619905 C635.1365426468418 385.59277648402303 634.6743087252676 386.3116009203451 634.0318402423925 386.9703327899148 C633.3971367717326 387.62906465948447 632.60199952092 388.1591561600262 631.6464284899547 388.56060729154 C630.6986224712047 388.9542934108388 629.6066460589966 389.1507482198774 628.3697658910659 389.1507482198774 Z M655.3111228552441 389.1875026110283 C654.1944278208184 389.1875026110283 653.1745366053392 388.9705136585767 652.2507589854987 388.53657889263036 C651.3269813656582 388.0948359755123 650.5918935426413 387.46013250485214 650.0462720176697 386.6331587039582 C649.4999171304332 385.7977728064981 649.2271063679474 384.7856466032339 649.2271063679474 383.59751345643053 C649.2271063679474 382.68154398776176 649.3995759170332 381.91043513585873 649.745162099556 381.2841869007217 C650.0901011977276 380.6572915812334 650.5799009126648 380.14346346738625 651.214604383325 379.7419691969159 C651.8493078539849 379.3405180654021 652.599882562475 379.0231878995504 653.4678383722813 378.78993556040405 C654.3350608198227 378.5574165835226 655.290631850788 378.376491798914 656.3345514651767 378.24785142988605 C657.3707060673505 378.1192110608581 658.2464268893717 378.0068340785248 658.9609805689756 377.9107204828862 C659.6840326230594 377.81456374829077 660.2339249047492 377.6618949803533 660.6120378606614 377.4527141790734 C660.9894605932654 377.24418046214487 661.178193529046 376.907049515145 661.178193529046 376.4405879758093 L661.178193529046 376.00730029421413 C661.178193529046 374.74639172737375 660.8007707964418 373.75406630525777 660.0451919689689 373.0317476134388 C659.2988448782402 372.3009305471402 658.2223984904622 371.9355004445125 656.8165861678991 371.9355004445125 C655.4835924043299 371.9355004445125 654.3951533865753 372.22811198814645 653.5519593379435 372.8147586609873 C652.7165303015265 373.40067197156327 652.1305738519937 374.0919306145223 651.7927526816859 374.88706786533487 L649.7571978684891 374.1519800423181 C650.1749123866977 373.1398969780106 650.7530606850586 372.33272395826486 651.4916427635723 371.7305472609942 C652.2309582043506 371.1198721892438 653.0578888662877 370.68235688988716 653.9739014739133 370.41731113961634 C654.8891807192742 370.1438101538225 655.8164957335682 370.00740477257955 656.7565367401035 370.00740477257955 C657.4633254074923 370.00740477257955 658.1983700915524 370.0999809737647 658.9609805689756 370.28444315282695 C659.7320894208787 370.4696386941538 660.4473764627473 370.79050625445893 661.1053749700524 371.2485125582717 C661.764106839622 371.6980204876047 662.298469096882 372.3284963405033 662.7076852406107 373.1398969780106 C663.1176347466042 373.9427992410381 663.3225879301225 374.96338067982526 663.3225879301225 376.200260847756 L663.3225879301225 388.76556047505846 L661.178193529046 388.76556047505846 L661.178193529046 385.83802145314564 L661.0453255422566 385.83802145314564 C660.7887350275087 386.3843763403821 660.407084677143 386.91446784092386 659.901021575511 387.4282959547709 C659.3949584738788 387.9421672075746 658.7602550032188 388.36410934354467 657.9976445257956 388.6934752783294 C657.2343006861075 389.02284121311436 656.338822221895 389.1875026110283 655.3111228552441 389.1875026110283 Z M655.6001970044247 387.22334277125253 C656.7402733534088 387.22334277125253 657.7283711577633 386.9703327899148 658.5638001941802 386.4642696882828 C659.3991860916403 385.9582065866506 660.0416545745154 385.2881723104125 660.4912056428051 384.4527432739957 C660.949211946618 383.6095492253638 661.178193529046 382.68154398776176 661.178193529046 381.66941778449757 L661.178193529046 378.9949318828792 C661.0170263866287 379.1476006508169 660.7484432419044 379.2840060320598 660.3710205093001 379.404838249916 C660.0014059278677 379.52502338342094 659.571655640726 379.6338629713008 659.0818559257887 379.7299765669394 C658.5998212230662 379.81832515036297 658.1177865203438 379.89463796485336 657.6357518176213 379.9589581493674 C657.1544504771637 380.0232783338813 656.7204725722605 380.07914328287234 656.3345514651767 380.12720008069164 C655.290631850788 380.2558404497196 654.3993810043368 380.4565660154765 653.6600655635584 380.7300670012703 C652.9214834850449 381.00292090271296 652.3553278166603 381.380343635317 651.9616848363182 381.86233519908274 C651.5679987170195 382.3359146662822 651.3715007690239 382.94658973803257 651.3715007690239 383.69362705206913 C651.3715007690239 384.81813023766654 651.7729519005377 385.6896234419263 652.5758541635653 386.3080635258916 C653.3794897888577 386.91800523537734 654.3873452354036 387.22334277125253 655.6001970044247 387.22334277125253 Z M671.1714622770108 377.19966105877904 L671.1714622770108 388.76556047505846 L669.0270678759343 388.76556047505846 L669.0270678759343 370.2604147539172 L671.1114128492151 370.2604147539172 L671.1114128492151 373.16392537692025 L671.3036400404923 373.16392537692025 C671.7376179453954 372.21611935817 672.4126132016598 371.45700313624354 673.3278924470206 370.8873532123623 C674.2516700668612 370.3084715517365 675.3917032768886 370.019397402556 676.7494588016323 370.019397402556 C677.9941039817778 370.019397402556 679.0868137562506 370.28090575837336 680.0261214005211 370.8025420233922 C680.9739274192714 371.3163701372391 681.7089721033315 372.07544322020897 682.2312985916582 373.0798044112581 C682.7613900921999 374.0834322400425 683.0264358424708 375.31677501351976 683.0264358424708 376.77840914611704 L683.0264358424708 388.76556047505846 L680.8820414413943 388.76556047505846 L680.8820414413943 376.91058690959846 C680.8820414413943 375.39313096696696 680.4558716876628 374.19227182792235 679.6048694878592 373.3087859936861 C678.7616754392274 372.42530015945 677.6287170181071 371.9835572423318 676.2073315321572 371.9835572423318 C675.2354971144974 371.9835572423318 674.3718120614094 372.19209095926044 673.6169665962012 372.60980547746885 C672.8621211309929 373.02747685672057 672.2634818281756 373.62969669294796 671.8217389110575 374.4170257925889 C671.3884512294624 375.19594279566354 671.1714622770108 376.1239480332656 671.1714622770108 377.19966105877904 Z M695.33587831729 389.1507482198774 C693.8176890123939 389.1507482198774 692.488232643278 388.7492970883636 691.348156294294 387.94639482533614 C690.2074328609586 387.14349256230855 689.3161388755506 386.0225267711646 688.6736703926757 384.5849210374771 C688.0389669220156 383.14731530378947 687.7216367561639 381.4729198365021 687.7216367561639 379.56104441230707 C687.7216367561639 377.6576673625917 688.0389669220156 375.9910800464762 688.6736703926757 374.5612393250035 C689.3161388755506 373.123633591316 690.2116604787201 372.00758564124146 691.360192063227 371.2124483904288 C692.5087236477341 370.40885590409334 693.845945029065 370.00740477257955 695.3718993461762 370.00740477257955 C696.4964025317736 370.00740477257955 697.4322159205474 370.20813033833645 698.1792963735405 370.60958146985024 C698.9256434642692 371.003267589149 699.5242827670863 371.49306730408637 699.9738338353762 372.0797139769272 C700.4240319880173 372.66631751081104 700.7731987039502 373.2360105736492 701.0219810675264 373.7901304731006 L701.2149416210684 373.7901304731006 L701.2149416210684 364.09227730095836 L703.3713717910782 364.09227730095836 L703.3713717910782 388.76556047505846 L701.2750341878209 388.76556047505846 L701.2750341878209 385.33200149047025 L701.0219810675264 385.33200149047025 C700.7731987039502 385.8938864021367 700.4198043702559 386.4727249238057 699.961798066443 387.06713660886135 C699.5045251248949 387.6530930583941 698.898077670906 388.14712039109304 698.1425419823897 388.54857152260684 C697.3961517527044 388.95002265412063 696.4603815028876 389.1507482198774 695.33587831729 389.1507482198774 Z M695.5888882986278 387.1873217423663 C696.785476680954 387.1873217423663 697.80541103539 386.862183425343 698.6486050840218 386.21121656798834 C699.4924893559618 385.5532180606833 700.1349578388367 384.649241221991 700.5767007559548 383.50070963748396 C701.0262086852879 382.3443699018052 701.2510057889112 381.0191411504509 701.2510057889112 379.52502338342094 C701.2510057889112 378.04712586412904 701.0304794420061 376.7423881172309 700.5887365248881 375.6093865571538 C700.14699360777 374.46935334712634 699.5045251248949 373.5773691384105 698.6605977139983 372.93490065553544 C697.8174036653664 372.28466716044557 696.7932848321258 371.95952884342216 695.5888882986278 371.95952884342216 C694.3520081306971 371.95952884342216 693.3080885163082 372.29665979042204 692.4563960931966 372.97096482337827 C691.6132020445648 373.63815192847096 690.9707335616897 374.5414385438554 690.5289906445716 375.68220511614754 C690.0950558786253 376.8222383261748 689.8780669261737 378.10363789747134 689.8780669261737 379.52502338342094 C689.8780669261737 380.9626291171086 690.0992834963868 382.2595587128351 690.5410264135048 383.41658867182184 C690.982769330623 384.5728852685438 691.625237813498 385.4924352706229 692.4684318621298 386.1751955391022 C693.3201242852415 386.85014765640983 694.3598162818687 387.1873217423663 695.5888882986278 387.1873217423663 Z M717.9729164548853 366.11652970748673 L717.9729164548853 364.09227730095836 L735.8617359009419 364.09227730095836 L735.8617359009419 366.11652970748673 L728.0446118262214 366.11652970748673 L728.0446118262214 388.76556047505846 L725.7899973906491 388.76556047505846 L725.7899973906491 366.11652970748673 L717.9729164548853 366.11652970748673 Z M740.5123742723125 388.76556047505846 L740.5123742723125 370.2604147539172 L742.6681142190142 370.2604147539172 L742.6681142190142 388.76556047505846 L740.5123742723125 388.76556047505846 Z M741.6079312179307 367.07986575066684 C741.1697256952662 367.07986575066684 740.7880322059438 366.9314246004908 740.4770866056912 366.6345854390952 C740.166054727525 366.32924790322 740.0105819273986 365.963860939549 740.0105819273986 365.5376480468609 C740.0105819273986 365.1121685164376 740.166054727525 364.75100917052805 740.4770866056912 364.4534366468679 C740.7880322059438 364.1480991109927 741.1697256952662 363.99616370531976 741.6079312179307 363.99616370531976 C742.0532115295024 363.99616370531976 742.4278302299177 364.1480991109927 742.7458506190774 364.4534366468679 C743.05679621933 364.75100917052805 743.2123552973699 365.1121685164376 743.2123552973699 365.5376480468609 C743.2123552973699 365.963860939549 743.05679621933 366.32924790322 742.7458506190774 366.6345854390952 C742.4278302299177 366.9314246004908 742.0532115295024 367.07986575066684 741.6079312179307 367.07986575066684 Z M748.3436479248469 388.76556047505846 L748.3436479248469 370.2604147539172 L750.4286399824789 370.2604147539172 L750.4286399824789 373.1038328101678 L750.6194867271402 373.1038328101678 C750.9870306386485 372.1482617792026 751.6019333281604 371.3969537084479 752.4641947956758 370.8505988212115 C753.3264562631911 370.29647892176 754.3724896864605 370.019397402556 755.5811569766769 370.019397402556 C756.8603996001359 370.019397402556 757.9064330234054 370.3205073206698 758.7263320353924 370.9233742412483 C759.5533058362863 371.517785926304 760.1752833147051 372.3369515760263 760.5851896817419 373.38087119041506 L760.7406624818682 373.38087119041506 C761.1577299157254 372.35252473941296 761.8362194274865 371.5375867074522 762.7762172950651 370.9354100101816 C763.7232899515504 370.3247349384312 764.8683704195175 370.019397402556 766.2182746541328 370.019397402556 C767.93580907817 370.019397402556 769.2998628905991 370.56152467203094 770.2893842805264 371.6457360720241 C771.2859804593606 372.7221824598022 771.7877728042744 374.29619357473257 771.7877728042744 376.36850277908025 L771.7877728042744 388.76556047505846 L769.6391939243931 388.76556047505846 L769.6391939243931 376.36850277908025 C769.6391939243931 374.90686864648296 769.2716500128847 373.81062147755665 768.5224126120539 373.0798044112581 C767.7732614891366 372.3489873449595 766.7908148881163 371.9835572423318 765.5680842979996 371.9835572423318 C764.1545069632216 371.9835572423318 763.0660248065103 372.416844923927 762.302724105779 373.28475759477647 C761.5393371271343 374.1519800423181 761.1577299157254 375.25245482900584 761.1577299157254 376.5854917315319 L761.1577299157254 388.76556047505846 L758.9666160244889 388.76556047505846 L758.9666160244889 376.17623244884635 C758.9666160244889 374.923088894221 758.6202964797013 373.9109626909568 757.9205826012193 373.1398969780106 C757.2208687227374 372.3687881261077 756.2384221217171 371.9835572423318 754.966254287165 371.9835572423318 C754.1180561195501 371.9835572423318 753.3476806299119 372.19209095926044 752.6691911181508 372.60980547746885 C751.9906153284762 373.02747685672057 751.4605238279346 373.60989591179987 751.0647670387117 374.3569763647931 C750.6759987604823 375.0955584433067 750.4851520158212 375.94725086641836 750.4851520158212 376.91058690959846 L750.4851520158212 388.76556047505846 L748.3436479248469 388.76556047505846 Z M784.9481743399404 389.1507482198774 C783.2165766160031 389.1507482198774 781.7252628811618 388.7492970883636 780.4671583465101 387.94639482533614 C779.2019790229517 387.13499418782885 778.2266072108382 386.0147186199929 777.5339681212632 384.5849210374771 C776.8554786095021 383.14731530378947 776.5091590647147 381.4927206176503 776.5091590647147 379.62113697905954 C776.5091590647147 377.7580517149486 776.8554786095021 376.10345702880943 777.5339681212632 374.65804314395007 C778.2266072108382 373.2041740235678 779.1808409341443 372.06767820799394 780.3894219464471 371.2485125582717 C781.6121525365638 370.4208485340698 783.0186550824349 370.00740477257955 784.6230791618739 370.00740477257955 C785.6267501296152 370.00740477257955 786.5950471528213 370.1925571749498 787.5208954425859 370.56152467203094 C788.4539047991709 370.9233742412483 789.2878671110584 371.4810315351532 790.0300297229821 372.23661036262627 C790.7791808458994 372.98295745335474 791.3658706576971 373.92722607765154 791.7970013914546 375.0673024266356 C792.2352069141193 376.200260847756 792.4542665364947 377.54106276249706 792.4542665364947 379.0910454785178 L792.4542665364947 380.1512284796013 L777.9933980106488 380.1512284796013 L777.9933980106488 378.2598440598623 L790.2561641342647 378.2598440598623 C790.2561641342647 377.07175405201576 790.0158801451682 376.0030726764526 789.5352258890618 375.0552666577024 C789.0617326997758 374.09969562673723 788.3973064879151 373.34485016152905 787.5491945982137 372.79073026207755 C786.7009964305989 372.23661036262627 785.7256246184857 371.95952884342216 784.6230791618739 371.95952884342216 C783.4497858161924 371.95952884342216 782.4179019707369 372.2726313915123 781.5273413475936 372.89887962664943 C780.6297059355436 373.5250847228298 779.9370668459685 374.35270560807487 779.4281997121477 375.3804049747258 C778.9263210893203 376.4087945646846 778.6789623113168 377.53325461132533 778.6718875224099 378.75391453151803 L778.6718875224099 379.88687295263844 C778.6718875224099 381.35631523640745 778.9192463004133 382.6412522021574 779.4281997121477 383.74172698884524 C779.9441416348755 384.8337034010532 780.6650798800783 385.6811250674466 781.6050777476569 386.2840351269821 C782.5450756152354 386.88621182425265 783.6618569275745 387.1873217423663 784.9481743399404 387.1873217423663 C785.8175105963628 387.1873217423663 786.5879723639143 387.05087322216673 787.2452375089547 386.7780624596809 C787.9096637208152 386.50456147388707 788.4679680990714 386.1391313712594 788.92032319955 385.6811250674466 C789.3797530889356 385.2153537514188 789.7260726337231 384.7057532553333 789.959368111826 384.1516333558818 L791.9948366471094 384.813902619905 C791.7121902024844 385.59277648402303 791.2527603130991 386.3116009203451 790.6095584679592 386.9703327899148 C789.9734314117266 387.62906465948447 789.1747567664604 388.1591561600262 788.220609321068 388.56060729154 C787.2735366645825 388.9542934108388 786.1850545078712 389.1507482198774 784.9481743399404 389.1507482198774 Z "></path>
    </defs>
    <g>
      <use xmlns:xlink="http://www.w3.org/1999/xlink" xlink:href="#s-Path_30-0a187" fill="#000000" fill-opacity="1.0" filter="none"></use>
    </g>
  </g>
</svg>
