<?xml version="1.0" encoding="UTF-8"?>
<svg xmlns="http://www.w3.org/2000/svg" width="20.7884521484375" height="17.5491943359375" viewBox="802.1849243712944 1060.8630208333338 20.7884521484375 17.5491943359375" preserveAspectRatio="none">
  <g>
    <defs>
      <path id="s-Path_91-8264f" d="M822.9175794120471 1067.1603731155399 C822.8539079185169 1066.9978296279912 822.7338120933215 1066.856509971619 822.5782569404286 1066.7504770914718 C822.4157134528797 1066.6444442113243 822.2177969133694 1066.5808589935307 822.0199666495961 1066.5667097727462 L816.090149004841 1066.170876693726 L813.5245674288113 1061.3790360132857 C813.4468329902332 1061.2234808603928 813.3125016685168 1061.096310424805 813.1428835705757 1061.0044267654423 C812.980340083027 1060.9125431060795 812.782423543517 1060.8630208333338 812.5845070040067 1060.8630208333338 C812.3796021298409 1060.8630208333338 812.1816855903306 1060.9125431060795 812.019142102782 1061.0044267654423 C811.8495240048409 1061.096310424805 811.7151926831247 1061.2234808603928 811.6374582445463 1061.3790360132857 L809.0718766685167 1066.170876693726 L803.1420590237616 1066.5667097727462 C802.9442287599883 1066.5808589935307 802.7533868308702 1066.6444442113243 802.5979179537138 1066.7434024810796 C802.4352881904284 1066.8494353612268 802.315192365233 1066.990755017599 802.2445325370471 1067.1462238947554 C802.1808610435168 1067.3017790476486 802.166711822732 1067.478471755982 802.2091594850859 1067.6410152435308 C802.2585954820948 1067.8035587310796 802.3575537518501 1067.951952997844 802.4989596839586 1068.0721350987756 L806.8809043403306 1071.6766490936284 L805.3331176276841 1077.3378903706873 C805.2835953549385 1077.5075084686282 805.297744575723 1077.6912757873538 805.3754790143013 1077.853819274903 C805.4461388424874 1078.0163627624515 805.5804701642038 1078.15776869456 805.7500882621447 1078.2567269643152 C805.926780970478 1078.3555989583338 806.1246975099881 1078.4121958414719 806.3366769945463 1078.4121958414719 C806.5416681444486 1078.4121958414719 806.7466592943507 1078.362673568726 806.9233520026843 1078.263715298971 L812.5775186693512 1075.083246548971 L818.2386736706732 1078.263715298971 C818.415366379007 1078.362673568726 818.6274321393013 1078.4121958414719 818.839497899596 1078.4121958414719 C819.051477384154 1078.4051212310796 819.2564685340564 1078.348610623678 819.4331612423897 1078.2425777435305 C819.6027793403308 1078.1365448633835 819.7300360516548 1077.988150596619 819.8006958798409 1077.818532498678 C819.871355708027 1077.6488281250004 819.8784303184192 1077.4651470820115 819.8148451006253 1077.2954427083337 L817.9135866955759 1071.6766490936284 L822.6348538235665 1068.1004335403447 C822.9387169674875 1067.8600693384813 823.051824458027 1067.4925347010299 822.9175794120471 1067.1603731155399 L822.9175794120471 1067.1603731155399 Z "></path>
    </defs>
    <g>
      <use xmlns:xlink="http://www.w3.org/1999/xlink" xlink:href="#s-Path_91-8264f" fill="#FFD233" fill-opacity="1.0" filter="none"></use>
    </g>
  </g>
</svg>
