<?xml version="1.0" encoding="UTF-8"?>
<svg xmlns="http://www.w3.org/2000/svg" width="19.992431640625" height="17.5491943359375" viewBox="848.8317991139983 807.8390625 19.992431640625 17.5491943359375" preserveAspectRatio="none">
  <g>
    <defs>
      <path id="s-Path_79-8264f" d="M868.7712351089007 814.1364147822064 C868.7076498911068 813.9738712946573 868.5945424005671 813.8325516382854 868.4390735234107 813.7265187581381 C868.283604646254 813.6204858779909 868.0998373275285 813.556900660197 867.9019207880186 813.5427514394125 L862.2053927347348 813.1469183603922 L859.7386831527239 808.355077679952 C859.6609487141453 808.1995225270591 859.5337782785579 808.0723520914714 859.3712347910092 807.9804684321086 C859.2086050277238 807.8885847727458 859.0178493743425 807.8390625 858.8270074452247 807.8390625 C858.6361655161069 807.8390625 858.4453235869888 807.8885847727458 858.2827800994402 807.9804684321086 C858.1273112222835 808.0723520914714 857.9929799005673 808.1995225270591 857.915245461989 808.355077679952 L855.4486221557144 813.1469183603922 L849.7520078266945 813.5427514394125 C849.5612521733129 813.556900660197 849.3774848545874 813.6204858779909 849.2290043120864 813.7194441477457 C849.07353543493 813.8254770278932 848.9604279443905 813.9667966842653 848.8897681162044 814.1222655614217 C848.8261828984106 814.2778207143149 848.8120336776261 814.454513422648 848.8615559503718 814.6170569101969 C848.9039173369889 814.779600397746 848.9958009963517 814.9279946645104 849.1371206527236 815.0481767654419 L853.3424588764989 818.6526907602945 L851.8582573816462 824.3139320373537 C851.8087351089006 824.4835501352948 851.822884329685 824.6673174540203 851.9006187682634 824.8298609415692 C851.9712785964492 824.9924044291179 852.0985353077734 825.1338103612266 852.2610787953223 825.2327686309816 C852.423622282871 825.3316406250001 852.621538822381 825.388237508138 852.8194553618913 825.388237508138 C853.0243602360571 825.388237508138 853.2222767755671 825.3387152353923 853.384820263116 825.2397569656373 L858.8270074452247 822.0592882156373 L864.2691083515969 825.2397569656373 C864.4387264495377 825.3387152353923 864.6437175994403 825.388237508138 864.8487087493423 825.388237508138 C865.0465390131161 825.381162897746 865.2515301630184 825.3246522903444 865.4140736505673 825.2186194101971 C865.5766171381159 825.1125865300496 865.7038738494401 824.9641922632852 865.767459067234 824.7945741653443 C865.8381188954198 824.6248697916667 865.8451935058121 824.4411887486779 865.7886828984107 824.271484375 L863.9581705972836 818.6526907602945 L868.4955841308121 815.0764752070108 C868.7924589400774 814.8361110051476 868.8984918202246 814.4685763676964 868.7712351089007 814.1364147822064 L868.7712351089007 814.1364147822064 Z "></path>
    </defs>
    <g>
      <use xmlns:xlink="http://www.w3.org/1999/xlink" xlink:href="#s-Path_79-8264f" fill="#FFD233" fill-opacity="1.0" filter="none"></use>
    </g>
  </g>
</svg>
