<?xml version="1.0" encoding="UTF-8"?>
<svg xmlns="http://www.w3.org/2000/svg" width="228.371826171875" height="24.28466796875" viewBox="735.7484375000009 942.1255208333334 228.371826171875 24.28466796875" preserveAspectRatio="none">
  <g>
    <defs>
      <path id="s-Path_85-8264f" d="M749.1205727259327 948.4864583333333 C748.9226561864226 947.8786457697549 748.6611544291187 947.3344184239706 748.336067454021 946.8537762959797 C748.0179688135792 946.3661458333333 747.63637123108 945.9491751988728 747.1911021550505 945.6028643925986 C746.745833079021 945.2635419209798 746.2510417302459 945.0020401636762 745.685676829021 944.8183591206869 C745.1273002624522 944.6345918019613 744.5124130884816 944.5497827529907 743.8480036417651 944.5497827529907 C742.7454860051483 944.5497827529907 741.7489149729419 944.832422065735 740.8513022104909 945.397873242696 C739.9536894480397 945.9633244196573 739.2399302800505 946.7972656885784 738.7098521550505 947.8998696009319 C738.1797740300507 949.0023872375486 737.9182722727465 950.3523436864218 737.9182722727465 951.9567272822064 C737.9182722727465 953.5611108779908 738.1867623647062 954.910981051127 738.7239151000987 956.0135849634805 C739.2610678354907 957.1161026000977 739.9819878896086 957.9501301447551 740.9008244832365 958.5154950459798 C741.8125001907357 959.0809462229411 742.8444442749034 959.3636718114217 743.9894095738738 959.3636718114217 C745.0495658238736 959.3636718114217 745.9824653625498 959.1374568303424 746.788194465638 958.6851994196575 C747.6009981791186 958.2328557332355 748.2371091842662 957.582595507304 748.6894528706879 956.7556425730388 C749.1487848917651 955.9146266937255 749.3749998728443 954.932204882304 749.3749998728443 953.8013888041178 L750.060546875001 953.9427084604899 L744.4982638676969 953.9427084604899 L744.4982638676969 951.9567272822064 L751.5447483698537 951.9567272822064 L751.5447483698537 953.9427084604899 C751.5447483698537 955.4693576176962 751.2196613947559 956.791015625 750.5694011688241 957.921831703186 C749.9263018290211 959.0455731709797 749.0286890665699 959.9220483779909 747.8907983779915 960.536935551961 C746.7598960240692 961.1518227259319 745.459461847942 961.4627604802449 743.9894095738738 961.4627604802449 C742.349652926128 961.4627604802449 740.914973704021 961.0740882873533 739.6710501352956 960.3036459604898 C738.4342011769621 959.5332899093628 737.4730031967171 958.4377606074015 736.7802953084318 957.0171443303427 C736.0947483062752 955.5966143290202 735.7484375000009 953.9074216842653 735.7484375000009 951.9567272822064 C735.7484375000009 950.4936633427938 735.946354039511 949.1790799458822 736.3350262324024 948.0058162053426 C736.7308593114225 946.8326387405396 737.2963104883839 945.8360677083333 738.0171442667653 945.0091147740682 C738.7380643208829 944.1822481155396 739.5933156967172 943.5532117207847 740.5827258427947 943.107942644755 C741.5722222646085 942.669748179118 742.6606769561778 942.4506078084312 743.8480036417651 942.4506078084312 C744.8233508427946 942.4506078084312 745.7280382156381 942.5990883509319 746.5762149810799 942.8958768844604 C747.4243054707853 943.1856770833335 748.180512301128 943.5955731074016 748.8449217478443 944.1327258427939 C749.5092449188243 944.6628039677937 750.067621485393 945.298914972941 750.5128905614228 946.0410588582356 C750.958159637452 946.7760418574014 751.2690973917653 947.5888455708821 751.4317271550507 948.4864583333333 L749.1205727259327 948.4864583333333 Z M760.7327692031869 961.4981335322061 C759.4747826894135 961.4981335322061 758.3792533874522 961.2012587229408 757.4322046279916 960.6005207697551 C756.492144203187 960.0068574269612 755.7571612040211 959.1728298823039 755.2270830790211 958.0985244115193 C754.7040795644133 957.0312935511272 754.4424915313731 955.7733070373533 754.4424915313731 954.3385415395101 C754.4424915313731 952.8967014312746 754.7040795644133 951.6315540313722 755.2270830790211 950.5573348363241 C755.7571612040211 949.4759547551473 756.492144203187 948.6419272104899 757.4322046279916 948.0411892573038 C758.3792533874522 947.4475259145102 759.4747826894135 947.1506511052451 760.7327692031869 947.1506511052451 C761.9837673823048 947.1506511052451 763.0792966842661 947.4475259145102 764.0192708333342 948.0411892573038 C764.9663195927945 948.6419272104899 765.7013888676969 949.4759547551473 766.2243923823047 950.5573348363241 C766.7544705073047 951.6315540313722 767.0159722646086 952.8967014312746 767.0159722646086 954.3385415395101 C767.0159722646086 955.7733070373533 766.7544705073047 957.0312935511272 766.2243923823047 958.0985244115193 C765.7013888676969 959.1728298823039 764.9663195927945 960.0068574269612 764.0192708333342 960.6005207697551 C763.0792966842661 961.2012587229408 761.9837673823048 961.4981335322061 760.7327692031869 961.4981335322061 Z M760.7327692031869 959.5827259063719 C761.6799042383838 959.5827259063719 762.4644095102955 959.3353733698527 763.0792966842661 958.8477429072061 C763.6941838582364 958.3600261688234 764.1465275446582 957.7239151636759 764.443316078187 956.9252606709799 C764.7401908874521 956.133680788676 764.8885851542165 955.271441078186 764.8885851542165 954.3385415395101 C764.8885851542165 953.4126303354901 764.7401908874521 952.5503906250001 764.443316078187 951.7517361323039 C764.1465275446582 950.9460070292157 763.6941838582364 950.3028214136762 763.0792966842661 949.8081163406373 C762.4644095102955 949.3134112675984 761.6799042383838 949.0659724553427 760.7327692031869 949.0659724553427 C759.7786458333343 949.0659724553427 758.9941405614226 949.3134112675984 758.3792533874522 949.8081163406373 C757.7643662134816 950.3028214136762 757.3120225270599 950.9460070292157 757.0151477177945 951.7517361323039 C756.718359184266 952.5503906250001 756.5769532521575 953.4126303354901 756.5769532521575 954.3385415395101 C756.5769532521575 955.271441078186 756.718359184266 956.133680788676 757.0151477177945 956.9252606709799 C757.3120225270599 957.7239151636759 757.7643662134816 958.3600261688234 758.3792533874522 958.8477429072061 C758.9941405614226 959.3353733698527 759.7786458333343 959.5827259063719 760.7327692031869 959.5827259063719 Z M770.2741754531868 961.2083333333333 L770.2741754531868 947.3273438135782 L772.3309027353931 947.3273438135782 L772.3309027353931 949.4264324824014 L772.4792970021575 949.4264324824014 C772.733724149069 948.740885480245 773.1860678354907 948.182508913676 773.8504772822072 947.751389058431 C774.5148004531869 947.3273438135782 775.2640189488737 947.1153643290204 776.0908856074024 947.1153643290204 C776.2464407602955 947.1153643290204 776.444271024069 947.1153643290204 776.6775606155403 947.1223526636759 C776.9178385416675 947.1294272740681 777.0945312500008 947.1365018844606 777.2147133509326 947.1506511052451 L777.2147133509326 949.3204858779909 C777.1440535227467 949.299262046814 776.9743491490691 949.270963605245 776.7128473917652 949.2356768290201 C776.465494855246 949.1932291666667 776.1969184875499 949.17200533549 775.9141928990692 949.17200533549 C775.2357205073048 949.17200533549 774.6349825541187 949.3134112675984 774.1049044291186 949.5960505803425 C773.581900914511 949.8717015584309 773.1649302800505 950.260460027059 772.8609808603932 950.7551651000977 C772.5570314407356 951.2428818384806 772.4086371739714 951.801172129313 772.4086371739714 952.4231339136759 L772.4086371739714 961.2083333333333 L770.2741754531868 961.2083333333333 Z M787.1872394561775 942.7050349553426 L789.8588539123544 942.7050349553426 L796.1490453084319 958.0632376352946 L796.3681856791187 958.0632376352946 L802.6513887405405 942.7050349553426 L805.3299915313729 942.7050349553426 L805.3299915313729 961.2083333333333 L803.2309028625497 961.2083333333333 L803.2309028625497 947.1506511052451 L803.0542101542163 947.1506511052451 L797.2728730519622 961.2083333333333 L795.244444211325 961.2083333333333 L789.4630208333341 947.1506511052451 L789.2792535146085 947.1506511052451 L789.2792535146085 961.2083333333333 L787.1872394561775 961.2083333333333 L787.1872394561775 942.7050349553426 Z M815.3520399093637 961.4981335322061 C814.0162326812753 961.4981335322061 812.8641927719124 961.2012587229408 811.8888455708831 960.6146699905394 C810.9276475906382 960.0139320373537 810.1855899810799 959.1869791030886 809.6625001907356 958.1197482426962 C809.139496676128 957.0454427719114 808.8850695292164 955.8015192031862 808.8850695292164 954.3809029261272 C808.8850695292164 952.9532120386762 809.139496676128 951.7023001352945 809.6625001907356 950.6209200541177 C810.1855899810799 949.5253907521567 810.9134983698535 948.6773002624514 811.8464841842662 948.069487698873 C812.7864583333343 947.4546005249022 813.8819876352956 947.1506511052451 815.1329858144135 947.1506511052451 C815.8608942031871 947.1506511052451 816.5747396469125 947.2708332061766 817.2744358698536 947.5111111323038 C817.9812067031868 947.751389058431 818.6243923187263 948.1401475270588 819.2039064407358 948.6843748728434 C819.7764322280892 949.2215276082356 820.2429251352954 949.9353730519613 820.5821613311776 950.818836593628 C820.9284721374521 951.7023001352945 821.0980902353932 952.790668551127 821.0980902353932 954.0911890029909 L821.0980902353932 954.9887154897053 L810.397569465638 954.9887154897053 L810.397569465638 953.1511285781862 L818.9283417383839 953.1511285781862 C818.9283417383839 952.3666233062745 818.7727865854907 951.6669270833333 818.4618488311777 951.052039909363 C818.1508248011281 950.4371527353921 817.7126303354909 949.9565106074015 817.1401908238739 949.5960505803425 C816.5747396469125 949.2426651636758 815.9033418655405 949.0659724553427 815.1329858144135 949.0659724553427 C814.2848090489714 949.0659724553427 813.549739774069 949.278038215637 812.9277779897064 949.6950088500978 C812.3128908157356 950.1120657602946 811.8394095738739 950.6562068303426 811.5142363230397 951.3206162770589 C811.1820747375497 951.9920140584311 811.0124566396088 952.7058595021565 811.0124566396088 953.4763018290203 L811.0124566396088 954.7060761769612 C811.0124566396088 955.7520832061768 811.1962239583344 956.6426213582356 811.5566839853931 957.3705297470092 C811.9242186228443 958.091449801127 812.4330729166676 958.6427517573036 813.0833331425994 959.0244356155395 C813.7335070927946 959.3919702529906 814.4898001988739 959.5827259063719 815.3520399093637 959.5827259063719 C815.9104164759327 959.5827259063719 816.419270769756 959.5049914677936 816.8716144561778 959.3495225906372 C817.3239581425995 959.1869791030886 817.7197049458831 958.9467011769614 818.0518665313731 958.6215279261271 C818.3841143925994 958.2964409510294 818.638541539511 957.8936195373535 818.8223088582366 957.4129774093626 L820.8789498647064 957.9924915313723 C820.6669703801482 958.6921877543132 820.299435742697 959.3071612040201 819.7905814488739 959.8372393290199 C819.2746525446584 960.3602428436279 818.6456161499033 960.7701388676962 817.889323043824 961.0670136769611 C817.1401908238739 961.3496529897052 816.2920140584318 961.4981335322061 815.3520399093637 961.4981335322061 Z M826.3282116572071 956.1478300094604 L826.2928386052457 953.5115886052449 L826.7239584604907 953.5115886052449 L832.8022566477467 947.3273438135782 L835.438498051962 947.3273438135782 L828.9644530614227 953.8720486323041 L828.7877603530893 953.8720486323041 L826.3282116572071 956.1478300094604 Z M824.3421442031869 961.2083333333333 L824.3421442031869 942.7050349553426 L826.4766059239713 942.7050349553426 L826.4766059239713 961.2083333333333 L824.3421442031869 961.2083333333333 Z M833.1626303990691 961.2083333333333 L827.7417533238739 954.3385415395101 L829.2542532602955 952.8613283793134 L835.869617907207 961.2083333333333 L833.1626303990691 961.2083333333333 Z M842.265842183432 961.5334203084308 C841.3894532521575 961.5334203084308 840.5907987594613 961.3708768208821 839.86996498108 961.0387152353921 C839.1561195373544 960.6994790395099 838.5835937500009 960.211762301127 838.1666231155406 959.5827259063719 C837.7425778706878 958.9467011769614 837.5305121103933 958.1691842397054 837.5305121103933 957.2716577529909 C837.5305121103933 956.4730032602945 837.6859809875497 955.8298176447549 838.0040796279915 955.3350262959798 C838.3150173823047 954.8332466125489 838.7319880167653 954.4445744196573 839.2549915313731 954.1618488311769 C839.7780813217172 953.8791232426961 840.3575954437266 953.6670574824016 840.9937064488739 953.5257378260294 C841.629817454021 953.3844181696575 842.2729167938243 953.2713106791177 842.9161024093638 953.1865016301474 C843.7572045644132 953.0733941396077 844.4427515665699 952.9956597010294 844.9657550811777 952.9391490936277 C845.4958332061775 952.8825522104898 845.8845053990691 952.783593940735 846.1248696009328 952.6422742843629 C846.372222137452 952.5009546279907 846.492404238384 952.260590426127 846.492404238384 951.921354230245 L846.492404238384 951.8506944020589 C846.492404238384 950.9530816396077 846.2520400365203 950.260460027059 845.7644095738736 949.7727432886759 C845.2837674458832 949.278038215637 844.5487844467171 949.030685679118 843.5663626352956 949.030685679118 C842.5485677719126 949.030685679118 841.7499132792165 949.2497397740683 841.170399157207 949.6950088500978 C840.5907987594613 950.140277926127 840.1879773457853 950.6209200541177 839.9547740300505 951.1226997375488 L837.9263451894134 950.401779683431 C838.2867189407358 949.5607638041179 838.7744356791187 948.9034289677938 839.3751736323048 948.4299477259317 C839.9829861958832 947.9563802083333 840.6473956425992 947.6242186228435 841.3612410863251 947.4404513041179 C842.0820748647064 947.2425347646079 842.7959203084318 947.1506511052451 843.495616531373 947.1506511052451 C843.9408856074025 947.1506511052451 844.4498261769621 947.2001733779907 845.0293402989713 947.3131945927937 C845.615929031373 947.412152862549 846.1813802083342 947.6312932332357 846.7185329437265 947.9563802083333 C847.2698348999032 948.281467183431 847.722178586325 948.7691839218141 848.0826386133839 949.4264324824014 C848.4430123647063 950.0837673187257 848.6267796834319 950.9601562500002 848.6267796834319 952.0627601623537 L848.6267796834319 961.2083333333333 L846.492404238384 961.2083333333333 L846.492404238384 959.3282987594603 L846.3863713582367 959.3282987594603 C846.2378908157358 959.6322481791178 845.9976128896086 959.9502605438231 845.6654513041188 960.2965713500976 C845.3262151082366 960.6358075459798 844.8738714218149 960.9326823552449 844.3154948552459 961.1729602813721 C843.7572045644132 961.4133244832358 843.0715712865202 961.5334203084308 842.265842183432 961.5334203084308 Z M842.5910154342661 959.6180989583331 C843.4320313135792 959.6180989583331 844.1458767573048 959.4555554707845 844.7254771550505 959.1233938852945 C845.3049912770597 958.791146024068 845.7502603530894 958.3600261688234 846.040060551962 957.8370226542154 C846.3439236958831 957.3140191396076 846.492404238384 956.7627171834308 846.492404238384 956.1832030614216 L846.492404238384 954.2325086593628 C846.4075951894132 954.3385415395101 846.2026040395111 954.4374998092653 845.8986546198536 954.5293834686281 C845.5947914759328 954.6141925175984 845.2484806696583 954.6919269561768 844.852647590638 954.7555121739706 C844.4569007873544 954.8190973917642 844.0752169291187 954.8686196645101 843.7006076812753 954.9180556615195 C843.3330730438241 954.9605033238729 843.0362845102956 954.9957901000978 842.8100695292163 955.031163152059 C842.2517792383838 955.1018229802451 841.7357640584318 955.2149304707843 841.2552082061776 955.3774739583334 C840.7745660781869 955.5400174458821 840.3929684956878 955.7733070373533 840.0960936864225 956.0913194020588 C839.8062934875499 956.4093317667644 839.6649738311777 956.8334632873534 839.6649738311777 957.3776043574014 C839.6649738311777 958.1197482426962 839.9406248092661 958.678124809265 840.4848521550506 959.0597223917644 C841.0431424458831 959.4343316396075 841.742838668824 959.6180989583331 842.5910154342661 959.6180989583331 Z M852.5210938771573 961.2083333333333 L852.5210938771573 947.3273438135782 L854.5778211593637 947.3273438135782 L854.5778211593637 949.4264324824014 L854.7262154261281 949.4264324824014 C854.9736542383838 948.740885480245 855.4329862594615 948.182508913676 856.0973957061775 947.751389058431 C856.7617188771575 947.3273438135782 857.5038627624521 947.1153643290204 858.3378040313729 947.1153643290204 C858.4933591842661 947.1153643290204 858.6911894480396 947.1153643290204 858.9244790395109 947.1223526636759 C859.1576823552458 947.1294272740681 859.3343750635792 947.1365018844606 859.4545571645111 947.1506511052451 L859.4545571645111 949.3204858779909 C859.3838973363248 949.299262046814 859.2212675730397 949.270963605245 858.9597658157358 949.2356768290201 C858.7053386688241 949.1932291666667 858.4367623011279 949.17200533549 858.1541229883838 949.17200533549 C857.4826389312753 949.17200533549 856.8819009780892 949.3134112675984 856.3518228530894 949.5960505803425 C855.8288193384816 949.8717015584309 855.411848704021 950.260460027059 855.1008246739715 950.7551651000977 C854.8039498647062 951.2428818384806 854.6484809875498 951.801172129313 854.6484809875498 952.4231339136759 L854.6484809875498 961.2083333333333 L852.5210938771573 961.2083333333333 Z M871.8159721374519 950.4371527353921 L869.9006507873543 950.9813800811769 C869.7804686864228 950.6632814407349 869.6037759780894 950.3523436864218 869.3705726623544 950.0483942667643 C869.1372830708832 949.7445311228435 868.8263453165699 949.490103975932 868.4305122375496 949.2921874364217 C868.0276908238737 949.0942708969114 867.5188365300504 948.9953126271566 866.90394935608 948.9953126271566 C866.0486979802457 948.9953126271566 865.3419271469126 949.1861545562742 864.7765622456876 949.5819876352948 C864.2181856791188 949.9635852177937 863.9354600906382 950.4583765665691 863.9354600906382 951.052039909363 C863.9354600906382 951.5821180343628 864.1333766301481 951.9990886688233 864.5150604883839 952.3101126988729 C864.9037326812753 952.6139758427937 865.5044706344612 952.8684029897054 866.3243489583341 953.0733941396077 L868.3810762405404 953.582248433431 C869.6249998092659 953.8861978530886 870.5508247375498 954.3456161499025 871.1586373011281 954.9675779342651 C871.7664498647063 955.5824651082355 872.0703992843638 956.3740449905395 872.0703992843638 957.3423175811768 C872.0703992843638 958.1338974634807 871.8371959686289 958.8477429072061 871.3848522822071 959.4767793019612 C870.9325085957854 960.098741086324 870.2963975906381 960.5934461593627 869.4835938771574 960.9539061864218 C868.6708764394133 961.3143662134805 867.7237414042164 961.4981335322061 866.6494359334318 961.4981335322061 C865.2288196563728 961.4981335322061 864.0627168019622 961.1871095021565 863.1297309875496 960.5792969385782 C862.2039060592662 959.9644097646076 861.617231051128 959.0667970021564 861.3698785146088 957.8865449269613 L863.3983073552457 957.3776043574014 C863.5891492843635 958.1268228530885 863.9496093114225 958.6851994196575 864.486762046815 959.0597223917644 C865.0309893925995 959.4343316396075 865.7377602259327 959.6180989583331 866.6141491572072 959.6180989583331 C867.6036455790212 959.6180989583331 868.3952254613249 959.4060331980388 868.9818141937263 958.9890625635783 C869.568402926128 958.5579427083333 869.8652777353931 958.0490884145099 869.8652777353931 957.448350461324 C869.8652777353931 956.9677083333333 869.6956596374522 956.5648869196573 869.35642344157 956.2397136688232 C869.02426185608 955.9075520833333 868.5011720657359 955.660199546814 867.8014758427947 955.497656059265 L865.4904076894135 954.9534287134807 C864.2181856791188 954.6565539042156 863.2851998647064 954.1900609970094 862.6915365219126 953.5540362675986 C862.0978731791187 952.9179252624513 861.8080729802458 952.1192707697551 861.8080729802458 951.15807278951 C861.8080729802458 950.3806421279905 862.0272133509328 949.6879342397053 862.4654078165698 949.0801216761272 C862.9106768925993 948.4793837229413 863.5184894561777 948.0058162053426 864.2817708969125 947.6665800094606 C865.0521269480397 947.3202692031862 865.9286021550505 947.1506511052451 866.90394935608 947.1506511052451 C868.2750433603932 947.1506511052451 869.3493488311775 947.4475259145102 870.1338541030892 948.0553384780885 C870.9254339853932 948.6560764312744 871.4838105519622 949.4476563135784 871.8159721374519 950.4371527353921 Z M879.3642363230396 961.5334203084308 C878.4807727813728 961.5334203084308 877.6822045644134 961.3708768208821 876.9683591206878 961.0387152353921 C876.2545136769621 960.6994790395099 875.6819878896086 960.211762301127 875.2579426447559 959.5827259063719 C874.8409720102956 958.9467011769614 874.628906250001 958.1691842397054 874.628906250001 957.2716577529909 C874.628906250001 956.4730032602945 874.7843751271574 955.8298176447549 875.0953991572072 955.3350262959798 C875.4134115219125 954.8332466125489 875.8303821563728 954.4445744196573 876.3534719467171 954.1618488311769 C876.876475461325 953.8791232426961 877.4559895833344 953.6670574824016 878.0921005884815 953.5257378260294 C878.7282115936288 953.3844181696575 879.371310933432 953.2713106791177 880.0144965489716 953.1865016301474 C880.8555987040212 953.0733941396077 881.5411457061776 952.9956597010294 882.0641492207855 952.9391490936277 C882.5942273457853 952.8825522104898 882.9829858144134 952.783593940735 883.2232637405406 952.6422742843629 C883.4706162770598 952.5009546279907 883.5907983779917 952.260590426127 883.5907983779917 951.921354230245 L883.5907983779917 951.8506944020589 C883.5907983779917 950.9530816396077 883.350434176128 950.260460027059 882.8628037134816 949.7727432886759 C882.3750869750985 949.278038215637 881.6471785863249 949.030685679118 880.6647567749034 949.030685679118 C879.6469619115204 949.030685679118 878.848307418824 949.2497397740683 878.2687932968148 949.6950088500978 C877.6891928990691 950.140277926127 877.2863714853933 950.6209200541177 877.0531681696583 951.1226997375488 L875.0247393290211 950.401779683431 C875.3851993560799 949.5607638041179 875.8728298187265 948.9034289677938 876.4735677719124 948.4299477259317 C877.0813803354907 947.9563802083333 877.7457897822072 947.6242186228435 878.4596352259326 947.4404513041179 C879.1805552800505 947.2425347646079 879.8943144480396 947.1506511052451 880.5940969467171 947.1506511052451 C881.0393660227468 947.1506511052451 881.5482203165699 947.2001733779907 882.1277344385793 947.3131945927937 C882.7144094467172 947.412152862549 883.2726997375497 947.6312932332357 883.8169270833342 947.9563802083333 C884.368229039511 948.281467183431 884.8205727259327 948.7691839218141 885.1810327529917 949.4264324824014 C885.5414927800506 950.0837673187257 885.7251738230397 950.9601562500002 885.7251738230397 952.0627601623537 L885.7251738230397 961.2083333333333 L883.5907983779917 961.2083333333333 L883.5907983779917 959.3282987594603 L883.4847654978443 959.3282987594603 C883.3363712310799 959.6322481791178 883.0960070292164 959.9502605438231 882.7638454437266 960.2965713500976 C882.4246092478444 960.6358075459798 881.9722655614227 960.9326823552449 881.4138889948537 961.1729602813721 C880.8555987040212 961.4133244832358 880.169965426128 961.5334203084308 879.3642363230396 961.5334203084308 Z M879.6894095738738 959.6180989583331 C880.5304254531869 959.6180989583331 881.2442708969126 959.4555554707845 881.8238712946583 959.1233938852945 C882.4033854166677 958.791146024068 882.8415798823047 958.3600261688234 883.13845469157 957.8370226542154 C883.4423178354908 957.3140191396076 883.5907983779917 956.7627171834308 883.5907983779917 956.1832030614216 L883.5907983779917 954.2325086593628 C883.498914718629 954.3385415395101 883.3009981791187 954.4374998092653 882.9970487594613 954.5293834686281 C882.6931856155403 954.6141925175984 882.3468748092661 954.6919269561768 881.9439671198537 954.7555121739706 C881.5552949269621 954.8190973917642 881.1736110687265 954.8686196645101 880.7990018208831 954.9180556615195 C880.4314671834319 954.9605033238729 880.1346786499031 954.9957901000978 879.9084636688241 955.031163152059 C879.3501733779916 955.1018229802451 878.8341581980397 955.2149304707843 878.3536023457854 955.3774739583334 C877.8729602177947 955.5400174458821 877.4913626352956 955.7733070373533 877.1944878260305 956.0913194020588 C876.9046876271576 956.4093317667644 876.7633679707855 956.8334632873534 876.7633679707855 957.3776043574014 C876.7633679707855 958.1197482426962 877.0319443384816 958.678124809265 877.5832462946584 959.0597223917644 C878.1344619750986 959.4343316396075 878.8412328084318 959.6180989583331 879.6894095738738 959.6180989583331 Z M889.6124134063731 961.2083333333333 L889.6124134063731 947.3273438135782 L891.6762152989714 947.3273438135782 L891.6762152989714 949.4264324824014 L891.8176212310801 949.4264324824014 C892.0720483779916 948.740885480245 892.5313803990692 948.182508913676 893.1957898457853 947.751389058431 C893.853038406373 947.3273438135782 894.6022569020598 947.1153643290204 895.4362844467172 947.1153643290204 C895.5917533238738 947.1153643290204 895.7896698633839 947.1153643290204 896.0228731791188 947.1223526636759 C896.2560764948536 947.1294272740681 896.4327692031869 947.1365018844606 896.5529513041187 947.1506511052451 L896.5529513041187 949.3204858779909 C896.4822914759328 949.299262046814 896.3197479883839 949.270963605245 896.05824623108 949.2356768290201 C895.8037328084318 949.1932291666667 895.5351564407357 949.17200533549 895.2525171279916 949.17200533549 C894.5810330708831 949.17200533549 893.980295117697 949.3134112675984 893.4502169926972 949.5960505803425 C892.9201388676969 949.8717015584309 892.5102428436288 950.260460027059 892.1992188135793 950.7551651000977 C891.9024302800507 951.2428818384806 891.7468751271575 951.801172129313 891.7468751271575 952.4231339136759 L891.7468751271575 961.2083333333333 L889.6124134063731 961.2083333333333 Z M899.0831598281869 961.2083333333333 L899.0831598281869 947.3273438135782 L901.2176215489716 947.3273438135782 L901.2176215489716 961.2083333333333 L899.0831598281869 961.2083333333333 Z M900.1645399093637 945.0161893844606 C899.7546438852954 945.0161893844606 899.3941838582367 944.8748697280885 899.0902344385792 944.5921441396079 C898.7934459050506 944.3094185511272 898.6520399729419 943.970182355245 898.6520399729419 943.5744355519612 C898.6520399729419 943.1715278625488 898.7934459050506 942.8322916666666 899.0902344385792 942.5495660781862 C899.3941838582367 942.2668404897056 899.7546438852954 942.1255208333334 900.1645399093637 942.1255208333334 C900.5815105438243 942.1255208333334 900.9348959604907 942.2668404897056 901.231770769756 942.5495660781862 C901.5357201894134 942.8322916666666 901.6841144561778 943.1715278625488 901.6841144561778 943.5744355519612 C901.6841144561778 943.970182355245 901.5357201894134 944.3094185511272 901.231770769756 944.5921441396079 C900.9348959604907 944.8748697280885 900.5815105438243 945.0161893844606 900.1645399093637 945.0161893844606 Z M919.6501738230396 942.7050349553426 L921.8906684239713 942.7050349553426 L921.8906684239713 955.9287759145102 C921.8906684239713 957.1090279897055 921.671614329021 958.1126736323038 921.2404081980397 958.9396265665689 C920.8092883427947 959.7664932250975 920.1944011688241 960.3955296198526 919.4028212865204 960.8195748647054 C918.6183160146087 961.2507809956867 917.6854164759328 961.4627604802449 916.6111110051482 961.4627604802449 C915.6003907521575 961.4627604802449 914.7027779897065 961.2789931615193 913.9111981074026 960.9114585240682 C913.1196182250986 960.536935551961 912.504731051128 960.0068574269612 912.0523873647065 959.321224149068 C911.6001299540211 958.6356771469118 911.3739149729421 957.8157988230387 911.3739149729421 956.8687500635783 L913.5790365219126 956.8687500635783 C913.5790365219126 957.3988281885784 913.7062932332368 957.8511718750001 913.9677949905405 958.2470049540202 C914.2292967478444 958.6286025365193 914.5897567749033 958.9325519561767 915.0491750717173 959.1516060511271 C915.5085070927947 959.3636718114217 916.0315106074025 959.4767793019612 916.6111110051482 959.4767793019612 C917.26137123108 959.4767793019612 917.805512301128 959.3353733698527 918.2578559875498 959.0667970021564 C918.7101996739715 958.7982206344604 919.0565104802457 958.3953992207846 919.2898000717172 957.8723957061766 C919.5300779978444 957.3423175811768 919.6501738230396 956.6991319656372 919.6501738230396 955.9287759145102 L919.6501738230396 942.7050349553426 Z M930.1740018844613 961.5334203084308 C929.297612953187 961.5334203084308 928.4989584604908 961.3708768208821 927.778038406373 961.0387152353921 C927.0642792383838 960.6994790395099 926.4988280614228 960.211762301127 926.0747828165701 959.5827259063719 C925.6507375717173 958.9467011769614 925.4386718114228 958.1691842397054 925.4386718114228 957.2716577529909 C925.4386718114228 956.4730032602945 925.6012152989714 955.8298176447549 925.9122393290212 955.3350262959798 C926.2231770833345 954.8332466125489 926.6401477177945 954.4445744196573 927.1702258427948 954.1618488311769 C927.6932293574024 953.8791232426961 928.2728297551483 953.6670574824016 928.9018661499032 953.5257378260294 C929.5379771550505 953.3844181696575 930.1810764948538 953.2713106791177 930.8242621103933 953.1865016301474 C931.6723526000986 953.0733941396077 932.3509112675996 952.9956597010294 932.8809893925994 952.9391490936277 C933.4110675175992 952.8825522104898 933.7926651000986 952.783593940735 934.0330293019623 952.6422742843629 C934.2803818384815 952.5009546279907 934.407552274069 952.260590426127 934.407552274069 951.921354230245 L934.407552274069 951.8506944020589 C934.407552274069 950.9530816396077 934.1601997375498 950.260460027059 933.6725692749034 949.7727432886759 C933.1919271469125 949.278038215637 932.4569441477466 949.030685679118 931.4745223363251 949.030685679118 C930.4567274729421 949.030685679118 929.6580729802457 949.2497397740683 929.0856334686288 949.6950088500978 C928.5060330708833 950.140277926127 928.096137046815 950.6209200541177 927.86293373108 951.1226997375488 L925.8414932250986 950.401779683431 C926.2019532521575 949.5607638041179 926.6825953801484 948.9034289677938 927.2833333333341 948.4299477259317 C927.8911458969125 947.9563802083333 928.555555343629 947.6242186228435 929.2694007873544 947.4404513041179 C929.9973091761282 947.2425347646079 930.7040800094613 947.1506511052451 931.4037762324025 947.1506511052451 C931.8490453084318 947.1506511052451 932.3650604883838 947.2001733779907 932.937500000001 947.3131945927937 C933.5240887324024 947.412152862549 934.0895399093639 947.6312932332357 934.6337672551484 947.9563802083333 C935.1779946009327 948.281467183431 935.6303382873544 948.7691839218141 935.9977866490693 949.4264324824014 C936.358246676128 950.0837673187257 936.5349393844614 950.9601562500002 936.5349393844614 952.0627601623537 L936.5349393844614 961.2083333333333 L934.407552274069 961.2083333333333 L934.407552274069 959.3282987594603 L934.294531059266 959.3282987594603 C934.1531251271575 959.6322481791178 933.9128472010303 959.9502605438231 933.5736110051483 960.2965713500976 C933.2343748092661 960.6358075459798 932.7891057332366 960.9326823552449 932.2236545562754 961.1729602813721 C931.6652779897062 961.4133244832358 930.9797309875497 961.5334203084308 930.1740018844613 961.5334203084308 Z M930.4991751352956 959.6180989583331 C931.3472656250009 959.6180989583331 932.0540364583343 959.4555554707845 932.63363685608 959.1233938852945 C933.2202255884816 958.791146024068 933.6584200541189 958.3600261688234 933.955294863384 957.8370226542154 C934.2520833969126 957.3140191396076 934.407552274069 956.7627171834308 934.407552274069 956.1832030614216 L934.407552274069 954.2325086593628 C934.3156686147062 954.3385415395101 934.1178383509329 954.4374998092653 933.8068143208833 954.5293834686281 C933.5100257873545 954.6141925175984 933.1566403706878 954.6919269561768 932.7608072916677 954.7555121739706 C932.3720488230398 954.8190973917642 931.9833766301484 954.8686196645101 931.6158419926973 954.9180556615195 C931.2483073552461 954.9605033238729 930.9444442113248 954.9957901000978 930.7182292302458 955.031163152059 C930.166927274069 955.1018229802451 929.6439237594615 955.2149304707843 929.1633679072071 955.3774739583334 C928.6898003896089 955.5400174458821 928.3011281967173 955.7733070373533 928.0042533874522 956.0913194020588 C927.7215277989716 956.4093317667644 927.5731335322072 956.8334632873534 927.5731335322072 957.3776043574014 C927.5731335322072 958.1197482426962 927.8487845102956 958.678124809265 928.3930118560801 959.0597223917644 C928.9513021469126 959.4343316396075 929.6509983698537 959.6180989583331 930.4991751352956 959.6180989583331 Z M941.3056425094616 966.410156313578 C940.9451824824024 966.410156313578 940.6200955073049 966.3818578720093 940.3373699188243 966.3253472646077 C940.0547306060799 966.2688366572063 939.8568140665699 966.2122397740682 939.7507811864228 966.162803777059 L940.2950085322071 964.282769203186 C940.8109374364225 964.41002591451 941.2703557332364 964.4594619115192 941.6661025365205 964.4241751352945 C942.0619356155404 964.3888020833333 942.4153210322071 964.2121093750002 942.7262587865201 963.8940970102947 C943.0372828165699 963.5759983698524 943.3200084050508 963.0671440760295 943.5815101623544 962.3674478530884 L943.977256965638 961.2789931615193 L938.8460938135792 947.3273438135782 L941.1572482426972 947.3273438135782 L944.9950518290212 958.3883246103921 L945.1363714853932 958.3883246103921 L948.967100461325 947.3273438135782 L951.2781686147063 947.3273438135782 L945.3907986323048 963.2296875635782 C945.1222222646087 963.950607617696 944.797135289511 964.5442709604899 944.4013022104908 965.0107638676959 C944.0126300175992 965.4914059956868 943.5602863311777 965.837716801961 943.0372828165699 966.0709201176962 C942.5284285227468 966.2970488230387 941.9488281250011 966.410156313578 941.3056425094616 966.410156313578 Z M957.7592882156383 961.5334203084308 C956.8758246739716 961.5334203084308 956.0771701812754 961.3708768208821 955.3633247375498 961.0387152353921 C954.6424046834321 960.6994790395099 954.0770397822072 960.211762301127 953.6529945373546 959.5827259063719 C953.2359376271573 958.9467011769614 953.0239581425993 958.1691842397054 953.0239581425993 957.2716577529909 C953.0239581425993 956.4730032602945 953.179427019756 955.8298176447549 953.4903647740692 955.3350262959798 C953.808463414511 954.8332466125489 954.2254340489716 954.4445744196573 954.7484375635792 954.1618488311769 C955.271441078187 953.8791232426961 955.8510414759327 953.6670574824016 956.480077870688 953.5257378260294 C957.1231772104908 953.3844181696575 957.7592882156383 953.2713106791177 958.4095484415699 953.1865016301474 C959.2505643208832 953.0733941396077 959.9361113230397 952.9956597010294 960.459201113384 952.9391490936277 C960.989279238384 952.8825522104898 961.3708768208829 952.783593940735 961.6112410227466 952.6422742843629 C961.8585935592661 952.5009546279907 961.9857639948538 952.260590426127 961.9857639948538 951.921354230245 L961.9857639948538 951.8506944020589 C961.9857639948538 950.9530816396077 961.7384114583341 950.260460027059 961.2507809956877 949.7727432886759 C960.7701388676973 949.278038215637 960.0421442031871 949.030685679118 959.0597223917654 949.030685679118 C958.0420138041187 949.030685679118 957.2433593114228 949.2497397740683 956.6638451894136 949.6950088500978 C956.0842447916676 950.140277926127 955.6814233779916 950.6209200541177 955.4410591761281 951.1226997375488 L953.4197049458829 950.401779683431 C953.7801649729421 949.5607638041179 954.2608071009328 948.9034289677938 954.8686196645111 948.4299477259317 C955.4764322280895 947.9563802083333 956.1337670644133 947.6242186228435 956.8546008427946 947.4404513041179 C957.5755208969127 947.2425347646079 958.2893663406381 947.1506511052451 958.9819879531871 947.1506511052451 C959.4343316396088 947.1506511052451 959.9431859334321 947.2001733779907 960.5227863311776 947.3131945927937 C961.102300453187 947.412152862549 961.6677516301482 947.6312932332357 962.2119789759328 947.9563802083333 C962.7562063217173 948.281467183431 963.2155383427947 948.7691839218141 963.5759983698537 949.4264324824014 C963.9364583969126 950.0837673187257 964.1202257156382 950.9601562500002 964.1202257156382 952.0627601623537 L964.1202257156382 961.2083333333333 L961.9857639948538 961.2083333333333 L961.9857639948538 959.3282987594603 L961.8797311147063 959.3282987594603 C961.7313368479421 959.6322481791178 961.4910589218149 959.9502605438231 961.1518227259327 960.2965713500976 C960.8195748647062 960.6358075459798 960.3673174540212 960.9326823552449 959.8089408874522 961.1729602813721 C959.2505643208832 961.4133244832358 958.5650173187265 961.5334203084308 957.7592882156383 961.5334203084308 Z M958.0843751907358 959.6180989583331 C958.9254773457855 959.6180989583331 959.6393227895109 959.4555554707845 960.211762301128 959.1233938852945 C960.798437309266 958.791146024068 961.2366317749035 958.3600261688234 961.533420308432 957.8370226542154 C961.8373697280894 957.3140191396076 961.9857639948538 956.7627171834308 961.9857639948538 956.1832030614216 L961.9857639948538 954.2325086593628 C961.893880335491 954.3385415395101 961.6960500717174 954.4374998092653 961.3921006520599 954.5293834686281 C961.0881512324025 954.6141925175984 960.7347658157358 954.6919269561768 960.339019012452 954.7555121739706 C959.9502605438244 954.8190973917642 959.568662961325 954.8686196645101 959.1940537134816 954.9180556615195 C958.8265190760304 954.9605033238729 958.5296442667653 954.9957901000978 958.2964409510304 955.031163152059 C957.7451389948536 955.1018229802451 957.229210090638 955.2149304707843 956.7415796279917 955.3774739583334 C956.2680121103932 955.5400174458821 955.8863282521573 955.7733070373533 955.5895397186288 956.0913194020588 C955.2997395197559 956.4093317667644 955.1513452529917 956.8334632873534 955.1513452529917 957.3776043574014 C955.1513452529917 958.1197482426962 955.4269962310801 958.678124809265 955.9782119115201 959.0597223917644 C956.5295138676969 959.4343316396075 957.229210090638 959.6180989583331 958.0843751907358 959.6180989583331 Z "></path>
    </defs>
    <g>
      <use xmlns:xlink="http://www.w3.org/1999/xlink" xlink:href="#s-Path_85-8264f" fill="#000000" fill-opacity="1.0" filter="none"></use>
    </g>
  </g>
</svg>
