<?xml version="1.0" encoding="UTF-8"?>
<svg xmlns="http://www.w3.org/2000/svg" width="310.222900390625" height="30.4547119140625" viewBox="772.500520833334 725.1468749999999 310.222900390625 30.4547119140625" preserveAspectRatio="none">
  <g>
    <defs>
      <path id="s-Path_65-8264f" d="M777.0945312500006 725.4648873647054 L777.0945312500006 732.8153212865191 C777.0945312500006 734.0946179072062 776.4867186864223 734.7872395197548 775.4124132156379 734.7872395197548 C774.4299914042159 734.7872395197548 773.7232205708827 734.2147137324012 773.7232205708827 733.3383248011271 L772.500520833334 733.3383248011271 C772.500520833334 734.9214845657348 773.7232205708827 735.8897571563716 775.4124132156379 735.8897571563716 C777.2004778544114 735.8897571563716 778.3384548187263 734.7872395197548 778.3384548187263 732.8153212865191 L778.3384548187263 725.4648873647054 L777.0945312500006 725.4648873647054 Z M781.8581597646083 725.4648873647054 L780.6778214136765 725.4648873647054 L780.6778214136765 735.7484374999999 L781.8581597646083 735.7484374999999 L781.8581597646083 725.4648873647054 Z M784.8901479721075 735.8261719385782 C785.3920139312748 735.8261719385782 785.7948353449509 735.4233505249022 785.7948353449509 734.928559176127 C785.7948353449509 734.4267794926961 785.3920139312748 734.0239580790201 784.8901479721075 734.0239580790201 C784.3954428990688 734.0239580790201 783.9926214853928 734.4267794926961 783.9926214853928 734.928559176127 C783.9926214853928 735.4233505249022 784.3954428990688 735.8261719385782 784.8901479721075 735.8261719385782 Z M800.33315970103 728.6807291666667 C799.9514758427944 726.574565887451 798.2622831980394 725.3306423187255 796.1984813054409 725.3306423187255 C793.5622399012253 725.3306423187255 791.6610677719121 727.3519965489704 791.6610677719121 730.6101997375486 C791.6610677719121 733.8613283157347 793.5622399012253 735.8897571563716 796.1984813054409 735.8897571563716 C798.2622831980394 735.8897571563716 799.9514758427944 734.6458335876464 800.33315970103 732.5325956980387 L799.0892361323046 732.5325956980387 C798.785286712647 733.9602865854897 797.5625869750983 734.723654301961 796.1984813054409 734.723654301961 C794.3256076176966 734.723654301961 792.8625436782844 733.2818141937255 792.8625436782844 730.6101997375486 C792.8625436782844 727.9385852813718 794.3256076176966 726.4897568384806 796.1984813054409 726.4897568384806 C797.5625869750983 726.4897568384806 798.785286712647 727.2530382792154 799.0892361323046 728.6807291666667 L800.33315970103 728.6807291666667 Z M802.1848958333338 735.7484374999999 L803.3651479085291 735.7484374999999 L803.3651479085291 728.0375435511271 L802.1848958333338 728.0375435511271 L802.1848958333338 735.7484374999999 Z M802.78563378652 726.7512585957845 C803.2450520833339 726.7512585957845 803.626649665833 726.3907985687254 803.626649665833 725.9526041030881 C803.626649665833 725.5073350270586 803.2450520833339 725.1468749999999 802.78563378652 725.1468749999999 C802.326215489706 725.1468749999999 801.9445316314703 725.5073350270586 801.9445316314703 725.9526041030881 C801.9445316314703 726.3907985687254 802.326215489706 726.7512585957845 802.78563378652 726.7512585957845 Z M806.7223093668625 725.4648873647054 L805.534982681275 725.4648873647054 L805.534982681275 735.7484374999999 L806.7223093668625 735.7484374999999 L806.7223093668625 725.4648873647054 Z M812.0230906168625 735.9109809875486 C814.1151909510301 735.9109809875486 815.5145833969121 734.3207466125486 815.5145833969121 731.9318577448523 C815.5145833969121 729.5217450459795 814.1151909510301 727.9385852813718 812.0230906168625 727.9385852813718 C809.9381511688238 727.9385852813718 808.5316841125494 729.5217450459795 808.5316841125494 731.9318577448523 C808.5316841125494 734.3207466125486 809.9381511688238 735.9109809875486 812.0230906168625 735.9109809875486 Z M812.0230906168625 734.8437501271562 C810.4399308522549 734.8437501271562 809.7119361877448 733.4797307332356 809.7119361877448 731.9318577448523 C809.7119361877448 730.3840710322058 810.4399308522549 728.9987415313722 812.0230906168625 728.9987415313722 C813.6133249918627 728.9987415313722 814.3342450459803 730.3840710322058 814.3342450459803 731.9318577448523 C814.3342450459803 733.4797307332356 813.6133249918627 734.8437501271562 812.0230906168625 734.8437501271562 Z M817.4864153544114 735.7484374999999 L818.631380653382 735.7484374999999 L818.631380653382 734.5610245386758 L818.7727865854905 734.5610245386758 C819.0342883427944 734.9851560592647 819.5360680262253 735.9109809875486 821.0202695210779 735.9109809875486 C822.9498263676966 735.9109809875486 824.2926219304408 734.3631942749021 824.2926219304408 731.9106339136758 C824.2926219304408 729.4864582697548 822.9498263676966 727.9385852813718 820.9991319656377 727.9385852813718 C819.4937066396084 727.9385852813718 819.0342883427944 728.8644964853922 818.7727865854905 729.2602432886758 L818.6738283157355 729.2602432886758 L818.6738283157355 725.4648873647054 L817.4864153544114 725.4648873647054 L817.4864153544114 735.7484374999999 Z M818.6526044845585 731.8965709686277 C818.6526044845585 730.1649306615191 819.4159722010301 728.9987415313722 820.8577260335293 728.9987415313722 C822.3631513595586 728.9987415313722 823.1052952448532 730.2638889312743 823.1052952448532 731.8965709686277 C823.1052952448532 733.5433159510294 822.3419275283819 734.8437501271562 820.8577260335293 734.8437501271562 C819.4371097564702 734.8437501271562 818.6526044845585 733.6422742207842 818.6526044845585 731.8965709686277 Z M828.370703442892 735.9322048187255 C829.7206598917647 735.9322048187255 830.4203561147059 735.2042101542154 830.6606340408331 734.7024304707845 L830.7243055343632 734.7024304707845 L830.7243055343632 735.7484374999999 L831.9045576095585 735.7484374999999 L831.9045576095585 730.6667966206867 C831.9045576095585 728.2213108698527 830.0386722564702 727.9385852813718 829.0562504450487 727.9385852813718 C827.8901475906376 727.9385852813718 826.5684895833339 728.3414929707842 825.9676653544112 729.7479600270588 L827.0914930979417 730.1437068303424 C827.3529948552456 729.5854165395101 827.9678820292162 728.9846785863238 829.0986981074021 728.9846785863238 C830.1871527989712 728.9846785863238 830.7243055343632 729.5571180979407 830.7243055343632 730.5466145197549 L830.7243055343632 730.5889759063718 C830.7243055343632 731.1615016937253 830.1376305262253 731.1119794209797 828.7382380803432 731.2886721293128 C827.3034725824997 731.4795140584308 825.7415366490687 731.7905380884806 825.7415366490687 733.5574651718139 C825.7415366490687 735.0628904978432 826.9077257792161 735.9322048187255 828.370703442892 735.9322048187255 Z M828.5544707616176 734.8649739583332 C827.6144966125493 734.8649739583332 826.9289496103928 734.4409287134804 826.9289496103928 733.6210503896075 C826.9289496103928 732.7163630167643 827.7487416585292 732.4337237040202 828.6746528625494 732.3135416030882 C829.1764325459804 732.2570309956866 830.5193143844612 732.1156250635779 830.7243055343632 731.875347137451 L830.7243055343632 732.9567272186277 C830.7243055343632 733.9179251988726 829.9609378178919 734.8649739583332 828.5544707616176 734.8649739583332 Z M834.0673177719121 735.7484374999999 L835.2546444574997 735.7484374999999 L835.2546444574997 732.864843559265 L836.0815973917648 732.0944012324014 L838.972265942892 735.7484374999999 L840.4776912689216 735.7484374999999 L836.979210154216 731.3311197916667 L840.2374133427944 728.0375435511271 L838.767361068726 728.0375435511271 L835.3960503896084 731.4724394480384 L835.2546444574997 731.4724394480384 L835.2546444574997 725.4648873647054 L834.0673177719121 725.4648873647054 L834.0673177719121 735.7484374999999 Z M847.1425781885788 725.4648873647054 L845.8986546198531 725.4648873647054 L845.8986546198531 735.7484374999999 L847.1425781885788 735.7484374999999 L847.1425781885788 725.4648873647054 Z M850.8813372294113 725.4648873647054 L849.6374999364222 725.4648873647054 L849.6374999364222 735.7484374999999 L850.8813372294113 735.7484374999999 L850.8813372294113 725.4648873647054 Z M854.6201825459804 725.4648873647054 L853.3762589772547 725.4648873647054 L853.3762589772547 735.7484374999999 L854.6201825459804 735.7484374999999 L854.6201825459804 725.4648873647054 Z M869.24331595103 725.4648873647054 L868.0205299377448 725.4648873647054 L868.0205299377448 733.5574651718139 L867.921657943726 733.5574651718139 L862.295703442892 725.4648873647054 L861.09422753652 725.4648873647054 L861.09422753652 735.7484374999999 L862.3381511052454 735.7484374999999 L862.3381511052454 727.6770835240679 L862.4371093750004 727.6770835240679 L868.0417537689212 735.7484374999999 L869.24331595103 735.7484374999999 L869.24331595103 725.4648873647054 Z M874.7066406885789 735.9109809875486 C876.7986547470099 735.9109809875486 878.2051218032842 734.3207466125486 878.2051218032842 731.9318577448523 C878.2051218032842 729.5217450459795 876.7986547470099 727.9385852813718 874.7066406885789 727.9385852813718 C872.6216149648036 727.9385852813718 871.2151479085293 729.5217450459795 871.2151479085293 731.9318577448523 C871.2151479085293 734.3207466125486 872.6216149648036 735.9109809875486 874.7066406885789 735.9109809875486 Z M874.7066406885789 734.8437501271562 C873.123480923971 734.8437501271562 872.4025608698531 733.4797307332356 872.4025608698531 731.9318577448523 C872.4025608698531 730.3840710322058 873.123480923971 728.9987415313722 874.7066406885789 728.9987415313722 C876.2968750635788 728.9987415313722 877.0177951176967 730.3840710322058 877.0177951176967 731.9318577448523 C877.0177951176967 733.4797307332356 876.2968750635788 734.8437501271562 874.7066406885789 734.8437501271562 Z M880.8767362594612 735.8261719385782 C881.3714413324998 735.8261719385782 881.7743490219121 735.4233505249022 881.7743490219121 734.928559176127 C881.7743490219121 734.4267794926961 881.3714413324998 734.0239580790201 880.8767362594612 734.0239580790201 C880.3749565760301 734.0239580790201 879.9720488866175 734.4267794926961 879.9720488866175 734.928559176127 C879.9720488866175 735.4233505249022 880.3749565760301 735.8261719385782 880.8767362594612 735.8261719385782 Z M886.9407989501959 735.8897571563716 C889.0187500635788 735.9109809875486 890.3686202367154 734.3490450541176 890.3686202367154 732.4337237040202 C890.3686202367154 730.4476562499999 888.898567962647 729.0199653625486 887.138715489706 729.0199653625486 C886.0785592397061 729.0199653625486 885.1738718668624 729.5358942667642 884.6085069656377 730.3840710322058 L884.5307725270596 730.3840710322058 C884.5307725270596 727.8820746739702 885.506119728089 726.4331599553425 887.0963541030891 726.4331599553425 C888.1847225189216 726.4331599553425 888.8349827448532 727.1117186228432 889.0681860605881 728.0375435511271 L890.2908857981369 728.0375435511271 C890.0364586512254 726.440234565735 888.8279081344612 725.3306423187255 887.0963541030891 725.3306423187255 C884.7851996739711 725.3306423187255 883.364583396912 727.3732203801471 883.364583396912 731.0131074269611 C883.364583396912 734.8084633509316 885.251606305441 735.8686196009314 886.9407989501959 735.8897571563716 Z M886.9407989501959 734.7872395197548 C885.6474393844609 734.7872395197548 884.7003906250005 733.6846356074013 884.7074652353928 732.4548612594604 C884.7144535700485 731.2250869115194 885.7039499918625 730.1296438852944 886.9761720021571 730.1296438852944 C888.2342447916673 730.1296438852944 889.1671443303431 731.1615016937253 889.1671443303431 732.4337237040202 C889.1671443303431 733.7412324905395 888.1988717397059 734.7872395197548 886.9407989501959 734.7872395197548 Z M893.6480472564702 734.3419704437251 L892.3617623011277 734.3419704437251 L892.3052516937263 734.9074216206866 C892.1567711512254 736.2643664042153 891.8740455627448 737.6213974634804 891.7398005167648 738.2575084686277 L892.6444878896083 738.2575084686277 C892.8847658157355 737.578949801127 893.4006947199508 736.0311630884805 893.5703128178922 734.8861977895101 L893.6480472564702 734.3419704437251 Z M899.9807725906379 735.7484374999999 L901.2246961593634 735.7484374999999 L901.2246961593634 731.9954429626464 L903.472179094951 731.9954429626464 C905.8681425730393 731.9954429626464 906.9495226542161 730.5395399093627 906.9495226542161 728.7231768290201 C906.9495226542161 726.9067274729407 905.8681425730393 725.4648873647054 903.4509552637741 725.4648873647054 L899.9807725906379 725.4648873647054 L899.9807725906379 735.7484374999999 Z M901.2246961593634 730.8858507156369 L901.2246961593634 726.574565887451 L903.4156684875494 726.574565887451 C905.0836373011276 726.574565887451 905.7197483062749 727.4863278706869 905.7197483062749 728.7231768290201 C905.7197483062749 729.9529511769613 905.0836373011276 730.8858507156369 903.4368923187261 730.8858507156369 L901.2246961593634 730.8858507156369 Z M911.0628909428921 735.9322048187255 C912.4057727813728 735.9322048187255 913.1054690043137 735.2042101542154 913.3528215408331 734.7024304707845 L913.4094184239713 734.7024304707845 L913.4094184239713 735.7484374999999 L914.5967451095588 735.7484374999999 L914.5967451095588 730.6667966206867 C914.5967451095588 728.2213108698527 912.7237851460778 727.9385852813718 911.7414496103928 727.9385852813718 C910.5823350906379 727.9385852813718 909.2536024729417 728.3414929707842 908.6528645197556 729.7479600270588 L909.7766059875493 730.1437068303424 C910.0381077448532 729.5854165395101 910.6529949188238 728.9846785863238 911.7838109970097 728.9846785863238 C912.8722656885788 728.9846785863238 913.4094184239713 729.5571180979407 913.4094184239713 730.5466145197549 L913.4094184239713 730.5889759063718 C913.4094184239713 731.1615016937253 912.8298180262253 731.1119794209797 911.423350969951 731.2886721293128 C909.9885854721075 731.4795140584308 908.4337241490686 731.7905380884806 908.4337241490686 733.5574651718139 C908.4337241490686 735.0628904978432 909.5928386688237 735.9322048187255 911.0628909428921 735.9322048187255 Z M911.2395836512254 734.8649739583332 C910.2996095021573 734.8649739583332 909.6140625000006 734.4409287134804 909.6140625000006 733.6210503896075 C909.6140625000006 732.7163630167643 910.440929158529 732.4337237040202 911.3597657521569 732.3135416030882 C911.861545435588 732.2570309956866 913.211501884461 732.1156250635779 913.4094184239713 731.875347137451 L913.4094184239713 732.9567272186277 C913.4094184239713 733.9179251988726 912.6460507074997 734.8649739583332 911.2395836512254 734.8649739583332 Z M917.9397573471075 731.1119794209797 C917.9397573471075 729.7621092478432 918.7737848917649 728.9987415313722 919.9116755803431 728.9987415313722 C921.0072048823043 728.9987415313722 921.6786026636765 729.7196615854898 921.6786026636765 730.9282983779908 L921.6786026636765 735.7484374999999 L922.8589410146084 735.7484374999999 L922.8589410146084 730.8504776636757 C922.8589410146084 728.8786457061765 921.8129339853928 727.9385852813718 920.2509117762253 727.9385852813718 C919.0847226460779 727.9385852813718 918.3638888676966 728.4615887959797 918.0034288406376 729.2461803436277 L917.9044705708826 729.2461803436277 L917.9044705708826 728.0375435511271 L916.7595052719122 728.0375435511271 L916.7595052719122 735.7484374999999 L917.9397573471075 735.7484374999999 L917.9397573471075 731.1119794209797 Z M928.1384984334314 738.8016495386757 C929.9831599553432 738.8016495386757 931.4673614501959 737.9535590489702 931.4673614501959 735.9675778706867 L931.4673614501959 728.0375435511271 L930.3294707616175 728.0375435511271 L930.3294707616175 729.2602432886758 L930.2093749364223 729.2602432886758 C929.947786903382 728.8644964853922 929.4601564407354 727.9385852813718 927.9547311147059 727.9385852813718 C926.0111113230392 727.9385852813718 924.6611548741663 729.4864582697548 924.6611548741663 731.8541233062742 C924.6611548741663 734.264236005147 926.0676219304406 735.6282553990679 927.9335072835294 735.6282553990679 C929.446007219951 735.6282553990679 929.9266493479416 734.7447918574014 930.1881511052453 734.3207466125486 L930.2871093750006 734.3207466125486 L930.2871093750006 735.8897571563716 C930.2871093750006 737.1761283874507 929.3824220021571 737.7556425094604 928.1384984334314 737.7556425094604 C926.7391059875494 737.7556425094604 926.2443146387742 737.0206595102945 925.9263022740689 736.5894533793128 L924.9863281250006 737.2538628260293 C925.466883977255 738.0595919291175 926.4139327367153 738.8016495386757 928.1384984334314 738.8016495386757 Z M928.096050771078 734.5610245386758 C926.6118492762254 734.5610245386758 925.8485678354904 733.4372830708819 925.8485678354904 731.8328994750977 C925.8485678354904 730.2638889312743 926.5906254450487 728.9987415313722 928.096050771078 728.9987415313722 C929.5449654897058 728.9987415313722 930.308246930441 730.1649306615191 930.308246930441 731.8328994750977 C930.308246930441 733.5433159510294 929.5237416585293 734.5610245386758 928.096050771078 734.5610245386758 Z M933.6371962229417 735.7484374999999 L934.8245229085293 735.7484374999999 L934.8245229085293 732.864843559265 L935.6514758427944 732.0944012324014 L938.5350697835294 735.7484374999999 L940.047569719951 735.7484374999999 L936.5490886052454 731.3311197916667 L939.8002171834315 728.0375435511271 L938.3372395197556 728.0375435511271 L934.9659288406377 731.4724394480384 L934.8245229085293 731.4724394480384 L934.8245229085293 725.4648873647054 L933.6371962229417 725.4648873647054 L933.6371962229417 735.7484374999999 Z M943.5955731074022 735.9322048187255 C944.9455295562749 735.9322048187255 945.645225779216 735.2042101542154 945.8855037053432 734.7024304707845 L945.9490889231369 734.7024304707845 L945.9490889231369 735.7484374999999 L947.1294272740689 735.7484374999999 L947.1294272740689 730.6667966206867 C947.1294272740689 728.2213108698527 945.2635419209802 727.9385852813718 944.2811201095586 727.9385852813718 C943.1149309794113 727.9385852813718 941.7932729721075 728.3414929707842 941.1854604085294 729.7479600270588 L942.3092881520594 730.1437068303424 C942.5707899093633 729.5854165395101 943.1927516937261 728.9846785863238 944.3164931615198 728.9846785863238 C945.4119361877446 728.9846785863238 945.9490889231369 729.5571180979407 945.9490889231369 730.5466145197549 L945.9490889231369 730.5889759063718 C945.9490889231369 731.1615016937253 945.3625001907354 731.1119794209797 943.9560331344609 731.2886721293128 C942.5283422470098 731.4795140584308 940.9664063135789 731.7905380884806 940.9664063135789 733.5574651718139 C940.9664063135789 735.0628904978432 942.132595443726 735.9322048187255 943.5955731074022 735.9322048187255 Z M943.7793404261278 734.8649739583332 C942.8322916666672 734.8649739583332 942.1537329991662 734.4409287134804 942.1537329991662 733.6210503896075 C942.1537329991662 732.7163630167643 942.9736113230393 732.4337237040202 943.8995225270593 732.3135416030882 C944.4013022104904 732.2570309956866 945.7441840489711 732.1156250635779 945.9490889231369 731.875347137451 L945.9490889231369 732.9567272186277 C945.9490889231369 733.9179251988726 945.1858074824021 734.8649739583332 943.7793404261278 734.8649739583332 Z M950.4795141220098 725.4648873647054 L949.2921874364221 725.4648873647054 L949.2921874364221 735.7484374999999 L950.4795141220098 735.7484374999999 L950.4795141220098 725.4648873647054 Z M954.9180556615198 735.9322048187255 C956.2609375000005 735.9322048187255 956.9677083333337 735.2042101542154 957.2079862594609 734.7024304707845 L957.2644968668625 734.7024304707845 L957.2644968668625 735.7484374999999 L958.4519098281866 735.7484374999999 L958.4519098281866 730.6667966206867 C958.4519098281866 728.2213108698527 956.5860244750983 727.9385852813718 955.5965280532843 727.9385852813718 C954.4374135335294 727.9385852813718 953.1086809158331 728.3414929707842 952.507942962647 729.7479600270588 L953.6316844304407 730.1437068303424 C953.8931861877446 729.5854165395101 954.5080733617152 728.9846785863238 955.6389757156377 728.9846785863238 C956.7273441314702 728.9846785863238 957.2644968668625 729.5571180979407 957.2644968668625 730.5466145197549 L957.2644968668625 730.5889759063718 C957.2644968668625 731.1615016937253 956.6849827448533 731.1119794209797 955.2785156885788 731.2886721293128 C953.8437501907355 731.4795140584308 952.2888888676968 731.7905380884806 952.2888888676968 733.5574651718139 C952.2888888676968 735.0628904978432 953.4479171117151 735.9322048187255 954.9180556615198 735.9322048187255 Z M955.0947483698532 734.8649739583332 C954.1546879450485 734.8649739583332 953.4691409428921 734.4409287134804 953.4691409428921 733.6210503896075 C953.4691409428921 732.7163630167643 954.2960938771572 732.4337237040202 955.2148441950486 732.3135416030882 C955.716710154216 732.2570309956866 957.066666603089 732.1156250635779 957.2644968668625 731.875347137451 L957.2644968668625 732.9567272186277 C957.2644968668625 733.9179251988726 956.5012154261277 734.8649739583332 955.0947483698532 734.8649739583332 Z M961.7949220657355 731.1119794209797 C961.7949220657355 729.7621092478432 962.6289496103929 728.9987415313722 963.7668402989713 728.9987415313722 C964.8622833251958 728.9987415313722 965.5337673823045 729.7196615854898 965.5337673823045 730.9282983779908 L965.5337673823045 735.7484374999999 L966.7140194574998 735.7484374999999 L966.7140194574998 730.8504776636757 C966.7140194574998 728.8786457061765 965.6680124282842 727.9385852813718 964.1060764948533 727.9385852813718 C962.9398873647061 727.9385852813718 962.218967310588 728.4615887959797 961.8585072835291 729.2461803436277 L961.7595490137741 729.2461803436277 L961.7595490137741 728.0375435511271 L960.6145837148034 728.0375435511271 L960.6145837148034 735.7484374999999 L961.7949220657355 735.7484374999999 L961.7949220657355 731.1119794209797 Z M976.9551219304409 725.4648873647054 L976.9551219304409 732.8153212865191 C976.9551219304409 734.0946179072062 976.3402347564703 734.7872395197548 975.2660155614223 734.7872395197548 C974.2906683603927 734.7872395197548 973.5768229166673 734.2147137324012 973.5768229166673 733.3383248011271 L972.3540369033818 733.3383248011271 C972.3540369033818 734.9214845657348 973.5768229166673 735.8897571563716 975.2660155614223 735.8897571563716 C977.0540802001959 735.8897571563716 978.1990454991666 734.7872395197548 978.1990454991666 732.8153212865191 L978.1990454991666 725.4648873647054 L976.9551219304409 725.4648873647054 Z M982.8001305262254 735.9322048187255 C984.1430123647061 735.9322048187255 984.8497831980393 735.2042101542154 985.0900611241665 734.7024304707845 L985.1466580073044 734.7024304707845 L985.1466580073044 735.7484374999999 L986.3339846928922 735.7484374999999 L986.3339846928922 730.6667966206867 C986.3339846928922 728.2213108698527 984.4680993398034 727.9385852813718 983.4856775283819 727.9385852813718 C982.3195746739713 727.9385852813718 980.990842056275 728.3414929707842 980.3901041030889 729.7479600270588 L981.5138455708826 730.1437068303424 C981.7753473281865 729.5854165395101 982.3973091125494 728.9846785863238 983.5210505803431 728.9846785863238 C984.6095052719121 728.9846785863238 985.1466580073044 729.5571180979407 985.1466580073044 730.5466145197549 L985.1466580073044 730.5889759063718 C985.1466580073044 731.1615016937253 984.5670576095587 731.1119794209797 983.1605905532841 731.2886721293128 C981.7328996658331 731.4795140584308 980.1709637324019 731.7905380884806 980.1709637324019 733.5574651718139 C980.1709637324019 735.0628904978432 981.3371528625493 735.9322048187255 982.8001305262254 735.9322048187255 Z M982.983897844951 734.8649739583332 C982.0368490854904 734.8649739583332 981.3583766937262 734.4409287134804 981.3583766937262 733.6210503896075 C981.3583766937262 732.7163630167643 982.1781687418624 732.4337237040202 983.1040799458825 732.3135416030882 C983.6058596293136 732.2570309956866 984.9487414677943 732.1156250635779 985.1466580073044 731.875347137451 L985.1466580073044 732.9567272186277 C985.1466580073044 733.9179251988726 984.3903649012253 734.8649739583332 982.983897844951 734.8649739583332 Z M991.8468317031865 728.0375435511271 L990.2000004450487 728.0375435511271 L990.2000004450487 726.1928820292153 L989.0197483698533 726.1928820292153 L989.0197483698533 728.0375435511271 L987.8535592397058 728.0375435511271 L987.8535592397058 729.0411891937254 L989.0197483698533 729.0411891937254 L989.0197483698533 733.8613283157347 C989.0197483698533 735.2042101542154 990.1011284510299 735.8473957697549 991.1046878178919 735.8473957697549 C991.5499568939214 735.8473957697549 991.832682482402 735.7696613311766 991.9881513595586 735.705989837646 L991.7478734334314 734.6458335876464 C991.6489151636764 734.6670574188231 991.4863716761278 734.7024304707845 991.2248699188239 734.7024304707845 C990.7089410146083 734.7024304707845 990.2000004450487 734.5469615936277 990.2000004450487 733.5433159510294 L990.2000004450487 729.0411891937254 L991.8468317031865 729.0411891937254 L991.8468317031865 728.0375435511271 Z M993.6349826176967 735.7484374999999 L994.815234692892 735.7484374999999 L994.815234692892 728.0375435511271 L993.6349826176967 728.0375435511271 L993.6349826176967 735.7484374999999 Z M994.2357205708828 726.7512585957845 C994.6951388676968 726.7512585957845 995.0767364501959 726.3907985687254 995.0767364501959 725.9526041030881 C995.0767364501959 725.5073350270586 994.6951388676968 725.1468749999999 994.2357205708828 725.1468749999999 C993.7692276636766 725.1468749999999 993.3875438054407 725.5073350270586 993.3875438054407 725.9526041030881 C993.3875438054407 726.3907985687254 993.7692276636766 726.7512585957845 994.2357205708828 726.7512585957845 Z M998.7519965489711 734.3419704437251 L997.465625317892 734.3419704437251 L997.4091147104904 734.9074216206866 C997.2607204437262 736.2643664042153 996.9779948552456 737.6213974634804 996.8436635335294 738.2575084686277 L997.7483509063726 738.2575084686277 C997.9886288324996 737.578949801127 998.5045577367151 736.0311630884805 998.674262110393 734.8861977895101 L998.7519965489711 734.3419704437251 Z M1005.084635607402 735.7484374999999 L1006.3285591761277 735.7484374999999 L1006.3285591761277 732.4124998728432 L1007.6148441314702 730.9706597646075 L1011.1911459604906 735.7484374999999 L1012.69657128652 735.7484374999999 L1008.3782118479415 730.1084200541175 L1012.69657128652 725.4648873647054 L1011.0709638595587 725.4648873647054 L1006.4487412770594 730.5678383509314 L1006.3285591761277 730.5678383509314 L1006.3285591761277 725.4648873647054 L1005.084635607402 725.4648873647054 L1005.084635607402 735.7484374999999 Z M1016.8099395751959 735.9109809875486 C1018.3790363947554 735.9109809875486 1019.5240016937261 735.1264757156371 1019.8843754450485 733.9602865854897 L1018.7394101460778 733.6422742207842 C1018.435547002157 734.4409287134804 1017.7429253896081 734.8437501271562 1016.8099395751959 734.8437501271562 C1015.4246963500981 734.8437501271562 1014.4634983698533 733.9461373647052 1014.4069014867151 732.2923177719117 L1020.0045575459804 732.2923177719117 L1020.0045575459804 731.7905380884806 C1020.0045575459804 728.9210070927936 1018.2941410700486 727.9385852813718 1016.6898437500005 727.9385852813718 C1014.6048180262252 727.9385852813718 1013.2195748011276 729.5854165395101 1013.2195748011276 731.9530815760293 C1013.2195748011276 734.3207466125486 1014.5835941950485 735.9109809875486 1016.8099395751959 735.9109809875486 Z M1014.4069014867151 731.2675345738726 C1014.48472220103 730.0730470021563 1015.3328126907353 728.9987415313722 1016.6898437500005 728.9987415313722 C1017.9761287053431 728.9987415313722 1018.796007029216 729.967014122009 1018.796007029216 731.2675345738726 L1014.4069014867151 731.2675345738726 Z M1024.9378041585292 735.9109809875486 C1026.6482206344608 735.9109809875486 1027.7719621022547 734.8649739583332 1027.9698786417648 733.5008682886757 L1026.7824656804405 733.5008682886757 C1026.5634115854905 734.3419704437251 1025.8637153625496 734.8437501271562 1024.9378041585292 734.8437501271562 C1023.5313371022545 734.8437501271562 1022.6266497294113 733.6775609970091 1022.6266497294113 731.8965709686277 C1022.6266497294113 730.1437068303424 1023.5525609334314 728.9987415313722 1024.9378041585292 728.9987415313722 C1025.9838111877448 728.9987415313722 1026.6057729721074 729.6419271469117 1026.7824656804405 730.3486979802447 L1027.9698786417648 730.3486979802447 C1027.7719621022547 728.8998695373534 1026.5421877543135 727.9385852813718 1024.9166666030887 727.9385852813718 C1022.8316408793136 727.9385852813718 1021.446397654216 729.5854165395101 1021.446397654216 731.9318577448523 C1021.446397654216 734.2430121739706 1022.7680556615197 735.9109809875486 1024.9378041585292 735.9109809875486 Z M1030.5637586593634 735.8261719385782 C1031.0655383427943 735.8261719385782 1031.4683597564704 735.4233505249022 1031.4683597564704 734.928559176127 C1031.4683597564704 734.4267794926961 1031.0655383427943 734.0239580790201 1030.5637586593634 734.0239580790201 C1030.068967310588 734.0239580790201 1029.65907128652 734.4267794926961 1029.65907128652 734.928559176127 C1029.65907128652 735.4233505249022 1030.068967310588 735.8261719385782 1030.5637586593634 735.8261719385782 Z M1046.0066841125495 728.6807291666667 C1045.6250002543138 726.574565887451 1043.9358076095587 725.3306423187255 1041.8650173823044 725.3306423187255 C1039.2357643127448 725.3306423187255 1037.3275175730391 727.3519965489704 1037.3275175730391 730.6101997375486 C1037.3275175730391 733.8613283157347 1039.2357643127448 735.8897571563716 1041.8650173823044 735.8897571563716 C1043.9358076095587 735.8897571563716 1045.6250002543138 734.6458335876464 1046.0066841125495 732.5325956980387 L1044.7556859334313 732.5325956980387 C1044.4588111241665 733.9602865854897 1043.2361113866173 734.723654301961 1041.8650173823044 734.723654301961 C1039.999132029216 734.723654301961 1038.5360680898034 733.2818141937255 1038.5360680898034 730.6101997375486 C1038.5360680898034 727.9385852813718 1039.999132029216 726.4897568384806 1041.8650173823044 726.4897568384806 C1043.2361113866173 726.4897568384806 1044.4588111241665 727.2530382792154 1044.7556859334313 728.6807291666667 L1046.0066841125495 728.6807291666667 Z M1047.8513456344608 735.7484374999999 L1049.0386723200486 735.7484374999999 L1049.0386723200486 728.0375435511271 L1047.8513456344608 728.0375435511271 L1047.8513456344608 735.7484374999999 Z M1048.4591581980394 726.7512585957845 C1048.9185764948534 726.7512585957845 1049.300260353089 726.3907985687254 1049.300260353089 725.9526041030881 C1049.300260353089 725.5073350270586 1048.9185764948534 725.1468749999999 1048.4591581980394 725.1468749999999 C1047.992665290833 725.1468749999999 1047.6110677083338 725.5073350270586 1047.6110677083338 725.9526041030881 C1047.6110677083338 726.3907985687254 1047.992665290833 726.7512585957845 1048.4591581980394 726.7512585957845 Z M1052.395833778382 731.1119794209797 C1052.395833778382 729.7621092478432 1053.2298613230391 728.9987415313722 1054.3606774012255 728.9987415313722 C1055.463281313579 728.9987415313722 1056.1276044845586 729.7196615854898 1056.1276044845586 730.9282983779908 L1056.1276044845586 735.7484374999999 L1057.3150174458824 735.7484374999999 L1057.3150174458824 730.8504776636757 C1057.3150174458824 728.8786457061765 1056.2619358062748 727.9385852813718 1054.6999135971073 727.9385852813718 C1053.540885353089 727.9385852813718 1052.812890688579 728.4615887959797 1052.4524306615199 729.2461803436277 L1052.353472391765 729.2461803436277 L1052.353472391765 728.0375435511271 L1051.2085070927942 728.0375435511271 L1051.2085070927942 735.7484374999999 L1052.395833778382 735.7484374999999 L1052.395833778382 731.1119794209797 Z M1062.7076823552452 735.9109809875486 C1064.2766928990686 735.9109809875486 1065.4216581980395 735.1264757156371 1065.7821182250982 733.9602865854897 L1064.6371529261278 733.6422742207842 C1064.33320350647 734.4409287134804 1063.6405818939215 734.8437501271562 1062.7076823552452 734.8437501271562 C1061.3223528544113 734.8437501271562 1060.3611548741665 733.9461373647052 1060.304644266765 732.2923177719117 L1065.90230032603 732.2923177719117 L1065.90230032603 731.7905380884806 C1065.90230032603 728.9210070927936 1064.1989584604903 727.9385852813718 1062.587500254314 727.9385852813718 C1060.5025608062747 727.9385852813718 1059.1172313054408 729.5854165395101 1059.1172313054408 731.9530815760293 C1059.1172313054408 734.3207466125486 1060.4813369750982 735.9109809875486 1062.7076823552452 735.9109809875486 Z M1060.304644266765 731.2675345738726 C1060.3894533157354 730.0730470021563 1061.2375438054405 728.9987415313722 1062.587500254314 728.9987415313722 C1063.873871485393 728.9987415313722 1064.7007381439212 729.967014122009 1064.7007381439212 731.2675345738726 L1060.304644266765 731.2675345738726 Z M1067.7045141855883 735.7484374999999 L1068.8919271469122 735.7484374999999 L1068.8919271469122 730.8717014948527 C1068.8919271469122 729.8256944656373 1069.7117191950488 729.0624130249021 1070.8355469385788 729.0624130249021 C1071.153559303284 729.0624130249021 1071.4786462783818 729.1189236323037 1071.5635416030887 729.1401474634806 L1071.5635416030887 727.9385852813718 C1071.4221356709804 727.9245223363239 1071.1111979166672 727.9174477259314 1070.9345052083336 727.9174477259314 C1070.0156686147056 727.9174477259314 1069.2099395116174 728.4404512405395 1068.927213923137 729.2037326812742 L1068.8494794845587 729.2037326812742 L1068.8494794845587 728.0375435511271 L1067.7045141855883 728.0375435511271 L1067.7045141855883 735.7484374999999 Z M1075.9596354802452 735.9109809875486 C1077.5286460240686 735.9109809875486 1078.6736113230395 735.1264757156371 1079.0340713500982 733.9602865854897 L1077.8891060511278 733.6422742207842 C1077.58515663147 734.4409287134804 1076.8925350189215 734.8437501271562 1075.9596354802452 734.8437501271562 C1074.5743059794113 734.8437501271562 1073.6131079991665 733.9461373647052 1073.556597391765 732.2923177719117 L1079.15425345103 732.2923177719117 L1079.15425345103 731.7905380884806 C1079.15425345103 728.9210070927936 1077.4509115854903 727.9385852813718 1075.839453379314 727.9385852813718 C1073.7545139312747 727.9385852813718 1072.3691844304408 729.5854165395101 1072.3691844304408 731.9530815760293 C1072.3691844304408 734.3207466125486 1073.7332901000982 735.9109809875486 1075.9596354802452 735.9109809875486 Z M1073.556597391765 731.2675345738726 C1073.6414064407354 730.0730470021563 1074.4894969304405 728.9987415313722 1075.839453379314 728.9987415313722 C1077.125824610393 728.9987415313722 1077.9526912689212 729.967014122009 1077.9526912689212 731.2675345738726 L1073.556597391765 731.2675345738726 Z M1082.7233943939214 734.3419704437251 L1081.4371094385788 734.3419704437251 L1081.3805125554409 734.9074216206866 C1081.2321182886767 736.2643664042153 1080.9493927001959 737.6213974634804 1080.8151476542162 738.2575084686277 L1081.7198350270592 738.2575084686277 C1081.9601129531866 737.578949801127 1082.476041857402 736.0311630884805 1082.645659955343 734.8861977895101 L1082.7233943939214 734.3419704437251 Z M773.1648440043137 752.7109374999995 L774.4087675730394 752.7109374999995 L774.4087675730394 749.3749998728433 L775.6880641937263 747.9331597646076 L779.2642797470097 752.7109374999995 L780.7697050730393 752.7109374999995 L776.4513456344611 747.0709200541178 L780.7697050730393 742.427387364705 L779.144097646078 742.427387364705 L774.5289496739712 747.5303383509317 L774.4087675730394 747.5303383509317 L774.4087675730394 742.427387364705 L773.1648440043137 742.427387364705 L773.1648440043137 752.7109374999995 Z M784.791275978089 752.8734809875486 C786.8762154261277 752.8734809875486 788.282682482402 751.2832466125487 788.282682482402 748.8943577448524 C788.282682482402 746.4842450459798 786.8762154261277 744.9010852813719 784.791275978089 744.9010852813719 C782.6991756439214 744.9010852813719 781.2927085876471 746.4842450459798 781.2927085876471 748.8943577448524 C781.2927085876471 751.2832466125487 782.6991756439214 752.8734809875486 784.791275978089 752.8734809875486 Z M784.791275978089 751.8062501271563 C783.2010416030888 751.8062501271563 782.4801215489712 750.4422307332354 782.4801215489712 748.8943577448524 C782.4801215489712 747.3465710322062 783.2010416030888 745.9612415313718 784.791275978089 745.9612415313718 C786.3744357426966 745.9612415313718 787.095269521078 747.3465710322062 787.095269521078 748.8943577448524 C787.095269521078 750.4422307332354 786.3744357426966 751.8062501271563 784.791275978089 751.8062501271563 Z M793.4421440760299 745.0000435511267 L791.7953128178921 745.0000435511267 L791.7953128178921 743.1553820292154 L790.6150607426968 743.1553820292154 L790.6150607426968 745.0000435511267 L789.4488716125494 745.0000435511267 L789.4488716125494 746.0036891937254 L790.6150607426968 746.0036891937254 L790.6150607426968 750.8238283157348 C790.6150607426968 752.1667101542153 791.6963545481368 752.8098957697548 792.7000001907353 752.8098957697548 C793.145269266765 752.8098957697548 793.4209202448534 752.7321613311765 793.583463732402 752.6684898376461 L793.3431858062748 751.608333587646 C793.24422753652 751.629557418823 793.0816840489712 751.6649304707842 792.8201822916673 751.6649304707842 C792.2971787770595 751.6649304707842 791.7953128178921 751.5094615936277 791.7953128178921 750.5058159510293 L791.7953128178921 746.0036891937254 L793.4421440760299 746.0036891937254 L793.4421440760299 745.0000435511267 Z M797.4919271469122 752.8947048187251 C798.8417973200486 752.8947048187251 799.5415798187263 752.1667101542153 799.7818577448533 751.6649304707842 L799.8454429626471 751.6649304707842 L799.8454429626471 752.7109374999995 L801.0257813135787 752.7109374999995 L801.0257813135787 747.6292966206865 C801.0257813135787 745.1838108698523 799.1598959604904 744.9010852813719 798.1774741490686 744.9010852813719 C797.0112850189215 744.9010852813719 795.6896270116175 745.3039929707845 795.0818144480392 746.7104600270586 L796.2126305262253 747.1062068303424 C796.467057673137 746.5479165395097 797.0890194574996 745.9471785863241 798.2199218114223 745.9471785863241 C799.3082902272548 745.9471785863241 799.8454429626471 746.519618097941 799.8454429626471 747.5091145197548 L799.8454429626471 747.5514759063719 C799.8454429626471 748.1240016937254 799.2588542302454 748.0744794209795 797.8523871739711 748.2511721293131 C796.4246962865199 748.4420140584307 794.8627603530889 748.7530380884803 794.8627603530889 750.5199651718135 C794.8627603530889 752.0253904978433 796.0288632074997 752.8947048187251 797.4919271469122 752.8947048187251 Z M797.6756944656378 751.827473958333 C796.7285594304409 751.827473958333 796.0500870386765 751.4034287134803 796.0500870386765 750.5835503896076 C796.0500870386765 749.6788630167641 796.8699653625494 749.3962237040198 797.7957902908332 749.2760416030883 C798.2976562500006 749.2195309956867 799.6404518127446 749.078125063578 799.8454429626471 748.8378471374508 L799.8454429626471 749.9192272186278 C799.8454429626471 750.8804251988727 799.0821615219123 751.827473958333 797.6756944656378 751.827473958333 Z M810.4965277353928 752.7109374999995 C813.6345488230392 752.7109374999995 815.4014759063726 750.7602430979407 815.4014759063726 747.5514759063719 C815.4014759063726 744.3569442113237 813.6345488230392 742.427387364705 810.6378473917649 742.427387364705 L807.3230473200484 742.427387364705 L807.3230473200484 752.7109374999995 L810.4965277353928 752.7109374999995 Z M808.5740454991663 751.608333587646 L808.5740454991663 743.537065887451 L810.5601129531866 743.537065887451 C812.9702256520594 743.537065887451 814.1929253896084 745.0637150446573 814.1929253896084 747.5514759063719 C814.1929253896084 750.0605468749995 812.9702256520594 751.608333587646 810.4187070210779 751.608333587646 L808.5740454991663 751.608333587646 Z M820.5609375000007 752.8734809875486 C822.1228734334314 752.8734809875486 823.2678387324021 752.0889757156369 823.628298759461 750.9227865854898 L822.4833334604906 750.6047742207843 C822.1864586512253 751.4034287134803 821.4867624282841 751.8062501271563 820.5609375000007 751.8062501271563 C819.1685333887741 751.8062501271563 818.2073354085293 750.9086373647051 818.1508248011277 749.2548177719113 L823.7484808603928 749.2548177719113 L823.7484808603928 748.7530380884803 C823.7484808603928 745.8835070927935 822.0451389948531 744.9010852813719 820.4407553990687 744.9010852813719 C818.3487413406377 744.9010852813719 816.9634118398036 746.5479165395097 816.9634118398036 748.9155815760294 C816.9634118398036 751.2832466125487 818.327517509461 752.8734809875486 820.5609375000007 752.8734809875486 Z M818.1508248011277 748.2300345738729 C818.2356338500982 747.0355470021566 819.0837243398036 745.9612415313718 820.4407553990687 745.9612415313718 C821.7200520197556 745.9612415313718 822.5469186782842 746.9295141220091 822.5469186782842 748.2300345738729 L818.1508248011277 748.2300345738729 Z M825.5506947199509 755.6016060511267 L826.738107681275 755.6016060511267 L826.738107681275 751.5235245386757 L826.83706595103 751.5235245386757 C827.0985677083339 751.9476560592648 827.600347391765 752.8734809875486 829.0845488866177 752.8734809875486 C831.0140194574998 752.8734809875486 832.3569012959803 751.3256942749022 832.3569012959803 748.8731339136757 C832.3569012959803 746.4489582697549 831.0140194574998 744.9010852813719 829.0633250554407 744.9010852813719 C827.5578997294114 744.9010852813719 827.0985677083339 745.8269964853919 826.83706595103 746.2227432886757 L826.6956600189213 746.2227432886757 L826.6956600189213 745.0000435511267 L825.5506947199509 745.0000435511267 L825.5506947199509 755.6016060511267 Z M826.7168838500983 748.8590709686277 C826.7168838500983 747.1274306615194 827.480165290833 745.9612415313718 828.929080009461 745.9612415313718 C830.4345053354906 745.9612415313718 831.1765629450484 747.226388931274 831.1765629450484 748.8590709686277 C831.1765629450484 750.5058159510293 830.4132815043137 751.8062501271563 828.929080009461 751.8062501271563 C827.50138912201 751.8062501271563 826.7168838500983 750.6047742207843 826.7168838500983 748.8590709686277 Z M837.2972225189213 752.8734809875486 C839.3893228530891 752.8734809875486 840.7957899093634 751.2832466125487 840.7957899093634 748.8943577448524 C840.7957899093634 746.4842450459798 839.3893228530891 744.9010852813719 837.2972225189213 744.9010852813719 C835.2122830708828 744.9010852813719 833.8058160146082 746.4842450459798 833.8058160146082 748.8943577448524 C833.8058160146082 751.2832466125487 835.2122830708828 752.8734809875486 837.2972225189213 752.8734809875486 Z M837.2972225189213 751.8062501271563 C835.7140627543137 751.8062501271563 834.993142700196 750.4422307332354 834.993142700196 748.8943577448524 C834.993142700196 747.3465710322062 835.7140627543137 745.9612415313718 837.2972225189213 745.9612415313718 C838.8874568939212 745.9612415313718 839.6083769480393 747.3465710322062 839.6083769480393 748.8943577448524 C839.6083769480393 750.4422307332354 838.8874568939212 751.8062501271563 837.2972225189213 751.8062501271563 Z M842.5980037689213 752.7109374999995 L843.7854167302454 752.7109374999995 L843.7854167302454 749.827343559265 L844.612283388774 749.0569012324013 L847.5030382156377 752.7109374999995 L849.0084635416671 752.7109374999995 L845.5098961512255 748.2936197916663 L848.7680993398036 745.0000435511267 L847.2980470657352 745.0000435511267 L843.9267363866176 748.4349394480387 L843.7854167302454 748.4349394480387 L843.7854167302454 742.427387364705 L842.5980037689213 742.427387364705 L842.5980037689213 752.7109374999995 Z M852.0546009699509 751.3044704437252 L850.7753906250003 751.3044704437252 L850.7117191314704 751.8699216206867 C850.563324864706 753.2268664042151 850.2805992762252 754.5838974634805 850.1463542302455 755.2200084686278 L851.0510416030887 755.2200084686278 C851.2913195292159 754.5414498011269 851.8072484334315 752.9936630884804 851.9768665313726 751.8486977895097 L852.0546009699509 751.3044704437252 Z M858.3448786417649 742.427387364705 L858.3448786417649 749.7778212865192 C858.3448786417649 751.057117907206 857.7370660781866 751.7497395197549 856.6627606074022 751.7497395197549 C855.6803387959804 751.7497395197549 854.9735679626468 751.1772137324012 854.9735679626468 750.3008248011267 L853.7508682250981 750.3008248011267 C853.7508682250981 751.8839845657344 854.9735679626468 752.8522571563717 856.6627606074022 752.8522571563717 C858.450911521912 752.8522571563717 859.5958768208826 751.7497395197549 859.5958768208826 749.7778212865192 L859.5958768208826 742.427387364705 L858.3448786417649 742.427387364705 Z M864.1969618479417 752.8947048187251 C865.5398436864222 752.8947048187251 866.2466145197556 752.1667101542153 866.4868924458827 751.6649304707842 L866.5434030532841 751.6649304707842 L866.5434030532841 752.7109374999995 L867.7308160146082 752.7109374999995 L867.7308160146082 747.6292966206865 C867.7308160146082 745.1838108698523 865.8649306615199 744.9010852813719 864.8754342397059 744.9010852813719 C863.7163197199508 744.9010852813719 862.3875871022548 745.3039929707845 861.7868491490686 746.7104600270586 L862.9105906168626 747.1062068303424 C863.1720923741665 746.5479165395097 863.7869795481369 745.9471785863241 864.9178819020595 745.9471785863241 C866.0062503178921 745.9471785863241 866.5434030532841 746.519618097941 866.5434030532841 747.5091145197548 L866.5434030532841 747.5514759063719 C866.5434030532841 748.1240016937254 865.9638889312749 748.0744794209795 864.5574218750006 748.2511721293131 C863.1297309875494 748.4420140584307 861.5677087783819 748.7530380884803 861.5677087783819 750.5199651718135 C861.5677087783819 752.0253904978433 862.726823298137 752.8947048187251 864.1969618479417 752.8947048187251 Z M864.373654556275 751.827473958333 C863.4335941314702 751.827473958333 862.7480471293137 751.4034287134803 862.7480471293137 750.5835503896076 C862.7480471293137 749.6788630167641 863.5750000635788 749.3962237040198 864.4937503814702 749.2760416030883 C864.9956163406376 749.2195309956867 866.3454865137741 749.078125063578 866.5434030532841 748.8378471374508 L866.5434030532841 749.9192272186278 C866.5434030532841 750.8804251988727 865.7801216125494 751.827473958333 864.373654556275 751.827473958333 Z M871.639193153382 752.7109374999995 L872.8053822835292 752.7109374999995 L874.4875003178919 746.7881944656369 L874.6076824188239 746.7881944656369 L876.2968750635788 752.7109374999995 L877.4630641937262 752.7109374999995 L879.8095053990688 745.0000435511267 L878.5655818303431 745.0000435511267 L876.8976130167649 750.8804251988727 L876.8198785781866 750.8804251988727 L875.1942711512253 745.0000435511267 L873.9292100270594 745.0000435511267 L872.2823787689216 750.9015627543129 L872.1975697199508 750.9015627543129 L870.5366755167648 745.0000435511267 L869.2927519480392 745.0000435511267 L871.639193153382 752.7109374999995 Z M883.6473089853929 752.8947048187251 C884.9901045481369 752.8947048187251 885.6968753814702 752.1667101542153 885.937239583334 751.6649304707842 L885.9937501907356 751.6649304707842 L885.9937501907356 752.7109374999995 L887.1811631520596 752.7109374999995 L887.1811631520596 747.6292966206865 C887.1811631520596 745.1838108698523 885.3152777989711 744.9010852813719 884.3257813771571 744.9010852813719 C883.166666857402 744.9010852813719 881.837934239706 745.3039929707845 881.2371962865201 746.7104600270586 L882.3609377543138 747.1062068303424 C882.6224395116175 746.5479165395097 883.2373266855881 745.9471785863241 884.3681427637742 745.9471785863241 C885.4565974553431 745.9471785863241 885.9937501907356 746.519618097941 885.9937501907356 747.5091145197548 L885.9937501907356 747.5514759063719 C885.9937501907356 748.1240016937254 885.4142360687262 748.0744794209795 884.0076827367153 748.2511721293131 C882.5800781250006 748.4420140584307 881.0180559158331 748.7530380884803 881.0180559158331 750.5199651718135 C881.0180559158331 752.0253904978433 882.1771704355882 752.8947048187251 883.6473089853929 752.8947048187251 Z M883.824001693726 751.827473958333 C882.8839412689216 751.827473958333 882.1983942667649 751.4034287134803 882.1983942667649 750.5835503896076 C882.1983942667649 749.6788630167641 883.0253472010301 749.3962237040198 883.9440975189215 749.2760416030883 C884.4459634780891 749.2195309956867 885.7958336512253 749.078125063578 885.9937501907356 748.8378471374508 L885.9937501907356 749.9192272186278 C885.9937501907356 750.8804251988727 885.2304687500006 751.827473958333 883.824001693726 751.827473958333 Z M893.4784291585294 752.7109374999995 L897.1960506439215 752.7109374999995 C899.6203125635788 752.7109374999995 900.6238719304407 751.5235245386757 900.6238719304407 749.9828124364215 C900.6238719304407 748.3572050094604 899.500130462647 747.4737414677936 898.5601563135789 747.4101562499995 L898.5601563135789 747.311197980245 C899.4436198552454 747.0709200541178 900.2210505167649 746.4842450459798 900.2210505167649 745.1625870386758 C900.2210505167649 743.657161712646 899.2174048741664 742.427387364705 897.0688802083338 742.427387364705 L893.4784291585294 742.427387364705 L893.4784291585294 752.7109374999995 Z M894.7223527272548 751.608333587646 L894.7223527272548 748.0321180343626 L897.2526475270594 748.0321180343626 C898.5954430898038 748.0321180343626 899.4436198552454 748.9368054072058 899.4436198552454 749.9828124364215 C899.4436198552454 750.8804251988727 898.8216580708828 751.608333587646 897.1960506439215 751.608333587646 L894.7223527272548 751.608333587646 Z M894.7223527272548 746.9507379531856 L894.7223527272548 743.537065887451 L897.0688802083338 743.537065887451 C898.4399742126469 743.537065887451 899.040712165833 744.2579859415689 899.040712165833 745.1625870386758 C899.040712165833 746.2439671198526 898.1572486241663 746.9507379531856 897.0335071563726 746.9507379531856 L894.7223527272548 746.9507379531856 Z M904.7796878814703 752.8947048187251 C906.122569719951 752.8947048187251 906.8293405532844 752.1667101542153 907.0696184794114 751.6649304707842 L907.1262153625493 751.6649304707842 L907.1262153625493 752.7109374999995 L908.313542048137 752.7109374999995 L908.313542048137 747.6292966206865 C908.313542048137 745.1838108698523 906.4476566950485 744.9010852813719 905.4653211593635 744.9010852813719 C904.2991320292161 744.9010852813719 902.9703994115199 745.3039929707845 902.3696614583338 746.7104600270586 L903.4934029261277 747.1062068303424 C903.7549046834316 746.5479165395097 904.369791857402 745.9471785863241 905.5006079355882 745.9471785863241 C906.5890626271572 745.9471785863241 907.1262153625493 746.519618097941 907.1262153625493 747.5091145197548 L907.1262153625493 747.5514759063719 C907.1262153625493 748.1240016937254 906.5466149648038 748.0744794209795 905.140147908529 748.2511721293131 C903.7124570210782 748.4420140584307 902.150521087647 748.7530380884803 902.150521087647 750.5199651718135 C902.150521087647 752.0253904978433 903.3167102177941 752.8947048187251 904.7796878814703 752.8947048187251 Z M904.9634552001959 751.827473958333 C904.0164064407353 751.827473958333 903.3308594385788 751.4034287134803 903.3308594385788 750.5835503896076 C903.3308594385788 749.6788630167641 904.1577260971075 749.3962237040198 905.0836373011276 749.2760416030883 C905.5854169845587 749.2195309956867 906.9282988230392 749.078125063578 907.1262153625493 748.8378471374508 L907.1262153625493 749.9192272186278 C907.1262153625493 750.8804251988727 906.3628476460782 751.827473958333 904.9634552001959 751.827473958333 Z M910.4763022104904 752.7109374999995 L911.6636288960782 752.7109374999995 L911.6636288960782 747.8342014948523 C911.6636288960782 746.7881944656369 912.4835072199509 746.0249130249022 913.6072486877446 746.0249130249022 C913.9253473281866 746.0249130249022 914.2504343032841 746.0814236323038 914.3281687418624 746.1026474634803 L914.3281687418624 744.9010852813719 C914.1939236958825 744.8870223363238 913.882899665833 744.8799477259317 913.7062069574998 744.8799477259317 C912.7874566396082 744.8799477259317 911.98172753652 745.4029512405391 911.6990019480394 746.1662326812743 L911.6212675094611 746.1662326812743 L911.6212675094611 745.0000435511267 L910.4763022104904 745.0000435511267 L910.4763022104904 752.7109374999995 Z M918.0034288406376 752.8947048187251 C919.346224403382 752.8947048187251 920.0529952367152 752.1667101542153 920.2933594385789 751.6649304707842 L920.3569446563728 751.6649304707842 L920.3569446563728 752.7109374999995 L921.5372830073044 752.7109374999995 L921.5372830073044 747.6292966206865 C921.5372830073044 745.1838108698523 919.6713976542161 744.9010852813719 918.6889758427943 744.9010852813719 C917.5227867126472 744.9010852813719 916.194054094951 745.3039929707845 915.5933161417648 746.7104600270586 L916.7170576095585 747.1062068303424 C916.9785593668624 746.5479165395097 917.6005211512253 745.9471785863241 918.7243488947555 745.9471785863241 C919.8197919209803 745.9471785863241 920.3569446563728 746.519618097941 920.3569446563728 747.5091145197548 L920.3569446563728 747.5514759063719 C920.3569446563728 748.1240016937254 919.7703559239709 748.0744794209795 918.3638888676966 748.2511721293131 C916.9361979802453 748.4420140584307 915.3741757710778 748.7530380884803 915.3741757710778 750.5199651718135 C915.3741757710778 752.0253904978433 916.5403649012254 752.8947048187251 918.0034288406376 752.8947048187251 Z M918.1871961593632 751.827473958333 C917.2400611241666 751.827473958333 916.5615887324021 751.4034287134803 916.5615887324021 750.5835503896076 C916.5615887324021 749.6788630167641 917.381467056275 749.3962237040198 918.3072919845587 749.2760416030883 C918.8091579437263 749.2195309956867 920.1519535064702 749.078125063578 920.3569446563728 748.8378471374508 L920.3569446563728 749.9192272186278 C920.3569446563728 750.8804251988727 919.5936632156378 751.827473958333 918.1871961593632 751.827473958333 Z M927.0500437418626 745.0000435511267 L925.4103733698533 745.0000435511267 L925.4103733698533 743.1553820292154 L924.2229604085293 743.1553820292154 L924.2229604085293 745.0000435511267 L923.0567712783819 745.0000435511267 L923.0567712783819 746.0036891937254 L924.2229604085293 746.0036891937254 L924.2229604085293 750.8238283157348 C924.2229604085293 752.1667101542153 925.3043404897059 752.8098957697548 926.3079861323043 752.8098957697548 C926.753255208334 752.8098957697548 927.0358945210779 752.7321613311765 927.1914496739711 752.6684898376461 L926.9510854721074 751.608333587646 C926.8522134780891 751.629557418823 926.6895837148037 751.6649304707842 926.4280819574998 751.6649304707842 C925.9121530532842 751.6649304707842 925.4103733698533 751.5094615936277 925.4103733698533 750.5058159510293 L925.4103733698533 746.0036891937254 L927.0500437418626 746.0036891937254 L927.0500437418626 745.0000435511267 Z M936.407682673137 742.427387364705 L935.1567707697556 742.427387364705 L932.5911891937261 744.1378038406369 L932.5911891937261 745.4029512405391 L935.1001738866177 743.7349824269611 L935.1567707697556 743.7349824269611 L935.1567707697556 752.7109374999995 L936.407682673137 752.7109374999995 L936.407682673137 742.427387364705 Z M942.7756947835293 752.8522571563717 C944.8536458969121 752.8734809875486 946.210590680441 751.3115450541175 946.210590680441 749.3962237040198 C946.210590680441 747.4101562499995 944.7405384063726 745.9824653625487 942.9736113230393 745.9824653625487 C941.9134550730392 745.9824653625487 941.0087677001958 746.4983942667641 940.4434027989711 747.3465710322062 L940.3656683603928 747.3465710322062 C940.3726566950485 744.8445746739706 941.3410155614221 743.3956599553424 942.9382382710779 743.3956599553424 C944.019618352255 743.3956599553424 944.6698785781865 744.0742186228433 944.9030818939215 745.0000435511267 L946.1257816314702 745.0000435511267 C945.878429094951 743.4027345657346 944.6628039677945 742.2931423187251 942.9382382710779 742.2931423187251 C940.6200955073044 742.2931423187251 939.1994792302454 744.335720380147 939.1994792302454 747.975607426961 C939.1994792302454 751.7709633509314 941.0865021387741 752.8311196009315 942.7756947835293 752.8522571563717 Z M942.7756947835293 751.7497395197549 C941.4823352177942 751.7497395197549 940.5423610687261 750.6471356074014 940.5493494033818 749.41736125946 C940.5493494033818 748.187586911519 941.5388458251958 747.0921438852945 942.8181424458827 747.0921438852945 C944.0762152353929 747.0921438852945 945.0020401636765 748.1240016937254 945.0020401636765 749.3962237040198 C945.0020401636765 750.7037324905391 944.0337675730392 751.7497395197549 942.7756947835293 751.7497395197549 Z M951.3983507156378 752.8522571563717 C953.3561197280889 752.8522571563717 954.7907989501958 751.4034287134803 954.7907989501958 749.4385850906369 C954.7907989501958 747.445529301961 953.4055557250982 745.9824653625487 951.518446540833 745.9824653625487 C950.8258249282843 745.9824653625487 950.1473525365201 746.2298178990679 949.7303819020595 746.5691403706867 L949.6667104085292 746.5691403706867 L950.0271704355881 743.537065887451 L954.3243923187262 743.537065887451 L954.3243923187262 742.427387364705 L948.988238016765 742.427387364705 L948.3662762324021 747.4878906885781 L949.525390752157 747.6292966206865 C949.956510607402 747.3253472010292 950.6845052719121 747.1062068303424 951.3135416666672 747.1062068303424 C952.6281250635788 747.1203560511269 953.5822484334313 748.1098524729407 953.5822484334313 749.4598089218139 C953.5822484334313 750.7814669291176 952.6634118398034 751.7497395197549 951.3983507156378 751.7497395197549 C950.3381944656377 751.7497395197549 949.5041669209805 751.0712671279903 949.4052086512253 750.1382813135781 L948.2037327448533 750.1382813135781 C948.2814671834313 751.7072918574013 949.6314236323045 752.8522571563717 951.3983507156378 752.8522571563717 Z M960.3955296198532 742.427387364705 L959.1516060511277 742.427387364705 L956.578949864706 744.1378038406369 L956.578949864706 745.4029512405391 L959.0950954437261 743.7349824269611 L959.1516060511277 743.7349824269611 L959.1516060511277 752.7109374999995 L960.3955296198532 752.7109374999995 L960.3955296198532 742.427387364705 Z M963.109505462647 750.6047742207843 L967.950868415833 750.6047742207843 L967.950868415833 752.7109374999995 L969.1382813771571 752.7109374999995 L969.1382813771571 750.6047742207843 L970.5447484334314 750.6047742207843 L970.5447484334314 749.4950956980385 L969.1382813771571 749.4950956980385 L969.1382813771571 742.427387364705 L967.6328560511278 742.427387364705 L963.109505462647 749.5799047470091 L963.109505462647 750.6047742207843 Z M967.950868415833 749.4950956980385 L964.4594619115197 749.4950956980385 L964.4594619115197 749.41736125946 L967.873133977255 744.0176217397054 L967.950868415833 744.0176217397054 L967.950868415833 749.4950956980385 Z "></path>
    </defs>
    <g>
      <use xmlns:xlink="http://www.w3.org/1999/xlink" xlink:href="#s-Path_65-8264f" fill="#000000" fill-opacity="1.0" filter="none"></use>
    </g>
  </g>
</svg>
