<?xml version="1.0" encoding="UTF-8"?>
<svg xmlns="http://www.w3.org/2000/svg" width="236.400634765625" height="19.407958984375" viewBox="735.7484375000009 689.1015625 236.400634765625 19.407958984375" preserveAspectRatio="none">
  <g>
    <defs>
      <path id="s-Path_63-8264f" d="M746.660937754314 694.3062325795491 L748.8307725270598 694.3062325795491 C748.7318142573048 691.5137889544168 746.1591580708829 689.426692612966 742.5758679072072 689.426692612966 C739.034939130148 689.426692612966 736.257291793824 691.4869140625 736.257291793824 694.5952994346617 C736.257291793824 697.0887976328531 738.0595919291187 698.5708853721617 740.9502604802457 699.4020226796467 L743.2260418574025 700.0522829055784 C745.1838108698536 700.5943533579507 746.9153649012256 701.2813239097594 746.9153649012256 703.1246050198871 C746.9153649012256 705.1488063494362 744.9647567749033 706.4859939893086 742.3991751988739 706.4859939893086 C740.1940536499031 706.4859939893086 738.2433592478443 705.5099565823872 738.0595919291187 703.4136718749999 L735.7484375000009 703.4136718749999 C735.9674915949512 706.4492405255634 738.4200519561779 708.5095051129657 742.3991751988739 708.5095051129657 C746.660937754314 708.5095051129657 749.0851996739713 706.1601736704506 749.0851996739713 703.1606682777403 C749.0851996739713 699.6910895347595 745.7986980438242 698.5708853721617 743.876302083334 698.0648350397746 L742.0033421198535 697.5587847073872 C740.6251735051482 697.1976344744363 738.4200519561779 696.4746006647744 738.4200519561779 694.4864625930785 C738.4200519561779 692.715998204549 740.0455731074024 691.4148306846619 742.5051218032846 691.4148306846619 C744.7456164042163 691.4148306846619 746.448958269756 692.480637995402 746.660937754314 694.3062325795491 Z M762.888454755148 694.3062325795491 L765.0582032521576 694.3062325795491 C764.9592449824025 691.5137889544168 762.3795141855884 689.426692612966 758.8032986323047 689.426692612966 C755.262369855246 689.426692612966 752.4777341842661 691.4869140625 752.4777341842661 694.5952994346617 C752.4777341842661 697.0887976328531 754.2870226542165 698.5708853721617 757.1776912053436 699.4020226796467 L759.4535588582368 700.0522829055784 C761.4041669845591 700.5943533579507 763.1428819020599 701.2813239097594 763.1428819020599 703.1246050198871 C763.1428819020599 705.1488063494362 761.1921875000008 706.4859939893086 758.6266059239716 706.4859939893086 C756.4214843750011 706.4859939893086 754.4637153625498 705.5099565823872 754.2870226542165 703.4136718749999 L751.9758682250985 703.4136718749999 C752.1879339853932 706.4492405255634 754.6474826812754 708.5095051129657 758.6266059239716 708.5095051129657 C762.888454755148 708.5095051129657 765.3126303990692 706.1601736704506 765.3126303990692 703.1606682777403 C765.3126303990692 699.6910895347595 762.019140434266 698.5708853721617 760.103732808432 698.0648350397746 L758.223698234559 697.5587847073872 C756.8526042302457 697.1976344744363 754.6474826812754 696.4746006647744 754.6474826812754 694.4864625930785 C754.6474826812754 692.715998204549 756.2730901082367 691.4148306846619 758.7326388041187 691.4148306846619 C760.9730471293141 691.4148306846619 762.6693143844612 692.480637995402 762.888454755148 694.3062325795491 Z M781.646094004314 695.4625 L783.957248433432 695.4625 C783.2717014312753 691.8848177591959 780.2679253896086 689.426692612966 776.3665365854907 689.426692612966 C771.62413190206 689.426692612966 768.274045054119 693.0771484374999 768.274045054119 698.9320356051126 C768.274045054119 704.7869227727252 771.5958334604908 708.4388021469115 776.5079425175992 708.4388021469115 C780.9181856155407 708.4388021469115 784.0632813135793 705.5007682164508 784.0632813135793 700.9201736768084 L784.0632813135793 698.9320356051126 L777.0167968114228 698.9320356051126 L777.0167968114228 700.9201736768084 L781.8935328165702 700.9201736768084 C781.8298613230396 704.244852320353 779.645963605246 706.3411370277403 776.5079425175992 706.3411370277403 C773.0800349553436 706.3411370277403 770.4367189407357 703.7388019879656 770.4367189407357 698.9320356051126 C770.4367189407357 694.1252692222596 773.0800349553436 691.5229773203532 776.3665365854907 691.5229773203532 C779.0381510416677 691.5229773203532 780.8545141220101 693.0318968137105 781.646094004314 695.4625 Z M795.0606768925994 708.1843749999997 L801.746701367697 708.1843749999997 C806.1144968032846 708.1843749999997 807.9238715489715 706.0520270347595 807.9238715489715 703.2687717755634 C807.9238715489715 700.3413497606912 805.9025173187264 698.7511153856913 804.199175453187 698.6429687499998 L804.199175453187 698.4620485305785 C805.7894098281871 698.0287717819214 807.2029514948539 696.9806509971618 807.2029514948539 694.5952994346617 C807.2029514948539 691.8848177591959 805.3936630249033 689.6796962102255 801.5275609970103 689.6796962102255 L795.0606768925994 689.6796962102255 L795.0606768925994 708.1843749999997 Z M797.3010852177948 706.1969271341958 L797.3010852177948 699.7632160504656 L801.8527342478443 699.7632160504656 C804.2769098917655 699.7632160504656 805.7894098281871 701.3894705454508 805.7894098281871 703.2687717755634 C805.7894098281871 704.8957596143084 804.6727429707854 706.1969271341958 801.746701367697 706.1969271341958 L797.3010852177948 706.1969271341958 Z M797.3010852177948 697.8117883046467 L797.3010852177948 691.6678342819214 L801.5275609970103 691.6678342819214 C803.9871096928924 691.6678342819214 805.0684897740692 692.9690018018085 805.0684897740692 694.5952994346617 C805.0684897740692 696.5466840426126 803.4782553990691 697.8117883046467 801.4569011688242 697.8117883046467 L797.3010852177948 697.8117883046467 Z M815.4014759063729 708.5095051129657 C817.8257378260304 708.5095051129657 819.090885225933 707.2090277989703 819.5220050811776 706.305073769887 L819.6279516855888 706.305073769887 L819.6279516855888 708.1843749999997 L821.7624134063732 708.1843749999997 L821.7624134063732 699.040182240804 C821.7624134063732 694.6313195546467 818.3981773376476 694.1252692222596 816.6312502543141 694.1252692222596 C814.5321615854908 694.1252692222596 812.1503473281872 694.8483030319212 811.0618926366179 697.3778644879659 L813.0903214772553 698.1008551597595 C813.5568143844615 697.0887976328531 814.6735675175995 696.0046135902403 816.7019963582367 696.0046135902403 C818.6667537053437 696.0046135902403 819.6279516855888 697.0435460090637 819.6279516855888 698.8238889694212 L819.6279516855888 698.8959723472593 C819.6279516855888 699.9257595380146 818.5819446563731 699.8359896341958 816.0517361323049 700.1611197471618 C813.4790799458832 700.4953950881957 810.6661458333343 701.0643835703531 810.6661458333343 704.244852320353 C810.6661458333343 706.9546006520587 812.7652345021576 708.5095051129657 815.4014759063729 708.5095051129657 Z M815.7266491572071 706.5941406249998 C814.03038190206 706.5941406249998 812.8006075541188 705.835086695353 812.8006075541188 704.3536891619364 C812.8006075541188 702.7267013231913 814.2848090489716 702.2206509908038 815.9457032521576 702.0043577194213 C816.8503906250011 701.895520877838 819.2675779342661 701.6425172805784 819.6279516855888 701.2092405319212 L819.6279516855888 703.1606682777403 C819.6279516855888 704.8957596143084 818.2568576812754 706.5941406249998 815.7266491572071 706.5941406249998 Z M830.893923632305 708.4741320610044 C833.572612698874 708.4741320610044 834.4701391855884 706.8132378578183 834.9437067031871 706.0520270347595 L835.1981338500988 706.0520270347595 L835.1981338500988 708.1843749999997 L837.2548611323049 708.1843749999997 L837.2548611323049 689.6796962102255 L835.1274740219127 689.6796962102255 L835.1274740219127 696.5106207847593 L834.9437067031871 696.5106207847593 C834.4701391855884 695.7876301129658 833.6432725270598 694.1252692222596 830.9292966842662 694.1252692222596 C827.4236546834319 694.1252692222596 825.0065536499031 696.9078342755635 825.0065536499031 701.2813239097594 C825.0065536499031 705.6908768018085 827.4236546834319 708.4741320610044 830.893923632305 708.4741320610044 Z M831.1837238311779 706.5580773671466 C828.5121093750012 706.5580773671466 827.1338544845593 704.2087890624997 827.1338544845593 701.2453037897744 C827.1338544845593 698.3178386370341 828.4767363230397 696.0406337102253 831.1837238311779 696.0406337102253 C833.784592183432 696.0406337102253 835.1628470738739 698.1369184176125 835.1628470738739 701.2453037897744 C835.1628470738739 704.3897092819213 833.7493054072071 706.5580773671466 831.1837238311779 706.5580773671466 Z M841.4601130803436 708.1843749999997 L843.587500190736 708.1843749999997 L843.587500190736 699.5101693153381 C843.587500190736 697.4775129636129 845.0717016855884 696.0406337102253 846.7326821645112 696.0406337102253 C848.3511287053435 696.0406337102253 849.4820310592662 697.0979859987893 849.4820310592662 698.679032007853 L849.4820310592662 708.1843749999997 L851.6517795562755 708.1843749999997 L851.6517795562755 699.1490190823872 C851.6517795562755 697.3601779619853 852.768446413677 696.0406337102253 854.7191408157358 696.0406337102253 C856.2387153625499 696.0406337102253 857.539149538677 696.8449392636616 857.539149538677 698.8959723472593 L857.539149538677 708.1843749999997 L859.6736112594616 708.1843749999997 L859.6736112594616 698.8959723472593 C859.6736112594616 695.6342318534851 857.9208333969126 694.1252692222596 855.447135480246 694.1252692222596 C853.4540796915702 694.1252692222596 852.0051649729422 695.037721411387 851.2913195292164 696.4746006647744 L851.1429252624522 696.4746006647744 C850.4572919845592 694.9925129254659 849.2487414677947 694.1252692222596 847.4182291666679 694.1252692222596 C845.6159290313732 694.1252692222596 844.2801218032847 694.9925129254659 843.7006076812755 696.4746006647744 L843.5168403625499 696.4746006647744 L843.5168403625499 694.3062325795491 L841.4601130803436 694.3062325795491 L841.4601130803436 708.1843749999997 Z M863.5750000635793 708.1843749999997 L865.7023871739715 708.1843749999997 L865.7023871739715 694.3062325795491 L863.5750000635793 694.3062325795491 L863.5750000635793 708.1843749999997 Z M864.6563801447561 691.9929643948873 C865.490321413677 691.9929643948873 866.1759546915702 691.3420139630636 866.1759546915702 690.5468967755635 C866.1759546915702 689.7517795880634 865.490321413677 689.1015625 864.6563801447561 689.1015625 C863.8223526000987 689.1015625 863.1368055979423 689.7517795880634 863.1368055979423 690.5468967755635 C863.1368055979423 691.3420139630636 863.8223526000987 691.9929643948873 864.6563801447561 691.9929643948873 Z M871.7453123092663 699.8359896341958 C871.7453123092663 697.4138846079509 873.2436630249034 696.0406337102253 875.2861548105888 696.0406337102253 C877.2651476542165 696.0406337102253 878.4666235605888 697.3326128641762 878.4666235605888 699.5101693153381 L878.4666235605888 708.1843749999997 L880.5940106709808 708.1843749999997 L880.5940106709808 699.3660025596618 C880.5940106709808 695.8236502329506 878.7069877624523 694.1252692222596 875.9010419845591 694.1252692222596 C873.8019533157359 694.1252692222596 872.5015191396088 695.0652865091957 871.8512589136768 696.4746006647744 L871.6674915949512 696.4746006647744 L871.6674915949512 694.3062325795491 L869.6108505884819 694.3062325795491 L869.6108505884819 708.1843749999997 L871.7453123092663 708.1843749999997 L871.7453123092663 699.8359896341958 Z M890.531250000001 694.3062325795491 L887.5627607345594 694.3062325795491 L887.5627607345594 690.9808637301127 L885.4354598999033 690.9808637301127 L885.4354598999033 694.3062325795491 L883.3362849553436 694.3062325795491 L883.3362849553436 696.1127170880634 L885.4354598999033 696.1127170880634 L885.4354598999033 704.7869227727252 C885.4354598999033 707.2090277989703 887.3860680262256 708.3681423187253 889.1954427719128 708.3681423187253 C889.9870226542167 708.3681423187253 890.4958769480396 708.2197049140929 890.7856771469127 708.1137151718137 L890.3474826812754 706.1969271341958 C890.1707899729423 706.232990392049 889.8809897740695 706.305073769887 889.4075085322071 706.305073769887 C888.4674481074027 706.305073769887 887.5627607345594 706.0160069147745 887.5627607345594 704.2087890624997 L887.5627607345594 696.1127170880634 L890.531250000001 696.1127170880634 L890.531250000001 694.3062325795491 Z M899.2244794845591 708.4741320610044 C902.9845486323051 708.4741320610044 905.5147571563733 705.6181032180783 905.5147571563733 701.3173871676127 C905.5147571563733 696.9806509971618 902.9845486323051 694.1252692222596 899.2244794845591 694.1252692222596 C895.4644966125499 694.1252692222596 892.9342880884818 696.9806509971618 892.9342880884818 701.3173871676127 C892.9342880884818 705.6181032180783 895.4644966125499 708.4741320610044 899.2244794845591 708.4741320610044 Z M899.2244794845591 706.5580773671466 C896.3691839853933 706.5580773671466 895.0687498092665 704.1006424268086 895.0687498092665 701.3173871676127 C895.0687498092665 698.5348221143087 896.3691839853933 696.0406337102253 899.2244794845591 696.0406337102253 C902.0798612594616 696.0406337102253 903.3802954355887 698.5348221143087 903.3802954355887 701.3173871676127 C903.3802954355887 704.1006424268086 902.0798612594616 706.5580773671466 899.2244794845591 706.5580773671466 Z M910.9003474553439 699.8359896341958 C910.9003474553439 697.4138846079509 912.398698170981 696.0406337102253 914.4412762324029 696.0406337102253 C916.4202690760306 696.0406337102253 917.6217449824027 697.3326128641762 917.6217449824027 699.5101693153381 L917.6217449824027 708.1843749999997 L919.7562067031871 708.1843749999997 L919.7562067031871 699.3660025596618 C919.7562067031871 695.8236502329506 917.8690975189221 694.1252692222596 915.0561634063732 694.1252692222596 C912.9641493479422 694.1252692222596 911.6637151718149 695.0652865091957 911.0134549458834 696.4746006647744 L910.8296876271578 696.4746006647744 L910.8296876271578 694.3062325795491 L908.7658857345594 694.3062325795491 L908.7658857345594 708.1843749999997 L910.9003474553439 708.1843749999997 L910.9003474553439 699.8359896341958 Z M931.0999130884817 708.1843749999997 L933.3403214136771 708.1843749999997 L933.3403214136771 699.908073012034 L943.2069009145113 699.908073012034 L943.2069009145113 708.1843749999997 L945.4473092397067 708.1843749999997 L945.4473092397067 689.6796962102255 L943.2069009145113 689.6796962102255 L943.2069009145113 697.919934940338 L933.3403214136771 697.919934940338 L933.3403214136771 689.6796962102255 L931.0999130884817 689.6796962102255 L931.0999130884817 708.1843749999997 Z M953.730728975933 708.5095051129657 C956.1478300094617 708.5095051129657 957.4129774093641 707.2090277989703 957.8440972646089 706.305073769887 L957.9572047551486 706.305073769887 L957.9572047551486 708.1843749999997 L960.091666475933 708.1843749999997 L960.091666475933 699.040182240804 C960.091666475933 694.6313195546467 956.7274304072076 694.1252692222596 954.9534287134817 694.1252692222596 C952.8613283793144 694.1252692222596 950.4724395116183 694.8483030319212 949.391145706178 697.3778644879659 L951.4124999364229 698.1008551597595 C951.8859811782849 697.0887976328531 952.9956597010306 696.0046135902403 955.0311631520602 696.0046135902403 C956.9889321645113 696.0046135902403 957.9572047551486 697.0435460090637 957.9572047551486 698.8238889694212 L957.9572047551486 698.8959723472593 C957.9572047551486 699.9257595380146 956.9111977259332 699.8359896341958 954.3809029261284 700.1611197471618 C951.8011721293143 700.4953950881957 948.9953126271579 701.0643835703531 948.9953126271579 704.244852320353 C948.9953126271579 706.9546006520587 951.0873266855889 708.5095051129657 953.730728975933 708.5095051129657 Z M954.0558159510307 706.5941406249998 C952.352474085491 706.5941406249998 951.1226997375501 705.835086695353 951.1226997375501 704.3536891619364 C951.1226997375501 702.7267013231913 952.606901232403 702.2206509908038 954.2677954355887 702.0043577194213 C955.1724828084322 701.895520877838 957.5967447280897 701.6425172805784 957.9572047551486 701.2092405319212 L957.9572047551486 703.1606682777403 C957.9572047551486 704.8957596143084 956.586024475099 706.5941406249998 954.0558159510307 706.5941406249998 Z M966.1132815043144 689.6796962102255 L963.9789060592665 689.6796962102255 L963.9789060592665 708.1843749999997 L966.1132815043144 708.1843749999997 L966.1132815043144 689.6796962102255 Z M972.1491320292167 689.6796962102255 L970.0217449188245 689.6796962102255 L970.0217449188245 708.1843749999997 L972.1491320292167 708.1843749999997 L972.1491320292167 689.6796962102255 Z "></path>
    </defs>
    <g>
      <use xmlns:xlink="http://www.w3.org/1999/xlink" xlink:href="#s-Path_63-8264f" fill="#000000" fill-opacity="1.0" filter="none"></use>
    </g>
  </g>
</svg>
