<?xml version="1.0" encoding="UTF-8"?>
<svg xmlns="http://www.w3.org/2000/svg" width="300.17041015625" height="25.42034912109375" viewBox="526.5575572047833 415.5917364247148 300.17041015625 25.42034912109375" preserveAspectRatio="none">
  <g>
    <defs>
      <path id="s-Path_32-0a187" d="M526.5815856036929 440.60215054581465 L526.5815856036929 437.9036362452865 L534.9301816255712 429.25324008198663 C535.822165834287 428.3139324377163 536.5572105183472 427.4904960312758 537.1353588167083 426.78370736388683 C537.7213152662409 426.06846346097484 538.1595207889055 425.38993081025694 538.4485949380861 424.7474623273821 C538.7376690872666 424.10499384450713 538.8818394807245 423.4222335760277 538.8818394807245 422.6991815219442 C538.8818394807245 421.88001587222186 538.6896122894473 421.17322720483287 538.3036911823634 420.5788155197772 C537.9185034375445 419.9766388225065 537.3919493314562 419.51509512424013 536.7254524496715 419.19353734062713 C536.0589555678869 418.8641714058423 535.3083377204401 418.6994668689715 534.4729086840232 418.6994668689715 C533.589422849787 418.6994668689715 532.8183139978839 418.8804347925369 532.1595821283142 419.2415941384463 C531.5008502587447 419.6034437076638 530.9947871571126 420.1130442037494 530.6413928234181 420.7717760733191 C530.2879984897236 421.43050794288877 530.1113013228763 422.2016167947917 530.1113013228763 423.0851026290279 L526.5575572047833 423.0851026290279 C526.5575572047833 421.58317671082625 526.9031865262629 420.26994058944854 527.5937118069571 419.1454805428077 C528.2842802266081 418.0209773572104 529.2320431064015 417.14948415295066 530.4364396398997 416.53104406898524 C531.6415263967058 415.9048389728049 533.0112745514259 415.5917364247148 534.544993880752 415.5917364247148 C536.0949765967729 415.5917364247148 537.4604971337316 415.90061135504345 538.6408221293632 416.51905143900876 C539.8296454994746 417.12968337180234 540.7576507370767 417.9651124082194 541.4241476188613 419.0252954093029 C542.0906876396027 420.07702317486337 542.424281192149 421.2658465449747 542.424281192149 422.591075296329 C542.424281192149 423.5063545416899 542.2511214197552 424.4025663681672 541.9061823215837 425.2775538279237 C541.569051374584 426.15327464994505 540.9781770839817 427.1286464620583 540.1349830353498 428.20509284983655 C539.291788986718 429.2737310864428 538.1192290033013 430.570703821126 536.6173030850997 432.0966581382372 L531.7136115934347 437.2286409890222 L531.7136115934347 437.409565773631 L542.8215047059014 437.409565773631 L542.8215047059014 440.60215054581465 L526.5815856036929 440.60215054581465 Z M547.3873318883018 440.60215054581465 L547.3873318883018 437.9036362452865 L555.7366181334879 429.25324008198663 C556.627912118896 428.3139324377163 557.362956802956 427.4904960312758 557.941105101317 426.78370736388683 C558.5277517741579 426.06846346097484 558.9652670735145 425.38993081025694 559.254341222695 424.7474623273821 C559.5434153718754 424.10499384450713 559.6882759886413 423.4222335760277 559.6882759886413 422.6991815219442 C559.6882759886413 421.88001587222186 559.4953585740562 421.17322720483287 559.1101276902804 420.5788155197772 C558.7242497221532 419.9766388225065 558.1983858393729 419.51509512424013 557.5318889575883 419.19353734062713 C556.8653920758036 418.8641714058423 556.1140840050489 418.6994668689715 555.2786549686319 418.6994668689715 C554.3951691343957 418.6994668689715 553.6240602824928 418.8804347925369 552.9660186362312 419.2415941384463 C552.3072867666615 419.6034437076638 551.8012236650294 420.1130442037494 551.4478293313349 420.7717760733191 C551.0944349976404 421.43050794288877 550.9177378307932 422.2016167947917 550.9177378307932 423.0851026290279 L547.3633034893921 423.0851026290279 C547.3633034893921 421.58317671082625 547.7089328108716 420.26994058944854 548.399458091566 419.1454805428077 C549.090716734525 418.0209773572104 550.0377893910105 417.14948415295066 551.2428761478164 416.53104406898524 C552.4479629046226 415.9048389728049 553.8170208360348 415.5917364247148 555.3507401653609 415.5917364247148 C556.9014131046898 415.5917364247148 558.2669336416485 415.90061135504345 559.4472586372801 416.51905143900876 C560.6360820073916 417.12968337180234 561.5633970216855 417.9651124082194 562.2298939034702 419.0252954093029 C562.8971241475195 420.07702317486337 563.2300274767579 421.2658465449747 563.2300274767579 422.591075296329 C563.2300274767579 423.5063545416899 563.0575579276722 424.4025663681672 562.7119286061926 425.2775538279237 C562.3747976591927 426.15327464994505 561.7846135918986 427.1286464620583 560.9414195432666 428.20509284983655 C560.0975352713268 429.2737310864428 558.9249752879101 430.570703821126 557.4230493697086 432.0966581382372 L552.5200481013516 437.2286409890222 L552.5200481013516 437.409565773631 L563.6279412138182 437.409565773631 L563.6279412138182 440.60215054581465 L547.3873318883018 440.60215054581465 Z M585.4966745316992 440.60215054581465 L577.5092809946872 440.60215054581465 L577.5092809946872 415.92886737171455 L585.7497276519937 415.92886737171455 C588.167623038864 415.92886737171455 590.2434696376652 416.42289470441347 591.9786478950128 417.410992508768 C593.713092790096 418.39059193864284 595.0425491592118 419.79994165565927 595.9663267790523 421.6389985208607 C596.8978694111079 423.470290373847 597.3636838660923 425.66701232946116 597.3636838660923 428.2291212487461 C597.3636838660923 430.799685403554 596.8936417933463 433.00839998914455 595.9543341490759 434.8552650055176 C595.0227915170203 436.702777106242 593.6735343667565 438.1241625921916 591.906562698284 439.1200254087612 C590.1395910298115 440.10812321311573 588.00296164095 440.60215054581465 585.4966745316992 440.60215054581465 Z M581.2319141284557 437.34951634583524 L585.2924115714887 437.34951634583524 C587.1717602222946 437.34951634583524 588.7337787072486 436.99612201214075 589.9784238873942 436.28933334475175 C591.2238024298047 435.5740463028832 592.1553450618601 434.5421624574276 592.7737851458255 433.1929053071635 C593.3922252297908 431.83584000572785 593.7011001601195 430.1812453195887 593.7011001601195 428.2291212487461 C593.7011001601195 426.29390764894936 593.3922252297908 424.6513487317435 592.7737851458255 423.30209158147954 C592.1631100740751 421.9528344312155 591.2520584464758 420.9286724590181 590.0392066774547 420.22969194280086 C588.8263549084337 419.5306682876269 587.3202013724706 419.18150157169396 585.5214362928737 419.18150157169396 L581.2319141284557 419.18150157169396 L581.2319141284557 437.34951634583524 Z M609.6794677675539 440.97534566065724 C607.8559409267823 440.97534566065724 606.2861574296134 440.5858871591199 604.968693690474 439.807013295002 C603.6597283258143 439.01964105640434 602.6476021225501 437.9156288752631 601.9330484429463 436.4942865282702 C601.2262597755573 435.0644458067975 600.8728654418628 433.38936011620217 600.8728654418628 431.4704530420569 C600.8728654418628 429.57484100455656 601.2262597755573 427.9039829317227 601.9330484429463 426.45861218582024 C602.6476021225501 425.0125080776529 603.6434649391197 423.88446749760203 604.9206368926547 423.07306686009474 C606.2055738584047 422.26170936154415 607.7074997766063 421.8559874733121 609.4264146472594 421.8559874733121 C610.4703342616482 421.8559874733121 611.4824604649124 422.029147245706 612.4621030337438 422.3740863438775 C613.4423926869266 422.71967252640025 614.3216509034014 423.26179979587516 615.1005247675193 424.0003818743887 C615.8801319939021 424.73969731516706 616.4943013211491 425.6994959638937 616.9438092504822 426.87986409848224 C617.39405054208 428.05242408189883 617.6188045067464 429.4779940466533 617.6188045067464 431.1566171317021 L617.6188045067464 432.433789085237 L602.9084202550595 432.433789085237 L602.9084202550595 429.7352747847092 L614.0891319265198 429.7352747847092 C614.0891319265198 428.7874687659589 613.896171372978 427.9485023350885 613.5102502658941 427.216995045482 C613.125062521075 426.47841296696834 612.5829352516001 425.89599391188915 611.8839115964262 425.4705143814656 C611.1933863157318 425.04503485104226 610.3819856782245 424.8322735163522 609.4504430461691 424.8322735163522 C608.4383168429049 424.8322735163522 607.5548310086687 425.0810558799283 606.7999855434604 425.5786637460375 C606.0529050904671 426.06846346097484 605.4747567921061 426.7116221671579 605.0655406483772 427.50675941797044 C604.6633561545988 428.2934414332601 604.4626305888419 429.14862811186833 604.4626305888419 430.07240573170895 L604.4626305888419 432.18077910389934 C604.4626305888419 433.4176592718301 604.6796195412934 434.47003412174195 605.1135974461965 435.33729970824015 C605.5553403633147 436.20452215578166 606.1695528295186 436.8674816431128 606.9569250681162 437.3254879469256 C607.7435639444491 437.7749958762587 608.6631139465281 437.9997498409251 609.7154887964399 437.9997498409251 C610.3982490649191 437.9997498409251 611.0209599056028 437.9036362452865 611.5828448172691 437.71067569174465 C612.1454630912002 437.50995012598787 612.6309920494194 437.21311096459226 613.0409415554128 436.8194248452935 C613.4501576991416 436.42573872599473 613.7632602472318 435.93947640551073 613.9802491996834 435.3613281071498 L617.3898229243185 435.97623079666164 C617.1170121618327 436.9798586254461 616.6271693079385 437.8591168419207 615.9203806405495 438.61465253043707 C615.2214001243324 439.36104276012236 614.3421419078576 439.94341867624485 613.2819589067741 440.3611331944534 C612.2295409179056 440.77108270044687 611.0287249178177 440.97534566065724 609.6794677675539 440.97534566065724 Z M629.4101481110006 440.97534566065724 C627.6191480436183 440.97534566065724 626.0769734787693 440.57035713468997 624.7842283618475 439.75895649718257 C623.4992913960976 438.9397908474605 622.511193591743 437.8110600441015 621.8206683110488 436.3734543104139 C621.1294528070464 434.93580543776955 620.7845137088749 433.2890189028021 620.7845137088749 431.4336986509061 C620.7845137088749 429.5543500001004 621.1379080425694 427.89621791950776 621.8446967099584 426.45861218582024 C622.5514853773474 425.0125080776529 623.547348193917 423.88446749760203 624.8322851596668 423.07306686009474 C626.1172221254168 422.26170936154415 627.6311838125516 421.8559874733121 629.3741270821143 421.8559874733121 C630.7799394046774 421.8559874733121 632.032349597038 422.11749582912967 633.1328243837258 422.6391320941484 C634.2332991704136 423.1529602079954 635.1210126224113 423.87601226207914 635.7953176553676 424.80755489413446 C636.4780347848902 425.73978774949796 636.8837566731222 426.8275365439447 637.0123970421502 428.072915086355 L633.5067097218764 428.072915086355 C633.3137491683345 427.2049592765487 632.8720062512164 426.45861218582024 632.1814809705221 425.8316737273751 C631.4987207020428 425.2054686311948 630.582751233374 424.8923660831048 629.4342196488669 424.8923660831048 C628.4305486811257 424.8923660831048 627.550600241343 425.1574118333756 626.7957547761347 425.68750333391733 C626.0486743231414 426.20909645997926 625.4669886303269 426.9561769129725 625.0492741121184 427.92801133063233 C624.63155959391 428.8920807360772 624.4223787926302 430.0321139461046 624.4223787926302 431.34957768524396 C624.4223787926302 432.6988348355079 624.6273319761485 433.8636298067097 625.0372814821419 434.84322923658453 C625.4464976258706 435.82356202872404 626.0246459242317 436.5819448883858 626.771726377225 437.12049162445055 C627.5265718424333 437.6583912761639 628.414285294431 437.9276646441963 629.4342196488669 437.9276646441963 C630.1169367783895 437.9276646441963 630.7353768623548 437.8032518929298 631.289539900763 437.5544695293537 C631.8521150357373 437.2971887912978 632.3214237462184 436.9318018276267 632.6995798410874 436.4575321371194 C633.0847675859065 435.98399580887656 633.3540409539388 435.41361252273055 633.5067097218764 434.74711564094594 L637.0123970421502 434.74711564094594 C636.8837566731222 435.9437040232723 636.4942981715849 437.0116520365707 635.8433744531869 437.95169304310593 C635.1930978191401 438.8917340496412 634.3216477538372 439.63031612815473 633.2296713416291 440.1681726409115 C632.1447265793712 440.70676251593284 630.8718253825544 440.97534566065724 629.4101481110006 440.97534566065724 Z M648.839804814247 440.97534566065724 C647.0169681967835 440.97534566065724 645.4464944763065 440.5858871591199 644.1290307371671 439.807013295002 C642.8200653725075 439.01964105640434 641.8079391692434 437.9156288752631 641.0933854896394 436.4942865282702 C640.3865968222505 435.0644458067975 640.033202488556 433.38936011620217 640.033202488556 431.4704530420569 C640.033202488556 429.57484100455656 640.3865968222505 427.9039829317227 641.0933854896394 426.45861218582024 C641.8079391692434 425.0125080776529 642.8038019858128 423.88446749760203 644.0809739393478 423.07306686009474 C645.3659109050978 422.26170936154415 646.8678368232994 421.8559874733121 648.5867516939526 421.8559874733121 C649.6314046706061 421.8559874733121 650.6427975116055 422.029147245706 651.623130303745 422.3740863438775 C652.6027297336198 422.71967252640025 653.4819879500945 423.26179979587516 654.2615520375205 424.0003818743887 C655.0404259016384 424.73969731516706 655.6546383678423 425.6994959638937 656.1048796594401 426.87986409848224 C656.5543875887731 428.05242408189883 656.7791415534397 429.4779940466533 656.7791415534397 431.1566171317021 L656.7791415534397 432.433789085237 L642.0694475250608 432.433789085237 L642.0694475250608 429.7352747847092 L653.2494258342563 429.7352747847092 C653.2494258342563 428.7874687659589 653.0565084196711 427.9485023350885 652.6712775358953 427.216995045482 C652.2853995677682 426.47841296696834 651.7432722982933 425.89599391188915 651.0449820053841 425.4705143814656 C650.3537233624251 425.04503485104226 649.5430560871824 424.8322735163522 648.6107800928621 424.8322735163522 C647.5993872518628 424.8322735163522 646.7159014176266 425.0810558799283 645.9603225901535 425.5786637460375 C645.213975499425 426.06846346097484 644.6350938387993 426.7116221671579 644.2258776950705 427.50675941797044 C643.8244265635567 428.2934414332601 643.6237009977998 429.14862811186833 643.6237009977998 430.07240573170895 L643.6237009977998 432.18077910389934 C643.6237009977998 433.4176592718301 643.8399565879866 434.47003412174195 644.2739344928898 435.33729970824015 C644.715677410008 436.20452215578166 645.3298898762118 436.8674816431128 646.1172189758527 437.3254879469256 C646.9045912144503 437.7749958762587 647.8241412165294 437.9997498409251 648.875825843133 437.9997498409251 C649.5585861116124 437.9997498409251 650.1812538133393 437.9036362452865 650.7431818639624 437.71067569174465 C651.3057569989367 437.50995012598787 651.7913290961126 437.21311096459226 652.2012786021061 436.8194248452935 C652.6104947458348 436.42573872599473 652.9243306561897 435.93947640551073 653.1405862463765 435.3613281071498 L656.5501599710117 435.97623079666164 C656.277306069569 436.9798586254461 655.7875063546317 437.8591168419207 655.0807176872427 438.61465253043707 C654.3817371710254 439.36104276012236 653.5024789545507 439.94341867624485 652.4422959534672 440.3611331944534 C651.3898779645988 440.77108270044687 650.1890619645109 440.97534566065724 648.839804814247 440.97534566065724 Z M660.7760521742235 440.60215054581465 L660.7760521742235 422.0970048246734 L664.2336395577212 422.0970048246734 L664.2336395577212 425.1093550355562 L664.462664279106 425.1093550355562 C664.847852023925 424.0887304578124 665.4782847378669 423.29359320699973 666.3540055598882 422.7239432831184 C667.2297263819094 422.1450616224927 668.2778736140596 421.8559874733121 669.4985335342524 421.8559874733121 C670.7354137021831 421.8559874733121 671.771568304357 422.1450616224927 672.6069542018171 422.7239432831184 C673.4501913894057 423.30209158147954 674.0728590911326 424.0972288322921 674.4743102226463 425.1093550355562 L674.6665374139235 425.1093550355562 C675.1082803310416 424.12125723120175 675.8115316039771 423.3338849926041 676.774910786114 422.74797168202815 C677.7389801915588 422.1535599969725 678.8875117760659 421.8559874733121 680.2205055396352 421.8559874733121 C681.8991286246841 421.8559874733121 683.2688767794042 422.3825415794005 684.3290597804876 423.43426934496097 C685.3970077937861 424.4866441948727 685.931370051046 426.0726910787363 685.931370051046 428.19305708090315 L685.931370051046 440.60215054581465 L682.3288357728688 440.60215054581465 L682.3288357728688 428.530188027903 C682.3288357728688 427.27777783554257 681.9874772081076 426.37026360239656 681.3047169396283 425.80764532846547 C680.622646894457 425.24576041679927 679.8070186391883 424.9644512798336 678.859212620438 424.9644512798336 C677.6866526370213 424.9644512798336 676.774910786114 425.325610625743 676.124677291024 426.04866267982675 C675.4737104336693 426.76321635943066 675.1485721166459 427.6834565848177 675.1485721166459 428.8072695471071 L675.1485721166459 440.60215054581465 L671.5588069696669 440.60215054581465 L671.5588069696669 428.301896668783 C671.5588069696669 427.29757861669066 671.2457044215768 426.4904055969448 670.6187659631316 425.8797305251944 C669.9925608669513 425.2697888157088 669.1769326116826 424.9644512798336 668.1733047828981 424.9644512798336 C667.4905445144187 424.9644512798336 666.8600686615201 425.1453760644422 666.2819203631592 425.50657854930853 C665.7115370770132 425.859972883003 665.2499933787468 426.35400021570183 664.8965990450524 426.988703686362 C664.5510128625297 427.62267379475725 664.3785433134439 428.35776161777403 664.3785433134439 429.19314751523416 L664.3785433134439 440.60215054581465 L660.7760521742235 440.60215054581465 Z M691.0485131007091 440.60215054581465 L691.0485131007091 415.92886737171455 L694.6510042399293 415.92886737171455 L694.6510042399293 425.09662904331503 L694.8672598301162 425.09662904331503 C695.0764837703528 424.71144129849586 695.3775936884665 424.26542762465965 695.7712798077654 423.75936452302756 C696.164965927064 423.25403478366013 696.7105874520357 422.81229186654207 697.4096111072097 422.43413577167325 C698.1086347623838 422.0489480268541 699.0316790199596 421.8559874733121 700.1802106044667 421.8559874733121 C701.6743715104533 421.8559874733121 703.0073652740225 422.23341020591636 704.1806154807473 422.9889890333893 C705.3532186031208 423.7438344985976 706.2727254662431 424.8315832930442 706.9413361569085 426.2536158633451 C707.6127940187193 427.6750013492948 707.9520387745998 429.386108068776 707.9520387745998 431.3856418530868 C707.9520387745998 433.3858227217487 707.6198688076263 435.1005099746403 706.9484109458155 436.53035069611303 C706.2847612351762 437.95169304310593 705.3687486275506 439.04794021203224 704.2046870186136 439.81904906393515 C703.0398920474119 440.58234976466633 701.7103925393393 440.96330989172407 700.2169649956176 440.96330989172407 C699.09246181002 440.96330989172407 698.172911807941 440.77462009490023 697.457667905029 440.3971973622962 C696.7508792376401 440.01977462969205 696.1967593381887 439.578031712574 695.7953082066749 439.0719686109419 C695.3938570751611 438.5659055093097 695.0842487825677 438.11635444102 694.8672598301162 437.72271146067794 L694.5661930509592 437.72271146067794 L694.5661930509592 440.60215054581465 L691.0485131007091 440.60215054581465 Z M694.5781856809357 431.34957768524396 C694.5781856809357 432.6507780376887 694.7669186167161 433.79154460998075 695.1443413493203 434.7711440398556 C695.5224543052324 435.7507434697304 696.0681189691608 436.51831492717986 696.7834060110295 437.07243482663114 C697.4979596906334 437.61809949055953 698.3736805126546 437.89160047635346 699.4097919758717 437.89160047635346 C700.4855481403418 437.89160047635346 701.3852973612727 437.60606372162647 702.1083494153564 437.0364137977451 C702.8306681071753 436.4575321371194 703.3770229944117 435.6744306552399 703.7466807148008 434.68702307419335 C704.124103447405 433.6989252698389 704.3127932442287 432.5864578531747 704.3127932442287 431.34957768524396 C704.3127932442287 430.12896090400784 704.1283310651665 429.03271373508153 703.7586733447773 428.0608793174217 C703.3975139988678 427.0890448997619 702.8511591116314 426.3214734423125 702.1203420453328 425.75958853064617 C701.3972899912492 425.19770361897986 700.4940465148215 424.9163944820143 699.4097919758717 424.9163944820143 C698.365182138175 424.9163944820143 697.4816963039387 425.1849776267387 696.759334473163 425.72352436280335 C696.0440905702511 426.2614240145168 695.5019633007762 427.01273208527164 695.132305580387 427.97606812845174 C694.7633812222626 428.94013753389663 694.5781856809357 430.0646407194939 694.5781856809357 431.34957768524396 Z M719.9745209091193 440.97534566065724 C718.1510372073046 440.97534566065724 716.5748691445366 440.5858871591199 715.2602525765427 439.807013295002 C713.9527107974559 439.01964105640434 712.9420081797645 437.9156288752631 712.2281447234685 436.4942865282702 C711.5213560560795 435.0644458067975 711.167961722385 433.38936011620217 711.167961722385 431.4704530420569 C711.167961722385 429.57484100455656 711.5213560560795 427.9039829317227 712.2281447234685 426.45861218582024 C712.9420081797645 425.0125080776529 713.9385612196419 423.88446749760203 715.2107721931508 423.07306686009474 C716.4971327444734 422.26170936154415 718.0025960571286 421.8559874733121 719.7200873422089 421.8559874733121 C720.7661207654784 421.8559874733121 721.7768665221266 422.029147245706 722.7521951952832 422.3740863438775 C723.7346849352602 422.71967252640025 724.6110959805894 423.26179979587516 725.3956210480416 424.0003818743887 C726.1730713265868 424.73969731516706 726.7879740160986 425.6994959638937 727.2332543276702 426.87986409848224 C727.6856094281488 428.05242408189883 727.9117438394313 429.4779940466533 727.9117438394313 431.1566171317021 L727.9117438394313 432.433789085237 L713.2035165355819 432.433789085237 L713.2035165355819 429.7352747847092 L724.3778005024865 429.7352747847092 C724.3778005024865 428.7874687659589 724.1869537578253 427.9485023350885 723.8053465464164 427.216995045482 C723.4165782681871 426.47841296696834 722.8723803287882 425.89599391188915 722.1796981002564 425.4705143814656 C721.4870590106813 425.04503485104226 720.6742347876013 424.8322735163522 719.7413117089297 424.8322735163522 C718.7305659522816 424.8322735163522 717.8470801180454 425.0810558799283 717.0908542062213 425.5786637460375 C716.3486915942973 426.06846346097484 715.7691628493204 426.7116221671579 715.3592133433268 427.50675941797044 C714.9563386262404 428.2934414332601 714.7584170926722 429.14862811186833 714.7584170926722 430.07240573170895 L714.7584170926722 432.18077910389934 C714.7584170926722 433.4176592718301 714.9704882040543 434.47003412174195 715.408693726719 435.33729970824015 C715.8468992493836 436.20452215578166 716.4618019388954 436.8674816431128 717.2463270063474 437.3254879469256 C718.0379268627066 437.7749958762587 718.9567435025209 437.9997498409251 720.0098948536541 437.9997498409251 C720.6883843654152 437.9997498409251 721.3103618438341 437.9036362452865 721.8757841499539 437.71067569174465 C722.4341748061236 437.50995012598787 722.9218607121802 437.21311096459226 723.3317670792169 436.8194248452935 C723.7417597241672 436.42573872599473 724.0527053244199 435.93947640551073 724.2718512247089 435.3613281071498 L727.6785346392418 435.97623079666164 C727.4099514945175 436.9798586254461 726.9223087274175 437.8591168419207 726.2155200600286 438.61465253043707 C725.5157199036331 439.36104276012236 724.6322340693969 439.94341867624485 723.5720510683134 440.3611331944534 C722.5189859950937 440.77108270044687 721.3174366327411 440.97534566065724 719.9745209091193 440.97534566065724 Z M731.9051170657616 440.60215054581465 L731.9051170657616 422.0970048246734 L735.3896231582712 422.0970048246734 L735.3896231582712 425.03653647656256 L735.5804699029324 425.03653647656256 C735.919714658813 424.0406736599931 736.5133929816039 423.2575721781137 737.3685796602123 422.6871888919676 C738.2238526167341 422.10904059360666 739.1992244288474 421.8199664444261 740.2805455187383 421.8199664444261 C740.5067662079343 421.8199664444261 740.7682745637517 421.8277314566411 741.0792201640044 421.84399484333585 C741.3902520421706 421.86021509107377 741.6305360312671 421.88001587222186 741.8143079870213 421.9040442711315 L741.8143079870213 425.3496390246527 C741.6659099758019 425.3100806013132 741.4114764088914 425.26556119794736 741.0368577084761 425.21746126117125 C740.6693137969677 425.16094922782895 740.3017698854592 425.13338343446594 739.9342259739508 425.13338343446594 C739.0790392953425 425.13338343446594 738.3227271056047 425.31361799576666 737.6513123827506 425.67546756498393 C736.9940472377103 426.02886189867843 736.4709442481621 426.52293237033416 736.0893370367532 427.1569024787294 C735.7005687585239 427.78384093717455 735.5097220138628 428.49839461677846 735.5097220138628 429.30129687980605 L735.5097220138628 440.60215054581465 L731.9051170657616 440.60215054581465 Z M753.8580144882616 440.60215054581465 L753.8580144882616 437.9036362452865 L762.2051437856103 429.25324008198663 C763.0957044087535 428.3139324377163 763.8307922317704 427.4904960312758 764.4103209767474 426.78370736388683 C764.9970107885448 426.06846346097484 765.4352163112095 425.38993081025694 765.7249375447412 424.7474623273821 C766.0147450561865 424.10499384450713 766.1560682784989 423.4222335760277 766.1560682784989 422.6991815219442 C766.1560682784989 421.88001587222186 765.9653078117511 421.17322720483287 765.5836143224288 420.5788155197772 C765.1948460441995 419.9766388225065 764.6718293325647 419.51509512424013 764.0004146097106 419.19353734062713 C763.33598839785 418.8641714058423 762.5868372749327 418.6994668689715 761.7527886851317 418.6994668689715 C760.8693028508955 418.6994668689715 760.0918525723504 418.8804347925369 759.4345874273102 419.2415941384463 C758.7772360043566 419.6034437076638 758.2683688705357 420.1130442037494 757.9149745368412 420.7717760733191 C757.5615802031467 421.43050794288877 757.3848830362995 422.2016167947917 757.3848830362995 423.0851026290279 L753.8367901215407 423.0851026290279 C753.8367901215407 421.58317671082625 754.1831096663282 420.26994058944854 754.8686739669963 419.1454805428077 C755.5613130565713 418.0209773572104 756.5084719909703 417.14948415295066 757.7170530032731 416.53104406898524 C758.9185592266689 415.9048389728049 760.2897741059185 415.5917364247148 761.8234502962879 415.5917364247148 C763.3713623423848 415.5917364247148 764.7355024327275 415.90061135504345 765.9157842894024 416.51905143900876 C767.1032272128979 417.12968337180234 768.0361502915694 417.9651124082194 768.7005765034299 419.0252954093029 C769.3649164373771 420.07702317486337 769.7041611932577 421.2658465449747 769.7041611932577 422.591075296329 C769.7041611932577 423.5063545416899 769.5274640264105 424.4025663681672 769.1811444816229 425.2775538279237 C768.8489745146494 426.15327464994505 768.2552961918584 427.1286464620583 767.4141728131505 428.20509284983655 C766.5660609234491 429.2737310864428 765.3927675777677 430.570703821126 763.8943790540195 432.0966581382372 L758.9893071157386 437.2286409890222 L758.9893071157386 437.409565773631 L770.100004260394 437.409565773631 L770.100004260394 440.60215054581465 L753.8580144882616 440.60215054581465 Z M783.2533310071532 441.01210005180803 C781.3520246273617 441.0036016773282 779.7264624591152 440.5017661934577 778.3764719465865 439.50590337688834 C777.0264814340578 438.51004056031877 775.9945975886022 437.0604421966548 775.2807341323063 435.15633178467465 C774.5668706760102 433.2529547349593 774.2064015534088 430.96011918370664 774.2064015534088 428.2771780465654 C774.2064015534088 425.6026921449471 774.5668706760102 423.3176216059095 775.2807341323063 421.42274293067385 C776.0016723775092 419.5271308931734 777.0406310118717 418.0810267850061 778.3835467354935 417.08516396843663 C779.7476868258361 416.0893011518672 781.3661742051758 415.5917364247148 783.2533310071532 415.5917364247148 C785.1404878091305 415.5917364247148 786.75897518847 416.0935287696286 788.1089657009987 417.0971997373698 C789.4589562135275 418.09306255393926 790.490840058983 419.5391235231499 791.204703515279 421.4347355606502 C791.9256417604819 423.32189236262764 792.2931856719903 425.6026921449471 792.2931856719903 428.2771780465654 C792.2931856719903 430.96792733487825 791.9327165493888 433.2649905038925 791.2188530930929 435.16836755360794 C790.504989636797 437.06397959110814 789.4731057913414 438.51357795477224 788.1231152788126 439.5179391458214 C786.7731247662841 440.51380196239097 785.147476320124 441.01210005180803 783.2533310071532 441.01210005180803 Z M783.2533310071532 437.7947966574068 C784.9284166977485 437.7947966574068 786.2288836879284 436.9798586254461 787.1689678334203 435.3492923382165 C788.1160404899057 433.71872605098713 788.5896199571052 431.36161345417725 788.5896199571052 428.2771780465654 C788.5896199571052 426.22958746443544 788.3775488457231 424.4986799638058 787.9393433230584 423.0851026290279 C787.5152873782079 421.6637602820349 786.900384688696 420.5873138942569 786.0946352545229 419.85649682795827 C785.3030353981638 419.1171813871799 784.355876463765 418.7482570290555 783.2533310071532 418.7482570290555 C781.5923948943718 418.7482570290555 780.2848531152848 419.5674226787778 779.3376941808859 421.2057539782222 C778.3906215244004 422.84408527766675 777.9099672682939 425.20124101343345 777.902892479387 428.2771780465654 C777.902892479387 430.3339140875263 778.1149635907691 432.07262973932757 778.5460943245267 433.49397208632047 C778.9772250582844 434.90754942109845 779.5921277477963 435.9797681911151 780.3837276041554 436.71058525741364 C781.1824022494214 437.43363731149736 782.1366359727274 437.7947966574068 783.2533310071532 437.7947966574068 Z M796.5621305540386 440.60215054581465 L796.5621305540386 437.9036362452865 L804.9093461293008 429.25324008198663 C805.8069815413508 428.3139324377163 806.5419830864541 427.4904960312758 807.1145233204377 426.78370736388683 C807.7011268543217 426.06846346097484 808.1393323769864 425.38993081025694 808.4291398884316 424.7474623273821 C808.7189473998769 424.10499384450713 808.8673454110963 423.4222335760277 808.8673454110963 422.6991815219442 C808.8673454110963 421.88001587222186 808.6694238775281 421.17322720483287 808.2878166661192 420.5788155197772 C807.8990483878899 419.9766388225065 807.376031676255 419.51509512424013 806.7045306754874 419.19353734062713 C806.0401907415403 418.8641714058423 805.2909533407096 418.6994668689715 804.4569910288222 418.6994668689715 C803.5735051945859 418.6994668689715 802.8031297049478 418.8804347925369 802.1387034930871 419.2415941384463 C801.4814383480469 419.6034437076638 800.9795597252195 420.1130442037494 800.626165391525 420.7717760733191 C800.2727710578307 421.43050794288877 800.0960738909836 422.2016167947917 800.0960738909836 423.0851026290279 L796.5409924652312 423.0851026290279 C796.5409924652312 421.58317671082625 796.8873120100187 420.26994058944854 797.5728763106866 419.1454805428077 C798.2655154002617 418.0209773572104 799.2125880567472 417.14948415295066 800.4212553469634 416.53104406898524 C801.6227615703593 415.9048389728049 802.9938901716954 415.5917364247148 804.5276526399783 415.5917364247148 C806.075564686075 415.5917364247148 807.4396184985044 415.90061135504345 808.6199866330928 416.51905143900876 C809.8144180675818 417.12968337180234 810.7403526352598 417.9651124082194 811.4046925692069 419.0252954093029 C812.0761935699745 420.07702317486337 812.408363536948 421.2658465449747 812.408363536948 422.591075296329 C812.408363536948 423.5063545416899 812.2316663701008 424.4025663681672 811.8853468253133 425.2775538279237 C811.5531768583396 426.15327464994505 810.9594122576352 427.1286464620583 810.1183751568408 428.20509284983655 C809.2772517781332 429.2737310864428 808.1040447103649 430.570703821126 806.59858139771 432.0966581382372 L801.6934231815154 437.2286409890222 L801.6934231815154 437.409565773631 L812.804120326171 437.409565773631 L812.804120326171 440.60215054581465 L796.5621305540386 440.60215054581465 Z M826.7279088404819 415.92886737171455 L826.7279088404819 440.60215054581465 L822.9960439699687 440.60215054581465 L822.9960439699687 419.6635362744163 L822.8547207476563 419.6635362744163 L816.9459778416342 423.51908053393106 L816.9459778416342 419.95261042359687 L823.1020795256597 415.92886737171455 L826.7279088404819 415.92886737171455 Z "></path>
    </defs>
    <g>
      <use xmlns:xlink="http://www.w3.org/1999/xlink" xlink:href="#s-Path_32-0a187" fill="#000000" fill-opacity="1.0" filter="none"></use>
    </g>
  </g>
</svg>
