<?xml version="1.0" encoding="UTF-8"?>
<svg xmlns="http://www.w3.org/2000/svg" width="25.9102783203125" height="31.1331787109375" viewBox="732.9213541666674 975.34375 25.9102783203125 31.1331787109375" preserveAspectRatio="none">
  <g>
    <defs>
      <path id="s-Path_89-8264f" d="M758.1742622375501 983.0616322835288 C758.124826240541 982.9273872375488 758.0258679707857 982.7082468668618 757.8915366490695 982.4185329437255 C757.7572916030898 982.1216581344604 757.6583333333346 981.9308162053424 757.6088973363254 981.8389325459796 C756.4639320373548 979.6338109970093 754.7958769480398 977.994140625 752.5978300094615 976.9339843749999 C750.3997830708832 975.8738281249998 748.1027778625499 975.34375 745.7138889948538 975.34375 C742.6182292938241 975.34375 739.81944440206 976.1918404897053 737.3174480438241 977.8810331344603 C734.8225262959808 979.5773003896077 733.3524740219124 981.9520400365193 732.9213541666674 985.0194012959798 L732.9213541666674 986.3057725270589 L733.0061632156379 986.6450087229409 L733.0061632156379 987.1185762405394 C733.1121960957852 987.8394100189207 733.3949216842658 988.6663629531859 733.8613283157357 989.5922741572062 C734.3207466125497 990.5180990854899 734.73771724701 991.2602429707842 735.1194011052456 991.8256078720092 C735.5010849634815 992.3910590489706 736.1088975270599 993.2462241490682 736.9569880167652 994.3982640584311 C737.7980901718148 995.5432293574015 738.3493921279916 996.2995224634806 738.6249568303436 996.6599824905395 C740.2011282602954 998.872092374166 742.6182292938241 1002.1444447835286 745.8764324824025 1006.4769534428913 C746.3075523376475 1005.8903647104898 747.8059893290211 1003.7700522104899 750.3574216842661 1000.1160159428912 C750.4633682886771 999.9817708969115 750.6683594385794 999.7061199188231 750.9652342478445 999.303298505147 C751.2690973917653 998.8933162053424 751.4670139312756 998.5823784510294 751.5801214218151 998.3561634699504 C751.6861543019623 998.2219184239705 751.8628470102959 998.0240018844604 752.1101995468151 997.776649347941 C752.3504774729423 997.5292968114215 752.5271701812757 997.3384548823037 752.6402776718152 997.2041235605875 C753.0148869196586 996.6175348281859 753.8488281885794 995.5008679707846 755.1210501988741 993.8540367126463 C756.4002605438244 992.2072917302451 757.333246358237 990.8220485051472 757.9339843114229 989.6911461512248 C758.5276476542168 988.5674046834308 758.8315970738741 987.4578124364218 758.8315970738741 986.3764323552448 L758.8315970738741 984.8851562499999 C758.8315970738741 984.3903649012248 758.6124567031874 983.7825523376464 758.1742622375501 983.0616322835288 Z M745.7916234334319 989.7618922551471 C743.6783855438242 989.7618922551471 742.2083332697558 988.8995662689208 741.3955295562754 987.1892360687254 C741.3390189488738 986.9630210876464 741.3107205073048 986.6237848917642 741.3107205073048 986.1714412053427 L741.3107205073048 985.2950522740682 C741.3107205073048 984.1642361958823 741.777213414511 983.294921875 742.6959637324027 982.6871093114216 C743.6218749364228 982.0792967478433 744.7103296279917 981.775347328186 745.9541669209808 981.775347328186 C747.311197980246 981.775347328186 748.4420140584319 982.1570311864218 749.3396268208834 982.9273872375488 C750.2372395833344 983.6906686782836 750.6825086593639 984.6378037134805 750.6825086593639 985.7686197916667 C750.6825086593639 986.8923612594604 750.2089411417654 987.8394100189207 749.2548177719126 988.6098523457842 C748.3077690124522 989.3731337865195 747.1486544926971 989.7618922551471 745.7916234334319 989.7618922551471 Z "></path>
    </defs>
    <g>
      <use xmlns:xlink="http://www.w3.org/1999/xlink" xlink:href="#s-Path_89-8264f" fill="#76CDC2" fill-opacity="1.0" filter="none"></use>
    </g>
  </g>
</svg>
