<?xml version="1.0" encoding="UTF-8"?>
<svg xmlns="http://www.w3.org/2000/svg" width="18.3829345703125" height="17.5411376953125" viewBox="872.4595530051045 807.4667196398865 18.3829345703125 17.5411376953125" preserveAspectRatio="none">
  <g>
    <defs>
      <path id="s-Path_81-02671" d="M875.2394890678142 823.9339957092726 C875.2112036693416 824.0611937664293 875.2041323197234 824.1953769372327 875.2394890678142 824.3225749943891 C875.267688230316 824.4567581651928 875.3313303768798 824.5768848727308 875.416100336327 824.6757975314146 C875.5008702957741 824.7816953037453 875.6138394177235 824.8664652631925 875.7339661252613 824.9230360601381 C875.8611641824177 824.9795206211123 875.9953473532212 825.0078060195852 876.1366881096139 825.0078060195852 C876.3202844917739 825.0078060195852 876.4968957602864 824.958306572258 876.6453078662973 824.8593939135745 L881.6469079456265 821.6803910803463 L886.655579374574 824.8593939135745 C886.8110628302031 824.958306572258 886.9947454483338 825.0078060195852 887.1854131801122 825.0078060195852 C887.369095798243 825.0007346699671 887.5527784163739 824.9442501089922 887.7081756360317 824.8382661006907 C887.8565877420426 824.732282092389 887.9696430999629 824.583956222349 888.0331990105553 824.4144163034547 C888.096754921148 824.244790148589 888.1038262707664 824.0611937664293 888.0473417097919 823.8915676115638 L886.3659989841124 818.2753637672496 L890.5339559322344 814.7007965352581 C890.668225339009 814.5806698277198 890.7671379976928 814.43234395768 890.8094798594307 814.269789152433 C890.8589793067581 814.1002492335384 890.8519079571399 813.9236379650255 890.7954233961652 813.7611693957496 C890.7317812496017 813.598700826473 890.6257972412998 813.4574463060516 890.4845427208782 813.3514622977497 C890.3432882004565 813.245478289448 890.173748281562 813.1819223788551 889.9971370130493 813.174851029237 L884.7552835186436 812.7721290448843 L882.4876224264519 807.982496982159 C882.41690893027 807.8270135265299 882.2968684587026 807.6999017053444 882.1484563526919 807.608060396279 C882.0001304826521 807.5162190872137 881.8305905637576 807.4667196398865 881.6539792952447 807.4667196398865 C881.4702966771138 807.4667196398865 881.3007567582194 807.5162190872137 881.1524308881794 807.608060396279 C881.0040187821687 807.6999017053444 880.8839783106012 807.8270135265299 880.8133510503908 807.982496982159 L878.5456037222275 812.7721290448843 L873.3038364637932 813.167779679619 C873.1272251952803 813.1819223788551 872.957685276386 813.245478289448 872.8234158696114 813.3443909481315 C872.6821613491898 813.4503749564334 872.5761773408879 813.5916294768548 872.5126214302954 813.747026696513 C872.4560506333498 813.9025101521423 872.4419079341133 814.0791214206548 872.4843360318225 814.241589989931 C872.5196065439425 814.4040585592076 872.6114478530078 814.5523844292474 872.7386459101645 814.6725111367856 L876.6099511182067 818.2753637672496 L875.2394890678142 823.9339957092726 Z M881.6469079456265 810.4761825542197 L883.526075988673 814.4393290713275 L884.0700524934475 814.4817571690365 L884.0700524934475 814.4817571690365 L887.7223183352683 814.7572810962328 L884.7128554209346 817.335822863712 L884.7128554209346 817.3428942133299 L884.2890056236984 817.7031880999733 L884.4444028433566 818.2330219055112 L884.4444028433566 818.2330219055112 L885.595911763498 822.076041715081 L881.6469079456265 819.5681272078126 L881.6469079456265 810.4761825542197 Z "></path>
    </defs>
    <g>
      <use xmlns:xlink="http://www.w3.org/1999/xlink" xlink:href="#s-Path_81-02671" fill="#FFD233" fill-opacity="1.0" filter="none"></use>
    </g>
  </g>
</svg>
