<?xml version="1.0" encoding="UTF-8"?>
<svg xmlns="http://www.w3.org/2000/svg" width="207.8103790283203" height="17.31591796875" viewBox="156.19635416666642 1555.6026041666664 207.8103790283203 17.31591796875" preserveAspectRatio="none">
  <g>
    <defs>
      <path id="s-Path_44-f9c6f" d="M162.60817278226193 1568.5082464853922 L157.73993493715898 1563.115667851766 L157.73993493715898 1568.5082464853922 L156.19635416666642 1568.5082464853922 L156.19635416666642 1556.683984247843 L157.73993493715898 1556.683984247843 L157.73993493715898 1562.1614582061766 L162.62513674894944 1556.683984247843 L164.57582036654128 1556.683984247843 L159.2156706253685 1562.6066410064695 L164.62671226660387 1568.5082464853922 L162.60817278226193 1568.5082464853922 Z M174.83177305062588 1563.5042537689205 C174.83177305062588 1563.8012148539224 174.81480908393831 1564.1121526082356 174.78089193503035 1564.437239583333 L167.35131080945308 1564.437239583333 C167.40785377025577 1565.3560761769609 167.7188346624372 1566.0699216206867 168.28425348599728 1566.5929251352945 C168.86097443103768 1567.1017794291179 169.55644314289066 1567.3562928517658 170.3706380526222 1567.3562928517658 C171.03782989184037 1567.3562928517658 171.59193580945305 1567.2006514231362 172.0329665899274 1566.8967882792153 C172.48529949188207 1566.57877591451 172.80193144480364 1566.161719004313 172.98286244869206 1565.6387154897052 L174.64519098599726 1565.6387154897052 C174.39640411535873 1566.5363282521562 173.89884115854875 1567.2643229166665 173.15249133110018 1567.8297740936277 C172.40614150365167 1568.3810760498045 171.47884988784767 1568.6637153625488 170.3706380526222 1568.6637153625488 C169.4885872761406 1568.6637153625488 168.6970073938367 1568.4657988230388 167.99588762124353 1568.0699657440182 C167.30608075459776 1567.674305216471 166.76327695846533 1567.1088540395099 166.3674870173134 1566.387933985392 C165.97169707616143 1565.6528647104897 165.7738021055855 1564.804774220784 165.7738021055855 1563.8434899648028 C165.7738021055855 1562.8823782602944 165.96604601542128 1562.0413623809814 166.3505230506259 1561.313367716471 C166.73501087029751 1560.5924476623532 167.27215282122268 1560.0411457061764 167.9619596878685 1559.6523872375487 C168.6630794604617 1559.2565541585286 169.46597224871294 1559.0586376190186 170.3706380526222 1559.0586376190186 C171.25268882910387 1559.0586376190186 172.0329665899274 1559.2494795481362 172.71146055062587 1559.6382380167643 C173.38996529579134 1560.019921875 173.91014328002905 1560.5499999999997 174.272016072273 1561.2284723917642 C174.64519098599726 1561.8998701731362 174.83177305062588 1562.6561632792154 174.83177305062588 1563.5042537689205 Z M173.23730038007074 1563.1791667938232 C173.23730038007074 1562.592491785685 173.1072504917778 1562.0907121022542 172.84716149965897 1561.6738277435302 C172.58707250754014 1561.2426216125486 172.2308615605034 1560.917534637451 171.77852865854874 1560.7054688771564 C171.33749787807437 1560.4792538960774 170.84558598200454 1560.3662326812741 170.30279297033923 1560.3662326812741 C169.52251520951563 1560.3662326812741 168.85532337029747 1560.61367149353 168.3012174526848 1561.115451176961 C167.75841365655236 1561.6101562499998 167.447432764371 1562.3027778625487 167.3682747761406 1563.1791667938232 L173.23730038007074 1563.1791667938232 Z M188.04768448670677 1559.0446609497067 C188.77140850226056 1559.0446609497067 189.41599609851812 1559.1930552164713 189.9814041376111 1559.503992970784 C190.54683374563825 1559.793706893921 190.9935048023857 1560.2390622456865 191.32143887678757 1560.839713923136 C191.6493945201235 1561.4405381520587 191.81336155732447 1562.1685328165686 191.81336155732447 1563.0307725270586 L191.81336155732447 1568.5082464853922 L190.28673396905236 1568.5082464853922 L190.28673396905236 1563.2499128977456 C190.28673396905236 1562.3240016937252 190.05491106510135 1561.6172308603918 189.59126525719932 1561.1296003977454 C189.13894313971173 1560.634895324707 188.5226324160891 1560.3803819020586 187.74235465526556 1560.3803819020586 C186.93947265148137 1560.3803819020586 186.300536115964 1560.641969935099 185.82558818658168 1561.1649734497068 C185.35064025719936 1561.6738277435302 185.1131662925082 1562.4157990773515 185.1131662925082 1563.3841579437253 L185.1131662925082 1568.5082464853922 L183.5865387042361 1568.5082464853922 L183.5865387042361 1563.2499128977456 C183.5865387042361 1562.3240016937252 183.35471580028508 1561.6172308603918 182.89109156131718 1561.1296003977454 C182.43874787489545 1560.634895324707 181.82243715127282 1560.3803819020586 181.04218095938336 1560.3803819020586 C180.2392773866651 1560.3803819020586 179.6003624200818 1560.641969935099 179.12540370623242 1561.1649734497068 C178.6504557768501 1561.6738277435302 178.41298181215893 1562.4157990773515 178.41298181215893 1563.3841579437253 L178.41298181215893 1568.5082464853922 L176.86940104166644 1568.5082464853922 L176.86940104166644 1559.2142790476478 L178.41298181215893 1559.2142790476478 L178.41298181215893 1560.5499999999997 C178.7183116436002 1560.0694441477453 179.12540370623242 1559.6948348999022 179.63427956898983 1559.4332468668617 C180.15446833769454 1559.1718313852944 180.72553822199478 1559.0446609497067 181.3474892218905 1559.0446609497067 C182.1277669827141 1559.0446609497067 182.81758463382693 1559.2213536580402 183.41692060629498 1559.5676644643145 C184.01625657876303 1559.9210498809812 184.4629492044446 1560.4369787851965 184.75695534547145 1561.115451176961 C185.01705512205734 1560.4582026163735 185.4467729965843 1559.949175771077 186.04610896905234 1559.5887157440184 C186.64544494152045 1559.2213536580402 187.31263678073856 1559.0446609497067 188.04768448670677 1559.0446609497067 Z M195.88930774529746 1560.9458330790198 C196.20593969821903 1560.387456512451 196.66958550612105 1559.9351991017656 197.2802236000694 1559.5887157440184 C197.8908832629519 1559.2353303273517 198.58635197480493 1559.0586376190186 199.3666081666944 1559.0586376190186 C200.20343967278768 1559.0586376190186 200.9554405609764 1559.2565541585286 201.6226324001945 1559.6523872375487 C202.28982423941267 1560.0482203165689 202.81565328439046 1560.6065968831376 203.20014110406214 1561.334591547648 C203.58462892373376 1562.0484369913734 203.77687283356954 1562.875303649902 203.77687283356954 1563.8293407440183 C203.77687283356954 1564.7623265584307 203.58462892373376 1565.6033424377438 203.20014110406214 1566.3384117126461 C202.81565328439046 1567.0734809875485 202.28417317867252 1567.6460067749022 201.60565764903993 1568.0489144643147 C200.93848737875595 1568.4587242126463 200.19211598237325 1568.6637153625488 199.3666081666944 1568.6637153625488 C198.5637261629102 1568.6637153625488 197.85695532957686 1568.4870226542153 197.24629566669438 1568.1336372375486 C196.64695969422633 1567.7873264312743 196.19463757673873 1567.335069020589 195.88930774529746 1566.7979162851966 L195.88930774529746 1568.5082464853922 L194.3457269748049 1568.5082464853922 L194.3457269748049 1555.9559895833331 L195.88930774529746 1555.9559895833331 L195.88930774529746 1560.9458330790198 Z M202.19936412970196 1563.8293407440183 C202.19936412970196 1563.122569910685 202.05800133546165 1562.5148436228433 201.77529731591517 1561.9918401082355 C201.49259329636863 1561.4759112040201 201.108105476697 1561.080078125 200.62183385690025 1560.8045134226477 C200.14688592751793 1560.5358507792153 199.62105688254013 1560.4016057332356 199.04432515303267 1560.4016057332356 C198.47891711393964 1560.4016057332356 197.95306650002772 1560.5429253896077 197.4668164491651 1560.8255647023516 C196.99186851978277 1561.0942273457845 196.6073807001111 1561.4971350351966 196.3133745590843 1562.0272131601969 C196.03067053953777 1562.5502166748047 195.88930774529746 1563.1508683522538 195.88930774529746 1563.8434899648028 C195.88930774529746 1564.5431861877441 196.03067053953777 1565.1581596374508 196.3133745590843 1565.695312372843 C196.6073807001111 1566.211241277059 196.99186851978277 1566.614148966471 197.4668164491651 1566.8967882792153 C197.95306650002772 1567.1654509226478 198.47891711393964 1567.30677057902 199.04432515303267 1567.30677057902 C199.62105688254013 1567.30677057902 200.14688592751793 1567.1654509226478 200.62183385690025 1566.8967882792153 C201.108105476697 1566.614148966471 201.49259329636863 1566.211241277059 201.77529731591517 1565.695312372843 C202.05800133546165 1565.1581596374508 202.19936412970196 1564.5361115773517 202.19936412970196 1563.8293407440183 Z M205.2313954750694 1563.8293407440183 C205.2313954750694 1562.875303649902 205.42363938490524 1562.0484369913734 205.80812720457686 1561.334591547648 C206.19261502424848 1560.6065968831376 206.71844406922628 1560.0482203165689 207.38563590844444 1559.6523872375487 C208.0641298691429 1559.2565541585286 208.8161523262657 1559.0586376190186 209.6416601419446 1559.0586376190186 C210.4558442672091 1559.0586376190186 211.16261510054244 1559.2353303273517 211.76197264194462 1559.5887157440184 C212.36130861441268 1559.9351991017656 212.80797967116007 1560.3803819020586 213.10200738112104 1560.910460027059 L213.10200738112104 1559.2142790476478 L214.66256290276817 1559.2142790476478 L214.66256290276817 1568.5082464853922 L213.10200738112104 1568.5082464853922 L213.10200738112104 1566.7766924540201 C212.79667754967977 1567.3209197998044 212.3386828025179 1567.7731772104898 211.72804470856954 1568.1336372375486 C211.1287087361015 1568.4870226542153 210.4275889635083 1568.6637153625488 209.62468539079003 1568.6637153625488 C208.79917757511112 1568.6637153625488 208.0528277476626 1568.4587242126463 207.38563590844444 1568.0489144643147 C206.71844406922628 1567.6460067749022 206.19261502424848 1567.0734809875485 205.80812720457686 1566.3384117126461 C205.42363938490524 1565.6033424377438 205.2313954750694 1564.7623265584307 205.2313954750694 1563.8293407440183 Z M213.10200738112104 1563.8434899648028 C213.10200738112104 1563.1437937418618 212.96064458688073 1562.5289928436277 212.6779405673342 1562.0130639394124 C212.3952365477877 1561.4900604248046 212.01074872811608 1561.0942273457845 211.52449867725346 1560.8255647023516 C211.04955074787114 1560.5429253896077 210.52370013395915 1560.4016057332356 209.9469684044517 1560.4016057332356 C209.37025824387842 1560.4016057332356 208.84440762996644 1560.5358507792153 208.36945970058412 1560.8045134226477 C207.8945117712018 1561.080078125 207.51569658120445 1561.4759112040201 207.23297099272384 1561.9918401082355 C206.9502669731773 1562.5148436228433 206.80892574787111 1563.122569910685 206.80892574787111 1563.8293407440183 C206.80892574787111 1564.5361115773517 206.9502669731773 1565.1581596374508 207.23297099272384 1565.695312372843 C207.51569658120445 1566.211241277059 207.8945117712018 1566.614148966471 208.36945970058412 1566.8967882792153 C208.84440762996644 1567.1654509226478 209.37025824387842 1567.30677057902 209.9469684044517 1567.30677057902 C210.52370013395915 1567.30677057902 211.04955074787114 1567.1654509226478 211.52449867725346 1566.8967882792153 C212.01074872811608 1566.614148966471 212.3952365477877 1566.211241277059 212.6779405673342 1565.695312372843 C212.96064458688073 1565.1581596374508 213.10200738112104 1564.5431861877441 213.10200738112104 1563.8434899648028 Z M218.81484154860152 1555.9559895833331 L218.81484154860152 1568.5082464853922 L217.27123920917484 1568.5082464853922 L217.27123920917484 1555.9559895833331 L218.81484154860152 1555.9559895833331 Z M222.24266283512088 1557.7016928354897 C221.94865669409404 1557.7016928354897 221.69988060792258 1557.602820841471 221.4963130076723 1557.3978296915689 C221.29276697635623 1557.1928385416663 221.19100474516523 1556.9453997294104 221.19100474516523 1556.648611195882 C221.19100474516523 1556.3588972727457 221.29276697635623 1556.1114584604898 221.4963130076723 1555.9064673105872 C221.69988060792258 1555.7014761606852 221.94865669409404 1555.6026041666664 222.24266283512088 1555.6026041666664 C222.5253884236015 1555.6026041666664 222.76286238829266 1555.7014761606852 222.95508472919437 1555.9064673105872 C223.15865232944458 1556.1114584604898 223.26041456063558 1556.3588972727457 223.26041456063558 1556.648611195882 C223.26041456063558 1556.9453997294104 223.15865232944458 1557.1928385416663 222.95508472919437 1557.3978296915689 C222.76286238829266 1557.602820841471 222.5253884236015 1557.7016928354897 222.24266283512088 1557.7016928354897 Z M222.9890126625694 1559.2142790476478 L222.9890126625694 1568.5082464853922 L221.44543189207684 1568.5082464853922 L221.44543189207684 1559.2142790476478 L222.9890126625694 1559.2142790476478 Z M235.33276267846395 1568.5082464853922 L231.68584415912596 1564.401866531372 L231.68584415912596 1568.5082464853922 L230.14224181969928 1568.5082464853922 L230.14224181969928 1555.9559895833331 L231.68584415912596 1555.9559895833331 L231.68584415912596 1563.3346356709794 L235.26492838064797 1559.2142790476478 L237.419168814023 1559.2142790476478 L233.04283208052289 1563.8434899648028 L237.43612199624351 1568.5082464853922 L235.33276267846395 1568.5082464853922 Z M247.3535394748049 1563.5042537689205 C247.3535394748049 1563.8012148539224 247.33656472365033 1564.1121526082356 247.30263679027524 1564.437239583333 L239.87306644916504 1564.437239583333 C239.9296201944348 1565.3560761769609 240.24057951768208 1566.0699216206867 240.80600912570924 1566.5929251352945 C241.3827408552167 1567.1017794291179 242.07818799813555 1567.3562928517658 242.89239369233417 1567.3562928517658 C243.55958553155233 1567.3562928517658 244.11369144916506 1567.2006514231362 244.5547114451723 1566.8967882792153 C245.00705513159403 1566.57877591451 245.3236870845156 1566.161719004313 245.50462887287108 1565.6387154897052 L247.16694662570922 1565.6387154897052 C246.91817053953775 1566.5363282521562 246.4205967982607 1567.2643229166665 245.6742469708122 1567.8297740936277 C244.92789714336362 1568.3810760498045 244.00060552755963 1568.6637153625488 242.89239369233417 1568.6637153625488 C242.01035370031963 1568.6637153625488 241.2187522490816 1568.4657988230388 240.51765404542255 1568.0699657440182 C239.8278363943097 1567.674305216471 239.28503259817728 1567.1088540395099 238.88924265702536 1566.387933985392 C238.4934527158734 1565.6528647104897 238.29555774529746 1564.804774220784 238.29555774529746 1563.8434899648028 C238.29555774529746 1562.8823782602944 238.48780165513324 1562.0413623809814 238.87228947480492 1561.313367716471 C239.2567557255424 1560.5924476623532 239.79390846093463 1560.0411457061764 240.48372611204752 1559.6523872375487 C241.18482431570658 1559.2565541585286 241.9877278884249 1559.0586376190186 242.89239369233417 1559.0586376190186 C243.77443368434876 1559.0586376190186 244.5547114451723 1559.2494795481362 245.2332269748049 1559.6382380167643 C245.91172093550335 1560.019921875 246.431898919741 1560.5499999999997 246.7937609275179 1561.2284723917642 C247.16694662570922 1561.8998701731362 247.3535394748049 1562.6561632792154 247.3535394748049 1563.5042537689205 Z M245.7590560197827 1563.1791667938232 C245.7590560197827 1562.592491785685 245.6290169159568 1562.0907121022542 245.36891713937092 1561.6738277435302 C245.10881736278503 1561.2426216125486 244.7526064157483 1560.917534637451 244.3002842982607 1560.7054688771564 C243.8592643022534 1560.4792538960774 243.3673416217165 1560.3662326812741 242.82453782558412 1560.3662326812741 C242.04426006476052 1560.3662326812741 241.37706822554242 1560.61367149353 240.82296230792969 1561.115451176961 C240.28015851179725 1561.6101562499998 239.96919918855002 1562.3027778625487 239.89004120031962 1563.1791667938232 L245.7590560197827 1563.1791667938232 Z M261.8176019906995 1560.1470923105871 C261.8176019906995 1561.1296003977454 261.4783442258832 1561.949392445882 260.7998502651847 1562.6066410064695 C260.1326584259666 1563.2499128977456 259.1092556397117 1563.5749998728434 257.72964190642006 1563.5749998728434 L255.45666449069944 1563.5749998728434 L255.45666449069944 1568.5082464853922 L253.91306215127275 1568.5082464853922 L253.91306215127275 1556.683984247843 L257.72964190642006 1556.683984247843 C259.0640255848564 1556.683984247843 260.0761046806968 1557.0090712229407 260.7659223318097 1557.6521705627438 C261.4670421044029 1558.2954424540198 261.8176019906995 1559.129383722941 261.8176019906995 1560.1470923105871 Z M257.72964190642006 1562.3027778625487 C258.5890560865399 1562.3027778625487 259.22234156131714 1562.1119359334307 259.62943362394935 1561.7373266855875 C260.0365256865816 1561.3697920481363 260.2400932868319 1560.832639312744 260.2400932868319 1560.1470923105871 C260.2400932868319 1558.684200922648 259.40326178073855 1557.9562062581376 257.72964190642006 1557.9562062581376 L255.45666449069944 1557.9562062581376 L255.45666449069944 1562.3027778625487 L257.72964190642006 1562.3027778625487 Z M272.2170204401013 1563.5042537689205 C272.2170204401013 1563.8012148539224 272.20006725788085 1564.1121526082356 272.1661393245058 1564.437239583333 L264.73656898339556 1564.437239583333 C264.79310115973124 1565.3560761769609 265.10408205191266 1566.0699216206867 265.6694900910056 1566.5929251352945 C266.2462218205131 1567.1017794291179 266.9416905323661 1567.3562928517658 267.7558746576306 1567.3562928517658 C268.4230664968487 1567.3562928517658 268.9771939833956 1567.2006514231362 269.4182139794029 1566.8967882792153 C269.8705360968905 1566.57877591451 270.187168049812 1566.161719004313 270.3681098381675 1565.6387154897052 L272.03042759100566 1565.6387154897052 C271.7816515048342 1566.5363282521562 271.2840777635571 1567.2643229166665 270.5377279361086 1567.8297740936277 C269.79137810866007 1568.3810760498045 268.86410806179015 1568.6637153625488 267.7558746576306 1568.6637153625488 C266.873834665616 1568.6637153625488 266.0822547833122 1568.4657988230388 265.381135010719 1568.0699657440182 C264.6913173596061 1567.674305216471 264.14853513240786 1567.1088540395099 263.7527451912559 1566.387933985392 C263.35693368116983 1565.6528647104897 263.15903871059385 1564.804774220784 263.15903871059385 1563.8434899648028 C263.15903871059385 1562.8823782602944 263.3512826204297 1562.0413623809814 263.7357704401013 1561.313367716471 C264.1202582597729 1560.5924476623532 264.6574109951652 1560.0411457061764 265.34720707734397 1559.6523872375487 C266.0483268499371 1559.2565541585286 266.8512088537213 1559.0586376190186 267.7558746576306 1559.0586376190186 C268.6379362185793 1559.0586376190186 269.4182139794029 1559.2494795481362 270.0967079401013 1559.6382380167643 C270.77520190079974 1560.019921875 271.2954014539715 1560.5499999999997 271.6572634617484 1561.2284723917642 C272.03042759100566 1561.8998701731362 272.2170204401013 1562.6561632792154 272.2170204401013 1563.5042537689205 Z M270.62253698507914 1563.1791667938232 C270.62253698507914 1562.592491785685 270.49249788125326 1562.0907121022542 270.2324196736015 1561.6738277435302 C269.97231989701555 1561.2426216125486 269.6161089499788 1560.917534637451 269.16376526355714 1560.7054688771564 C268.72274526754984 1560.4792538960774 268.23084415594707 1560.3662326812741 267.68804035981464 1560.3662326812741 C266.9077625989911 1560.3662326812741 266.24057075977294 1560.61367149353 265.6864648421602 1561.115451176961 C265.14366104602783 1561.6101562499998 264.8326801538464 1562.3027778625487 264.75352216561606 1563.1791667938232 L270.62253698507914 1563.1791667938232 Z M277.54536678791015 1568.6637153625488 C276.83294489383667 1568.6637153625488 276.1940299272534 1568.5436195373532 275.6286003192263 1568.3032553354897 C275.06319228013325 1568.0559890747068 274.6164996544517 1567.716580327352 274.2885655800498 1567.2855467478435 C273.960631505648 1566.8472660064695 273.77968971729246 1566.3454863230386 273.74576178391743 1565.7800351460774 L275.3402452389396 1565.7800351460774 C275.38547529379497 1566.2395397186278 275.60032344659135 1566.6212235768635 275.984811266263 1566.9109374999998 C276.38060120741494 1567.2077260335286 276.89512813091244 1567.3562928517658 277.5284136056897 1567.3562928517658 C278.1164474566774 1567.3562928517658 278.5800716956453 1567.221875254313 278.9193294604616 1566.9675343831377 C279.2585872252779 1566.7059463500973 279.428205323219 1566.3737847646075 279.428205323219 1565.9779516855874 C279.428205323219 1565.5752165476479 279.24726353486346 1565.271180852254 278.8854015270866 1565.0803389231364 C278.5235395193097 1564.875520324707 277.9637825409568 1564.6776037851969 277.20610902309386 1564.4867618560788 C276.5163129409151 1564.3100691477457 275.95088333288794 1564.1263018290201 275.5098633368807 1563.9425345102945 C275.0801454623537 1563.7516925811765 274.7069813330965 1563.4759553273516 274.39034938017494 1563.115667851766 C274.0850195487337 1562.7410586039223 273.93235463301306 1562.2532555898028 273.93235463301306 1561.6526039123532 C273.93235463301306 1561.1789501190183 274.0737174272534 1560.7479165395098 274.3564214467999 1560.3520834604897 C274.6391254663464 1559.9562503814695 275.0405664682385 1559.6453126271563 275.5607444524762 1559.4190976460773 C276.08094400564795 1559.1789059956868 276.67462891737586 1559.0586376190186 277.341820756594 1559.0586376190186 C278.3708746035891 1559.0586376190186 279.20203348000814 1559.3202256520585 279.8352973858512 1559.8432291666663 C280.4685612916943 1560.3591580708821 280.8078190565106 1561.0730035146075 280.8530491113659 1561.977690887451 L279.3094683408734 1561.977690887451 C279.27554040749834 1561.4900604248046 279.0776454369224 1561.1013019561765 278.7157834291455 1560.8045134226477 C278.3652235428489 1560.5146269480383 277.8902756134666 1560.3662326812741 277.29093964099854 1560.3662326812741 C276.7368121544517 1560.3662326812741 276.2957921584444 1560.4863285064694 275.9678580840425 1560.7196180979408 C275.6399024407066 1560.9599822998043 275.4759354035056 1561.2709200541176 275.4759354035056 1561.6526039123532 C275.4759354035056 1561.9635416666665 275.5720681428906 1562.2180550893145 275.76431205272644 1562.4157990773515 C275.9678580840425 1562.613715616862 276.21663417021404 1562.7691844940182 276.51066188017495 1562.896527481079 C276.8159701426821 1563.0095486958821 277.23438589572874 1563.1367191314694 277.76588757038087 1563.285285949707 C278.433079409599 1563.4619786580402 278.9758616367973 1563.6457459767657 279.3942773898439 1563.8293407440183 C279.8126931428906 1563.9991313934324 280.16890408992737 1564.2534722646074 280.46291023095415 1564.606857681274 C280.7682400623954 1564.9602430979407 280.9265560388562 1565.4126730600992 280.9378581603365 1565.9779516855874 C280.9378581603365 1566.4868059794107 280.7965169350303 1566.9463105519612 280.5138129154838 1567.3562928517658 C280.23108732700314 1567.7590279897054 279.82964632511107 1568.0841149648031 279.3094683408734 1568.3244791666666 C278.800592478116 1568.5506941477456 278.21255862712826 1568.6637153625488 277.54536678791015 1568.6637153625488 Z M282.54010643164287 1563.8293407440183 C282.54010643164287 1562.875303649902 282.73235034147865 1562.0484369913734 283.11683816115027 1561.334591547648 C283.50132598082195 1560.6065968831376 284.02715502579974 1560.0482203165689 284.6943468650179 1559.6523872375487 C285.37286239465044 1559.2565541585286 286.1248632828391 1559.0586376190186 286.950371098518 1559.0586376190186 C287.76457679271664 1559.0586376190186 288.47134762605 1559.2353303273517 289.07068359851803 1559.5887157440184 C289.6700195709861 1559.9351991017656 290.11669062773353 1560.3803819020586 290.41071833769445 1560.910460027059 L290.41071833769445 1559.2142790476478 L291.9712738593416 1559.2142790476478 L291.9712738593416 1568.5082464853922 L290.41071833769445 1568.5082464853922 L290.41071833769445 1566.7766924540201 C290.10538850625323 1567.3209197998044 289.64739375909136 1567.7731772104898 289.036755665143 1568.1336372375486 C288.43741969267495 1568.4870226542153 287.73629992008176 1568.6637153625488 286.93339634736344 1568.6637153625488 C286.1078885316845 1568.6637153625488 285.361538704236 1568.4587242126463 284.6943468650179 1568.0489144643147 C284.02715502579974 1567.6460067749022 283.50132598082195 1567.0734809875485 283.11683816115027 1566.3384117126461 C282.73235034147865 1565.6033424377438 282.54010643164287 1564.7623265584307 282.54010643164287 1563.8293407440183 Z M290.41071833769445 1563.8434899648028 C290.41071833769445 1563.1437937418618 290.26935554345414 1562.5289928436277 289.98665152390765 1562.0130639394124 C289.70394750436117 1561.4900604248046 289.3194596846895 1561.0942273457845 288.83320963382687 1560.8255647023516 C288.35826170444454 1560.5429253896077 287.8324110905326 1560.4016057332356 287.2557009299593 1560.4016057332356 C286.67896920045183 1560.4016057332356 286.1531185865399 1560.5358507792153 285.6781706571576 1560.8045134226477 C285.20322272777526 1561.080078125 284.8244075377779 1561.4759112040201 284.54168194929724 1561.9918401082355 C284.25897792975076 1562.5148436228433 284.1176367044446 1563.122569910685 284.1176367044446 1563.8293407440183 C284.1176367044446 1564.5361115773517 284.25897792975076 1565.1581596374508 284.54168194929724 1565.695312372843 C284.8244075377779 1566.211241277059 285.20322272777526 1566.614148966471 285.6781706571576 1566.8967882792153 C286.1531185865399 1567.1654509226478 286.67896920045183 1567.30677057902 287.2557009299593 1567.30677057902 C287.8324110905326 1567.30677057902 288.35826170444454 1567.1654509226478 288.83320963382687 1566.8967882792153 C289.3194596846895 1566.614148966471 289.70394750436117 1566.211241277059 289.98665152390765 1565.695312372843 C290.26935554345414 1565.1581596374508 290.41071833769445 1564.5431861877441 290.41071833769445 1563.8434899648028 Z M299.10895181496903 1559.0446609497067 C300.2397894620892 1559.0446609497067 301.1557573874788 1559.3909717559814 301.856877160072 1560.0765187581378 C302.55799693266516 1560.7549911499023 302.9085352500276 1561.7373266855875 302.9085352500276 1563.0307725270586 L302.9085352500276 1568.5082464853922 L301.38192923068965 1568.5082464853922 L301.38192923068965 1563.2499128977456 C301.38192923068965 1562.3240016937252 301.15010632673864 1561.6172308603918 300.6864605188366 1561.1296003977454 C300.22281471093464 1560.634895324707 299.5895508050915 1560.3803819020586 298.78664723237324 1560.3803819020586 C297.97246310710875 1560.3803819020586 297.32222445011104 1560.634895324707 296.8359743992484 1561.14374961853 C296.3610264698661 1561.6526039123532 296.1235525051749 1562.394747797648 296.1235525051749 1563.3700087229408 L296.1235525051749 1568.5082464853922 L294.57995016574824 1568.5082464853922 L294.57995016574824 1559.2142790476478 L296.1235525051749 1559.2142790476478 L296.1235525051749 1560.5358507792153 C296.42886076768207 1560.0623695373533 296.84162545998856 1559.6948348999022 297.36180344422627 1559.4332468668617 C297.89330511887835 1559.1718313852944 298.47568790912595 1559.0446609497067 299.10895181496903 1559.0446609497067 Z M310.78339623610145 1557.7016928354897 C310.4893685261405 1557.7016928354897 310.240592439969 1557.602820841471 310.0370464086529 1557.3978296915689 C309.8448024988171 1557.1928385416663 309.7486697594321 1556.9453997294104 309.7486697594321 1556.648611195882 C309.7486697594321 1556.3588972727457 309.8448024988171 1556.1114584604898 310.0370464086529 1555.9064673105872 C310.240592439969 1555.7014761606852 310.4893685261405 1555.6026041666664 310.78339623610145 1555.6026041666664 C311.07740237712824 1555.6026041666664 311.32052740255955 1555.7014761606852 311.5127713123954 1555.9064673105872 C311.7163173437115 1556.1114584604898 311.8181011438366 1556.3588972727457 311.8181011438366 1556.648611195882 C311.8181011438366 1556.9453997294104 311.7163173437115 1557.1928385416663 311.5127713123954 1557.3978296915689 C311.32052740255955 1557.602820841471 311.07740237712824 1557.7016928354897 310.78339623610145 1557.7016928354897 Z M311.5466992457704 1570.5296869913736 C311.5466992457704 1571.3494790395098 311.3375021537141 1571.9572053273519 310.9190864006675 1572.3388891855875 C310.5006706476208 1572.7276476542152 309.8900325536724 1572.9184895833332 309.08712898095416 1572.9184895833332 L308.188114237785 1572.9184895833332 L308.188114237785 1571.6108945210772 L308.8327018340425 1571.6108945210772 C309.2624197085695 1571.6108945210772 309.5620769103365 1571.5261717478434 309.73171657721167 1571.3565536499023 C309.9126367966331 1571.1869355519611 310.00311847527786 1570.8970490773518 310.00311847527786 1570.4943139394122 L310.00311847527786 1559.2142790476478 L311.5466992457704 1559.2142790476478 L311.5466992457704 1570.5296869913736 Z M313.58291447162594 1563.8293407440183 C313.58291447162594 1562.875303649902 313.77513681252765 1562.0484369913734 314.15962463219927 1561.334591547648 C314.5441124518709 1560.6065968831376 315.0699414968487 1560.0482203165689 315.73713333606685 1559.6523872375487 C316.41564886569944 1559.2565541585286 317.1676497538881 1559.0586376190186 317.993157569567 1559.0586376190186 C318.80736326376564 1559.0586376190186 319.514134097099 1559.2353303273517 320.11347006956703 1559.5887157440184 C320.7128060420351 1559.9351991017656 321.1594986677166 1560.3803819020586 321.45350480874345 1560.910460027059 L321.45350480874345 1559.2142790476478 L323.0140603303906 1559.2142790476478 L323.0140603303906 1568.5082464853922 L321.45350480874345 1568.5082464853922 L321.45350480874345 1566.7766924540201 C321.1481749773022 1567.3209197998044 320.69020179907443 1567.7731772104898 320.07954213619195 1568.1336372375486 C319.4802061637239 1568.4870226542153 318.7790863911307 1568.6637153625488 317.97618281841244 1568.6637153625488 C317.1506750027335 1568.6637153625488 316.404325175285 1568.4587242126463 315.73713333606685 1568.0489144643147 C315.0699414968487 1567.6460067749022 314.5441124518709 1567.0734809875485 314.15962463219927 1566.3384117126461 C313.77513681252765 1565.6033424377438 313.58291447162594 1564.7623265584307 313.58291447162594 1563.8293407440183 Z M321.45350480874345 1563.8434899648028 C321.45350480874345 1563.1437937418618 321.31214201450314 1562.5289928436277 321.0294379949566 1562.0130639394124 C320.7467339754101 1561.4900604248046 320.3622461557385 1561.0942273457845 319.87599610487587 1560.8255647023516 C319.40104817549354 1560.5429253896077 318.87519756158156 1560.4016057332356 318.29848740100823 1560.4016057332356 C317.72175567150083 1560.4016057332356 317.195926626523 1560.5358507792153 316.7209571282065 1560.8045134226477 C316.2460091988242 1561.080078125 315.86719400882686 1561.4759112040201 315.58448998928037 1561.9918401082355 C315.3017644007997 1562.5148436228433 315.1604231754935 1563.122569910685 315.1604231754935 1563.8293407440183 C315.1604231754935 1564.5361115773517 315.3017644007997 1565.1581596374508 315.58448998928037 1565.695312372843 C315.86719400882686 1566.211241277059 316.2460091988242 1566.614148966471 316.7209571282065 1566.8967882792153 C317.195926626523 1567.1654509226478 317.72175567150083 1567.30677057902 318.29848740100823 1567.30677057902 C318.87519756158156 1567.30677057902 319.40104817549354 1567.1654509226478 319.87599610487587 1566.8967882792153 C320.3622461557385 1566.614148966471 320.7467339754101 1566.211241277059 321.0294379949566 1565.695312372843 C321.31214201450314 1565.1581596374508 321.45350480874345 1564.5431861877441 321.45350480874345 1563.8434899648028 Z M325.0460264762239 1563.8293407440183 C325.0460264762239 1562.875303649902 325.2382703860597 1562.0484369913734 325.62273663679724 1561.334591547648 C326.00722445646886 1560.6065968831376 326.5330750703808 1560.0482203165689 327.20026690959895 1559.6523872375487 C327.8787608702974 1559.2565541585286 328.6364128192262 1559.0586376190186 329.47324432531957 1559.0586376190186 C330.19696834087335 1559.0586376190186 330.86981124083167 1559.2284282684323 331.49177302519445 1559.5676644643145 C332.11373480955723 1559.8998260498047 332.58868273893955 1560.3308596293127 332.9166168133414 1560.8750869750975 L332.9166168133414 1555.9559895833331 L334.47717233498855 1555.9559895833331 L334.47717233498855 1568.5082464853922 L332.9166168133414 1568.5082464853922 L332.9166168133414 1566.7625432332356 C332.61128698190015 1567.3138451894124 332.15896486441255 1567.7731772104898 331.5596288919445 1568.1336372375486 C330.9602713505423 1568.4870226542153 330.25917314688326 1568.6637153625488 329.456269574165 1568.6637153625488 C328.6307617584861 1568.6637153625488 327.8787608702974 1568.4587242126463 327.20026690959895 1568.0489144643147 C326.5330750703808 1567.6460067749022 326.00722445646886 1567.0734809875485 325.62273663679724 1566.3384117126461 C325.2382703860597 1565.6033424377438 325.0460264762239 1564.7623265584307 325.0460264762239 1563.8293407440183 Z M332.9166168133414 1563.8434899648028 C332.9166168133414 1563.1437937418618 332.77527558803524 1562.5289928436277 332.49254999955457 1562.0130639394124 C332.2098459800081 1561.4900604248046 331.82535816033646 1561.0942273457845 331.33910810947384 1560.8255647023516 C330.8641601800915 1560.5429253896077 330.33833113511366 1560.4016057332356 329.7615994056062 1560.4016057332356 C329.1848676760988 1560.4016057332356 328.65903863112095 1560.5358507792153 328.1840907017386 1560.8045134226477 C327.7091427723563 1561.080078125 327.33030601342483 1561.4759112040201 327.04760199387835 1561.9918401082355 C326.7648979743318 1562.5148436228433 326.6235351800915 1563.122569910685 326.6235351800915 1563.8293407440183 C326.6235351800915 1564.5361115773517 326.7648979743318 1565.1581596374508 327.04760199387835 1565.695312372843 C327.33030601342483 1566.211241277059 327.7091427723563 1566.614148966471 328.1840907017386 1566.8967882792153 C328.65903863112095 1567.1654509226478 329.1848676760988 1567.30677057902 329.7615994056062 1567.30677057902 C330.33833113511366 1567.30677057902 330.8641601800915 1567.1654509226478 331.33910810947384 1566.8967882792153 C331.82535816033646 1566.614148966471 332.2098459800081 1566.211241277059 332.49254999955457 1565.695312372843 C332.77527558803524 1565.1581596374508 332.9166168133414 1564.5431861877441 332.9166168133414 1563.8434899648028 Z M349.468487445513 1559.2142790476478 L346.56789718468946 1568.5082464853922 L344.97343529860143 1568.5082464853922 L342.73438581625584 1561.1296003977454 L340.4953147649761 1568.5082464853922 L338.9008528788881 1568.5082464853922 L335.98330943584403 1559.2142790476478 L337.56081813971167 1559.2142790476478 L339.69808382193213 1567.0168841044106 L342.0049891710278 1559.2142790476478 L343.58249787489535 1559.2142790476478 L345.8385221083955 1567.031033325195 L347.94185985724096 1559.2142790476478 L349.468487445513 1559.2142790476478 Z M350.4233441591259 1563.8293407440183 C350.4233441591259 1562.875303649902 350.61556650002757 1562.0484369913734 351.00005431969925 1561.334591547648 C351.38454213937086 1560.6065968831376 351.91037118434866 1560.0482203165689 352.5775630235668 1559.6523872375487 C353.2560785531994 1559.2565541585286 354.0080794413881 1559.0586376190186 354.833587257067 1559.0586376190186 C355.6477929512656 1559.0586376190186 356.3545637845989 1559.2353303273517 356.953899757067 1559.5887157440184 C357.55323572953506 1559.9351991017656 357.9999283552166 1560.3803819020586 358.2939344962434 1560.910460027059 L358.2939344962434 1559.2142790476478 L359.85449001789056 1559.2142790476478 L359.85449001789056 1568.5082464853922 L358.2939344962434 1568.5082464853922 L358.2939344962434 1566.7766924540201 C357.98860466480215 1567.3209197998044 357.5306314865744 1567.7731772104898 356.9199718236919 1568.1336372375486 C356.32063585122387 1568.4870226542153 355.6195160786307 1568.6637153625488 354.8166125059124 1568.6637153625488 C353.9911046902335 1568.6637153625488 353.244754862785 1568.4587242126463 352.5775630235668 1568.0489144643147 C351.91037118434866 1567.6460067749022 351.38454213937086 1567.0734809875485 351.00005431969925 1566.3384117126461 C350.61556650002757 1565.6033424377438 350.4233441591259 1564.7623265584307 350.4233441591259 1563.8293407440183 Z M358.2939344962434 1563.8434899648028 C358.2939344962434 1563.1437937418618 358.1525717020031 1562.5289928436277 357.8698676824566 1562.0130639394124 C357.5871636629101 1561.4900604248046 357.20267584323847 1561.0942273457845 356.71642579237584 1560.8255647023516 C356.2414778629935 1560.5429253896077 355.71562724908154 1560.4016057332356 355.1389170885082 1560.4016057332356 C354.56218535900075 1560.4016057332356 354.03635631402295 1560.5358507792153 353.5613868157065 1560.8045134226477 C353.0864388863242 1561.080078125 352.70762369632683 1561.4759112040201 352.42491967678035 1561.9918401082355 C352.1421940882997 1562.5148436228433 352.0008528629935 1563.122569910685 352.0008528629935 1563.8293407440183 C352.0008528629935 1564.5361115773517 352.1421940882997 1565.1581596374508 352.42491967678035 1565.695312372843 C352.70762369632683 1566.211241277059 353.0864388863242 1566.614148966471 353.5613868157065 1566.8967882792153 C354.03635631402295 1567.1654509226478 354.56218535900075 1567.30677057902 355.1389170885082 1567.30677057902 C355.71562724908154 1567.30677057902 356.2414778629935 1567.1654509226478 356.71642579237584 1566.8967882792153 C357.20267584323847 1566.614148966471 357.5871636629101 1566.211241277059 357.8698676824566 1565.695312372843 C358.1525717020031 1565.1581596374508 358.2939344962434 1564.5431861877441 358.2939344962434 1563.8434899648028 Z M364.0067470947898 1555.9559895833331 L364.0067470947898 1568.5082464853922 L362.46318789323135 1568.5082464853922 L362.46318789323135 1555.9559895833331 L364.0067470947898 1555.9559895833331 Z "></path>
    </defs>
    <g>
      <use xmlns:xlink="http://www.w3.org/1999/xlink" xlink:href="#s-Path_44-f9c6f" fill="#000000" fill-opacity="1.0" filter="none"></use>
    </g>
  </g>
</svg>
