<?xml version="1.0" encoding="UTF-8"?>
<svg xmlns="http://www.w3.org/2000/svg" width="18.393310546875" height="17.5491943359375" viewBox="826.9217961570333 807.8390625 18.393310546875 17.5491943359375" preserveAspectRatio="none">
  <g>
    <defs>
      <path id="s-Path_77-8264f" d="M845.2660251959929 814.1364147822064 C845.2095145885913 813.9738712946573 845.1034817084441 813.8325516382854 844.9620757763356 813.7265187581381 C844.8136815095712 813.6204858779909 844.6440634116301 813.556900660197 844.4673707032968 813.5427514394125 L839.2231000606981 813.1469183603922 L836.9543932939338 808.355077679952 C836.8837334657479 808.1995225270591 836.763551364816 808.0723520914714 836.6151570980518 807.9804684321086 C836.4666765555509 807.8885847727458 836.2970584576098 807.8390625 836.1203657492764 807.8390625 C835.943673040943 807.8390625 835.7669803326097 807.8885847727458 835.6185860658453 807.9804684321086 C835.4701917990811 808.0723520914714 835.3500096981492 808.1995225270591 835.2793498699633 808.355077679952 L833.0106431031987 813.1469183603922 L827.7663724606003 813.5427514394125 C827.596754362659 813.556900660197 827.4271362647181 813.6204858779909 827.2857303326094 813.7194441477457 C827.1444106762373 813.8254770278932 827.0383777960902 813.9667966842653 826.9747925782964 814.1222655614217 C826.9182819708948 814.2778207143149 826.9041327501103 814.454513422648 826.9464941367274 814.6170569101969 C826.9889417990809 814.779600397746 827.0737508480514 814.9279946645104 827.2009212836389 815.0481767654419 L831.0740979219246 818.6526907602945 L829.7029176418747 824.3139320373537 C829.6605562552576 824.4835501352948 829.6746192003058 824.6673174540203 829.7453653042284 824.8298609415692 C829.808950522022 824.9924044291179 829.9290463472172 825.1338103612266 830.0775268897181 825.2327686309816 C830.2259211564825 825.3316406250001 830.4096884752081 825.388237508138 830.5934557939337 825.388237508138 C830.7772231126593 825.388237508138 830.9609904313849 825.3387152353923 831.1093846981493 825.2397569656373 L836.1203657492764 822.0592882156373 L841.1243584657478 825.2397569656373 C841.2798273429045 825.3387152353923 841.46359466163 825.388237508138 841.6544365907481 825.388237508138 C841.8452785198657 825.381162897746 842.0219712281993 825.3246522903444 842.1774401053557 825.2186194101971 C842.3258343721201 825.1125865300496 842.4460164730518 824.9641922632852 842.5025270804534 824.7945741653443 C842.566112298247 824.6248697916667 842.5731869086393 824.4411887486779 842.5166763012379 824.271484375 L840.8416328772672 818.6526907602945 L845.0115980490813 815.0764752070108 C845.2801744167774 814.8361110051476 845.3862072969247 814.4685763676964 845.2660251959929 814.1364147822064 L845.2660251959929 814.1364147822064 Z "></path>
    </defs>
    <g>
      <use xmlns:xlink="http://www.w3.org/1999/xlink" xlink:href="#s-Path_77-8264f" fill="#FFD233" fill-opacity="1.0" filter="none"></use>
    </g>
  </g>
</svg>
