<?xml version="1.0" encoding="UTF-8"?>
<svg xmlns="http://www.w3.org/2000/svg" width="116.772705078125" height="11.9443359375" viewBox="772.500520833334 778.8614583333328 116.772705078125 11.9443359375" preserveAspectRatio="none">
  <g>
    <defs>
      <path id="s-Path_67-8264f" d="M772.500520833334 788.5441842397047 L774.4582898457853 788.5441842397047 L774.4582898457853 785.2647572199498 L775.8859807332364 785.2647572199498 L777.6387585957854 788.5441842397047 L779.7944441477467 788.5441842397047 L777.8296005249032 784.9467448552443 C778.8826821645108 784.4944011688226 779.4692708969125 783.5826391855869 779.4692708969125 782.3174917856848 C779.4692708969125 780.472830263773 778.2536457697557 779.2925781885776 776.1545571009325 779.2925781885776 L772.500520833334 779.2925781885776 L772.500520833334 788.5441842397047 Z M774.4582898457853 783.6886720657344 L774.4582898457853 780.88988717397 L775.7799478530891 780.88988717397 C776.903689320883 780.88988717397 777.4549912770598 781.3916668574009 777.4549912770598 782.3174917856848 C777.4549912770598 783.2292537689204 776.903689320883 783.6886720657344 775.7870224634813 783.6886720657344 L774.4582898457853 783.6886720657344 Z M780.8475257873544 788.5441842397047 L782.8052947998054 788.5441842397047 L782.8052947998054 785.5474828084305 L784.4520397822072 785.5474828084305 C786.5794268925991 785.5474828084305 787.8162758509326 784.2752607981358 787.8162758509326 782.4305992762243 C787.8162758509326 780.5859377543127 786.6006507237761 779.2925781885776 784.5014757792163 779.2925781885776 L780.8475257873544 779.2925781885776 L780.8475257873544 788.5441842397047 Z M782.8052947998054 783.978472264607 L782.8052947998054 780.88988717397 L784.1269528071092 780.88988717397 C785.2577688852954 780.88988717397 785.8019962310797 781.5047743479406 785.8019962310797 782.4305992762243 C785.8019962310797 783.3423612594597 785.2577688852954 783.978472264607 784.1339411417651 783.978472264607 L782.8052947998054 783.978472264607 Z M789.7386718114225 788.6643663406367 C790.3181859334317 788.6643663406367 790.8200518925993 788.1766496022535 790.8271265029913 787.5759116490674 C790.8200518925993 786.982248306274 790.3181859334317 786.501606178283 789.7386718114225 786.501606178283 C789.1450084686288 786.501606178283 788.6502171198537 786.982248306274 788.6572917302457 787.5759116490674 C788.6502171198537 788.1766496022535 789.1450084686288 788.6643663406367 789.7386718114225 788.6643663406367 Z M794.7567274729419 786.9185768127436 L799.1952690124521 786.9185768127436 L799.1952690124521 788.5441842397047 L801.0682289759326 788.5441842397047 L801.0682289759326 786.9185768127436 L802.2131942749032 786.9185768127436 L802.2131942749032 785.3495662689202 L801.0682289759326 785.3495662689202 L801.0682289759326 779.2925781885776 L798.6227432250984 779.2925781885776 L794.7567274729419 785.3778647104893 L794.7567274729419 786.9185768127436 Z M799.2306420644132 785.3495662689202 L796.7286457061776 785.3495662689202 L796.7286457061776 785.2789064407343 L799.1598959604909 781.4270399093621 L799.2306420644132 781.4270399093621 L799.2306420644132 785.3495662689202 Z M806.8990883509326 788.6714409510289 C808.9558156331387 788.6714409510289 810.3622826894133 787.3285591125482 810.3552080790208 785.4555991490677 C810.3622826894133 783.6886720657344 809.1183591206876 782.4164500554396 807.4573786417651 782.4164500554396 C806.6375865936285 782.4164500554396 805.9378903706876 782.7557725270583 805.6127171198535 783.2080299377435 L805.5632811228444 783.2080299377435 L805.8035590489714 780.88988717397 L809.8462675094612 780.88988717397 L809.8462675094612 779.2925781885776 L804.1851125081388 779.2925781885776 L803.746831766765 784.1693141937249 L805.4855466842658 784.4802519480381 C805.7753468831387 784.0985680898025 806.3265625635789 783.8582901636753 806.8707899093637 783.8582901636753 C807.8037757237761 783.8653647740678 808.4680988947558 784.5367625554397 808.4680988947558 785.505035146077 C808.4680988947558 786.4733077367141 807.8178386688238 787.1377171834304 806.8990883509326 787.1377171834304 C806.1216576894132 787.1377171834304 805.4926212946581 786.6500004450475 805.4501736323047 785.9291666666661 L803.5490015029915 785.9291666666661 C803.5842882792161 787.5264756520585 804.9836807250982 788.6714409510289 806.8990883509326 788.6714409510289 Z M812.574478848776 788.6643663406367 C813.1539929707852 788.6643663406367 813.6557726542163 788.1766496022535 813.6628472646086 787.5759116490674 C813.6557726542163 786.982248306274 813.1539929707852 786.501606178283 812.574478848776 786.501606178283 C811.9807292302456 786.501606178283 811.486024157207 786.982248306274 811.4930987675992 787.5759116490674 C811.486024157207 788.1766496022535 811.9807292302456 788.6643663406367 812.574478848776 788.6643663406367 Z M818.4618488311775 788.7491753896072 C820.7942270914722 788.7491753896072 822.1936195373543 786.9751736958817 822.2006941477467 783.9289499918614 C822.2077687581387 780.8969617843622 820.7800778706877 779.1653214772537 818.4618488311775 779.1653214772537 C816.1436197916674 779.1653214772537 814.7300781250009 780.8969617843622 814.7300781250009 783.9289499918614 C814.7230035146084 786.9680990854893 816.136545181275 788.742100779215 818.4618488311775 788.7491753896072 Z M818.4618488311775 787.1235679626459 C817.4016925811776 787.1235679626459 816.7161455790211 786.0563371022538 816.7232201894132 783.9289499918614 C816.7232201894132 781.8298613230381 817.4087671915698 780.7697050730383 818.4618488311775 780.7697050730383 C819.5149304707853 780.7697050730383 820.207552083334 781.8298613230381 820.207552083334 783.9289499918614 C820.207552083334 786.0563371022538 819.5220050811773 787.1235679626459 818.4618488311775 787.1235679626459 Z M827.2258244196584 788.7491753896072 C829.5510417938241 788.7491753896072 830.9575088500984 786.9751736958817 830.9575088500984 783.9289499918614 C830.9645834604909 780.8969617843622 829.5439671834318 779.1653214772537 827.2258244196584 779.1653214772537 C824.9005207697559 779.1653214772537 823.4940537134813 780.8969617843622 823.4869791030891 783.9289499918614 C823.4799044926968 786.9680990854893 824.8934461593636 788.742100779215 827.2258244196584 788.7491753896072 Z M827.2258244196584 787.1235679626459 C826.158593559266 787.1235679626459 825.4730465571093 786.0563371022538 825.4800348917653 783.9289499918614 C825.4871095021573 781.8298613230381 826.165668169658 780.7697050730383 827.2258244196584 780.7697050730383 C828.278906059266 780.7697050730383 828.9644530614224 781.8298613230381 828.9644530614224 783.9289499918614 C828.9644530614224 786.0563371022538 828.278906059266 787.1235679626459 827.2258244196584 787.1235679626459 Z M835.9827253977465 788.7491753896072 C838.3079427719125 788.7491753896072 839.7144098281866 786.9751736958817 839.7214844385791 783.9289499918614 C839.7214844385791 780.8969617843622 838.30086816152 779.1653214772537 835.9827253977465 779.1653214772537 C833.6574217478441 779.1653214772537 832.25095469157 780.8969617843622 832.2438800811775 783.9289499918614 C832.2368054707853 786.9680990854893 833.6503471374521 788.742100779215 835.9827253977465 788.7491753896072 Z M835.9827253977465 787.1235679626459 C834.9225691477465 787.1235679626459 834.2369358698535 786.0563371022538 834.2369358698535 783.9289499918614 C834.2440104802457 781.8298613230381 834.9225691477465 780.7697050730383 835.9827253977465 780.7697050730383 C837.0358070373544 780.7697050730383 837.7213540395109 781.8298613230381 837.7213540395109 783.9289499918614 C837.7284286499031 786.0563371022538 837.0428816477464 787.1235679626459 835.9827253977465 787.1235679626459 Z M842.8383679707853 787.2790368398025 L841.2481335957854 787.2790368398025 L841.2269097646084 787.7879774093622 C841.170399157207 789.0106771469109 840.8170137405401 790.2757382710768 840.6897570292161 790.805816396077 L841.933680597942 790.805816396077 C842.1528209686288 790.2546007156366 842.6687498728444 788.9753040949497 842.7889319737759 787.7738281885777 L842.8383679707853 787.2790368398025 Z M848.923654492697 783.978472264607 L844.7042533238736 783.978472264607 L844.7042533238736 785.505035146077 L848.923654492697 785.505035146077 L848.923654492697 783.978472264607 Z M857.532161204021 778.8614583333328 L855.8782553354907 778.8614583333328 L852.8957031250008 789.9365020751948 L854.5565973281867 789.9365020751948 L857.532161204021 778.8614583333328 Z M863.3347221374519 784.5296879450475 C863.3347221374519 783.639236068725 863.8860240936286 783.1161462783807 864.6705293655401 783.1161462783807 C865.4479600270596 783.1161462783807 865.914452934266 783.6180122375481 865.9073783238736 784.4661027272537 L865.9073783238736 788.5441842397047 L867.8297742843637 788.5441842397047 L867.8297742843637 784.1268665313714 C867.8368488947557 782.5012591044103 866.8756509145109 781.5118489583326 865.4338108062751 781.5118489583326 C864.3807291666675 781.5118489583326 863.6739583333341 782.0136286417637 863.3559459686288 782.8264323552444 L863.2782115300505 782.8264323552444 L863.2782115300505 779.2925781885776 L861.40525156657 779.2925781885776 L861.40525156657 788.5441842397047 L863.3347221374519 788.5441842397047 L863.3347221374519 784.5296879450475 Z M872.4802953084317 788.6784292856846 C874.5865448633837 788.6784292856846 875.8940536499032 787.2366754531854 875.8940536499032 785.102213732401 C875.8940536499032 782.9536027908321 874.5865448633837 781.5118489583326 872.4802953084317 781.5118489583326 C870.3741320292162 781.5118489583326 869.0666232426969 782.9536027908321 869.0666232426969 785.102213732401 C869.0666232426969 787.2366754531854 870.3741320292162 788.6784292856846 872.4802953084317 788.6784292856846 Z M872.4873699188241 787.1871531804397 C871.5190973281866 787.1871531804397 871.024392255148 786.2966150283808 871.024392255148 785.0880645116165 C871.024392255148 783.8795139948522 871.5190973281866 782.981901232401 872.4873699188241 782.981901232401 C873.4415795644132 782.981901232401 873.9433592478441 783.8795139948522 873.9433592478441 785.0880645116165 C873.9433592478441 786.2966150283808 873.4415795644132 787.1871531804397 872.4873699188241 787.1871531804397 Z M881.5976563135793 785.5898441950474 C881.6047309239715 786.52283000946 880.9615453084319 787.0104604721064 880.2759983062753 787.0104604721064 C879.5480036417651 787.0104604721064 879.0745223999032 786.4945315678908 879.0745223999032 785.6817278544102 L879.0745223999032 781.6037326176954 L877.1450518290209 781.6037326176954 L877.1450518290209 786.0210503260289 C877.1521264394131 787.6465714772537 878.0991751988737 788.6360678990675 879.498567644756 788.6360678990675 C880.5375000635792 788.6360678990675 881.2937931696582 788.0989151636754 881.6047309239715 787.2861114501948 L881.6753907521573 787.2861114501948 L881.6753907521573 788.5441842397047 L883.5201385498054 788.5441842397047 L883.5201385498054 781.6037326176954 L881.5976563135793 781.6037326176954 L881.5976563135793 785.5898441950474 Z M885.0608506520597 788.5441842397047 L886.9832466125496 788.5441842397047 L886.9832466125496 784.6215716044103 C886.9832466125496 783.7664065043125 887.6122830073047 783.1798177719111 888.4604597727467 783.1798177719111 C888.7219615300504 783.1798177719111 889.0894098917653 783.2221791585282 889.2731772104909 783.2787760416661 L889.2731772104909 781.5754341761265 C889.1035591125495 781.532986513773 888.8632811864226 781.5047743479406 888.6653646469125 781.5047743479406 C887.887933985393 781.5047743479406 887.2518229802457 781.9571180343623 886.9973958333343 782.8122831344599 L886.926736005148 782.8122831344599 L886.926736005148 781.6037326176954 L885.0608506520597 781.6037326176954 L885.0608506520597 788.5441842397047 Z "></path>
    </defs>
    <g>
      <use xmlns:xlink="http://www.w3.org/1999/xlink" xlink:href="#s-Path_67-8264f" fill="#000000" fill-opacity="1.0" filter="none"></use>
    </g>
  </g>
</svg>
