<?xml version="1.0" encoding="UTF-8"?>
<svg xmlns="http://www.w3.org/2000/svg" width="110.4462890625" height="25.42034912109375" viewBox="623.387604637072 607.131465287126 110.4462890625 25.42034912109375" preserveAspectRatio="none">
  <g>
    <defs>
      <path id="s-Path_34-0a187" d="M623.387604637072 632.1418794082259 L623.387604637072 607.4685962341258 L627.1102377708404 607.4685962341258 L627.1102377708404 628.9373020060658 L638.2902160800362 628.9373020060658 L638.2902160800362 632.1418794082259 L623.387604637072 632.1418794082259 Z M658.404013498378 607.4685962341258 L662.1386824010799 607.4685962341258 L662.1386824010799 623.696479567401 C662.1386824010799 625.4231594502693 661.7330036518046 626.9533413851419 660.9216030142973 628.2863351487111 C660.1109357390548 629.6115639000656 658.9701691667626 630.6562168767191 657.5000366596856 631.4188273541422 C656.0306375148733 632.1736728193504 654.3074518875021 632.5518289142193 652.3319896410578 632.5518289142193 C650.3642924068283 632.5518289142193 648.6453775361754 632.1736728193504 647.175288168055 631.4188273541422 C645.7058458842861 630.6562168767191 644.5650793119939 629.6115639000656 643.7544120367514 628.2863351487111 C642.9430113992441 626.9533413851419 642.5373326499688 625.4231594502693 642.5373326499688 623.696479567401 L642.5373326499688 607.4685962341258 L646.2599657837376 607.4685962341258 L646.2599657837376 623.3953696492873 C646.2599657837376 624.5121078226697 646.5052538918169 625.5036998825211 646.9950536067544 626.3709654690193 C647.4926183339066 627.2381879165608 648.1958696068423 627.9209481850402 649.1033838399882 628.4192031355007 C650.0108980731338 628.9090459893947 651.087344460912 629.1542909585174 652.3319896410578 629.1542909585174 C653.5851331956832 629.1542909585174 654.6651169779147 628.9090459893947 655.5726312110608 628.4192031355007 C656.4886438186862 627.9209481850402 657.1869341115954 627.2381879165608 657.668968814318 626.3709654690193 C658.1587685292552 625.5036998825211 658.404013498378 624.5121078226697 658.404013498378 623.3953696492873 L658.404013498378 607.4685962341258 Z M687.4657364647234 607.4685962341258 L687.4657364647234 632.1418794082259 L684.0442132490687 632.1418794082259 L671.5029420206758 614.046683193078 L671.273917299291 614.046683193078 L671.273917299291 632.1418794082259 L667.5512841655222 632.1418794082259 L667.5512841655222 607.4685962341258 L670.9968789190435 607.4685962341258 L683.5501427774129 625.5878208481831 L683.7791674987977 625.5878208481831 L683.7791674987977 607.4685962341258 L687.4657364647234 607.4685962341258 Z M694.9803270357575 632.1418794082259 L691.0286691806042 632.1418794082259 L699.9073567030242 607.4685962341258 L704.2088714974184 607.4685962341258 L713.0896728287192 632.1418794082259 L709.138705196874 632.1418794082259 L702.1605906919806 611.9503455898208 L701.9676301384386 611.9503455898208 L694.9803270357575 632.1418794082259 Z M695.6425962997806 622.4800904039264 L708.4602156851129 622.4800904039264 L708.4602156851129 625.6118492470928 L695.6425962997806 625.6118492470928 L695.6425962997806 622.4800904039264 Z M729.9112776237423 613.9498362351749 C729.7840177013303 612.8098030251474 729.2539262007886 611.9263171909114 728.3210031221171 611.2993787324663 C727.3879937655321 610.665408624071 726.2147004198505 610.3480353192625 724.8011230850726 610.3480353192625 C723.7904636063379 610.3480353192625 722.9140525610086 610.5085122383718 722.1718899490849 610.8300700219851 C721.4368452650248 611.1431725700751 720.864348169998 611.5764602516703 720.4543986640045 612.1312703744297 C720.0515239469179 612.6769350383579 719.8465707633995 613.2996027400849 719.8465707633995 613.9986263952588 C719.8465707633995 614.5845397058348 719.9879371246687 615.090602807467 720.256520269393 615.5160823378905 C720.5392098529746 615.9422952305786 720.906753764483 616.2992269587264 721.3520340760547 616.588301107907 C721.8114639654401 616.8696102448727 722.306181521447 617.1063568395156 722.8221665831317 617.2993173930573 C723.3451832947663 617.4837795721196 723.8469756396803 617.6364483400573 724.3276298957866 617.7573236968702 L726.7378034093989 618.3835287930506 C727.5294032657579 618.5764893465926 728.3350664220175 618.8373074791018 729.1620402229115 619.1666734138868 C729.9890140238053 619.4959962097148 730.7593895134437 619.929974114618 731.4661781808327 620.4678306273746 C732.1729668482217 621.0057302790881 732.7384322932983 621.6729173841807 733.1766378159627 622.4673644116853 C733.6148433386275 623.2631918858059 733.833902961003 624.2145352990096 733.833902961003 625.3227750979122 C733.833902961003 626.7208224082602 733.4734338384015 627.9612399706446 732.7524955931985 629.0454513706375 C732.0387184148162 630.1296627706307 730.9996735025401 630.9855828115038 729.6285449012039 631.6117879076842 C728.2714795997683 632.2379930038645 726.6317678537077 632.5518289142193 724.702248596202 632.5518289142193 C722.8574973887097 632.5518289142193 721.2601480981775 632.2584840083206 719.9102007246055 631.6718804744366 C718.5602102120769 631.0859240249038 717.5071019999003 630.2547657452052 716.7437581602125 629.178319357427 C715.980457459481 628.094107957434 715.5563583756737 626.8091709916839 715.4786219756104 625.3227750979122 L719.2104437071669 625.3227750979122 C719.2811484572798 626.2147593066283 719.5709128297683 626.9575690029033 720.0798231025458 627.5519806879589 C720.5957650252735 628.1379371374918 721.2459985203635 628.5761426601563 722.0446731656298 628.8652168093369 C722.8433478108957 629.1457925840377 723.7268336451319 629.2864687219989 724.6810242294811 629.2864687219989 C725.7341324416576 629.2864687219989 726.6670555203292 629.121764185128 727.4869545323161 628.7923982503432 C728.3139283332101 628.4552673033435 728.9641186893434 627.9894959873156 729.4376981565428 627.39508430226 C729.9112776237423 626.7929076049894 730.1515616128387 626.0896563320538 730.1515616128387 625.2867540690262 C730.1515616128387 624.5559370027275 729.9394905014566 623.9572545609537 729.522509345513 623.4914832449259 C729.1126029784762 623.0257119288981 728.5542123223065 622.6405241840791 727.8474236549175 622.3351866482038 C727.1477097764355 622.0298491123287 726.3561099200765 621.7605757442963 725.4726240858403 621.5280136284581 L722.5606582273141 620.7328763776455 C720.5816154474596 620.1950198648888 719.0196401014623 619.4034200085298 717.8604963335948 618.3595003941408 C716.7155021435411 617.315580779752 716.1359302596074 615.9337968560989 716.1359302596074 614.2148819854458 C716.1359302596074 612.7935396384529 716.52465539888 611.5524318527605 717.295074027475 610.4922488516771 C718.0654495171132 609.4320658505936 719.1115260793395 608.609362806418 720.4261426473332 608.0227161335772 C721.7478340042343 607.4283044485217 723.2320729501682 607.131465287126 724.8859342740428 607.131465287126 C726.5540314536447 607.131465287126 728.0311956106717 607.42407683076 729.3033634452239 608.0106803646441 C730.5897671355034 608.5973270374848 731.6004266142381 609.4045000572305 732.342589226162 610.4321562849248 C733.0847518380857 611.4520475004038 733.4663590494945 612.6246074838206 733.5017329940293 613.9498362351749 L729.9112776237423 613.9498362351749 Z "></path>
    </defs>
    <g>
      <use xmlns:xlink="http://www.w3.org/1999/xlink" xlink:href="#s-Path_34-0a187" fill="#000000" fill-opacity="1.0" filter="none"></use>
    </g>
  </g>
</svg>
