<?xml version="1.0" encoding="UTF-8"?>
<svg xmlns="http://www.w3.org/2000/svg" width="18.3914794921875" height="17.5491943359375" viewBox="872.8618657192277 1060.8630208333338 18.3914794921875 17.5491943359375" preserveAspectRatio="none">
  <g>
    <defs>
      <path id="s-Path_94-8264f" d="M875.6430836268459 1077.3378903706873 C875.6077105748847 1077.4651470820115 875.6077105748847 1077.599392127991 875.6430836268459 1077.7266488393152 C875.6712957926785 1077.8608938852951 875.7349672862086 1077.9810759862269 875.8197763351792 1078.080034255982 C875.9045853841498 1078.1859808603929 876.017606598953 1078.2707899093632 876.1377886998845 1078.3273867925013 C876.2650454112085 1078.3838973999027 876.3992904571884 1078.4121958414719 876.5406963892968 1078.4121958414719 C876.7173890976306 1078.4121958414719 876.9010701406195 1078.362673568726 877.0495506831204 1078.263715298971 L882.0534571238553 1075.083246548971 L887.0644381749825 1078.263715298971 C887.2199933278754 1078.362673568726 887.403760646601 1078.4121958414719 887.5945162999825 1078.4121958414719 C887.7782836187081 1078.4051212310796 887.9620509374337 1078.348610623678 888.1175198145901 1078.2425777435305 C888.2660003570908 1078.1365448633835 888.3791078476305 1077.988150596619 888.4426930654246 1077.818532498678 C888.506278283218 1077.6488281250004 888.506278283218 1077.4651470820115 888.4568422862088 1077.2954427083337 L886.7747242518459 1071.6766490936284 L890.9446031479237 1068.1004335403447 C891.0789344696399 1067.9802514394128 891.1778927393949 1067.8318571726484 891.220254126012 1067.6692274093632 C891.2697763987577 1067.499609311422 891.2627017883655 1067.3229166030887 891.2061911809639 1067.1603731155399 C891.1425196874335 1066.9978296279912 891.0364868072865 1066.856509971619 890.8951671509143 1066.7504770914718 C890.7538474945421 1066.6444442113243 890.584229396601 1066.5808589935307 890.4075366882679 1066.5737843831384 L885.1632660456693 1066.170876693726 L882.8945592789049 1061.3790360132857 C882.8238131749823 1061.2234808603928 882.7037173497871 1061.096310424805 882.5552368072864 1061.0044267654423 C882.406842540522 1060.9125431060795 882.2372244425809 1060.8630208333338 882.0534571238553 1060.8630208333338 C881.876764415522 1060.8630208333338 881.7071463175809 1060.9125431060795 881.5587520508167 1061.0044267654423 C881.4102715083158 1061.096310424805 881.2901756831203 1061.2234808603928 881.2195158549342 1061.3790360132857 L878.9507228124336 1066.170876693726 L873.7065384455713 1066.5667097727462 C873.5298457372381 1066.5808589935307 873.360227639297 1066.6444442113243 873.2258963175808 1066.7434024810796 C873.0845766612086 1066.8494353612268 872.9785437810614 1066.990755017599 872.9149585632675 1067.1462238947554 C872.8583616801296 1067.3017790476486 872.8442124593449 1067.478471755982 872.8866601216986 1067.6410152435308 C872.9219468979232 1067.8035587310796 873.013830557286 1067.951952997844 873.1410872686102 1068.0721350987756 L877.0141776311592 1071.6766490936284 L875.6430836268459 1077.3378903706873 Z M882.0534571238553 1063.8738714853928 L883.9334916977283 1067.8388455073043 L884.4777190435126 1067.8812931696577 L884.4777190435126 1067.8812931696577 L888.1316690353748 1068.1569441477461 L885.1208183833156 1070.7366749445603 L885.1208183833156 1070.7437495549525 L884.6967731384628 1071.1042095820114 L884.8522420156197 1071.6342877070113 L884.8522420156197 1071.6342877070113 L886.0042819249824 1075.4790796279913 L882.0534571238553 1072.9700086593632 L882.0534571238553 1063.8738714853928 Z "></path>
    </defs>
    <g>
      <use xmlns:xlink="http://www.w3.org/1999/xlink" xlink:href="#s-Path_94-8264f" fill="#FFD233" fill-opacity="1.0" filter="none"></use>
    </g>
  </g>
</svg>
