<?xml version="1.0" encoding="UTF-8"?>
<svg xmlns="http://www.w3.org/2000/svg" width="22.562515258789062" height="22.562515258789062" viewBox="79.19749283682602 150.6309338642572 22.562515258789062 22.562515258789062">
  <g>
    <defs>
      <path id="s-Path_4-d1224" d="M90.47875158009481 150.6309358610128 C84.29003713800603 150.6309358610128 79.19749468457002 155.72347831444878 79.19749468457002 161.91219275653756 C79.19749468457002 168.10090719862635 84.29003713800603 173.19344965206233 90.47875158009481 173.19344965206233 C96.6674660221836 173.19344965206233 101.76000847561961 168.10090719862635 101.76000847561961 161.91219275653756 C101.76000847561961 155.72347831444878 96.6674660221836 150.6309358610128 90.47875158009481 150.6309358610128 Z M90.47875158009481 172.24081069092415 C84.80805597333428 172.24310195967325 80.13989317932318 167.57871002420998 80.13760191057408 161.90801441744946 C80.13531064182499 156.23731881068892 84.79970257728826 151.56915601667782 90.47039818404879 151.56686474792872 C96.14425138134878 151.5645722033417 100.81384061679886 156.2341616188673 100.81154785340844 161.90801481607886 C100.80240693374564 167.57295883342843 96.14369559815057 172.23166980971203 90.4787515800954 172.24081029245582 Z "></path>
      <path id="s-Path_5-d1224" d="M90.47875158009481 150.6309358610128 C84.29003713800603 150.6309358610128 79.19749468457002 155.72347831444878 79.19749468457002 161.91219275653756 C79.19749468457002 168.10090719862635 84.29003713800603 173.19344965206233 90.47875158009481 173.19344965206233 C96.6674660221836 173.19344965206233 101.76000847561961 168.10090719862635 101.76000847561961 161.91219275653756 L101.76000847561961 161.91219275653756 C101.76000847561961 155.72347831444878 96.6674660221836 150.6309358610128 90.47875158009481 150.6309358610128 Z M90.47875158009481 172.24081069092415 C84.80805597333405 172.24310195912233 80.13989317977612 167.57871002320553 80.13760191157796 161.90801441644476 C80.13531064337981 156.237318809684 84.7997025792966 151.56915601612607 90.47039818605737 151.56686474792792 C96.14109270269962 151.56457348017022 100.80925500343534 156.22896362222207 100.81154785340844 161.8996581382248 C100.81154785340844 161.8996581382248 100.81154785340844 161.8996581382248 100.81154785340844 161.8996581382248 C100.80697854729681 167.5677613337825 96.14684923021198 172.23165918405067 90.47875158009475 172.24081029245582 Z "></path>
      <path id="s-Path_6-d1224" d="M94.87844205624663 158.5904894169934 L88.19325278482455 164.8578543589516 L86.14591372983887 162.82722865967406 C85.96335439175454 162.6453314142924 85.66345194172192 162.64587623425916 85.48155469634025 162.8284355723435 C85.29853592265798 163.0121205210096 85.30043677875511 163.31437839560166 85.4857513211634 163.49574694926696 L87.82974586524134 165.8397414933449 C88.01017437113327 166.0148404111576 88.30112328940496 166.0148404111576 88.4815517952969 165.8397414933449 L95.51771277028692 159.27989940122148 C95.70488214120718 159.10371193938622 95.71391888684454 158.80471444744038 95.53773142500927 158.6175450765201 C95.36262912108472 158.43152850229365 95.0660168270472 158.42123596064414 94.87844155816123 158.59466750687773 Z "></path>
    </defs>
    <g>
      <use xmlns:xlink="http://www.w3.org/1999/xlink" xlink:href="#s-Path_4-d1224" fill="#999999" fill-opacity="1.0" filter="none"></use>
    </g>
    <g id="s-Group_5-d1224">
      <g>
        <use xmlns:xlink="http://www.w3.org/1999/xlink" xlink:href="#s-Path_5-d1224" fill="#157EFB" fill-opacity="1.0" filter="none"></use>
      </g>
      <g>
        <use xmlns:xlink="http://www.w3.org/1999/xlink" xlink:href="#s-Path_6-d1224" fill="#157EFB" fill-opacity="1.0" filter="none"></use>
      </g>
    </g>
  </g>
</svg>
