<?xml version="1.0" encoding="UTF-8"?>
<svg xmlns="http://www.w3.org/2000/svg" width="18.393310546875" height="17.5491943359375" viewBox="826.9217961570333 1060.8630208333338 18.393310546875 17.5491943359375" preserveAspectRatio="none">
  <g>
    <defs>
      <path id="s-Path_92-8264f" d="M845.2660251959929 1067.1603731155399 C845.2095145885913 1066.9978296279912 845.1034817084441 1066.856509971619 844.9620757763356 1066.7504770914718 C844.8207561199634 1066.6444442113243 844.6440634116301 1066.5808589935307 844.4673707032968 1066.5667097727462 L839.2231000606981 1066.170876693726 L836.9543932939338 1061.3790360132857 C836.8837334657479 1061.2234808603928 836.763551364816 1061.096310424805 836.6151570980518 1061.0044267654423 C836.4666765555509 1060.9125431060795 836.2970584576098 1060.8630208333338 836.1203657492764 1060.8630208333338 C835.943673040943 1060.8630208333338 835.7669803326097 1060.9125431060795 835.6185860658453 1061.0044267654423 C835.4701917990811 1061.096310424805 835.3500096981492 1061.2234808603928 835.2793498699633 1061.3790360132857 L833.0106431031987 1066.170876693726 L827.7663724606003 1066.5667097727462 C827.596754362659 1066.5808589935307 827.4271362647181 1066.6444442113243 827.2857303326094 1066.7434024810796 C827.1444106762373 1066.8494353612268 827.0383777960902 1066.990755017599 826.9747925782964 1067.1462238947554 C826.9182819708948 1067.3017790476486 826.9041327501103 1067.478471755982 826.9464941367274 1067.6410152435308 C826.9889417990809 1067.8035587310796 827.0737508480514 1067.951952997844 827.2009212836389 1068.0721350987756 L831.0740979219246 1071.6766490936284 L829.7029176418747 1077.3378903706873 C829.6605562552576 1077.5075084686282 829.6746192003058 1077.6912757873538 829.7453653042284 1077.853819274903 C829.808950522022 1078.0163627624515 829.9290463472172 1078.15776869456 830.0775268897181 1078.2567269643152 C830.2259211564825 1078.3555989583338 830.4096884752081 1078.4121958414719 830.5934557939337 1078.4121958414719 C830.7772231126593 1078.4121958414719 830.9609904313849 1078.362673568726 831.1093846981493 1078.263715298971 L836.1203657492764 1075.083246548971 L841.1243584657478 1078.263715298971 C841.2798273429045 1078.362673568726 841.46359466163 1078.4121958414719 841.6544365907481 1078.4121958414719 C841.8452785198657 1078.4051212310796 842.0219712281993 1078.348610623678 842.1774401053557 1078.2425777435305 C842.3258343721201 1078.1365448633835 842.4460164730518 1077.988150596619 842.5025270804534 1077.818532498678 C842.566112298247 1077.6488281250004 842.5731869086393 1077.4651470820115 842.5237509116301 1077.2954427083337 L840.8416328772672 1071.6766490936284 L845.0115980490813 1068.1004335403447 C845.2801744167774 1067.8600693384813 845.3862072969247 1067.4925347010299 845.2660251959929 1067.1603731155399 L845.2660251959929 1067.1603731155399 Z "></path>
    </defs>
    <g>
      <use xmlns:xlink="http://www.w3.org/1999/xlink" xlink:href="#s-Path_92-8264f" fill="#FFD233" fill-opacity="1.0" filter="none"></use>
    </g>
  </g>
</svg>
