<?xml version="1.0" encoding="UTF-8"?>
<svg xmlns="http://www.w3.org/2000/svg" width="124.83551025390625" height="20.404541015625" viewBox="561.1760416666668 1390.9249999999997 124.83551025390625 20.404541015625" preserveAspectRatio="none">
  <g>
    <defs>
      <path id="s-Path_40-f9c6f" d="M568.0825869242352 1398.8832464853917 C568.5837195396425 1398.9610671997066 569.0388671875002 1399.1659720738726 569.4480730056765 1399.4981336593623 C569.8700044949851 1399.8233069101966 570.2000954627993 1400.2332029342647 570.4375694274904 1400.7209196726476 C570.688459269206 1401.2085501352944 570.8135590871177 1401.7315536499023 570.8135590871177 1402.282855606079 C570.8135590871177 1402.98255182902 570.6354428291323 1403.618662834167 570.2792534510296 1404.1840277353917 C569.9230209350588 1404.742404301961 569.4021311759951 1405.180598767598 568.7158508300784 1405.5127603530882 C568.0430294990541 1405.83085899353 567.24506521225 1405.9863278706866 566.321310901642 1405.9863278706866 L561.1760416666668 1405.9863278706866 L561.1760416666668 1392.190147399902 L566.1234375000003 1392.190147399902 C567.0599174817405 1392.190147399902 567.8585719744366 1392.352690887451 568.5179774284364 1392.6707895278928 C569.1773828824363 1392.9746526718136 569.6721310933433 1393.3846349716182 570.0021789232892 1393.9147130966185 C570.3322698911034 1394.4447912216183 570.4969271341962 1395.038454564412 570.4969271341962 1395.695703125 C570.4969271341962 1396.5155814488726 570.2728690465293 1397.1941401163735 569.824105803172 1397.7312065760293 C569.3887152989707 1398.2612847010291 568.8084678332012 1398.6429685592648 568.0825869242352 1398.8832464853917 Z M562.9768751144411 1398.148263486226 L566.0046789487205 1398.148263486226 C566.849275271098 1398.148263486226 567.5023394584658 1397.9503469467159 567.9638715108238 1397.5545138676957 C568.4254035631817 1397.1587670644121 568.6564931233726 1396.6145397186278 568.6564931233726 1395.9148434956865 C568.6564931233726 1395.2151472727455 568.4254035631817 1394.6638453165688 567.9638715108238 1394.2680985132852 C567.5023394584658 1393.872265434265 566.8358593940737 1393.6743488947545 565.9651215235394 1393.6743488947545 L562.9768751144411 1393.6743488947545 L562.9768751144411 1398.148263486226 Z M566.1629949251812 1404.502126375834 C567.0599174817405 1404.502126375834 567.7596137046816 1404.290060615539 568.2607031822207 1403.8660153706865 C568.7617926597597 1403.449044736226 569.0127256393434 1402.8623697280882 569.0127256393434 1402.1061628977454 C569.0127256393434 1401.3428814570107 568.7490669886273 1400.742057228088 568.2211457570396 1400.303862762451 C567.6931813875836 1399.8585936864215 566.9878341039024 1399.632464981079 566.1036372184756 1399.632464981079 L562.9768751144411 1399.632464981079 L562.9768751144411 1404.502126375834 L566.1629949251812 1404.502126375834 Z M578.0424304962161 1406.1630205790198 C577.0267925262453 1406.1630205790198 576.1030382156374 1405.9368918736773 575.2718577702842 1405.4703989664708 C574.4541363398235 1405.0109806696569 573.8074565569561 1404.3536458333328 573.3325086275738 1403.5126299540198 C572.8709765752159 1402.6574648539222 572.6398438771567 1401.6679684321084 572.6398438771567 1400.5442269643145 C572.6398438771567 1399.4345484415685 572.8773178418479 1398.4592012405392 573.3522657712302 1397.618185361226 C573.8406727155052 1396.7558593749995 574.500078169505 1396.1056854248045 575.3312586148581 1395.6533417383826 C576.1623959223431 1395.1939234415686 577.0925346374514 1394.9607201258336 578.1215884844464 1394.9607201258336 C579.1506423314414 1394.9607201258336 580.0807379086814 1395.1939234415686 580.9119183540346 1395.6533417383826 C581.7430556615195 1396.1056854248045 582.3961198488873 1396.748871040344 582.8710677782697 1397.5969615300492 C583.3594747225445 1398.4379774093627 583.6032899538678 1399.420399220784 583.6032899538678 1400.5442269643145 C583.6032899538678 1401.6679684321084 583.3524001121523 1402.6574648539222 582.851267496745 1403.5126299540198 C582.3629036903383 1404.3536458333328 581.6971138318381 1405.0109806696569 580.8525175094607 1405.4703989664708 C580.0079643249513 1405.9368918736773 579.0714843432111 1406.1630205790198 578.0424304962161 1406.1630205790198 Z M578.0424304962161 1404.5798608144123 C578.6891102790835 1404.5798608144123 579.2955424308778 1404.4314665476477 579.8630642255149 1404.1275171279904 C580.430586020152 1403.823567708333 580.8857768058779 1403.3642356872556 581.2285503069562 1402.763411458333 C581.5847396850588 1402.1555988947548 581.7628559430442 1401.4135412851965 581.7628559430442 1400.5442269643145 C581.7628559430442 1399.674826367696 581.5911240895591 1398.9327687581376 581.2483505884808 1398.3249561945595 C580.9055339495343 1397.7242182413734 580.4567275683087 1397.2718745549519 579.902621650696 1396.982074356079 C579.3485157330833 1396.6781249364212 578.7484679857891 1396.529730669657 578.1017882029217 1396.529730669657 C577.4423827489219 1396.529730669657 576.8352603912356 1396.6781249364212 576.2811544736228 1396.982074356079 C575.7404644330345 1397.2718745549519 575.3050739288332 1397.7242182413734 574.9750260988873 1398.3249561945595 C574.6449782689415 1398.9327687581376 574.4802778879804 1399.674826367696 574.4802778879804 1400.5442269643145 C574.4802778879804 1401.427690505981 574.6385938644411 1402.1768227259313 574.9552258173627 1402.7775606791174 C575.2853167851767 1403.385373242696 575.7206641515098 1403.84479153951 576.2613541920982 1404.1487409591673 C576.8020442326865 1404.4385411580402 577.3957075754803 1404.5798608144123 578.0424304962161 1404.5798608144123 Z M590.700677140554 1406.1630205790198 C589.6850391705833 1406.1630205790198 588.7612848599754 1405.9368918736773 587.9301475524904 1405.4703989664708 C587.1124261220298 1405.0109806696569 586.4657032012941 1404.3536458333328 585.9907552719118 1403.5126299540198 C585.5292232195538 1402.6574648539222 585.298133659363 1401.6679684321084 585.298133659363 1400.5442269643145 C585.298133659363 1399.4345484415685 585.5356076240541 1398.4592012405392 586.0105555534365 1397.618185361226 C586.4989193598432 1396.7558593749995 587.1583679517112 1396.1056854248045 587.9895052591961 1395.6533417383826 C588.8206857045493 1395.1939234415686 589.7507812817894 1394.9607201258336 590.7798351287844 1394.9607201258336 C591.8088889757794 1394.9607201258336 592.7390276908876 1395.1939234415686 593.5701649983725 1395.6533417383826 C594.4013454437257 1396.1056854248045 595.0544096310936 1396.748871040344 595.5293575604759 1397.5969615300492 C596.0177213668825 1398.4379774093627 596.2615365982058 1399.420399220784 596.2615365982058 1400.5442269643145 C596.2615365982058 1401.6679684321084 596.0106467564902 1402.6574648539222 595.5095572789512 1403.5126299540198 C595.0211934725445 1404.3536458333328 594.3554036140443 1405.0109806696569 593.5108072916669 1405.4703989664708 C592.6662109692893 1405.9368918736773 591.729730987549 1406.1630205790198 590.700677140554 1406.1630205790198 Z M590.700677140554 1404.5798608144123 C591.3473569234214 1404.5798608144123 591.9537890752158 1404.4314665476477 592.5213108698529 1404.1275171279904 C593.0888758023582 1403.823567708333 593.5440234502158 1403.3642356872556 593.8867969512942 1402.763411458333 C594.243029467265 1402.1555988947548 594.4211025873822 1401.4135412851965 594.4211025873822 1400.5442269643145 C594.4211025873822 1399.674826367696 594.2493707338971 1398.9327687581376 593.9065972328187 1398.3249561945595 C593.5638237317405 1397.7242182413734 593.1150173505149 1397.2718745549519 592.5609114329022 1396.982074356079 C592.0068055152894 1396.6781249364212 591.4067577679954 1396.529730669657 590.7600348472597 1396.529730669657 C590.1006293932599 1396.529730669657 589.4935070355735 1396.6781249364212 588.9394011179608 1396.982074356079 C588.3987110773725 1397.2718745549519 587.9633637110394 1397.7242182413734 587.6333158810935 1398.3249561945595 C587.3032249132795 1398.9327687581376 587.1385676701866 1399.674826367696 587.1385676701866 1400.5442269643145 C587.1385676701866 1401.427690505981 587.2968836466473 1402.1768227259313 587.6135155995689 1402.7775606791174 C587.9435634295147 1403.385373242696 588.378953933716 1403.84479153951 588.9196008364362 1404.1487409591673 C589.4602908770245 1404.4385411580402 590.0539973576865 1404.5798608144123 590.700677140554 1404.5798608144123 Z M604.6848524411521 1405.9863278706866 L600.4300782203676 1401.19440091451 L600.4300782203676 1405.9863278706866 L598.6292447725933 1405.9863278706866 L598.6292447725933 1391.3420569101968 L600.4300782203676 1391.3420569101968 L600.4300782203676 1399.9504773457843 L604.6056944529217 1395.1444874445592 L607.1189497947695 1395.1444874445592 L602.0132379849754 1400.5442269643145 L607.1387500762942 1405.9863278706866 L604.6848524411521 1405.9863278706866 Z M609.7439322153729 1393.3775603612262 C609.4011155764264 1393.3775603612262 609.1106683095298 1393.2644528706865 608.8731943448387 1393.0241749445595 C608.6357203801475 1392.783810742696 608.5169618288678 1392.4940968195592 608.5169618288678 1392.1548606236775 C608.5169618288678 1391.8084635416662 608.6357203801475 1391.51874961853 608.8731943448387 1391.2854600270584 C609.1106683095298 1391.0451821009315 609.4011155764264 1390.9249999999997 609.7439322153729 1390.9249999999997 C610.0739800453188 1390.9249999999997 610.351011435191 1391.0451821009315 610.5750695228578 1391.2854600270584 C610.812543487549 1391.51874961853 610.9313020388287 1391.8084635416662 610.9313020388287 1392.1548606236775 C610.9313020388287 1392.4940968195592 610.812543487549 1392.783810742696 610.5750695228578 1393.0241749445595 C610.351011435191 1393.2644528706865 610.0739800453188 1393.3775603612262 609.7439322153729 1393.3775603612262 Z M610.6146700859072 1395.1444874445592 L610.6146700859072 1405.9863278706866 L608.8137935002646 1405.9863278706866 L608.8137935002646 1395.1444874445592 L610.6146700859072 1395.1444874445592 Z M618.9679731686912 1394.9465709050492 C620.2875174204511 1394.9465709050492 621.3561718304953 1395.3493923187252 622.173893260956 1396.1480468114214 C622.9916146914167 1396.9396266937251 623.4008636474612 1398.091666603088 623.4008636474612 1399.5970919291176 L623.4008636474612 1405.9863278706866 L621.6197873433433 1405.9863278706866 L621.6197873433433 1399.851519076029 C621.6197873433433 1398.770225270589 621.3490972201031 1397.9432723363238 620.8084071795148 1397.3778211593626 C620.2677171389264 1396.7983070373534 619.5284634908043 1396.5085068384801 618.5919835090639 1396.5085068384801 C617.6420876502992 1396.5085068384801 616.8837239265443 1396.8053816477454 616.316158994039 1397.399044990539 C615.7620530764264 1397.9927083333332 615.4850216865541 1398.8550343195593 615.4850216865541 1399.9929250081377 L615.4850216865541 1405.9863278706866 L613.6841451009117 1405.9863278706866 L613.6841451009117 1395.1444874445592 L615.4850216865541 1395.1444874445592 L615.4850216865541 1396.6851995468137 C615.8412110646567 1396.1339838663735 616.3225433985394 1395.702777735392 616.9296657562257 1395.398914591471 C617.5495137850445 1395.0949651718138 618.229409726461 1394.9465709050492 618.9679731686912 1394.9465709050492 Z M630.8148827870689 1394.9607201258336 C631.7513627688091 1394.9607201258336 632.5697744051618 1395.1656249999996 633.2687804222109 1395.5756072998042 C633.9812023162843 1395.9855033238728 634.5091666857403 1396.501432228088 634.8519401868186 1397.1233940124507 L634.8519401868186 1395.1444874445592 L636.6725739161175 1395.1444874445592 L636.6725739161175 1406.2266057968136 C636.6725739161175 1407.2161022186274 636.4612846374514 1408.092491149902 636.0393100102744 1408.8558588663732 C635.6173785209658 1409.6332895278929 635.0102561632793 1410.241102091471 634.2186762809755 1410.679296557108 C633.4405122756959 1411.110416412353 632.5302169799807 1411.32955678304 631.487704118093 1411.32955678304 C630.062860329946 1411.32955678304 628.8754905064902 1410.9902343114213 627.9255946477256 1410.3188365300493 C626.9756987889609 1409.6474387486774 626.415208466848 1408.7286021550494 626.2434766133628 1407.569487635294 L628.0245529174806 1407.569487635294 C628.2224263191225 1408.226822471618 628.631675275167 1408.7569005966184 629.2514801661175 1409.152647399902 C629.8713281949363 1409.5626296997066 630.6169662475588 1409.7675345738726 631.487704118093 1409.7675345738726 C632.477200539907 1409.7675345738726 633.2821962992352 1409.4565968195593 633.902044328054 1408.8346350351967 C634.535308233897 1408.2126732508336 634.8519401868186 1407.3433589299516 634.8519401868186 1406.2266057968136 L634.8519401868186 1403.9508244196572 C634.495750808716 1404.5798608144123 633.9677864392601 1405.1099389394121 633.2687804222109 1405.5339841842647 C632.5697744051618 1405.9509548187252 631.7513627688091 1406.1630205790198 630.8148827870689 1406.1630205790198 C629.8515279134116 1406.1630205790198 628.9744487762453 1405.9298172632848 628.1828688939414 1405.4491751352944 C627.4047048886619 1404.975607617696 626.7912412643434 1404.311284446716 626.3424348831179 1403.4561193466184 C625.8936285018923 1402.5937933603918 625.6695704142254 1401.6184461593625 625.6695704142254 1400.5230031331375 C625.6695704142254 1399.413324610392 625.8936285018923 1398.4450520197547 626.3424348831179 1397.618185361226 C626.7912412643434 1396.770008595784 627.4047048886619 1396.119834645589 628.1828688939414 1395.6533417383826 C628.9744487762453 1395.1939234415686 629.8515279134116 1394.9607201258336 630.8148827870689 1394.9607201258336 Z M634.8519401868186 1400.5442269643145 C634.8519401868186 1399.7243486404418 634.6872829437258 1399.010503196716 634.3571919759116 1398.4097652435298 C634.0271441459657 1397.8019526799517 633.5790711085003 1397.3354597727453 633.011506175995 1397.024435742696 C632.4574002583823 1396.6922741572057 631.8439366340639 1396.529730669657 631.1710721651715 1396.529730669657 C630.4982508341474 1396.529730669657 629.8847440719607 1396.6851995468137 629.3306381543479 1397.0032981872555 C628.7765322367352 1397.3213105519608 628.3348004659018 1397.7807288487747 628.004752635956 1398.3885414123533 C627.6747048060101 1398.9963539759315 627.510004425049 1399.7031248092649 627.510004425049 1400.5230031331375 C627.510004425049 1401.3569444020586 627.6747048060101 1402.0778644561765 628.004752635956 1402.699826240539 C628.3348004659018 1403.3076388041177 628.7765322367352 1403.7741317113237 629.3306381543479 1404.1062932968134 C629.8847440719607 1404.4243919372557 630.4982508341474 1404.5798608144123 631.1710721651715 1404.5798608144123 C631.8439366340639 1404.5798608144123 632.4574002583823 1404.4243919372557 633.011506175995 1404.1062932968134 C633.5790711085003 1403.7741317113237 634.0271441459657 1403.3076388041177 634.3571919759116 1402.699826240539 C634.6872829437258 1402.0778644561765 634.8519401868186 1401.364019012451 634.8519401868186 1400.5442269643145 Z M655.8367012977602 1405.9863278706866 L654.0358247121177 1405.9863278706866 L646.7928472201031 1395.003081512451 L646.7928472201031 1405.9863278706866 L644.9919706344606 1405.9863278706866 L644.9919706344606 1392.1759981791174 L646.7928472201031 1392.1759981791174 L654.0358247121177 1403.1380207061766 L654.0358247121177 1392.1759981791174 L655.8367012977602 1392.1759981791174 L655.8367012977602 1405.9863278706866 Z M663.6358984629314 1406.1630205790198 C662.6202604929608 1406.1630205790198 661.6965061823529 1405.9368918736773 660.865368874868 1405.4703989664708 C660.047604306539 1405.0109806696569 659.4009245236716 1404.3536458333328 658.9259765942893 1403.5126299540198 C658.4644445419314 1402.6574648539222 658.2333549817405 1401.6679684321084 658.2333549817405 1400.5442269643145 C658.2333549817405 1399.4345484415685 658.4708289464317 1398.4592012405392 658.945776875814 1397.618185361226 C659.4341406822206 1396.7558593749995 660.0935461362204 1396.1056854248045 660.9247265815736 1395.6533417383826 C661.7559070269268 1395.1939234415686 662.6860026041668 1394.9607201258336 663.7150564511619 1394.9607201258336 C664.7441102981569 1394.9607201258336 665.6742058753969 1395.1939234415686 666.5053863207501 1395.6533417383826 C667.3365667661033 1396.1056854248045 667.9895878156028 1396.748871040344 668.4645357449851 1397.5969615300492 C668.95294268926 1398.4379774093627 669.1967579205833 1399.420399220784 669.1967579205833 1400.5442269643145 C669.1967579205833 1401.6679684321084 668.9465582847597 1402.6574648539222 668.4447786013287 1403.5126299540198 C667.957105000814 1404.3536458333328 667.2906249364219 1405.0109806696569 666.4460286140444 1405.4703989664708 C665.6021224975588 1405.9368918736773 664.6649523099265 1406.1630205790198 663.6358984629314 1406.1630205790198 Z M663.6358984629314 1404.5798608144123 C664.282578245799 1404.5798608144123 664.8897006034853 1404.4314665476477 665.4565321922304 1404.1275171279904 C666.0240971247357 1403.823567708333 666.4792447725933 1403.3642356872556 666.8220182736717 1402.763411458333 C667.1782507896424 1402.1555988947548 667.3563239097597 1401.4135412851965 667.3563239097597 1400.5442269643145 C667.3563239097597 1399.674826367696 667.1852822621665 1398.9327687581376 666.8418185551963 1398.3249561945595 C666.499045054118 1397.7242182413734 666.0502386728924 1397.2718745549519 665.4961327552797 1396.982074356079 C664.942026837667 1396.6781249364212 664.3419790903729 1396.529730669657 663.6952561696372 1396.529730669657 C663.0358507156374 1396.529730669657 662.4287283579511 1396.6781249364212 661.8746224403383 1396.982074356079 C661.3339323997499 1397.2718745549519 660.8985850334169 1397.7242182413734 660.5684940656027 1398.3249561945595 C660.2391364415488 1398.9327687581376 660.073788992564 1399.674826367696 660.073788992564 1400.5442269643145 C660.073788992564 1401.427690505981 660.2321049690248 1402.1768227259313 660.5487369219463 1402.7775606791174 C660.8787847518922 1403.385373242696 661.3141752560936 1403.84479153951 661.8548221588136 1404.1487409591673 C662.3962024052939 1404.4385411580402 662.989908885956 1404.5798608144123 663.6358984629314 1404.5798608144123 Z M686.0115538597108 1395.1444874445592 L682.6275175094606 1405.9863278706866 L680.7673263549806 1405.9863278706866 L678.1551127433778 1397.3778211593626 L675.5428559939069 1405.9863278706866 L673.6826648394268 1405.9863278706866 L670.2788282076519 1395.1444874445592 L672.1192622184755 1395.1444874445592 L674.6127604166668 1404.247699228922 L677.3041320165 1395.1444874445592 L679.1445660273235 1395.1444874445592 L681.776579920451 1404.2618484497066 L684.230477555593 1395.1444874445592 L686.0115538597108 1395.1444874445592 Z "></path>
    </defs>
    <g>
      <use xmlns:xlink="http://www.w3.org/1999/xlink" xlink:href="#s-Path_40-f9c6f" fill="#000000" fill-opacity="1.0" filter="none"></use>
    </g>
  </g>
</svg>
