<?xml version="1.0" encoding="UTF-8"?>
<svg xmlns="http://www.w3.org/2000/svg" width="18.3848876953125" height="17.5411376953125" viewBox="826.5406577962847 807.4667196398865 18.3848876953125 17.5411376953125" preserveAspectRatio="none">
  <g>
    <defs>
      <path id="s-Path_77-02671" d="M844.8764317930611 813.7611693957496 C844.8199472320866 813.598700826473 844.713963223785 813.4574463060516 844.5726224673922 813.3514622977497 C844.4242965973522 813.245478289448 844.2547566784579 813.1819223788551 844.0781454099451 813.167779679619 L838.8362919155397 812.7721290448843 L836.5686308233478 807.982496982159 C836.498003563137 807.8270135265299 836.377876855599 807.6999017053444 836.229550985559 807.608060396279 C836.081138879548 807.5162190872137 835.9115989606535 807.4667196398865 835.734987692141 807.4667196398865 C835.5583764236283 807.4667196398865 835.3817651551155 807.5162190872137 835.233439285076 807.608060396279 C835.0851134150357 807.6999017053444 834.9649867074977 807.8270135265299 834.8943594472867 807.982496982159 L832.626698355095 812.7721290448843 L827.3848448606893 813.167779679619 C827.2153049417948 813.1819223788551 827.0457650229005 813.245478289448 826.9044242665077 813.3443909481315 C826.7631697460859 813.4503749564334 826.6571857377844 813.5916294768548 826.5936298271915 813.747026696513 C826.5371452662171 813.9025101521423 826.5230025669807 814.0791214206548 826.5653444287188 814.241589989931 C826.6077725264277 814.4040585592076 826.692542485875 814.5523844292474 826.8196543070605 814.6725111367856 L830.6910457510735 818.2753637672496 L829.3204974647103 823.9339957092726 C829.2781556029724 824.1035356281674 829.2922120662377 824.2872182462983 829.3629255624196 824.4496868155746 C829.4264814730122 824.6121553848508 829.5465219445798 824.7534961412433 829.6949340505905 824.8524087999268 C829.8432599206303 824.9512352226399 830.026942538761 825.0078060195852 830.2106251568921 825.0078060195852 C830.3943077750228 825.0078060195852 830.5779903931536 824.958306572258 830.7263162631937 824.8593939135745 L835.734987692141 821.6803910803463 L840.7366740074408 824.8593939135745 C840.892071227099 824.958306572258 841.0757538452297 825.0078060195852 841.266507812979 825.0078060195852 C841.457261780728 825.0007346699671 841.6338730492407 824.9442501089922 841.7892702688989 824.8382661006907 C841.9375961389387 824.732282092389 842.0577228464767 824.583956222349 842.1142074074514 824.4144163034547 C842.1777633180441 824.244790148589 842.1848346676622 824.0611937664293 842.1283501066878 823.8915676115638 L840.4540787306264 818.2753637672496 L844.6221219147196 814.7007965352581 C844.8905744922977 814.460543120182 844.9965585005993 814.0931778839202 844.8764317930611 813.7611693957496 L844.8764317930611 813.7611693957496 Z "></path>
    </defs>
    <g>
      <use xmlns:xlink="http://www.w3.org/1999/xlink" xlink:href="#s-Path_77-02671" fill="#FFD233" fill-opacity="1.0" filter="none"></use>
    </g>
  </g>
</svg>
