<?xml version="1.0" encoding="UTF-8"?>
<svg xmlns="http://www.w3.org/2000/svg" width="69.8392333984375" height="9.7772216796875" viewBox="1176.9374933683707 811.7053900841904 69.8392333984375 9.7772216796875" preserveAspectRatio="none">
  <g>
    <defs>
      <path id="s-Path_61-02671" d="M1176.9374933683707 821.3271685433215 L1176.9374933683707 812.0798266700701 L1180.2295515595185 812.0798266700701 C1180.9501393328055 812.0798266700701 1181.5506003985545 812.2069384912554 1182.023949643118 812.4753910688337 C1182.490227538063 812.7367722967938 1182.8505214247066 813.089994833819 1183.083617254194 813.5492013791461 C1183.3167130836812 814.0013365748548 1183.4368397912192 814.5099563315382 1183.4368397912192 815.0751468851674 C1183.4368397912192 815.6402512028251 1183.3167130836812 816.1560285450978 1183.0765459045756 816.6080775048358 C1182.8434500750886 817.0602127005448 1182.490227538063 817.4205065871879 1182.0098069438816 817.6818878151482 C1181.536457699318 817.9432690431081 1180.9430679831873 818.0775384498825 1180.2295515595185 818.0775384498825 L1177.9618904673266 818.0775384498825 L1177.9618904673266 816.8906727816504 L1180.1024397383333 816.8906727816504 C1180.5545749340422 816.8906727816504 1180.9218539343326 816.8129741718212 1181.2115205607654 816.6575769521633 C1181.4941158375798 816.4951083828869 1181.6990125045654 816.2831403662831 1181.833195675369 816.0076164390869 C1181.960393732525 815.7320925118904 1182.0310209927359 815.4212980725745 1182.0310209927359 815.0751468851674 C1182.0310209927359 814.7219243481418 1181.960393732525 814.4110436728547 1181.833195675369 814.1425910952767 C1181.6990125045654 813.8741385176988 1181.4870444879618 813.662256737066 1181.2044492111472 813.5068595174077 C1180.9218539343326 813.3513760617786 1180.5475035844238 813.2736774519497 1180.0812256894787 813.2736774519497 L1178.3292557035884 813.2736774519497 L1178.3292557035884 821.3271685433215 L1176.9374933683707 821.3271685433215 Z M1184.9627852972405 821.3271685433215 L1184.9627852972405 814.3899158599713 L1186.312033298778 814.3899158599713 L1186.312033298778 821.3271685433215 L1184.9627852972405 821.3271685433215 Z M1185.6409449728185 813.3231768992769 C1185.4078491433313 813.3231768992769 1185.210023825964 813.2454782894481 1185.0404839070695 813.0829234842006 C1184.8709439881752 812.9275262645428 1184.793245378346 812.7367722967938 1184.793245378346 812.5178191665427 C1184.793245378346 812.2917084507028 1184.8709439881752 812.1080258325721 1185.0404839070695 811.9455572632955 C1185.210023825964 811.7901600436376 1185.4078491433313 811.7053900841904 1185.6409449728185 811.7053900841904 C1185.8811121519238 811.7053900841904 1186.0789374692908 811.7901600436376 1186.2414060385672 811.9455572632955 C1186.4109459574615 812.1080258325721 1186.495715916909 812.2917084507028 1186.495715916909 812.5178191665427 C1186.495715916909 812.7367722967938 1186.4109459574615 812.9275262645428 1186.2414060385672 813.0829234842006 C1186.0789374692908 813.2454782894481 1185.8811121519238 813.3231768992769 1185.6409449728185 813.3231768992769 Z M1189.4768934327697 812.0798266700701 L1189.4768934327697 821.3271685433215 L1188.1276454312317 821.3271685433215 L1188.1276454312317 812.0798266700701 L1189.4768934327697 812.0798266700701 Z M1191.2925055652236 821.3271685433215 L1191.2925055652236 814.3899158599713 L1192.641839802732 814.3899158599713 L1192.641839802732 821.3271685433215 L1191.2925055652236 821.3271685433215 Z M1191.9777365904195 813.3231768992769 C1191.7446407609325 813.3231768992769 1191.539744093947 813.2454782894481 1191.3702041750528 813.0829234842006 C1191.2077356057762 812.9275262645428 1191.122965646329 812.7367722967938 1191.122965646329 812.5178191665427 C1191.122965646329 812.2917084507028 1191.2077356057762 812.1080258325721 1191.3702041750528 811.9455572632955 C1191.539744093947 811.7901600436376 1191.7446407609325 811.7053900841904 1191.9777365904195 811.7053900841904 C1192.2109186558778 811.7053900841904 1192.4086577372739 811.7901600436376 1192.5781976561684 811.9455572632955 C1192.7477375750627 812.1080258325721 1192.8325075345103 812.2917084507028 1192.8325075345103 812.5178191665427 C1192.8325075345103 812.7367722967938 1192.7477375750627 812.9275262645428 1192.5781976561684 813.0829234842006 C1192.4086577372739 813.2454782894481 1192.2109186558778 813.3231768992769 1191.9777365904195 813.3231768992769 Z M1195.8137712863418 817.2086248065557 L1195.8137712863418 821.3271685433215 L1194.4644370488331 821.3271685433215 L1194.4644370488331 812.0798266700701 L1195.7925572374872 812.0798266700701 L1195.7925572374872 815.520210731258 L1195.8773271969346 815.520210731258 C1196.0397957662108 815.1457741453783 1196.2870342949343 814.8490361693275 1196.626200368694 814.6300830390765 C1196.958208856865 814.4110436728547 1197.3962013533376 814.298074550906 1197.933106508494 814.298074550906 C1198.4063695170864 814.298074550906 1198.8232342006752 814.3969009736184 1199.1835280873186 814.5947262909854 C1199.536750624344 814.792551608353 1199.8121883155693 815.0822182347854 1200.0100136329365 815.4707112839308 C1200.2078389503038 815.8522192194289 1200.3067516089875 816.3396249272578 1200.3067516089875 816.9118868305047 L1200.3067516089875 821.3271685433215 L1198.9574173714789 821.3271685433215 L1198.9574173714789 817.0814267493993 C1198.9574173714789 816.5657356430975 1198.8303055502934 816.1771563579814 1198.5689243223335 815.8946473171382 C1198.3074568584027 815.6120520403235 1197.9401778581118 815.4707112839308 1197.4738999631668 815.4707112839308 C1197.1560341742324 815.4707112839308 1196.8663675477997 815.5414247801125 1196.6120576694577 815.6756079509162 C1196.3647329047635 815.8097911217196 1196.1669938233672 816.0076164390869 1196.0256530669744 816.2689976670467 C1195.8843985465526 816.5303788950068 1195.8137712863418 816.8412595702939 1195.8137712863418 817.2086248065557 Z M1209.1796568963587 812.0798266700701 L1210.5714192315763 812.0798266700701 L1210.5714192315763 818.6355714179222 C1210.5714192315763 819.2290473700239 1210.451292524038 819.7376671267075 1210.218196694551 820.1544455743253 C1209.985014629093 820.5782953715616 1209.66007749054 820.903318746085 1209.236227693304 821.1222718763361 C1208.819363009715 821.3413112425576 1208.324885952268 821.4543666004779 1207.7596953986392 821.4543666004779 C1207.2369329427192 821.4543666004779 1206.770741283745 821.3554539417939 1206.3538766001561 821.171771323663 C1205.9370981525383 820.981017355914 1205.6121610139853 820.705493428718 1205.371907598909 820.3451995420744 C1205.1317404198037 819.9778343058126 1205.0186850618838 819.5327704597219 1205.0186850618838 819.0170793534201 L1206.4033760474833 819.0170793534201 C1206.4033760474833 819.2713892317622 1206.4598606084576 819.490428597984 1206.579987315996 819.681182565733 C1206.700027787563 819.8648651838639 1206.8625825928104 820.0131910539037 1207.0673930238247 820.1191750622054 C1207.2793610404283 820.2180877208889 1207.5195282195336 820.2675009322454 1207.79505214673 820.2675009322454 C1208.0847187731626 820.2675009322454 1208.3390286515043 820.2110163712707 1208.5439253184895 820.0838183141143 C1208.7487357495042 819.9567064929292 1208.9112043187804 819.7730238747986 1209.017188327082 819.5327704597219 C1209.123172335384 819.2855319309983 1209.1796568963587 818.9887939549478 1209.1796568963587 818.6355714179222 L1209.1796568963587 812.0798266700701 Z M1214.5133516998292 821.4825657629794 C1214.0682878537386 821.4825657629794 1213.672637219004 821.3977958035323 1213.3194146819787 821.2353272342561 C1212.9661921449535 821.0728586649795 1212.68368310411 820.8326914858744 1212.4717150875065 820.5218108105869 C1212.2668184205208 820.2039450216525 1212.1679919978083 819.8224370861547 1212.1679919978083 819.3703018904457 C1212.1679919978083 818.9747374916822 1212.2456906076375 818.6567854667767 1212.3940164776773 818.4024755884352 C1212.5423423477173 818.1481657100933 1212.7472390147027 817.9503403927263 1213.0015488930444 817.8020145226862 C1213.2558587713859 817.6536886526462 1213.5455253978187 817.5406332947264 1213.863391186753 817.4629346848972 C1214.1742718620403 817.3923074246864 1214.4992090005928 817.335736627741 1214.8241461391456 817.2933947660026 C1215.2410108227346 817.2438953186756 1215.5800906605234 817.2086248065557 1215.841471888483 817.1803394080828 C1216.095781766825 817.1449826599919 1216.286535734574 817.0884980990174 1216.399591092494 817.0178708388064 C1216.5196315640612 816.9472435785958 1216.5762023610066 816.8271168710576 1216.5762023610066 816.6646483017812 L1216.5762023610066 816.6363629033085 C1216.5762023610066 816.240798504545 1216.470218352705 815.936989178876 1216.2441076368648 815.7180360486254 C1216.0251545066142 815.4989966824032 1215.7002173680617 815.3930126741018 1215.2621386356182 815.3930126741018 C1214.803018326262 815.3930126741018 1214.4497957892365 815.4919253327853 1214.1884145612769 815.6968219997707 C1213.9270333333168 815.8946473171382 1213.750422064804 816.1136004473885 1213.6515094061206 816.3608389761123 L1212.3798737784412 816.0712585856504 C1212.528199648481 815.6473225524435 1212.7472390147027 815.3082427146544 1213.0369056411353 815.0539328363129 C1213.333557381215 814.7854802587347 1213.665652105357 814.601797640604 1214.0470738048841 814.4817571690367 C1214.4215103907638 814.3616304614984 1214.8241461391456 814.298074550906 1215.2410108227346 814.298074550906 C1215.5165347499308 814.298074550906 1215.8131864900106 814.333345063026 1216.1240671652977 814.3969009736184 C1216.4348616046138 814.4605431201819 1216.7245282310466 814.5805835917492 1217.000052158243 814.7501235106438 C1217.275576085439 814.9267347791565 1217.49452921569 815.1669881942328 1217.6711404842024 815.4919253327853 C1217.8477517527153 815.8028060080728 1217.9325217121625 816.2125131060725 1217.9325217121625 816.7211328627557 L1217.9325217121625 821.3271685433215 L1216.618544222745 821.3271685433215 L1216.618544222745 820.3805562901655 L1216.5620596617705 820.3805562901655 C1216.470218352705 820.55009620906 1216.3430202955485 820.7267074775725 1216.166409027036 820.8962473964668 C1215.9968691081413 821.0587159657432 1215.7708446282725 821.1999704861651 1215.4953207010763 821.3130258440851 C1215.2197967738798 821.426081202005 1214.8948596353273 821.4825657629794 1214.5133516998292 821.4825657629794 Z M1214.803018326262 820.3946989894016 C1215.1773686761705 820.3946989894016 1215.4953207010763 820.3239854932199 1215.7637732786543 820.1756596231801 C1216.0322258562321 820.0273337531398 1216.2300511735996 819.8365797853908 1216.3713056940212 819.5964126062856 C1216.512560214443 819.3561591912096 1216.5832737106248 819.1018493128677 1216.5832737106248 818.8263253856712 L1216.5832737106248 817.9291263438718 C1216.5337742632976 817.978625791199 1216.4419329542322 818.028039002555 1216.3006784338104 818.0633957506461 C1216.166409027036 818.105737612384 1216.011011807378 818.1410943604753 1215.841471888483 818.169379758948 C1215.6648606199706 818.1975789214498 1215.4953207010763 818.2258643199225 1215.325780782182 818.247078368777 C1215.1633122129053 818.2682924176318 1215.0219714565128 818.2894202305151 1214.915987448211 818.3035629297515 C1214.6475348706329 818.3318483282244 1214.414439041146 818.3883328891989 1214.1954859108948 818.4660314990276 C1213.9835178942913 818.5438163448282 1213.8069066257788 818.6567854667767 1213.6797085686223 818.8051975727878 C1213.5525967474368 818.9535234428279 1213.4890408368442 819.1442774105767 1213.4890408368442 819.3844445896818 C1213.4890408368442 819.716453077853 1213.6161526580297 819.9707629561944 1213.863391186753 820.1473742247072 C1214.1107159514477 820.3099290299547 1214.4215103907638 820.3946989894016 1214.803018326262 820.3946989894016 Z M1222.3265893761243 821.4613517141249 C1221.7685564080848 821.4613517141249 1221.2669217650484 821.3200971937033 1220.828929268576 821.0304305672707 C1220.3909367721035 820.747921526427 1220.0518569343144 820.331056842838 1219.7975470559727 819.8012230373001 C1219.5503085272492 819.264317882144 1219.4301818197112 818.621514954657 1219.4301818197112 817.8726417828971 C1219.4301818197112 817.1238548471083 1219.5573798768673 816.4809656836503 1219.8046184055909 815.9511318781124 C1220.0589282839328 815.4142267229561 1220.4050794713396 815.0115909745743 1220.8430719678122 814.7219243481418 C1221.281064464285 814.4393290713276 1221.782699107321 814.298074550906 1222.3407320753606 814.298074550906 C1222.7646681085678 814.298074550906 1223.110819295975 814.375773160735 1223.379271873553 814.5170276811566 C1223.6406531015132 814.6583684375494 1223.8454635325274 814.8279083564437 1223.9868042889202 815.0115909745743 C1224.13513015896 815.2022587063527 1224.2552568664983 815.3717986252473 1224.3329554763275 815.51313938164 L1224.4177254357746 815.51313938164 L1224.4177254357746 812.0798266700701 L1225.7670596732833 812.0798266700701 L1225.7670596732833 821.3271685433215 L1224.4459245982764 821.3271685433215 L1224.4459245982764 820.2462868833909 L1224.3329554763275 820.2462868833909 C1224.2552568664983 820.3946989894016 1224.13513015896 820.5642389082961 1223.9797329393018 820.7549066400743 C1223.831320833291 820.9456606078234 1223.6265104022768 821.1081291770997 1223.3580578246986 821.2494699334923 C1223.096676596739 821.3907244539139 1222.7505254093317 821.4613517141249 1222.3265893761243 821.4613517141249 Z M1222.6233273521752 820.3099290299547 C1223.0119066372915 820.3099290299547 1223.3439151254624 820.2110163712707 1223.6123677030403 820.0061197042858 C1223.8808202806185 819.794151687682 1224.085716947604 819.5116426468385 1224.2269714680253 819.1442774105767 C1224.3682259884474 818.7769121743149 1224.438939484629 818.3459910274607 1224.438939484629 817.8584990836607 C1224.438939484629 817.37816472545 1224.3682259884474 816.954314928214 1224.2269714680253 816.5940210415704 C1224.092702061251 816.2337271549268 1223.8878916302365 815.9511318781124 1223.6194390526584 815.7533065607454 C1223.3509864750804 815.5484098937598 1223.0189779869097 815.4495834710472 1222.6233273521752 815.4495834710472 C1222.2206916037935 815.4495834710472 1221.8816117660047 815.5554812433779 1221.6131591884266 815.7603779103636 C1221.3376352612304 815.9723459269671 1221.132738594245 816.2619263174286 1220.9985554234413 816.6292915536903 C1220.8642860166667 816.9895854403339 1220.793658756456 817.3992925383336 1220.793658756456 817.8584990836607 C1220.793658756456 818.324776978606 1220.8642860166667 818.7415554262241 1220.9985554234413 819.1089206624858 C1221.1398099438632 819.4833572483656 1221.3447066108486 819.7730238747986 1221.6131591884266 819.991977005049 C1221.8885968796517 820.2039450216525 1222.227762953412 820.3099290299547 1222.6233273521752 820.3099290299547 Z M1229.1933010352348 821.3271685433215 L1227.1516644229116 814.3899158599713 L1228.5504118717768 814.3899158599713 L1229.9068174589036 819.4833572483656 L1229.9774447191144 819.4833572483656 L1231.3408354198882 814.3899158599713 L1232.732597755106 814.3899158599713 L1234.0889171062615 819.462143199511 L1234.1595443664728 819.462143199511 L1235.5088786039814 814.3899158599713 L1236.900554703228 814.3899158599713 L1234.8659894405237 821.3271685433215 L1233.488456040513 821.3271685433215 L1232.0826372420297 816.3184971143739 L1231.9766532337283 816.3184971143739 L1230.570834435245 821.3271685433215 L1229.1933010352348 821.3271685433215 Z M1240.2067555936123 821.4825657629794 C1239.7616917475216 821.4825657629794 1239.366127348758 821.3977958035323 1239.0129048117328 821.2353272342561 C1238.6596822747074 821.0728586649795 1238.377086997893 820.8326914858744 1238.1651189812894 820.5218108105869 C1237.960222314304 820.2039450216525 1237.8613958915912 819.8224370861547 1237.8613958915912 819.3703018904457 C1237.8613958915912 818.9747374916822 1237.9320231518022 818.6567854667767 1238.0874203714602 818.4024755884352 C1238.2357462415002 818.1481657100933 1238.4406429084859 817.9503403927263 1238.6949527868273 817.8020145226862 C1238.949262665169 817.6536886526462 1239.2389292916018 817.5406332947264 1239.5567950805362 817.4629346848972 C1239.867675755823 817.3923074246864 1240.192612894376 817.335736627741 1240.5175500329285 817.2933947660026 C1240.9344147165173 817.2438953186756 1241.2734945543066 817.2086248065557 1241.527804432648 817.1803394080828 C1241.7891856606082 817.1449826599919 1241.979939628357 817.0884980990174 1242.092994986277 817.0178708388064 C1242.2130354578442 816.9472435785958 1242.2696062547896 816.8271168710576 1242.2696062547896 816.6646483017812 L1242.2696062547896 816.6363629033085 C1242.2696062547896 816.240798504545 1242.163622246488 815.936989178876 1241.9375115306477 815.7180360486254 C1241.7185584003971 815.4989966824032 1241.3865499122264 815.3930126741018 1240.955628765372 815.3930126741018 C1240.496422220045 815.3930126741018 1240.1431996830195 815.4919253327853 1239.8818184550598 815.6968219997707 C1239.6204372270997 815.8946473171382 1239.4438259585872 816.1136004473885 1239.3378419502853 816.3608389761123 L1238.073277672224 816.0712585856504 C1238.2216035422641 815.6473225524435 1238.4406429084859 815.3082427146544 1238.7303095349182 815.0539328363129 C1239.0269612749983 814.7854802587347 1239.3590559991399 814.601797640604 1239.740477698667 814.4817571690367 C1240.1149142845468 814.3616304614984 1240.5175500329285 814.298074550906 1240.9344147165173 814.298074550906 C1241.2099386437137 814.298074550906 1241.5065903837935 814.333345063026 1241.8174710590808 814.3969009736184 C1242.1282654983972 814.4605431201819 1242.4179321248296 814.5805835917492 1242.6934560520258 814.7501235106438 C1242.968979979222 814.9267347791565 1243.187933109473 815.1669881942328 1243.3645443779856 815.4919253327853 C1243.541155646498 815.8028060080728 1243.6259256059454 816.2125131060725 1243.6259256059454 816.7211328627557 L1243.6259256059454 821.3271685433215 L1242.3048767669095 821.3271685433215 L1242.3048767669095 820.3805562901655 L1242.2554635555534 820.3805562901655 C1242.163622246488 820.55009620906 1242.0364241893317 820.7267074775725 1241.859812920819 820.8962473964668 C1241.6832016523063 821.0587159657432 1241.4642485220554 821.1999704861651 1241.1887245948592 821.3130258440851 C1240.9132006676627 821.426081202005 1240.5882635291105 821.4825657629794 1240.2067555936123 821.4825657629794 Z M1240.496422220045 820.3946989894016 C1240.870772569954 820.3946989894016 1241.1887245948592 820.3239854932199 1241.4571771724372 820.1756596231801 C1241.7256297500155 820.0273337531398 1241.9234550673825 819.8365797853908 1242.0647095878044 819.5964126062856 C1242.205964108226 819.3561591912096 1242.276677604408 819.1018493128677 1242.276677604408 818.8263253856712 L1242.276677604408 817.9291263438718 C1242.2271781570805 817.978625791199 1242.1353368480152 818.028039002555 1241.9940823275933 818.0633957506461 C1241.859812920819 818.105737612384 1241.7044157011608 818.1410943604753 1241.527804432648 818.169379758948 C1241.3582645137537 818.1975789214498 1241.1887245948592 818.2258643199225 1241.0191846759649 818.247078368777 C1240.8567161066887 818.2682924176318 1240.7153753502957 818.2894202305151 1240.6024062283466 818.3035629297515 C1240.3409387644156 818.3318483282244 1240.1007715853104 818.3883328891989 1239.8888898046778 818.4660314990276 C1239.6769217880744 818.5438163448282 1239.5003105195617 818.6567854667767 1239.3731124624053 818.8051975727878 C1239.2460006412198 818.9535234428279 1239.1824447306274 819.1442774105767 1239.1824447306274 819.3844445896818 C1239.1824447306274 819.716453077853 1239.3095565518126 819.9707629561944 1239.5567950805362 820.1473742247072 C1239.7970484956124 820.3099290299547 1240.1149142845468 820.3946989894016 1240.496422220045 820.3946989894016 Z M1246.7767292766716 812.0798266700701 L1246.7767292766716 821.3271685433215 L1245.427395039163 821.3271685433215 L1245.427395039163 812.0798266700701 L1246.7767292766716 812.0798266700701 Z "></path>
    </defs>
    <g>
      <use xmlns:xlink="http://www.w3.org/1999/xlink" xlink:href="#s-Path_61-02671" fill="#000000" fill-opacity="1.0" filter="none"></use>
    </g>
  </g>
</svg>
